<svg width="36" height="13" viewBox="0 0 36 13" fill="none" xmlns="http://www.w3.org/2000/svg">
<path d="M2.44 11.216V2.128L3.032 2.896L0.76 4.048L0.296 2.224L3.352 0.639999H4.504V11.216H2.44ZM0.568 12V10.08H6.424V12H0.568ZM11.6154 12.112C10.8367 12.112 10.1327 11.9467 9.50338 11.616C8.87404 11.2747 8.35138 10.784 7.93538 10.144L9.08738 8.896C9.55671 9.41867 9.97804 9.78133 10.3514 9.984C10.7247 10.176 11.1354 10.272 11.5834 10.272C11.9887 10.272 12.3514 10.1867 12.6714 10.016C12.9914 9.83467 13.2474 9.59467 13.4394 9.296C13.6314 8.98667 13.7274 8.65067 13.7274 8.288C13.7274 7.89333 13.6367 7.54667 13.4554 7.248C13.274 6.93867 13.0287 6.69333 12.7194 6.512C12.41 6.33067 12.058 6.24 11.6634 6.24C11.45 6.24 11.2474 6.256 11.0554 6.288C10.8634 6.32 10.6394 6.384 10.3834 6.48C10.138 6.576 9.82338 6.72533 9.43938 6.928L8.44738 5.584L9.10338 0.768H15.2954V2.608H10.2714L10.7354 2.096L10.2074 5.648L9.61538 5.232C9.75404 5.104 9.95671 4.98133 10.2234 4.864C10.5007 4.74667 10.7994 4.65067 11.1194 4.576C11.4394 4.50133 11.754 4.464 12.0634 4.464C12.7567 4.464 13.3754 4.624 13.9194 4.944C14.4634 5.264 14.8954 5.70667 15.2154 6.272C15.5354 6.82667 15.6954 7.46667 15.6954 8.192C15.6954 8.928 15.514 9.59467 15.1514 10.192C14.7994 10.7787 14.314 11.248 13.6954 11.6C13.0767 11.9413 12.3834 12.112 11.6154 12.112ZM21.6494 12.16C20.7427 12.16 19.964 11.9307 19.3134 11.472C18.6734 11.0027 18.1774 10.3413 17.8254 9.488C17.484 8.624 17.3134 7.59467 17.3134 6.4C17.3134 5.20533 17.484 4.18133 17.8254 3.328C18.1774 2.464 18.6734 1.80267 19.3134 1.344C19.964 0.874666 20.7427 0.639999 21.6494 0.639999C22.556 0.639999 23.3347 0.874666 23.9854 1.344C24.636 1.80267 25.132 2.464 25.4734 3.328C25.8254 4.18133 26.0014 5.20533 26.0014 6.4C26.0014 7.59467 25.8254 8.624 25.4734 9.488C25.132 10.3413 24.636 11.0027 23.9854 11.472C23.3347 11.9307 22.556 12.16 21.6494 12.16ZM21.6494 10.336C22.396 10.336 22.972 9.99467 23.3774 9.312C23.7934 8.61867 24.0014 7.648 24.0014 6.4C24.0014 5.14133 23.7934 4.16533 23.3774 3.472C22.972 2.77867 22.396 2.432 21.6494 2.432C20.9027 2.432 20.3214 2.77867 19.9054 3.472C19.5 4.16533 19.2974 5.14133 19.2974 6.4C19.2974 7.648 19.5 8.61867 19.9054 9.312C20.3214 9.99467 20.9027 10.336 21.6494 10.336ZM27.4391 8.336V6.672H35.4551V8.336H27.4391ZM30.4951 11.344V3.584H32.3831V11.344H30.4951Z" fill="black"/>
</svg>
