<svg width="32" height="32" viewBox="0 0 32 32" fill="none" xmlns="http://www.w3.org/2000/svg">
<path d="M12 22.6667V21.9167C11.5858 21.9167 11.25 22.2525 11.25 22.6667H12ZM20 22.6667H20.75C20.75 22.2525 20.4142 21.9167 20 21.9167V22.6667ZM12 23.4167H20V21.9167H12V23.4167ZM19.25 22.6667V24H20.75V22.6667H19.25ZM12.75 24V22.6667H11.25V24H12.75ZM16 27.25C14.2051 27.25 12.75 25.7949 12.75 24H11.25C11.25 26.6234 13.3766 28.75 16 28.75V27.25ZM19.25 24C19.25 25.7949 17.7949 27.25 16 27.25V28.75C18.6234 28.75 20.75 26.6234 20.75 24H19.25Z" fill="#282828"/>
<path d="M5.72402 19.6094L5.19369 19.0791H5.19369L5.72402 19.6094ZM6.40512 18.9283L6.93545 19.4587H6.93545L6.40512 18.9283ZM25.5952 18.9283L26.1255 18.398V18.398L25.5952 18.9283ZM26.2763 19.6094L26.8067 19.0791L26.8067 19.0791L26.2763 19.6094ZM16.0001 3.99994L16.0001 4.74994L16.0001 3.99994ZM25.3335 21.9166H6.66683V23.4166H25.3335V21.9166ZM6.0835 21.3333V20.5522H4.5835V21.3333H6.0835ZM6.25435 20.1398L6.93545 19.4587L5.87479 18.398L5.19369 19.0791L6.25435 20.1398ZM7.41683 18.2965V13.3333H5.91683V18.2965H7.41683ZM24.5835 13.3333V18.2965H26.0835V13.3333H24.5835ZM25.0649 19.4586L25.746 20.1398L26.8067 19.0791L26.1255 18.398L25.0649 19.4586ZM25.9168 20.5522V21.3333H27.4168V20.5522H25.9168ZM25.746 20.1398C25.8554 20.2492 25.9168 20.3975 25.9168 20.5522H27.4168C27.4168 19.9997 27.1973 19.4698 26.8067 19.0791L25.746 20.1398ZM24.5835 18.2965C24.5835 18.7324 24.7566 19.1504 25.0649 19.4586L26.1255 18.398C26.0986 18.3711 26.0835 18.3345 26.0835 18.2965H24.5835ZM26.0835 13.3333C26.0835 7.76439 21.569 3.24993 16.0001 3.24994L16.0001 4.74994C20.7406 4.74993 24.5835 8.59282 24.5835 13.3333H26.0835ZM7.41683 13.3333C7.41683 8.59284 11.2597 4.74995 16.0001 4.74994L16.0001 3.24994C10.4313 3.24995 5.91683 7.76441 5.91683 13.3333H7.41683ZM6.93545 19.4587C7.24367 19.1504 7.41683 18.7324 7.41683 18.2965H5.91683C5.91683 18.3346 5.90171 18.3711 5.87479 18.398L6.93545 19.4587ZM6.0835 20.5522C6.0835 20.3975 6.14495 20.2492 6.25435 20.1398L5.19369 19.0791C4.80299 19.4698 4.5835 19.9997 4.5835 20.5522H6.0835ZM6.66683 21.9166C6.34466 21.9166 6.0835 21.6555 6.0835 21.3333H4.5835C4.5835 22.4839 5.51624 23.4166 6.66683 23.4166V21.9166ZM25.3335 23.4166C26.4841 23.4166 27.4168 22.4839 27.4168 21.3333H25.9168C25.9168 21.6555 25.6557 21.9166 25.3335 21.9166V23.4166Z" fill="#282828"/>
<path d="M24.0244 2.68488C25.8634 4.07063 27.3121 5.909 28.2295 8.02096" stroke="#282828" stroke-width="1.5" stroke-linecap="round" stroke-linejoin="round"/>
<path d="M7.97612 2.68488C6.13716 4.07063 4.68843 5.909 3.771 8.02096" stroke="#282828" stroke-width="1.5" stroke-linecap="round" stroke-linejoin="round"/>
</svg>
