<svg width="22" height="22" viewBox="0 0 22 22" fill="none" xmlns="http://www.w3.org/2000/svg">
<path d="M2.97355 5.57076C3.54866 5.16879 4.41562 5.24588 4.932 5.67232L4.33975 4.81149C3.86314 4.13175 4.03384 3.39633 4.71419 2.91911C5.39454 2.44372 7.3224 3.72183 7.3224 3.72183C6.84151 3.03536 6.93144 2.16534 7.61791 1.68384C8.30438 1.20417 9.25148 1.36997 9.73238 2.05766L16.1076 11.0637L15.2951 18.941L8.51424 16.468L2.59972 7.69869C2.11455 7.00794 2.28219 6.05533 2.97355 5.57076Z" fill="#EF9645"/>
<path d="M1.64861 10.581C1.64861 10.581 0.956019 9.57145 1.96614 8.87948C2.97504 8.1875 3.66702 9.1964 3.66702 9.1964L6.87971 13.8818C6.99045 13.697 7.11159 13.5147 7.2468 13.3348L2.78782 6.83292C2.78782 6.83292 2.09585 5.82402 3.10536 5.13205C4.11426 4.44007 4.80623 5.44897 4.80623 5.44897L9.00029 11.5654C9.15631 11.4381 9.316 11.3103 9.48058 11.1848L4.6184 4.09317C4.6184 4.09317 3.92643 3.08427 4.93594 2.3923C5.94484 1.70032 6.63681 2.70922 6.63681 2.70922L11.499 9.79966C11.6776 9.69014 11.8545 9.59531 12.0319 9.49497L7.48725 2.86768C7.48725 2.86768 6.79528 1.85878 7.80418 1.16681C8.81308 0.474837 9.50505 1.48374 9.50505 1.48374L14.3103 8.49158L15.0408 9.55738C12.0135 11.6339 11.7254 15.5404 13.455 18.063C13.8007 18.5677 14.3054 18.222 14.3054 18.222C12.2295 15.1941 12.8634 11.7918 15.8913 9.71584L14.9986 5.24829C14.9986 5.24829 14.6652 4.07114 15.8417 3.73709C17.0189 3.40364 17.3529 4.58079 17.3529 4.58079L18.3839 7.64237C18.7926 8.85623 19.2276 10.0658 19.8033 11.2099C21.4289 14.4404 20.4579 18.4551 17.3927 20.558C14.0491 22.8505 9.47813 21.9982 7.18501 18.6552L1.64861 10.581Z" fill="#FFDC5D"/>
<path d="M7.34219 19.5784C4.89489 19.5784 2.42189 17.1054 2.42189 14.6581C2.42189 14.3198 2.1741 14.0463 1.83576 14.0463C1.49742 14.0463 1.19824 14.3198 1.19824 14.6581C1.19824 18.329 3.67124 20.802 7.34219 20.802C7.68053 20.802 7.95401 20.5029 7.95401 20.1645C7.95401 19.8262 7.68053 19.5784 7.34219 19.5784Z" fill="#F5805A"/>
<path d="M4.28277 20.7763C2.4473 20.7763 1.22365 19.5527 1.22365 17.7172C1.22365 17.3789 0.950164 17.1054 0.611825 17.1054C0.273486 17.1054 0 17.3789 0 17.7172C0 20.1645 1.83547 22 4.28277 22C4.62111 22 4.8946 21.7265 4.8946 21.3882C4.8946 21.0498 4.62111 20.7763 4.28277 20.7763ZM14.6838 1.19794C14.3461 1.19794 14.072 1.47203 14.072 1.80976C14.072 2.14749 14.3461 2.42159 14.6838 2.42159C17.1311 2.42159 19.5784 4.61743 19.5784 7.31619C19.5784 7.65391 19.8525 7.92801 20.1902 7.92801C20.5279 7.92801 20.802 7.65391 20.802 7.31619C20.802 3.94258 18.3547 1.19794 14.6838 1.19794Z" fill="#F5805A"/>
<path d="M17.7427 0C17.405 0 17.1309 0.248401 17.1309 0.586128C17.1309 0.923856 17.405 1.22365 17.7427 1.22365C19.5782 1.22365 20.7761 2.58496 20.7761 4.25708C20.7761 4.59481 21.0753 4.8689 21.4136 4.8689C21.752 4.8689 21.9998 4.59481 21.9998 4.25708C21.9998 1.90951 20.19 0 17.7427 0Z" fill="#F5805A"/>
</svg>
