<svg width="39" height="39" viewBox="0 0 39 39" fill="none" xmlns="http://www.w3.org/2000/svg">
<path d="M29.8597 1.82812C27.7587 1.82812 25.7437 2.66275 24.2581 4.14839C22.7724 5.63403 21.9378 7.64899 21.9378 9.75V10.2497L19.2383 17.6719H23.1566V21.9375H29.8597V24.9844H37.7816V9.75C37.7816 7.64899 36.9469 5.63403 35.4613 4.14839C33.9757 2.66275 31.9607 1.82813 29.8597 1.82812Z" fill="#63C8CD"/>
<path d="M27.0441 11.5781C26.1099 11.5777 25.2138 11.2075 24.5518 10.5483L25.4171 9.68298C25.8489 10.1139 26.434 10.3559 27.0441 10.3559C27.6542 10.3559 28.2393 10.1139 28.6711 9.68298L29.5364 10.5483C28.8744 11.2075 27.9783 11.5777 27.0441 11.5781Z" fill="#1895AA"/>
<path d="M17.0625 23.0466V22.5469C17.0625 20.4459 16.2279 18.4309 14.7422 16.9453C13.2566 15.4596 11.2416 14.625 9.14063 14.625C7.03961 14.625 5.02465 15.4596 3.53901 16.9453C2.05337 18.4309 1.21875 20.4459 1.21875 22.5469V37.7812H9.14063V34.7344H15.8438V30.4688H19.762L17.0625 23.0466Z" fill="#EF9F35"/>
<path d="M11.956 24.375C11.0217 24.3746 10.1257 24.0043 9.46363 23.3452L10.3594 22.4798C10.7912 22.9108 11.3764 23.1528 11.9864 23.1528C12.5965 23.1528 13.1816 22.9108 13.6135 22.4798L14.4788 23.3452C14.1473 23.6752 13.7537 23.9362 13.3206 24.113C12.8876 24.2898 12.4237 24.3788 11.956 24.375ZM19.5 6.70312H20.7188V7.92188H19.5V6.70312ZM7.92191 9.75V11.3283L7.13582 10.5361L6.27051 11.4014L8.53129 13.6561L10.7921 11.4014L9.92676 10.5361L9.14066 11.3283V9.75C9.14066 9.26515 9.33327 8.80016 9.67611 8.45732C10.0189 8.11448 10.4839 7.92188 10.9688 7.92188H18.2813V6.70312H10.9688C10.1607 6.70313 9.38572 7.02413 8.81432 7.59553C8.24292 8.16693 7.92191 8.94192 7.92191 9.75ZM36.3858 28.208L34.125 25.9533L31.8643 28.208L32.7296 29.0733L33.5157 28.2811V31.0781C33.5157 31.563 33.3231 32.028 32.9802 32.3708C32.6374 32.7136 32.1724 32.9062 31.6875 32.9062H19.5V34.125H31.6875C32.4956 34.125 33.2706 33.804 33.842 33.2326C34.4134 32.6612 34.7344 31.8862 34.7344 31.0781V28.2811L35.5205 29.0733L36.3858 28.208ZM17.0625 32.9062H18.2813V34.125H17.0625V32.9062Z" fill="#5A5A60"/>
</svg>
