<svg width="70" height="25" viewBox="0 0 70 25" fill="none" xmlns="http://www.w3.org/2000/svg">
<rect width="70" height="25" rx="12.5" fill="#603BE5"/>
<path d="M24.333 12.5L14.333 7.16666V17.8333L24.333 12.5Z" fill="#FCFCFC" stroke="#FCFCFC" stroke-linecap="round" stroke-linejoin="round"/>
<path d="M36.236 17V8.6H39.56C40 8.6 40.396 8.708 40.748 8.924C41.1 9.14 41.38 9.44 41.588 9.824C41.796 10.2 41.9 10.624 41.9 11.096C41.9 11.592 41.796 12.036 41.588 12.428C41.38 12.812 41.1 13.12 40.748 13.352C40.396 13.576 40 13.688 39.56 13.688H37.172V17H36.236ZM37.172 12.776H39.608C39.856 12.776 40.076 12.704 40.268 12.56C40.468 12.408 40.628 12.208 40.748 11.96C40.868 11.704 40.928 11.412 40.928 11.084C40.928 10.788 40.868 10.524 40.748 10.292C40.628 10.052 40.468 9.864 40.268 9.728C40.076 9.584 39.856 9.512 39.608 9.512H37.172V12.776ZM43.3648 17V8.12H44.2648V17H43.3648ZM48.367 17.12C47.823 17.12 47.331 16.98 46.891 16.7C46.451 16.412 46.103 16.024 45.847 15.536C45.591 15.04 45.463 14.48 45.463 13.856C45.463 13.224 45.595 12.664 45.859 12.176C46.123 11.688 46.475 11.304 46.915 11.024C47.363 10.744 47.863 10.604 48.415 10.604C48.743 10.604 49.047 10.652 49.327 10.748C49.607 10.844 49.855 10.98 50.071 11.156C50.295 11.324 50.479 11.524 50.623 11.756C50.775 11.98 50.879 12.224 50.935 12.488L50.671 12.356L50.707 10.736H51.607V17H50.695V15.464L50.935 15.308C50.879 15.548 50.771 15.78 50.611 16.004C50.451 16.22 50.255 16.412 50.023 16.58C49.799 16.748 49.543 16.88 49.255 16.976C48.975 17.072 48.679 17.12 48.367 17.12ZM48.571 16.256C48.987 16.256 49.359 16.156 49.687 15.956C50.015 15.748 50.271 15.464 50.455 15.104C50.647 14.736 50.743 14.32 50.743 13.856C50.743 13.392 50.647 12.98 50.455 12.62C50.271 12.26 50.015 11.976 49.687 11.768C49.359 11.56 48.987 11.456 48.571 11.456C48.147 11.456 47.771 11.56 47.443 11.768C47.123 11.976 46.867 12.26 46.675 12.62C46.491 12.98 46.399 13.392 46.399 13.856C46.399 14.312 46.491 14.724 46.675 15.092C46.859 15.452 47.115 15.736 47.443 15.944C47.771 16.152 48.147 16.256 48.571 16.256ZM54.2758 19.76L55.4878 16.808L55.5718 17.66L52.4278 10.736H53.4478L55.5958 15.536C55.6598 15.664 55.7238 15.816 55.7878 15.992C55.8518 16.16 55.9118 16.328 55.9678 16.496L55.6318 16.46C55.6878 16.324 55.7398 16.184 55.7878 16.04C55.8438 15.896 55.8958 15.756 55.9438 15.62L57.8278 10.736H58.8598L56.3278 17L55.2478 19.76H54.2758Z" fill="#FCFCFC"/>
</svg>
