<svg width="61" height="24" viewBox="0 0 61 24" fill="none" xmlns="http://www.w3.org/2000/svg">
<path d="M8 19.9998V20.7498C8.19891 20.7498 8.38968 20.6708 8.53033 20.5302L8 19.9998ZM4 19.9998H3.25C3.25 20.4141 3.58579 20.7498 4 20.7498V19.9998ZM4 15.9998L3.46967 15.4695C3.32902 15.6102 3.25 15.8009 3.25 15.9998H4ZM15.2929 4.70696L15.8232 5.23729L15.8232 5.23729L15.2929 4.70696ZM16.7071 4.70696L16.1768 5.23729L16.1768 5.23729L16.7071 4.70696ZM19.2929 7.29274L19.8232 6.76241L19.8232 6.76241L19.2929 7.29274ZM19.2929 8.70696L18.7626 8.17663L19.2929 8.70696ZM8 19.2498H4V20.7498H8V19.2498ZM4.75 19.9998V15.9998H3.25V19.9998H4.75ZM4.53033 16.5302L15.8232 5.23729L14.7626 4.17663L3.46967 15.4695L4.53033 16.5302ZM16.1768 5.23729L18.7626 7.82307L19.8232 6.76241L17.2374 4.17663L16.1768 5.23729ZM18.7626 8.17663L7.46967 19.4695L8.53033 20.5302L19.8232 9.23729L18.7626 8.17663ZM18.7626 7.82307C18.8602 7.9207 18.8602 8.07899 18.7626 8.17663L19.8232 9.23729C20.5066 8.55387 20.5066 7.44583 19.8232 6.76241L18.7626 7.82307ZM15.8232 5.23729C15.9209 5.13965 16.0791 5.13965 16.1768 5.23729L17.2374 4.17663C16.554 3.49321 15.446 3.49321 14.7626 4.17663L15.8232 5.23729Z" fill="#14181F"/>
<path d="M12 8L16 12" stroke="#14181F" stroke-width="1.5" stroke-linecap="round" stroke-linejoin="round"/>
<path d="M31.568 18V6.8H38.624V8.464H33.296V16.336H38.624V18H31.568ZM32.352 13.088V11.424H37.744V13.088H32.352ZM44.406 18.16C43.638 18.16 42.95 17.9733 42.342 17.6C41.7447 17.216 41.27 16.6987 40.918 16.048C40.566 15.3867 40.39 14.6347 40.39 13.792C40.39 12.9493 40.5607 12.2027 40.902 11.552C41.254 10.8907 41.7287 10.3733 42.326 10C42.9233 9.616 43.6007 9.424 44.358 9.424C44.774 9.424 45.174 9.49333 45.558 9.632C45.9527 9.76 46.3047 9.94133 46.614 10.176C46.9233 10.4 47.1633 10.6507 47.334 10.928C47.5153 11.1947 47.606 11.4667 47.606 11.744L47.126 11.776V6.16H48.774V18H47.126V16H47.446C47.446 16.256 47.3607 16.512 47.19 16.768C47.0193 17.0133 46.79 17.2427 46.502 17.456C46.2247 17.6693 45.8993 17.84 45.526 17.968C45.1633 18.096 44.79 18.16 44.406 18.16ZM44.63 16.736C45.1313 16.736 45.574 16.608 45.958 16.352C46.342 16.096 46.6407 15.7493 46.854 15.312C47.078 14.864 47.19 14.3573 47.19 13.792C47.19 13.2267 47.078 12.7253 46.854 12.288C46.6407 11.84 46.342 11.488 45.958 11.232C45.574 10.976 45.1313 10.848 44.63 10.848C44.1287 10.848 43.686 10.976 43.302 11.232C42.918 11.488 42.614 11.84 42.39 12.288C42.1767 12.7253 42.07 13.2267 42.07 13.792C42.07 14.3573 42.1767 14.864 42.39 15.312C42.614 15.7493 42.918 16.096 43.302 16.352C43.686 16.608 44.1287 16.736 44.63 16.736ZM51.3146 18V9.6H52.9626V18H51.3146ZM52.1146 7.744C51.7626 7.744 51.4906 7.65333 51.2986 7.472C51.1066 7.29067 51.0106 7.03467 51.0106 6.704C51.0106 6.39467 51.1066 6.144 51.2986 5.952C51.5013 5.76 51.7733 5.664 52.1146 5.664C52.4666 5.664 52.7386 5.75467 52.9306 5.936C53.1226 6.11733 53.2186 6.37333 53.2186 6.704C53.2186 7.01333 53.1173 7.264 52.9146 7.456C52.7226 7.648 52.456 7.744 52.1146 7.744ZM56.5358 18V7.456H58.1838V18H56.5358ZM54.7918 11.2V9.6H60.1358V11.2H54.7918Z" fill="black"/>
</svg>
