<svg width="96" height="96" viewBox="0 0 96 96" fill="none" xmlns="http://www.w3.org/2000/svg">
<path d="M57.094 50.5011L48.049 66.1686L48.0003 66.2511L31.9071 94.1248C31.8263 94.2651 31.7105 94.3821 31.571 94.4642C31.4315 94.5464 31.273 94.5909 31.1111 94.5936C30.9493 94.5962 30.7895 94.5569 30.6473 94.4793C30.5052 94.4017 30.3856 94.2887 30.3003 94.1511L25.1084 85.7867C25.0271 85.6553 24.9145 85.5461 24.7807 85.4688C24.6469 85.3916 24.496 85.3488 24.3415 85.3442L14.5034 85.0311C14.3414 85.0259 14.1835 84.9788 14.0451 84.8945C13.9067 84.8101 13.7926 84.6912 13.7138 84.5496C13.6351 84.4079 13.5944 84.2483 13.5957 84.0862C13.5971 83.9241 13.6404 83.7652 13.7215 83.6248L27.799 59.2405L38.9065 40.0011L57.094 50.5011Z" fill="#FFE64E"/>
<path d="M81.4969 85.0311L71.6587 85.3442C71.5043 85.3488 71.3534 85.3916 71.2195 85.4689C71.0857 85.5461 70.9731 85.6553 70.8919 85.7867L65.7 94.1511C65.6146 94.2887 65.495 94.4018 65.3529 94.4793C65.2108 94.5569 65.051 94.5962 64.8891 94.5936C64.7272 94.591 64.5688 94.5464 64.4293 94.4642C64.2898 94.3821 64.1739 94.2651 64.0931 94.1249L48 66.2511L47.9512 66.1686L38.9062 50.5011L57.0937 40.0011L68.2012 59.2405L82.2787 83.6249C82.3598 83.7652 82.4032 83.9241 82.4045 84.0862C82.4058 84.2483 82.3652 84.4079 82.2864 84.5496C82.2076 84.6912 82.0935 84.8101 81.9551 84.8945C81.8167 84.9788 81.6589 85.0259 81.4969 85.0311Z" fill="#FFE64E"/>
<path d="M81.5679 33.5375C81.5679 36.9563 77.3682 39.6697 76.3665 42.7547C75.3284 45.952 77.0951 50.6088 75.1583 53.2701C73.2021 55.9581 68.2142 55.7073 65.5263 57.6635C62.865 59.6003 61.5729 64.4323 58.3756 65.4704C55.2907 66.4721 51.4192 63.3551 48.0003 63.3551C44.5814 63.3551 40.7099 66.4721 37.625 65.4705C34.4277 64.4323 33.1356 59.6003 30.4742 57.6635C27.7863 55.7073 22.7984 55.9581 20.8422 53.2701C18.9054 50.6088 20.6722 45.952 19.634 42.7548C18.6323 39.6698 14.4326 36.9564 14.4326 33.5375C14.4326 30.1186 18.6323 27.4053 19.634 24.3203C20.6721 21.123 18.9054 16.4662 20.8422 13.8049C22.7984 11.1169 27.7863 11.3677 30.4742 9.4115C33.1355 7.47469 34.4276 2.64272 37.6249 1.60457C40.7098 0.602887 44.5813 3.71986 48.0003 3.71986C51.4191 3.71986 55.2906 0.602864 58.3755 1.60453C61.5728 2.64268 62.8649 7.47466 65.5263 9.4115C68.2142 11.3677 73.2021 11.1169 75.1583 13.8049C77.0951 16.4662 75.3283 21.1229 76.3665 24.3202C77.3682 27.4052 81.5679 30.1186 81.5679 33.5375Z" fill="#FFCD85"/>
<path d="M68.2013 59.2405C67.2076 59.5555 66.2776 59.9286 65.5257 60.4761C62.8651 62.413 61.5732 67.2449 58.3763 68.2836C55.3051 69.2792 51.4557 66.1967 48.0488 66.1686C48.0164 66.1661 47.9838 66.1661 47.9513 66.1686C44.5445 66.1967 40.6951 69.2792 37.6257 68.2836C34.427 67.2448 33.1351 62.413 30.4745 60.4761C29.7226 59.9286 28.7926 59.5555 27.7988 59.2405L38.9063 40.0011L48.0001 45.2511L57.0938 40.0011L68.2013 59.2405Z" fill="#FFD815"/>
<path d="M81.5679 33.5375C81.5679 36.9563 77.3682 39.6697 76.3665 42.7547C75.3284 45.952 77.0951 50.6088 75.1583 53.2701C73.2021 55.9581 68.2142 55.7073 65.5263 57.6635C62.865 59.6003 61.5729 64.4323 58.3756 65.4704C55.2907 66.4721 51.4192 63.3551 48.0003 63.3551C44.5814 63.3551 40.7099 66.4721 37.625 65.4705C34.4277 64.4323 33.1356 59.6003 30.4742 57.6635C27.7863 55.7073 22.7984 55.9581 20.8422 53.2701C18.9054 50.6088 20.6722 45.952 19.634 42.7548C18.6323 39.6698 14.4326 36.9564 14.4326 33.5375C14.4326 30.1186 18.6323 27.4053 19.634 24.3203C20.6721 21.123 18.9054 16.4662 20.8422 13.8049C22.7984 11.1169 27.7863 11.3677 30.4742 9.4115C33.1355 7.47469 34.4276 2.64272 37.6249 1.60457C40.7098 0.602887 44.5813 3.71986 48.0003 3.71986C51.4191 3.71986 55.2906 0.602864 58.3755 1.60453C61.5728 2.64268 62.8649 7.47466 65.5263 9.4115C68.2142 11.3677 73.2021 11.1169 75.1583 13.8049C77.0951 16.4662 75.3283 21.1229 76.3665 24.3202C77.3682 27.4052 81.5679 30.1186 81.5679 33.5375Z" fill="#FF6635"/>
<path d="M59.7131 44.9095H40.3609C39.9738 44.9095 39.5956 44.794 39.2745 44.5777C38.9535 44.3614 38.7043 44.0543 38.5589 43.6956L33.2178 30.5208L43.3238 35.8868C43.4383 35.9476 43.5639 35.9849 43.693 35.9965C43.8222 36.008 43.9524 35.9936 44.0759 35.9541C44.1994 35.9146 44.3137 35.8508 44.4122 35.7665C44.5107 35.6821 44.5913 35.5789 44.6493 35.4629L50.037 24.6875L55.4247 35.4629C55.4827 35.5789 55.5633 35.6821 55.6618 35.7665C55.7603 35.8508 55.8746 35.9146 55.9982 35.9541C56.1217 35.9936 56.2518 36.008 56.381 35.9965C56.5101 35.9849 56.6357 35.9476 56.7502 35.8868L66.8563 30.5208L61.5151 43.6956C61.3697 44.0543 61.1205 44.3614 60.7995 44.5777C60.4785 44.794 60.1002 44.9095 59.7131 44.9095Z" fill="#FF4E4E"/>
<path d="M50.124 24.6561C51.988 24.6561 53.499 23.145 53.499 21.2811C53.499 19.4171 51.988 17.9061 50.124 17.9061C48.2601 17.9061 46.749 19.4171 46.749 21.2811C46.749 23.145 48.2601 24.6561 50.124 24.6561Z" fill="#FF4E4E"/>
<path d="M68.9678 31.4061C70.5729 31.4061 71.874 30.1049 71.874 28.4998C71.874 26.8947 70.5729 25.5936 68.9678 25.5936C67.3627 25.5936 66.0615 26.8947 66.0615 28.4998C66.0615 30.1049 67.3627 31.4061 68.9678 31.4061Z" fill="#FF4E4E"/>
<path d="M31.0928 31.4061C32.6978 31.4061 33.999 30.1049 33.999 28.4998C33.999 26.8947 32.6978 25.5936 31.0928 25.5936C29.4877 25.5936 28.1865 26.8947 28.1865 28.4998C28.1865 30.1049 29.4877 31.4061 31.0928 31.4061Z" fill="#FF4E4E"/>
<path d="M57.6829 44.9095H38.3306C37.9435 44.9095 37.5653 44.794 37.2443 44.5777C36.9232 44.3614 36.6741 44.0543 36.5286 43.6956L31.1875 30.5208L41.2935 35.8868C41.4081 35.9476 41.5336 35.9849 41.6628 35.9965C41.7919 36.008 41.9221 35.9936 42.0456 35.9541C42.1691 35.9146 42.2835 35.8508 42.382 35.7665C42.4804 35.6821 42.561 35.5789 42.619 35.4629L48.0067 24.6875L53.3944 35.4629C53.4524 35.5789 53.533 35.6821 53.6315 35.7665C53.73 35.8508 53.8444 35.9146 53.9679 35.9541C54.0914 35.9936 54.2216 36.008 54.3507 35.9965C54.4799 35.9849 54.6054 35.9476 54.72 35.8868L64.826 30.5208L59.4848 43.6956C59.3394 44.0543 59.0902 44.3614 58.7692 44.5777C58.4482 44.794 58.0699 44.9095 57.6829 44.9095Z" fill="#FFE64E"/>
<path d="M50.5819 35.4629C50.6399 35.5789 50.7205 35.6821 50.819 35.7665C50.9175 35.8508 51.0319 35.9146 51.1554 35.9541C51.2789 35.9936 51.4091 36.008 51.5382 35.9965C51.6674 35.9849 51.7929 35.9476 51.9074 35.8868L53.25 35.1739L48.0067 24.6875L46.6005 27.5L50.5819 35.4629ZM61.242 32.4238L56.6723 43.6956C56.5269 44.0543 56.2777 44.3614 55.9567 44.5777C55.6357 44.7939 55.2574 44.9095 54.8704 44.9095H57.6829C58.0699 44.9095 58.4482 44.7939 58.7692 44.5777C59.0902 44.3614 59.3394 44.0543 59.4848 43.6956L64.826 30.5208L61.242 32.4238ZM38.481 35.8868C38.5956 35.9476 38.7211 35.9849 38.8503 35.9965C38.9794 36.008 39.1096 35.9936 39.2331 35.9541C39.3566 35.9146 39.471 35.8508 39.5694 35.7665C39.6679 35.6821 39.7485 35.5789 39.8065 35.4629L39.951 35.1739L31.1875 30.5208L31.959 32.4238L38.481 35.8868Z" fill="#FFDF1F"/>
<path d="M60.594 52.149H38.6221C38.2491 52.149 37.8914 52.0008 37.6277 51.7371C37.364 51.4734 37.2158 51.1157 37.2158 50.7427C37.2158 50.3698 37.364 50.0121 37.6277 49.7484C37.8914 49.4846 38.2491 49.3365 38.6221 49.3365H60.594C60.967 49.3365 61.3246 49.4846 61.5884 49.7484C61.8521 50.0121 62.0002 50.3698 62.0002 50.7427C62.0002 51.1157 61.8521 51.4734 61.5884 51.7371C61.3246 52.0008 60.967 52.149 60.594 52.149Z" fill="#FF4E4E"/>
<path d="M58.9924 52.149H37.0205C36.6475 52.149 36.2899 52.0008 36.0261 51.7371C35.7624 51.4733 35.6143 51.1157 35.6143 50.7427C35.6143 50.3697 35.7624 50.0121 36.0261 49.7483C36.2899 49.4846 36.6475 49.3365 37.0205 49.3365H58.9924C59.3654 49.3365 59.7231 49.4846 59.9868 49.7483C60.2505 50.0121 60.3987 50.3697 60.3987 50.7427C60.3987 51.1157 60.2505 51.4733 59.9868 51.7371C59.7231 52.0008 59.3654 52.149 58.9924 52.149Z" fill="#FFE64E"/>
<path d="M48.0938 24.6561C49.9577 24.6561 51.4688 23.145 51.4688 21.2811C51.4688 19.4171 49.9577 17.9061 48.0938 17.9061C46.2298 17.9061 44.7188 19.4171 44.7188 21.2811C44.7188 23.145 46.2298 24.6561 48.0938 24.6561Z" fill="#FFE64E"/>
<path d="M48.0934 17.9061C47.7233 17.9067 47.3559 17.9684 47.0059 18.0886C47.6729 18.3151 48.2521 18.7448 48.6624 19.3174C49.0727 19.89 49.2933 20.5767 49.2933 21.2811C49.2933 21.9855 49.0727 22.6722 48.6624 23.2448C48.2521 23.8174 47.6729 24.2472 47.0059 24.4737C47.4695 24.6317 47.9619 24.6869 48.449 24.6354C48.9361 24.5839 49.4062 24.427 49.8265 24.1756C50.2468 23.9242 50.6074 23.5842 50.8831 23.1794C51.1588 22.7746 51.3431 22.3146 51.4231 21.8313C51.5031 21.3481 51.477 20.8533 51.3465 20.3812C51.216 19.9091 50.9843 19.471 50.6674 19.0975C50.3506 18.724 49.9562 18.424 49.5117 18.2182C49.0672 18.0125 48.5832 17.906 48.0934 17.9061Z" fill="#FFDF1F"/>
<path d="M66.9375 31.4061C68.5426 31.4061 69.8438 30.1049 69.8438 28.4998C69.8438 26.8947 68.5426 25.5936 66.9375 25.5936C65.3324 25.5936 64.0312 26.8947 64.0312 28.4998C64.0312 30.1049 65.3324 31.4061 66.9375 31.4061Z" fill="#FFE64E"/>
<path d="M66.9376 25.5936C66.6056 25.5943 66.2763 25.652 65.9639 25.7644C66.5291 25.9648 67.0185 26.3354 67.3645 26.8253C67.7106 27.3151 67.8964 27.9001 67.8964 28.4999C67.8964 29.0996 67.7106 29.6847 67.3645 30.1745C67.0185 30.6644 66.5291 31.035 65.9639 31.2354C66.3627 31.3775 66.7878 31.4307 67.2094 31.3912C67.631 31.3518 68.0389 31.2206 68.4045 31.007C68.77 30.7934 69.0845 30.5024 69.3258 30.1545C69.5672 29.8066 69.7295 29.4101 69.8015 28.9928C69.8736 28.5756 69.8535 28.1476 69.7428 27.739C69.632 27.3303 69.4333 26.9507 69.1605 26.6269C68.8876 26.3031 68.5473 26.0428 68.1634 25.8643C67.7794 25.6859 67.361 25.5935 66.9376 25.5936Z" fill="#FFDF1F"/>
<path d="M29.0625 31.4061C30.6676 31.4061 31.9688 30.1049 31.9688 28.4998C31.9688 26.8947 30.6676 25.5936 29.0625 25.5936C27.4574 25.5936 26.1562 26.8947 26.1562 28.4998C26.1562 30.1049 27.4574 31.4061 29.0625 31.4061Z" fill="#FFE64E"/>
<path d="M29.0629 25.5936C28.7329 25.5943 28.4055 25.6513 28.0947 25.7623C28.6614 25.962 29.1521 26.3325 29.4992 26.8228C29.8464 27.3131 30.0328 27.8991 30.0328 28.4999C30.0328 29.1007 29.8464 29.6866 29.4992 30.177C29.1521 30.6673 28.6614 31.0378 28.0947 31.2374C28.4937 31.3786 28.9186 31.4309 29.3399 31.3908C29.7611 31.3506 30.1685 31.2188 30.5336 31.0048C30.8986 30.7907 31.2125 30.4995 31.4532 30.1515C31.6939 29.8034 31.8557 29.407 31.9273 28.99C31.9988 28.5729 31.9784 28.1452 31.8674 27.7368C31.7564 27.3285 31.5576 26.9493 31.2848 26.6258C31.0119 26.3023 30.6717 26.0423 30.288 25.8641C29.9042 25.6858 29.4861 25.5935 29.0629 25.5936Z" fill="#FFDF1F"/>
</svg>
