<svg width="207" height="150" viewBox="0 0 207 150" fill="none" xmlns="http://www.w3.org/2000/svg">
<path d="M83.9082 78.9869C83.9082 78.9869 78.468 55.09 106.525 51.6846C120.003 50.0449 127.153 48.9471 130.943 48.2478C131.46 48.1526 131.991 48.1737 132.498 48.3096C133.005 48.4454 133.476 48.6925 133.876 49.0331C134.276 49.3736 134.595 49.799 134.809 50.2782C135.024 50.7574 135.13 51.2785 135.118 51.8035L135.09 53.1006C134.99 58.0627 132.923 62.7821 129.345 66.2214C125.767 69.6607 120.969 71.5384 116.007 71.4419C104.616 71.1972 91.7398 71.9139 89.0232 76.1094" fill="#292F36"/>
<path d="M87.7976 77.7452C89.6819 77.2732 90.9657 75.9174 90.665 74.7167C90.3643 73.5161 88.5931 72.9253 86.7087 73.3972C84.8244 73.8691 83.5406 75.225 83.8413 76.4257C84.142 77.6263 85.9133 78.2171 87.7976 77.7452Z" fill="#FE5E41"/>
<path d="M65.5321 109.785C51.8967 101.866 39.1948 92.3038 28.2446 80.92C22.8317 75.325 17.8876 69.2947 13.4624 62.8899C9.0956 56.5337 5.15882 49.737 2.27442 42.5801C0.715087 38.7343 -0.0785647 34.5073 1.95975 30.6684C2.58208 29.5007 5.10638 24.8926 6.71465 26.9449C6.9524 27.2421 7.36146 26.9134 7.29853 26.5953C6.86849 24.4975 8.95225 22.4942 11.0255 22.9802C11.0851 22.9966 11.148 22.997 11.2078 22.9812C11.2675 22.9654 11.3221 22.9341 11.3658 22.8904C11.4095 22.8466 11.4408 22.7921 11.4566 22.7324C11.4724 22.6726 11.472 22.6097 11.4556 22.5501C11.043 19.5329 14.9763 19.4769 16.7943 20.6062C18.483 21.6551 19.7592 23.599 20.8255 25.2283C21.8534 26.7981 22.752 28.4448 23.6225 30.102C24.179 31.2711 24.8402 32.3875 25.5979 33.4375C25.9056 33.8255 26.3636 34.3919 26.9265 34.308C27.4229 34.2346 27.9579 33.6472 28.276 33.3046C29.1886 32.3256 29.8773 31.1579 30.6884 30.095C31.3597 29.2175 32.4366 27.8015 33.7162 28.2071C35.1147 28.6511 35.73 31.0041 35.321 32.2627C34.0868 36.0387 32.3387 39.881 32.4016 43.9332C32.4366 45.9121 33.1498 47.7791 33.8316 49.6076C34.5678 51.5821 35.4165 53.5129 36.3733 55.3904C40.0899 62.6696 45.4811 68.8615 51.3792 74.452C53.1658 76.1442 54.9979 77.7909 56.8509 79.4166C58.9277 81.2347 61.2736 82.7556 63.5777 84.2729C65.609 85.6085 67.6508 87.0699 69.7975 88.2062C71.6191 89.1555 73.5116 89.962 75.4579 90.6186C75.8845 90.7655 76.0663 90.0907 75.6432 89.9439C73.7597 89.3059 71.9281 88.5239 70.1646 87.6049C68.2102 86.556 66.3502 85.2414 64.4972 84.0317C62.2211 82.5493 59.8542 81.0704 57.7914 79.3013C56.0188 77.7839 54.2951 76.2106 52.582 74.6163C46.3272 68.7636 40.5968 62.285 36.7509 54.5688C35.7517 52.5608 34.8805 50.4915 34.1427 48.3734C33.7554 47.3831 33.4513 46.3621 33.2337 45.3212C33.0594 44.1226 33.0724 42.9042 33.2722 41.7096C33.6417 39.5772 34.2106 37.4843 34.9713 35.4583C35.4888 33.9514 36.4608 32.2697 36.0971 30.6439C35.8139 29.3853 35.2126 27.8889 33.8491 27.5148C32.7582 27.2141 31.7793 27.8644 31.0521 28.6126C30.0626 29.623 29.3354 30.8572 28.4893 31.976C28.1115 32.5318 27.6477 33.0239 27.1153 33.434C26.7307 33.6962 26.6398 33.5563 26.3181 33.2032C26.0091 32.8403 25.733 32.4507 25.493 32.039C23.4477 28.7245 21.9688 25.1548 19.4235 22.1481C18.025 20.4768 16.2769 19.0014 13.9379 19.1902C12.9376 19.2495 11.9942 19.6752 11.2877 20.3859C10.7109 21.0258 10.6794 21.9278 10.7913 22.7389L11.2213 22.3089C8.60962 21.697 6.09581 24.1654 6.63423 26.7841L7.22161 26.4345C5.71822 24.536 3.72536 26.7386 2.76738 28.0392C1.15911 30.2454 0.0507997 32.7557 0.00185219 35.5247C-0.0680728 39.6293 1.85486 43.5346 3.57152 47.1602C5.31534 50.8246 7.25506 54.3924 9.38229 57.8483C18.004 71.8927 29.3704 84.217 42.1562 94.5589C49.4213 100.412 57.1265 105.696 65.2034 110.365C65.2833 110.407 65.3763 110.417 65.4629 110.391C65.5495 110.366 65.6231 110.309 65.6682 110.231C65.7133 110.153 65.7265 110.06 65.7051 109.972C65.6836 109.885 65.6292 109.809 65.5531 109.761L65.5321 109.785Z" fill="#292F36"/>
<path d="M2.00844 29.3751C3.23213 34.5041 5.66202 39.252 8.2003 43.8356C8.42057 44.2306 9.02192 43.8775 8.80515 43.4859C6.29484 38.9408 3.89292 34.2663 2.68322 29.1898C2.57833 28.7527 1.90705 28.938 2.00844 29.3786V29.3751Z" fill="#292F36"/>
<path d="M6.42409 26.529C8.19353 31.242 10.3268 35.8102 12.8048 40.1924C12.8531 40.2685 12.929 40.3229 13.0166 40.3444C13.1042 40.3658 13.1967 40.3526 13.2748 40.3075C13.3528 40.2624 13.4105 40.1888 13.4356 40.1022C13.4607 40.0156 13.4514 39.9226 13.4096 39.8427C10.9638 35.5149 8.85969 31.0026 7.11635 26.3472C6.95902 25.9312 6.28424 26.1095 6.44158 26.5325L6.42409 26.529Z" fill="#292F36"/>
<path d="M10.7282 22.2529C13.0067 27.2488 15.6598 32.0652 18.6647 36.661C18.9095 37.0386 19.5143 36.6854 19.2696 36.3113C16.2647 31.7156 13.6116 26.8992 11.3331 21.9033C11.1478 21.4942 10.5429 21.8474 10.7282 22.2529Z" fill="#292F36"/>
<path d="M19.5595 41.4787C18.8777 44.038 18.8602 46.9923 20.458 49.2369C21.0847 50.1703 21.959 50.9108 22.9829 51.3751C24.0067 51.8395 25.1397 52.0095 26.2548 51.8661C26.6953 51.7997 26.51 51.1249 26.066 51.1948C23.9403 51.5165 21.8705 50.2683 20.7867 48.4642C19.5735 46.4189 19.6399 43.8911 20.2343 41.664C20.2588 41.5745 20.2469 41.479 20.201 41.3983C20.1551 41.3177 20.079 41.2586 19.9895 41.234C19.9001 41.2094 19.8045 41.2214 19.7238 41.2673C19.6432 41.3132 19.5841 41.3892 19.5595 41.4787Z" fill="#292F36"/>
<path d="M16.6719 46.4824C16.9155 46.2719 17.1987 46.1121 17.5049 46.0124C17.8111 45.9128 18.1341 45.8752 18.455 45.902C18.9025 45.9335 18.9025 45.2342 18.455 45.2028C18.0424 45.1761 17.6286 45.2319 17.2378 45.367C16.847 45.5021 16.487 45.7137 16.1789 45.9894C15.8293 46.2831 16.3328 46.7761 16.6719 46.4824Z" fill="#292F36"/>
<path d="M105.728 95.5344C119.664 95.7756 133.52 93.5205 146.862 89.5733C160.203 85.626 173.049 80.053 185.443 73.7388L187.687 72.585C188.429 72.2004 189.327 71.5116 190.152 71.3718C191.575 71.1375 193.281 71.5466 194.624 71.9871C197.386 72.8927 199.749 74.7247 201.707 76.8329C202.74 77.9549 203.685 79.1554 204.532 80.4236C205.403 81.7102 207.14 83.7975 205.798 85.2904C204.836 86.3567 203.179 86.4511 201.851 86.5001C201.376 86.5145 200.909 86.6234 200.477 86.8202C200.044 87.0171 199.656 87.2981 199.333 87.6468C198.473 88.5139 197.868 89.5942 197.092 90.5277C196.11 91.7095 194.715 92.5311 193.414 93.3247C191.851 94.2687 190.17 95.2652 188.355 95.5763C186.541 95.8875 184.799 96.1532 183.023 96.4714C181.247 96.7895 179.447 97.1706 177.695 97.6601C175.942 98.1932 174.219 98.8223 172.535 99.5446C169.098 100.943 165.591 102.156 162.098 103.39C158.606 104.625 155.2 105.838 151.791 107.156C148.382 108.474 144.799 109.537 141.282 110.551C134.245 112.598 127.082 114.184 119.839 115.299C117.963 115.581 116.079 115.828 114.189 116.04C113.749 116.089 113.742 116.788 114.189 116.739C121.627 115.893 128.997 114.526 136.243 112.649C139.96 111.694 143.645 110.621 147.299 109.46C150.879 108.32 154.351 106.908 157.882 105.635C161.542 104.317 165.224 103.048 168.863 101.691C172.433 100.366 175.887 98.7684 179.604 97.8839C181.419 97.4503 183.254 97.1252 185.093 96.835C186.75 96.5588 188.61 96.4854 190.159 95.8141C191.843 95.0746 193.457 94.1841 194.98 93.1534C196.123 92.4567 197.136 91.5685 197.977 90.5277C198.742 89.5243 199.41 88.2762 200.498 87.5839C201.546 86.9266 202.973 87.2343 204.141 86.9406C205.238 86.6644 206.399 86.056 206.833 84.9407C207.375 83.5422 206.483 82.1787 205.784 81.0354C202.819 76.3365 198.505 71.6935 192.743 70.8159C192.069 70.7104 191.387 70.659 190.705 70.6621C189.827 70.6621 189.383 70.9173 188.607 71.3228C187.024 72.155 185.435 72.9707 183.838 73.7702C180.551 75.4274 177.235 77.0241 173.888 78.5601C167.249 81.6154 160.461 84.3366 153.55 86.7133C139.869 91.3703 125.58 94.4226 111.116 94.8107C109.326 94.8549 107.535 94.8619 105.742 94.8316C105.649 94.8316 105.561 94.8685 105.495 94.934C105.429 94.9996 105.393 95.0885 105.393 95.1813C105.393 95.274 105.429 95.3629 105.495 95.4285C105.561 95.494 105.649 95.5309 105.742 95.5309L105.728 95.5344Z" fill="#292F36"/>
<path d="M190.149 78.06C191.156 78.039 192.062 78.3816 192.597 79.2802C192.946 79.8501 193.128 80.5004 193.495 81.0563C194.03 81.8569 194.894 82.9512 195.81 83.2799C196.813 83.6295 197.803 82.9652 198.201 82.0562C198.684 80.9549 198.449 79.6088 198.156 78.4795C197.76 77.1252 197.207 75.8216 196.509 74.5952C195.957 73.5673 195.429 72.3226 194.499 71.571C193.254 70.5675 191.002 70.5465 189.52 70.9171C189.43 70.9417 189.354 71.0008 189.308 71.0815C189.263 71.1621 189.251 71.2577 189.275 71.3472C189.3 71.4367 189.359 71.5127 189.44 71.5586C189.52 71.6045 189.616 71.6165 189.705 71.5919C191.03 71.2598 193.135 71.2668 194.194 72.2352C194.964 72.9345 195.422 74.0463 195.904 74.9483C196.518 76.0355 197.019 77.1823 197.4 78.3711C197.722 79.4725 198.117 81.1157 197.355 82.1156C196.261 83.5456 194.74 81.6716 194.1 80.7171C193.565 79.906 193.362 78.8956 192.635 78.2138C191.948 77.6201 191.056 77.3189 190.149 77.3747C190.057 77.3747 189.968 77.4116 189.902 77.4771C189.836 77.5427 189.8 77.6316 189.8 77.7243C189.8 77.8171 189.836 77.906 189.902 77.9716C189.968 78.0371 190.057 78.074 190.149 78.074V78.06Z" fill="#292F36"/>
<path d="M197.159 83.0206C198.456 84.8946 201.764 85.1428 202.166 82.4472C202.362 81.1256 201.995 79.6712 201.613 78.416C201.164 76.9485 200.541 75.54 199.757 74.2205C199.706 74.1505 199.631 74.1019 199.546 74.0841C199.462 74.0662 199.373 74.0804 199.298 74.1239C199.224 74.1674 199.168 74.2371 199.141 74.3196C199.115 74.402 199.12 74.4913 199.156 74.5702C200.219 76.3403 200.963 78.2834 201.355 80.311C201.512 81.1746 201.76 82.5416 201.113 83.2758C200.166 84.3457 198.456 83.6814 197.764 82.678C197.509 82.3109 196.904 82.657 197.159 83.0276V83.0206Z" fill="#292F36"/>
<path d="M200.955 84.0177C202.102 85.5351 204.452 85.5281 205.326 83.6961C206.2 81.864 204.721 80.0704 204.011 78.5006C203.826 78.0916 203.225 78.4482 203.406 78.8502C203.836 79.8012 204.501 80.6963 204.759 81.7137C204.966 82.5353 204.903 83.4233 204.235 84.0072C204.041 84.1706 203.815 84.2917 203.571 84.363C203.328 84.4343 203.072 84.4541 202.821 84.4212C202.569 84.3883 202.327 84.3034 202.11 84.172C201.893 84.0405 201.706 83.8653 201.56 83.6576C201.291 83.308 200.683 83.6576 200.955 84.0072V84.0177Z" fill="#292F36"/>
<path d="M184.446 78.4174C185.285 78.4768 186.159 78.5712 186.799 79.1725C187.238 79.6444 187.593 80.1885 187.848 80.7808C188.568 82.1793 189.271 83.5778 189.984 84.9763C190.467 85.9273 192.411 88.983 190.131 89.1194C188.732 89.1998 187.163 88.1194 186.184 87.2419C185.579 86.6965 184.866 85.4728 183.883 85.9168C183.401 86.1371 183.055 86.693 182.715 87.0846C182.278 87.6104 181.811 88.1111 181.317 88.5844C180.283 89.5345 178.988 90.1526 177.6 90.3589C176.211 90.5652 174.792 90.3502 173.527 89.7417C173.125 89.5459 172.772 90.1508 173.178 90.3466C174.169 90.8302 175.252 91.0978 176.354 91.1316C177.456 91.1653 178.553 90.9645 179.572 90.5423C180.667 90.0595 181.643 89.3436 182.432 88.4446C182.862 87.9796 183.264 87.4866 183.687 87.0146C183.761 86.9307 183.939 86.665 184.037 86.6335C184.343 86.6442 184.639 86.7425 184.89 86.9167C185.18 87.13 185.422 87.4831 185.691 87.7244C186.907 88.8222 189.69 90.7381 191.327 89.3921C192.082 88.7697 192.026 87.7558 191.708 86.9167C191.25 85.6546 190.509 84.4694 189.9 83.2631C189.201 81.8961 188.614 80.3298 187.677 79.1096C186.865 78.0607 185.715 77.7985 184.443 77.7111C183.992 77.6796 183.995 78.3789 184.443 78.4104L184.446 78.4174Z" fill="#292F36"/>
<path d="M181.125 228.833C152.676 209.579 124.706 188.86 98.8826 166.194C100.91 194.206 108.745 250.342 108.745 250.342L116.808 256.338C117.219 256.645 117.524 257.074 117.678 257.564C117.833 258.054 117.829 258.58 117.668 259.068C117.506 259.555 117.196 259.98 116.78 260.281C116.364 260.583 115.864 260.745 115.35 260.747H115.266L85.7157 260.81C85.7157 260.81 68.3148 191.986 68.7239 147.926C68.7568 142.902 70.6296 138.064 73.988 134.328C77.3465 130.591 81.9578 128.215 86.9499 127.648C88.8074 127.445 90.6788 127.401 92.5439 127.515C100.828 128.048 108.657 131.497 114.64 137.252C138.904 160.327 163.262 183.591 187.519 206.646C190.516 206.111 193.463 205.726 196.442 205.345C196.911 205.285 197.387 205.37 197.806 205.588C198.225 205.806 198.568 206.147 198.789 206.565C199.009 206.983 199.097 207.459 199.04 207.928C198.983 208.397 198.784 208.838 198.47 209.191C192.666 215.739 187.027 222.298 181.125 228.833Z" fill="#170C2C"/>
<path d="M100.581 116.858L98.5324 117.061C92.3825 117.694 86.1032 118.166 79.8345 118.211C79.747 118.211 79.6666 118.211 79.5827 118.211C79.5315 118.215 79.4801 118.215 79.4289 118.211H79.4079C78.4575 118.154 77.5309 117.891 76.6928 117.439C75.8546 116.987 75.1251 116.358 74.5549 115.596C73.9848 114.833 73.5877 113.955 73.3915 113.024C73.1953 112.092 73.2046 111.129 73.4188 110.201C73.4992 109.852 73.5867 109.502 73.6741 109.152C73.7615 108.803 73.8454 108.453 73.9363 108.103C74.0517 107.649 74.167 107.198 74.2859 106.743C75.0061 104.072 75.7998 101.377 77.0095 98.8978C77.4998 97.8765 78.0739 96.8977 78.7261 95.9714C78.7307 95.9613 78.7366 95.9519 78.7436 95.9434C81.0162 92.7479 84.5929 90.2481 88.5087 90.2131C92.4245 90.1781 95.9557 92.5451 98.2982 95.6253C100.298 98.2615 101.536 101.373 102.571 104.527C102.749 105.058 102.92 105.597 103.085 106.132C103.186 106.45 103.28 106.768 103.378 107.082C103.396 107.131 103.41 107.18 103.424 107.229C103.424 107.261 103.445 107.285 103.452 107.313C103.49 107.436 103.529 107.558 103.564 107.663C103.584 107.722 103.602 107.785 103.619 107.845C103.938 108.894 104.252 109.907 104.56 110.939C104.754 111.592 104.801 112.28 104.698 112.954C104.595 113.627 104.345 114.27 103.964 114.835C103.584 115.401 103.084 115.875 102.499 116.225C101.914 116.575 101.259 116.791 100.581 116.858Z" fill="#4ECDC4"/>
<path d="M82.9531 91.5793C82.9811 91.6877 83.0161 91.796 83.0545 91.9044C83.5259 93.3533 84.4911 94.5907 85.7816 95.4007C87.9003 96.6453 90.8022 96.2398 92.6203 94.5825C93.5104 93.7542 94.1511 92.6933 94.4698 91.5198" stroke="#292F36" stroke-width="0.646378" stroke-linecap="round" stroke-linejoin="round"/>
<path d="M113.843 95.059C115.11 102.122 117.478 108.942 120.86 115.271" stroke="#292F36" stroke-width="0.646378" stroke-linecap="round" stroke-linejoin="round"/>
<path d="M58.8643 106.135C62.3255 101.775 65.5491 97.2331 68.1083 92.2964C68.8632 90.8997 69.5118 89.4482 70.0488 87.9541" stroke="#292F36" stroke-width="0.646378" stroke-linecap="round" stroke-linejoin="round"/>
<path d="M95.4448 80.584C95.4444 80.8589 95.4246 81.1335 95.3854 81.4056C95.1933 82.8508 94.5016 84.1833 93.4302 85.172C92.3587 86.1607 90.9751 86.7433 89.5191 86.8189C88.0632 86.8944 86.6267 86.4582 85.4586 85.5857C84.2906 84.7132 83.4647 83.4595 83.124 82.0419C83.0071 81.5648 82.9484 81.0753 82.9492 80.584C82.9498 79.101 83.4775 77.6665 84.4382 76.5367C85.3989 75.4069 86.73 74.6555 88.1936 74.4166C88.5208 74.3644 88.8517 74.3387 89.183 74.3397C90.0036 74.3383 90.8164 74.4989 91.5748 74.8121C92.3332 75.1254 93.0224 75.5852 93.6027 76.1653C94.1831 76.7454 94.6434 77.4343 94.9571 78.1925C95.2708 78.9507 95.4318 79.7634 95.4308 80.584H95.4448Z" stroke="#292F36" stroke-width="0.646378" stroke-linecap="round" stroke-linejoin="round"/>
<path d="M90.7116 74.8294C90.7106 76.7449 89.9493 78.5816 88.5949 79.936C87.2405 81.2904 85.4038 82.0517 83.4883 82.0527C83.3659 82.0527 83.2436 82.0527 83.1387 82.0527C83.0217 81.5755 82.963 81.086 82.9639 80.5947C82.966 79.6468 83.1835 78.7116 83.5999 77.86C84.0164 77.0084 84.6208 76.2625 85.3676 75.6786C86.1145 75.0947 86.9842 74.6881 87.9112 74.4896C88.8381 74.291 89.7981 74.3056 90.7186 74.5322C90.7081 74.6231 90.7116 74.728 90.7116 74.8294Z" fill="#292F36"/>
<path d="M95.4455 80.5849C95.4451 80.8598 95.4252 81.1343 95.386 81.4065C95.0826 81.4499 94.7765 81.4721 94.47 81.4729C92.8009 81.4729 91.2002 80.8099 90.02 79.6296C88.8398 78.4494 88.1768 76.8487 88.1768 75.1796C88.1762 74.9295 88.1914 74.6796 88.2222 74.4314C88.5494 74.3792 88.8803 74.3535 89.2117 74.3545C90.0322 74.3531 90.845 74.5137 91.6034 74.827C92.3618 75.1402 93.051 75.6001 93.6314 76.1801C94.2118 76.7602 94.672 77.4491 94.9857 78.2073C95.2994 78.9656 95.4604 79.7783 95.4595 80.5988L95.4455 80.5849Z" fill="#292F36"/>
<path d="M81.9251 99.6709C82.0182 99.5733 82.0833 99.4526 82.1139 99.3213L81.8447 99.629L81.9251 99.6709Z" fill="#FFE66D"/>
<path d="M81.8413 99.4637L81.5092 99.7504L81.6875 99.6245C81.6171 99.7926 81.4945 99.9335 81.3379 100.027C81.5057 100.016 81.6805 99.6455 81.8413 99.4637Z" fill="#FFE66D"/>
<path d="M81.4916 99.622C81.4601 99.5591 81.3098 99.7933 81.2783 99.8772C81.3517 99.7863 81.4601 99.7059 81.4916 99.622Z" fill="#FFE66D"/>
<path d="M79.1106 96.391C79.0987 96.4486 79.075 96.503 79.041 96.551C79.1002 96.4988 79.1419 96.4466 79.1106 96.391Z" fill="#FFE66D"/>
<path d="M79.0433 96.552L79.0029 96.5887H79.0249L79.0433 96.552Z" fill="#FFE66D"/>
<path d="M79.2539 98.4227C79.3067 98.3735 79.363 98.3277 79.363 98.3911C79.3436 98.388 79.3238 98.3893 79.3049 98.3947C79.2861 98.4002 79.2686 98.4098 79.2539 98.4227Z" fill="#FFE66D"/>
<path d="M79.9814 98.6249C80.3311 98.3487 80.3695 98.7228 80.7087 98.513C80.5199 98.7542 80.4919 98.5969 80.359 98.6983V98.8696L80.1213 98.8976C80.0863 98.95 80.0549 98.999 80.0199 99.0444C80.0708 98.956 80.1085 98.8606 80.1318 98.7612C80.1038 98.6948 79.9884 98.7228 79.9814 98.6249Z" fill="#FFE66D"/>
<path d="M81.1946 99.6738C80.5268 100.191 80.2541 100.023 79.9499 99.9465C79.915 100.006 79.8695 100.062 79.873 100.086C79.4745 100.177 79.2996 99.894 78.8242 100.149L78.8766 100.072C78.7962 100.016 78.6074 100.289 78.4745 100.335C78.541 100.261 78.6144 100.24 78.6843 100.1C78.6843 100.069 78.4466 100.156 78.52 99.9395C78.3766 100.055 78.3032 100.223 78.1704 100.289L78.3417 99.9919C78.2368 100.023 78.2822 99.894 78.1039 100.023L78.0445 100.195C78.0445 100.023 77.7998 100.195 77.9012 99.901L77.8312 99.9989C77.8312 99.6318 77.6564 99.4046 77.6424 99.1074C77.4711 99.0724 77.4222 98.7892 77.146 99.0025C77.2264 98.9116 77.2404 99.0025 77.3313 98.8312C77.3313 98.5864 77.0306 99.034 77.0166 98.8906C77.5069 97.8693 78.0811 96.8905 78.7333 95.9643C78.7682 95.9643 78.8102 95.9643 78.8941 95.8734L78.7298 96.1041C78.936 95.9852 78.978 96.1915 79.2577 95.9293C79.0619 96.174 79.1843 96.1216 79.2332 96.1391L78.985 96.4118C79.1074 96.3419 78.8836 96.6565 78.985 96.6041C78.9201 96.6475 78.8633 96.7019 78.8172 96.7649C78.7682 96.9642 79.0549 96.5621 78.9605 96.8173L79.1423 96.5446C78.9885 96.9257 79.1004 96.7964 79.0304 97.083C79.1718 96.8955 79.3273 96.719 79.4954 96.5551C79.429 96.6775 79.2892 96.8663 79.4115 96.8138C79.4582 96.7531 79.4904 96.6826 79.5059 96.6076C79.7052 96.5586 79.9709 96.4887 79.9884 96.7124C79.8171 96.8173 79.8276 96.9921 79.7122 97.139L79.9045 97.118C79.7599 97.1847 79.6198 97.2606 79.485 97.3453C79.3136 97.6459 78.985 97.9606 78.999 98.1144C79.1353 97.9921 79.1353 97.8732 79.2647 97.7998C79.2087 97.9222 79.2647 97.9152 79.2892 97.9291C79.1947 98.0277 79.106 98.1316 79.0234 98.2403C79.0689 98.2613 79.2192 98.0935 79.2892 98.0026C79.2542 98.062 79.1703 98.1494 79.1633 98.2193C79.1563 98.2892 79.394 97.9641 79.464 97.8697C79.401 98.0165 79.1144 98.492 79.4325 98.1459L79.1108 98.513C79.1283 98.513 79.1773 98.4885 79.2297 98.4466C79.1589 98.506 79.1017 98.5799 79.0619 98.6634C79.3276 98.4221 78.992 99.0479 79.3766 98.5864L79.0269 99.0409C79.0794 99.1598 79.2822 98.7508 79.4255 98.6913C79.3556 98.7368 79.2997 98.8626 79.2367 98.8906C79.1528 99.027 79.1948 99.0899 79.2612 99.0899C79.5234 99.0899 79.5269 99.3836 79.9604 99.1144C79.9276 99.158 79.9017 99.2063 79.8835 99.2577C80.0653 99.3731 80.4989 98.9326 80.5828 99.1878C80.3975 99.485 80.6772 99.2507 80.5828 99.4815C81.1212 99.0619 81.0023 99.6528 81.1946 99.6738Z" fill="#FFE66D"/>
<path d="M80.9607 98.2443L81.1111 98.0101L80.9188 98.1045C80.8174 98.3107 80.9502 98.1674 80.9607 98.2443Z" fill="#FFE66D"/>
<path d="M80.4434 98.9223L80.5651 98.8458L80.4816 98.8145L80.4434 98.9223Z" fill="#FFE66D"/>
<path d="M79.6741 97.8316L79.6602 97.8736L79.9539 97.7897L79.6741 97.8316Z" fill="#FFE66D"/>
<path d="M79.2783 96.1594C79.3792 96.0516 79.3722 96.1211 79.4453 96.0516L79.2922 96.1177L79.2783 96.1594Z" fill="#FFE66D"/>
<path d="M97.6617 96.3457C97.6096 96.2229 97.525 96.1165 97.417 96.0381L97.5988 96.4087L97.6617 96.3457Z" fill="#FFE66D"/>
<path d="M97.4346 96.3458L97.5779 96.7583L97.5255 96.5451C97.6684 96.6757 97.7601 96.8529 97.7842 97.045C97.8227 96.8772 97.5465 96.5765 97.4346 96.3458Z" fill="#FFE66D"/>
<path d="M97.4523 96.7404C97.3859 96.7404 97.5467 96.9711 97.6131 97.034C97.5537 96.9326 97.5222 96.7998 97.4523 96.7404Z" fill="#FFE66D"/>
<path d="M93.5889 97.9434C93.6405 97.9734 93.6864 98.0122 93.7245 98.0581C93.6967 97.9851 93.6584 97.9295 93.5889 97.9434Z" fill="#FFE66D"/>
<path d="M93.7324 98.0591L93.7539 98.1057C93.7539 98.1057 93.7539 98.1057 93.7539 98.0806L93.7324 98.0591Z" fill="#FFE66D"/>
<path d="M96.7351 99.9998C96.6652 99.797 96.7701 99.8809 96.7666 99.7725L96.9973 100.031C96.9973 99.9019 96.8505 99.7795 96.7841 99.6082C96.9589 99.748 96.9449 99.5138 96.9763 99.5103C97.0444 99.5926 97.0976 99.686 97.1337 99.7865C97.1337 99.6466 96.9344 99.3844 97.0078 99.325L97.0637 99.3984C96.9728 98.867 97.2875 98.8075 97.333 98.409C97.3085 98.409 97.27 98.339 97.2281 98.2866C97.3889 98.0279 97.6441 97.8426 97.4029 97.0385C97.319 97.1923 96.805 96.8811 97.0043 97.4755C96.8225 97.3042 96.9414 97.6468 96.7316 97.3706C96.4624 97.3706 96.7316 97.9265 96.5603 98.0698C96.4678 97.9773 96.3868 97.874 96.319 97.7622L96.3645 97.5314L96.2037 97.4755C96.1547 97.3251 96.3086 97.3531 96.1477 97.0909C96.2281 97.479 95.868 97.3811 96.0079 97.8111C96.1023 97.8391 96.1128 97.7237 96.1862 97.7027C96.2898 97.7678 96.38 97.852 96.4519 97.951C96.5568 98.4614 96.2841 98.3635 96.2037 98.6083C96.1827 98.6712 96.1093 98.6887 96.0079 98.5628C96.0079 98.4964 95.903 98.402 95.8785 98.3216C95.8995 98.4789 96.2281 98.804 96.0953 98.8145L95.7736 98.3495C96.0918 98.86 95.6023 98.3495 95.7492 98.6712C95.5918 98.5034 95.5534 98.367 95.5953 98.3216C95.4799 98.2831 95.6722 98.5523 95.6233 98.5768L95.3786 98.1572C95.6058 98.5628 95.2422 98.1572 95.1198 98.0419C95.1898 98.1363 95.431 98.416 95.3576 98.4369C95.2946 98.4055 95.2352 98.2971 95.1898 98.2481C95.2562 98.346 95.3646 98.5348 95.3366 98.5733C95.2582 98.4607 95.1858 98.344 95.1198 98.2237C95.0954 98.2516 95.0919 98.2936 94.9905 98.2027C95.0184 98.3495 95.1338 98.388 95.2072 98.5523C95.0604 98.5174 94.8576 98.1083 94.6269 97.8531C94.5879 97.6965 94.5587 97.5377 94.5395 97.3776L94.501 97.5734C94.3926 97.416 94.2248 97.3741 94.1758 97.1783C93.9521 97.1294 93.9381 97.4056 93.9206 97.6118C93.9881 97.6502 94.0465 97.7027 94.0919 97.7657C94.0919 97.8985 93.9626 97.7062 93.8682 97.6083C93.9759 97.8173 94.0986 98.0183 94.2353 98.2097C93.9801 98.0593 94.071 98.2097 93.7493 97.9475L93.9591 98.2027C93.7423 98.0349 94.043 98.43 93.8682 98.3251C93.8197 98.2622 93.783 98.1912 93.7598 98.1153C93.7598 98.2377 93.5395 97.937 93.571 98.0733L93.3822 97.7587C93.3507 97.8006 93.3612 97.9335 93.1864 97.6748C93.3542 98.0244 93.141 98.0034 93.1864 98.2377L93.0116 98.0139C93.1864 98.3181 92.8403 98.1328 93.0675 98.4824L92.9871 98.3985L93.1479 98.7481C93.0885 98.7481 92.8263 98.4195 92.8997 98.5104C92.8613 98.6397 92.8123 98.7131 92.662 98.6502C92.8962 98.9509 92.8752 99.1012 92.8368 99.1991C92.3473 99.311 92.2284 99.8984 92.2389 100.496C92.204 100.549 92.4347 100.912 92.5081 101.098C92.641 101.098 92.5081 100.958 92.5781 100.895C92.7937 101.022 92.9983 101.167 93.1899 101.328L92.9487 101.115C92.8368 100.863 93.1095 101.195 92.9487 100.909L93.2983 101.29C93.1375 101.08 93.3298 101.199 93.4381 101.29L93.2144 101.01C93.3956 101.108 93.5607 101.233 93.7039 101.381L93.4766 101.143C93.6304 101.283 93.6095 100.972 93.9381 101.43C93.8996 101.363 93.7948 101.23 93.8472 101.234L94.071 101.472C94.05 101.377 94.05 101.293 94.1828 101.419C94.2431 101.527 94.3146 101.627 94.3961 101.72C94.5884 101.626 93.6969 100.895 93.8367 100.744L93.9766 100.905L93.8612 100.706L94.078 100.874C93.6514 100.283 94.3227 100.748 94.1584 100.381C94.1584 100.307 94.48 100.594 94.508 100.503L94.2947 100.258C94.5639 100.465 94.8926 100.461 95.424 101.007C95.3121 100.772 95.3751 100.958 95.2107 100.758C95.0919 100.409 95.424 100.807 95.5953 100.916C95.5499 100.741 95.473 100.856 95.3471 100.64C95.5953 100.758 95.1688 100.265 95.417 100.342C95.5429 100.479 95.4695 100.465 95.5324 100.57C95.403 100.248 95.6792 100.286 95.7596 100.14C96.0518 100.16 96.3425 100.197 96.6302 100.251L96.5638 100.154C96.812 100.349 96.7141 100.066 96.8749 100.119L96.7351 99.9998Z" fill="#FFE66D"/>
<path d="M95.977 96.7482L95.8057 96.5279L95.8301 96.7412C95.9875 96.9055 95.8966 96.7307 95.977 96.7482Z" fill="#FFE66D"/>
<path d="M96.4346 97.4641L96.4033 97.3285L96.3477 97.3911L96.4346 97.4641Z" fill="#FFE66D"/>
<path d="M95.1514 97.8322L95.1863 97.8602L95.2003 97.5525L95.1514 97.8322Z" fill="#FFE66D"/>
<path d="M93.4242 97.7188C93.3512 97.5901 93.4242 97.6179 93.3721 97.524V97.6909L93.4242 97.7188Z" fill="#FFE66D"/>
<path d="M92.0049 97.416C92.3021 97.825 91.9454 97.4579 92.2776 97.7656C92.2671 97.6782 92.0993 97.5558 92.0049 97.416Z" fill="#FFE66D"/>
<path d="M92.3158 98.114C92.3506 98.114 92.3158 98.034 92.281 97.9679C92.1037 97.8253 92.2706 98.0201 92.3158 98.114Z" fill="#FFE66D"/>
<path d="M81.2646 109.565C81.3531 109.661 81.4618 109.736 81.5828 109.786L81.2891 109.499L81.2646 109.565Z" fill="#FFE66D"/>
<path d="M81.45 109.523L81.1738 109.19L81.2961 109.365C81.1378 109.28 81.006 109.153 80.915 108.998C80.929 109.145 81.2752 109.355 81.45 109.523Z" fill="#FFE66D"/>
<path d="M81.2926 109.194C81.3485 109.177 81.1283 109.005 81.0479 108.967C81.1238 109.049 81.2056 109.124 81.2926 109.194Z" fill="#FFE66D"/>
<path d="M84.215 107.666C84.1605 107.644 84.11 107.614 84.0654 107.575C84.1176 107.638 84.1663 107.683 84.215 107.666Z" fill="#FFE66D"/>
<path d="M84.0664 107.578L84.0371 107.538V107.56L84.0664 107.578Z" fill="#FFE66D"/>
<path d="M80.8591 106.152C80.9815 106.331 80.8591 106.268 80.8976 106.366L80.6144 106.166C80.6633 106.282 80.8207 106.373 80.929 106.516C80.7298 106.415 80.8137 106.628 80.7857 106.635C80.7009 106.572 80.6265 106.497 80.5654 106.411C80.6074 106.537 80.8626 106.743 80.8102 106.81L80.7402 106.75C80.985 107.215 80.7228 107.324 80.8172 107.691C80.8416 107.691 80.8906 107.74 80.95 107.782C80.8941 108.037 80.7333 108.254 81.2332 108.918C81.2332 108.768 81.7961 108.953 81.4185 108.463C81.6353 108.586 81.4185 108.303 81.6877 108.512C81.922 108.47 81.5024 108.016 81.6073 107.876C81.718 107.946 81.8222 108.025 81.9185 108.114L81.9534 108.327L82.1143 108.352C82.2052 108.477 82.0653 108.474 82.2926 108.68C82.0898 108.352 82.4359 108.39 82.1702 108.026C82.0793 108.026 82.1108 108.121 82.0513 108.149C81.9387 108.105 81.8336 108.044 81.7402 107.967C81.4814 107.526 81.7402 107.575 81.7402 107.345C81.7402 107.285 81.7961 107.261 81.9255 107.345C81.95 107.404 82.0653 107.474 82.1108 107.544C82.0444 107.404 81.6668 107.156 81.7612 107.131L82.1877 107.505C81.7542 107.093 82.338 107.505 82.1108 107.215C82.2996 107.348 82.373 107.463 82.352 107.512C82.4639 107.533 82.2157 107.317 82.2506 107.289L82.6003 107.638C82.2786 107.306 82.7226 107.638 82.859 107.715C82.7716 107.635 82.4744 107.415 82.5338 107.39C82.6066 107.431 82.6746 107.481 82.7366 107.537C82.6492 107.46 82.4954 107.303 82.5093 107.264C82.6124 107.354 82.7104 107.45 82.803 107.551C82.803 107.523 82.803 107.481 82.9219 107.551C82.852 107.422 82.7436 107.401 82.6282 107.264C82.7681 107.264 83.0618 107.614 83.3275 107.82C83.4673 108.016 83.4708 108.121 83.5477 108.229L83.5233 108.054C83.6631 108.184 83.8204 108.208 83.9218 108.373C84.1281 108.397 84.0582 108.156 84.0127 107.974C83.9419 107.945 83.8768 107.903 83.8204 107.852C83.7715 107.736 83.9463 107.894 84.0582 107.974C83.9032 107.798 83.7386 107.631 83.5652 107.474C83.8309 107.586 83.7121 107.474 84.0617 107.67L83.81 107.46C84.0442 107.593 83.6736 107.264 83.8554 107.348C83.9137 107.4 83.9653 107.459 84.0092 107.523C83.9603 107.415 84.2505 107.666 84.1841 107.547L84.4358 107.813C84.4533 107.775 84.4043 107.659 84.6281 107.876C84.3868 107.582 84.5756 107.586 84.4673 107.383L84.6805 107.572C84.4463 107.317 84.7959 107.46 84.5057 107.163L84.6001 107.233L84.3659 106.922C84.4148 106.922 84.733 107.198 84.6456 107.121C84.6456 107.005 84.67 106.939 84.8169 106.992C84.5372 106.733 84.5197 106.6 84.5302 106.513C84.9357 106.401 84.9043 105.883 84.7819 105.352C84.6787 105.164 84.5619 104.984 84.4323 104.813C84.3134 104.813 84.4533 104.939 84.4043 104.995C84.1838 104.883 83.9712 104.755 83.768 104.614L84.0267 104.803C84.1771 105.027 83.8624 104.733 84.0722 104.988L83.6806 104.639C83.8694 104.827 83.6806 104.726 83.5547 104.639L83.8135 104.883C83.6278 104.799 83.4539 104.691 83.296 104.562L83.5477 104.771C83.3799 104.653 83.4603 104.932 83.0687 104.527C83.1177 104.586 83.2366 104.705 83.1911 104.705L82.9394 104.495C82.9744 104.583 82.9918 104.66 82.845 104.551C82.7687 104.454 82.6832 104.366 82.5898 104.285C82.4289 104.383 83.3799 105.006 83.289 105.149L83.1282 105.009L83.275 105.184L83.0408 105.044C83.5582 105.558 82.845 105.173 83.0757 105.495C83.0967 105.562 82.7261 105.324 82.7261 105.408L82.9778 105.617C82.6877 105.446 82.387 105.478 81.7751 105.027C81.9325 105.233 81.8311 105.069 82.0269 105.236C82.2192 105.537 81.8206 105.212 81.6388 105.128C81.7192 105.285 81.7646 105.17 81.929 105.359C81.6772 105.275 82.1842 105.68 81.929 105.635C81.7786 105.527 81.8521 105.527 81.7681 105.439C81.9639 105.722 81.7052 105.715 81.6702 105.859C81.3975 105.82 81.1843 105.932 80.8451 105.859L80.936 105.939C80.6563 105.796 80.8207 106.041 80.6633 106.016L80.8591 106.152Z" fill="#FFE66D"/>
<path d="M82.5439 108.95L82.7642 109.121L82.6733 108.936C82.481 108.814 82.6174 108.954 82.5439 108.95Z" fill="#FFE66D"/>
<path d="M81.9072 108.387L81.9803 108.502L82.0081 108.439L81.9072 108.387Z" fill="#FFE66D"/>
<path d="M82.8969 107.897L82.8584 107.876L82.9423 108.148L82.8969 107.897Z" fill="#FFE66D"/>
<path d="M84.4287 107.855C84.5296 107.963 84.467 107.942 84.5296 108.019L84.4705 107.876L84.4287 107.855Z" fill="#FFE66D"/>
<path d="M85.7404 108.065C85.3732 107.715 85.7788 108.027 85.4082 107.757C85.4432 107.845 85.618 107.946 85.7404 108.065Z" fill="#FFE66D"/>
<path d="M85.2812 107.468C85.2569 107.468 85.3021 107.537 85.3508 107.593C85.5456 107.714 85.3473 107.534 85.2812 107.468Z" fill="#FFE66D"/>
<path d="M99.7284 114.714C99.8332 114.665 99.8822 114.508 99.9241 114.365L99.627 114.648L99.7284 114.714Z" fill="#FFE66D"/>
<path d="M99.6026 114.46L99.2285 114.701L99.4348 114.603C99.4037 114.69 99.3532 114.769 99.2872 114.833C99.2211 114.897 99.1413 114.945 99.0537 114.974C99.253 115.005 99.4278 114.628 99.6026 114.46Z" fill="#FFE66D"/>
<path d="M99.1825 114.547C99.137 114.47 98.9762 114.698 98.9482 114.788C99.0356 114.701 99.1615 114.638 99.1825 114.547Z" fill="#FFE66D"/>
<path d="M96.0991 110.156C96.0833 110.215 96.0548 110.27 96.0156 110.316C96.0887 110.274 96.1373 110.229 96.0991 110.156Z" fill="#FFE66D"/>
<path d="M96.0163 110.331L95.9697 110.353H95.9948L96.0163 110.331Z" fill="#FFE66D"/>
<path d="M95.008 113.956C95.2178 113.865 95.1723 114.002 95.2982 113.995L95.1094 114.285C95.2597 114.267 95.3331 114.1 95.508 114.016C95.431 114.236 95.7072 114.215 95.7282 114.257C95.6478 114.393 95.5569 114.393 95.48 114.456C95.6443 114.456 95.8576 114.197 95.966 114.292L95.9065 114.362C96.4904 114.225 96.7351 114.61 97.2246 114.628C97.2246 114.596 97.2701 114.547 97.3085 114.488C97.6931 114.659 98.0602 114.946 98.8259 114.53C98.6056 114.46 98.6756 113.809 98.1267 114.128C98.2246 113.89 97.8959 114.075 98.0987 113.778C97.9588 113.46 97.4589 113.837 97.2246 113.645C97.2246 113.568 97.361 113.456 97.4589 113.327L97.7456 113.362L97.7246 113.163C97.8714 113.089 97.9169 113.274 98.1301 113.051C97.7316 113.194 97.6721 112.757 97.2491 112.963C97.2491 113.079 97.4029 113.079 97.4589 113.166C97.441 113.294 97.3891 113.415 97.3085 113.516C96.7736 113.687 96.7456 113.348 96.4205 113.26C96.3401 113.24 96.2806 113.152 96.382 113.023C96.4554 113.023 96.5184 112.886 96.5988 112.855C96.4275 112.89 96.1967 113.288 96.1268 113.138L96.5219 112.729C96.0744 113.135 96.4519 112.526 96.1338 112.712C96.2597 112.516 96.3995 112.467 96.4834 112.512C96.4834 112.376 96.2527 112.614 96.2002 112.558L96.5778 112.247C96.2107 112.537 96.5324 112.082 96.6023 111.935C96.5184 112.019 96.3016 112.323 96.2527 112.233C96.2527 112.159 96.361 112.082 96.3995 112.026C96.3156 112.11 96.1408 112.247 96.0848 112.212C96.1827 112.082 96.2806 112.061 96.396 111.942C96.3506 111.914 96.2981 111.911 96.361 111.789C96.2072 111.827 96.2107 111.963 96.0499 112.058C96.0289 111.879 96.4205 111.635 96.6128 111.359C96.8435 111.257 96.9904 111.292 97.1162 111.233L96.882 111.201C97.0183 111.068 97.0044 110.869 97.2036 110.803C97.1792 110.544 96.854 110.54 96.6233 110.526C96.6063 110.603 96.5674 110.674 96.5114 110.729C96.3645 110.747 96.5324 110.579 96.6128 110.467C96.414 110.596 96.2279 110.743 96.0569 110.908C96.1338 110.607 96.0044 110.715 96.1827 110.338L95.966 110.582C96.0813 110.327 95.7352 110.684 95.7947 110.474C95.8539 110.42 95.9226 110.377 95.9974 110.348C95.8611 110.369 96.1268 110.093 95.98 110.131L96.2771 109.908C96.2212 109.873 96.0744 109.89 96.3121 109.684C95.9625 109.88 95.9275 109.631 95.6758 109.684L95.8751 109.485C95.5849 109.684 95.6898 109.285 95.3576 109.54L95.431 109.446L95.0604 109.621C95.036 109.551 95.3471 109.271 95.2597 109.338C95.1024 109.292 95.0045 109.229 95.036 109.058C94.7563 109.317 94.5745 109.278 94.4521 109.229C94.1899 108.645 93.4836 108.453 92.7809 108.366C92.711 108.32 92.3299 108.534 92.1236 108.589C92.1481 108.747 92.2949 108.621 92.3823 108.708C92.3823 108.848 92.1271 109.149 92.0117 109.38L92.211 109.121C92.4837 109.03 92.1516 109.306 92.4522 109.149L92.0851 109.499C92.2984 109.334 92.2075 109.551 92.1411 109.673L92.4173 109.443C92.3526 109.644 92.2453 109.829 92.1026 109.985L92.3299 109.743C92.204 109.915 92.5746 109.939 92.1166 110.268C92.183 110.233 92.3194 110.128 92.3299 110.191L92.1061 110.429C92.218 110.429 92.3229 110.429 92.2075 110.582C92.0948 110.636 91.9919 110.708 91.9033 110.796C92.0921 111.058 92.7005 110.079 92.9207 110.25L92.7704 110.401L92.9767 110.289L92.8438 110.533C93.4207 110.082 93.0816 110.852 93.4696 110.694C93.5571 110.694 93.3228 111.068 93.4487 111.121L93.6654 110.876C93.5116 111.187 93.6375 111.603 93.1899 112.219C93.4347 112.1 93.2284 112.159 93.4067 111.974C93.7773 111.855 93.4347 112.236 93.3753 112.446C93.571 112.407 93.3962 112.296 93.6095 112.159C93.5675 112.46 93.9906 111.963 94.0011 112.271C93.8927 112.418 93.8717 112.323 93.7738 112.397C94.1234 112.261 94.1829 112.603 94.3962 112.712C94.4311 113.061 94.6549 113.386 94.6863 113.813L94.7703 113.729C94.6584 114.04 94.9555 113.921 94.973 114.124L95.008 113.956Z" fill="#FFE66D"/>
<path d="M98.4099 112.834L98.5742 112.61L98.347 112.663C98.2421 112.869 98.3889 112.743 98.4099 112.834Z" fill="#FFE66D"/>
<path d="M97.8301 113.455L97.9692 113.403L97.8683 113.344L97.8301 113.455Z" fill="#FFE66D"/>
<path d="M96.8157 111.974L96.8018 112.019L97.1549 112.016L96.8157 111.974Z" fill="#FFE66D"/>
<path d="M96.2979 109.953C96.4196 109.866 96.4091 109.953 96.4996 109.89L96.3152 109.911L96.2979 109.953Z" fill="#FFE66D"/>
<path d="M96.2354 108.334C95.8543 108.666 96.1724 108.268 95.8857 108.639C96.0116 108.628 96.1025 108.443 96.2354 108.334Z" fill="#FFE66D"/>
<path d="M95.5332 108.676C95.5506 108.718 95.6202 108.676 95.6862 108.641C95.8045 108.443 95.6236 108.628 95.5332 108.676Z" fill="#FFE66D"/>
<path d="M103.581 107.656C103.763 107.894 103.955 108.139 103.864 108.17C103.789 108.075 103.722 107.973 103.665 107.866L103.637 107.838C103.542 107.74 103.546 107.814 103.567 107.894L103.357 107.642C103.315 107.642 103.413 107.768 103.448 107.835C103.137 107.37 103.172 107.649 103.032 107.503L103.238 107.754C103.109 107.595 102.96 107.454 102.794 107.335L103.007 107.628C102.906 107.534 102.735 107.394 102.889 107.628L102.563 107.223C102.724 107.51 102.469 107.16 102.584 107.405L102.801 107.642C102.629 107.464 102.446 107.297 102.252 107.142C102.2 107.184 102.315 107.335 102.203 107.307C102.101 107.118 102.013 106.922 101.941 106.719C101.896 106.191 101.941 105.695 102.333 105.671C102.357 105.597 102.361 105.464 102.13 105.157C102.263 105.24 102.294 105.185 102.312 105.076C102.357 105.132 102.511 105.321 102.546 105.324L102.368 104.975L102.448 105.062C102.214 104.713 102.525 104.933 102.34 104.639L102.514 104.863C102.441 104.646 102.616 104.695 102.431 104.363C102.556 104.538 102.581 104.534 102.588 104.506C102.766 105.038 102.938 105.576 103.102 106.111C103.203 106.429 103.298 106.747 103.396 107.062C103.396 107.08 103.396 107.121 103.441 107.209C103.469 107.259 103.501 107.306 103.535 107.352L103.469 107.293L103.336 107.17L103.448 107.366L103.315 107.198C103.273 107.254 103.42 107.45 103.581 107.656Z" fill="#FFE66D"/>
<path d="M101.435 103.953C101.732 104.362 101.393 103.981 101.707 104.303C101.683 104.226 101.532 104.093 101.435 103.953Z" fill="#FFE66D"/>
<path d="M101.78 104.617C101.808 104.617 101.78 104.551 101.735 104.485C101.571 104.328 101.731 104.53 101.78 104.617Z" fill="#FFE66D"/>
<path d="M81.7018 115.512C81.3976 116.211 80.9746 116.882 80.3033 117.029C80.2333 117.119 80.1952 117.229 80.1952 117.342C80.1952 117.456 80.2333 117.566 80.3033 117.655C80.139 117.585 80.0411 117.676 79.9537 117.826C79.9152 117.767 79.7859 117.557 79.7264 117.564L79.7858 117.973L79.7159 117.886C79.8103 118.124 79.7159 118.145 79.632 118.204C79.5808 118.208 79.5294 118.208 79.4782 118.204V118.176C79.4799 118.184 79.4799 118.193 79.4782 118.201C77.9204 118.117 76.4458 117.471 75.3281 116.383C75.3911 116.32 75.4505 116.264 75.6078 116.383L75.5484 116.278C75.9924 116.348 76.4015 116.197 76.7651 116.239C76.9469 116.05 77.321 116.057 77.2825 115.683C77.3315 115.799 77.2266 115.799 77.342 115.942C77.6601 115.998 77.286 115.463 77.5832 115.571C77.5098 115.327 77.3385 115.477 77.3629 115.271C77.5552 115.379 77.8419 115.809 77.8349 115.411C77.7021 115.187 77.6986 115.411 77.6531 115.134C78.1426 115.722 78.6076 115.683 78.8768 115.907L78.6985 115.631C78.7929 115.519 79.1006 115.834 79.1286 115.746C79.0866 115.32 79.7719 115.827 79.4782 115.152L79.6845 115.337L79.6355 115.106L79.7439 115.288C79.9921 115.103 79.1705 114.285 79.4957 114.152C79.5575 114.26 79.6001 114.379 79.6215 114.502C79.7404 114.648 79.7859 114.544 79.8103 114.432L79.9886 114.708C80.0586 114.708 79.9886 114.55 79.9886 114.477C80.1914 115.005 80.3383 114.638 80.4641 114.799L80.2858 114.523C80.4057 114.698 80.5649 114.843 80.7508 114.946L80.5935 114.62C80.7019 114.715 80.9012 114.851 80.7928 114.62L81.0585 115.068C80.9851 114.718 81.1704 115.12 81.1599 114.823L80.9536 114.571C81.1564 114.736 81.3941 115.05 81.534 115.078C81.6528 115.008 81.5654 114.837 81.7368 114.844C81.6668 115.026 81.7752 115.453 81.7018 115.512Z" fill="#FFE66D"/>
<path d="M76.027 107.838C76.0924 107.724 76.1329 107.598 76.1458 107.468L75.957 107.817L76.027 107.838Z" fill="#FFE66D"/>
<path d="M75.9325 107.67L75.6947 108.02L75.8276 107.852C75.7932 108.029 75.711 108.193 75.5898 108.327C75.7227 108.278 75.8206 107.883 75.9325 107.67Z" fill="#FFE66D"/>
<path d="M75.66 107.918C75.6285 107.869 75.5341 108.131 75.5166 108.219C75.5745 108.124 75.6225 108.023 75.66 107.918Z" fill="#FFE66D"/>
<path d="M74.4469 107.663L74.3595 107.883C74.3986 107.77 74.421 107.653 74.4259 107.533C74.3804 107.488 74.2895 107.551 74.2686 107.46C74.5203 107.089 74.6182 107.429 74.8489 107.131C74.7301 107.411 74.6846 107.275 74.5972 107.404L74.6287 107.565L74.4469 107.663Z" fill="#FFE66D"/>
<path d="M75.4085 108.054C74.9296 108.733 74.6848 108.656 74.4296 108.687C74.4074 108.737 74.3933 108.79 74.3876 108.845C74.1149 109.03 73.9401 108.89 73.6709 109.124C73.7548 108.775 73.8422 108.425 73.9331 108.075C74.038 108.1 74.1289 108.145 74.3527 107.88C74.33 107.927 74.3158 107.978 74.3107 108.03C74.475 108.079 74.7687 107.54 74.8806 107.747C74.7687 108.075 74.968 107.771 74.9226 108.016C75.2827 107.509 75.2757 108.089 75.4085 108.054Z" fill="#FFE66D"/>
<path d="M75.0276 106.799L75.115 106.537L74.9682 106.684C74.9192 106.904 75.0032 106.729 75.0276 106.799Z" fill="#FFE66D"/>
<path d="M74.7021 107.586L74.7891 107.482L74.7161 107.475L74.7021 107.586Z" fill="#FFE66D"/>
<path d="M66.4707 13.055C66.4707 11.3242 66.8148 9.61073 67.483 8.01419C68.1513 6.41765 69.1303 4.96993 70.3632 3.75524C71.5961 2.54055 73.0582 1.58314 74.6645 0.938706C76.2708 0.29427 77.9892 -0.024327 79.7198 0.00144783C86.7661 0.103284 92.5037 5.86511 92.5789 12.9126C92.6155 15.8075 91.684 18.6318 89.9323 20.9368C87.5435 24.0542 86.1021 27.793 85.7802 31.7071C85.7408 32.2055 85.7215 32.707 85.7223 33.2115V36.299H73.3273V33.3932C73.3273 32.8292 73.3045 32.2672 73.259 31.7071C72.9653 27.8274 71.5514 24.1164 69.189 21.0248C67.4235 18.7435 66.4672 15.9396 66.4707 13.055Z" fill="#FFE66D"/>
<path d="M82.5715 20.0643C82.7863 20.0643 82.9923 20.1497 83.1443 20.3016C83.2962 20.4535 83.3815 20.6596 83.3815 20.8744V36.2991C83.3815 36.5153 83.2956 36.7226 83.1427 36.8755C82.9898 37.0284 82.7825 37.1143 82.5663 37.1143C82.35 37.1143 82.1427 37.0284 81.9898 36.8755C81.8369 36.7226 81.751 36.5153 81.751 36.2991V20.879C81.7504 20.7714 81.7712 20.6647 81.8123 20.5652C81.8534 20.4657 81.9139 20.3754 81.9903 20.2995C82.0667 20.2237 82.1574 20.1638 82.2572 20.1234C82.357 20.083 82.4638 20.063 82.5715 20.0643Z" fill="#FE5E41"/>
<path d="M76.5217 20.0643C76.7365 20.0643 76.9425 20.1497 77.0944 20.3016C77.2464 20.4535 77.3317 20.6596 77.3317 20.8744V36.2991C77.3317 36.5153 77.2458 36.7226 77.0929 36.8755C76.94 37.0284 76.7327 37.1143 76.5164 37.1143C76.3002 37.1143 76.0929 37.0284 75.94 36.8755C75.7871 36.7226 75.7012 36.5153 75.7012 36.2991V20.879C75.7006 20.7714 75.7214 20.6647 75.7625 20.5652C75.8036 20.4657 75.8641 20.3754 75.9405 20.2995C76.0169 20.2237 76.1076 20.1638 76.2074 20.1234C76.3072 20.083 76.414 20.063 76.5217 20.0643Z" fill="#FE5E41"/>
<path d="M73.0277 33.2978H86.0639C86.2097 33.2972 86.3537 33.3301 86.4848 33.3939C86.6159 33.4577 86.7306 33.5508 86.82 33.666C86.9095 33.7811 86.9713 33.9153 87.0007 34.0581C87.0301 34.2009 87.0263 34.3486 86.9896 34.4897L86.6633 35.7395L84.7412 43.1631L84.2945 44.8909C84.2416 45.096 84.1219 45.2776 83.9542 45.4069C83.7865 45.5362 83.5805 45.6059 83.3687 45.6049H75.7194C75.5077 45.6055 75.3019 45.5357 75.1343 45.4064C74.9666 45.2771 74.8468 45.0958 74.7936 44.8909L74.3458 43.1631L72.4294 35.7395L72.1054 34.4932C72.0684 34.3522 72.0643 34.2045 72.0933 34.0616C72.1223 33.9187 72.1837 33.7843 72.2728 33.6689C72.3619 33.5534 72.4763 33.4599 72.6071 33.3956C72.738 33.3313 72.8819 33.2978 73.0277 33.2978Z" fill="#292F36"/>
<path d="M72.4297 35.7398H86.6636L84.7414 43.1634H74.3507L72.4297 35.7398Z" fill="#FE5E41"/>
<path d="M72.314 37.3318H86.7793C87.0555 37.3318 87.3204 37.4415 87.5157 37.6368C87.7111 37.8322 87.8208 38.0971 87.8208 38.3733V40.5373C87.8208 40.6741 87.7938 40.8095 87.7415 40.9359C87.6892 41.0622 87.6125 41.177 87.5157 41.2737C87.419 41.3705 87.3042 41.4472 87.1779 41.4995C87.0515 41.5519 86.9161 41.5788 86.7793 41.5788H72.314C72.0377 41.5788 71.7728 41.4691 71.5775 41.2737C71.3822 41.0784 71.2725 40.8135 71.2725 40.5373V38.3698C71.2734 38.0942 71.3835 37.8302 71.5787 37.6356C71.774 37.441 72.0383 37.3318 72.314 37.3318Z" fill="#292F36"/>
<path d="M82.5708 4.02992C82.6491 4.02932 82.7271 4.04024 82.8022 4.06232C88.0526 5.56671 89.0293 10.8506 89.0686 11.074C89.1061 11.287 89.0574 11.5061 88.9332 11.6832C88.8091 11.8603 88.6197 11.9808 88.4067 12.0183C88.1937 12.0557 87.9745 12.007 87.7974 11.8829C87.6203 11.7587 87.4998 11.5693 87.4624 11.3563C87.4288 11.1665 86.6037 6.84313 82.3532 5.6292C82.1546 5.58485 81.98 5.46736 81.864 5.30012C81.7481 5.13288 81.6994 4.92813 81.7275 4.72659C81.7557 4.52504 81.8586 4.34148 82.0159 4.21239C82.1733 4.08331 82.3734 4.01817 82.5766 4.02992H82.5708Z" fill="#FCFCFC"/>
</svg>
