<svg width="80" height="18" viewBox="0 0 80 18" fill="none" xmlns="http://www.w3.org/2000/svg">
<path d="M4.256 14L0.336 4.2H2.058L4.396 10.15C4.508 10.4393 4.606 10.7007 4.69 10.934C4.78333 11.1673 4.86267 11.382 4.928 11.578C4.99333 11.7647 5.054 11.942 5.11 12.11C5.166 12.278 5.222 12.446 5.278 12.614L4.914 12.628C4.97933 12.404 5.04933 12.1707 5.124 11.928C5.19867 11.6853 5.28267 11.4193 5.376 11.13C5.47867 10.8407 5.6 10.514 5.74 10.15L7.91 4.2H9.674L5.726 14H4.256ZM11.2538 14V6.65H12.6958V14H11.2538ZM11.9538 5.026C11.6458 5.026 11.4078 4.94667 11.2398 4.788C11.0718 4.62933 10.9878 4.40533 10.9878 4.116C10.9878 3.84533 11.0718 3.626 11.2398 3.458C11.4171 3.29 11.6551 3.206 11.9538 3.206C12.2618 3.206 12.4998 3.28533 12.6678 3.444C12.8358 3.60267 12.9198 3.82667 12.9198 4.116C12.9198 4.38667 12.8311 4.606 12.6538 4.774C12.4858 4.942 12.2525 5.026 11.9538 5.026ZM18.3423 14.14C17.5863 14.14 16.9143 13.9813 16.3263 13.664C15.7476 13.3373 15.2903 12.894 14.9543 12.334C14.6276 11.774 14.4643 11.13 14.4643 10.402C14.4643 9.82333 14.5576 9.296 14.7443 8.82C14.931 8.344 15.1876 7.93333 15.5143 7.588C15.8503 7.23333 16.247 6.96267 16.7043 6.776C17.171 6.58 17.675 6.482 18.2163 6.482C18.6923 6.482 19.1356 6.57533 19.5463 6.762C19.957 6.93933 20.3116 7.18667 20.6103 7.504C20.9183 7.82133 21.1516 8.19933 21.3103 8.638C21.4783 9.06733 21.5576 9.53867 21.5483 10.052L21.5343 10.668H15.5283L15.2063 9.52H20.2883L20.0783 9.758V9.422C20.0503 9.114 19.9476 8.83867 19.7703 8.596C19.593 8.35333 19.369 8.162 19.0983 8.022C18.8276 7.882 18.5336 7.812 18.2163 7.812C17.7123 7.812 17.2876 7.91 16.9423 8.106C16.597 8.29267 16.3356 8.57267 16.1583 8.946C15.981 9.31 15.8923 9.76267 15.8923 10.304C15.8923 10.8173 15.9996 11.2653 16.2143 11.648C16.429 12.0213 16.7323 12.3107 17.1243 12.516C17.5163 12.7213 17.969 12.824 18.4823 12.824C18.8463 12.824 19.1823 12.7633 19.4903 12.642C19.8076 12.5207 20.1483 12.3013 20.5123 11.984L21.2403 13.006C21.0163 13.23 20.741 13.426 20.4143 13.594C20.097 13.762 19.7563 13.8973 19.3923 14C19.0376 14.0933 18.6876 14.14 18.3423 14.14ZM24.7847 14L22.2787 6.65L23.7347 6.636L25.5267 12.138L25.2047 12.11L27.1507 7.812H28.0187L29.9787 12.124L29.6007 12.152L31.4067 6.65H32.8627L30.3847 14H29.3907L27.3467 9.324L27.6687 9.366L25.7647 14H24.7847ZM37.4418 14L41.2358 4.2H42.7758L46.5418 14H44.9318L42.6918 8.092C42.6638 8.02667 42.6078 7.868 42.5238 7.616C42.4491 7.364 42.3605 7.084 42.2578 6.776C42.1551 6.468 42.0618 6.188 41.9778 5.936C41.8938 5.67467 41.8378 5.50667 41.8098 5.432L42.1318 5.418C42.0758 5.57667 42.0058 5.77733 41.9218 6.02C41.8471 6.26267 41.7631 6.51933 41.6698 6.79C41.5858 7.06067 41.5018 7.31733 41.4178 7.56C41.3338 7.79333 41.2638 7.98933 41.2078 8.148L38.9818 14H37.4418ZM39.1218 11.564L39.6818 10.108H44.1338L44.7778 11.564H39.1218ZM47.9305 14V3.64H49.3725V14H47.9305ZM51.4442 14V3.64H52.8862V14H51.4442Z" fill="#282828"/>
<circle cx="71" cy="9" r="9" fill="#603BE5"/>
<path d="M70.5762 5.51986C70.311 5.20165 69.8381 5.15866 69.5199 5.42383C69.2017 5.68901 69.1587 6.16193 69.4238 6.48014L70.5762 5.51986ZM72.5 9L73.0762 9.48014C73.3079 9.202 73.3079 8.798 73.0762 8.51986L72.5 9ZM69.4238 11.5199C69.1587 11.8381 69.2017 12.311 69.5199 12.5762C69.8381 12.8413 70.311 12.7983 70.5762 12.4801L69.4238 11.5199ZM69.4238 6.48014L71.9238 9.48014L73.0762 8.51986L70.5762 5.51986L69.4238 6.48014ZM71.9238 8.51986L69.4238 11.5199L70.5762 12.4801L73.0762 9.48014L71.9238 8.51986Z" fill="#FCFCFC"/>
</svg>
