<svg width="34" height="34" viewBox="0 0 34 34" fill="none" xmlns="http://www.w3.org/2000/svg">
<path d="M12.7716 24.3429C12.5738 24.3429 12.3883 24.2215 12.3157 24.0251C11.6208 22.1373 10.5949 20.48 9.26721 19.0992C7.33668 17.0852 6.27703 14.446 6.28225 11.666C6.29268 6.06887 10.8396 1.27908 16.4187 0.987844C19.3908 0.829417 22.2188 1.86678 24.3737 3.90972C26.53 5.95456 27.7177 8.71658 27.7177 11.6873C27.7177 14.4584 26.6595 17.089 24.738 19.094C23.7959 20.0739 23.0005 21.2 22.373 22.4409C22.1045 22.9726 21.873 23.5053 21.6847 24.0232C21.5936 24.2751 21.3161 24.4055 21.0624 24.3135C20.8105 24.222 20.6801 23.9435 20.7721 23.6912C20.9732 23.1372 21.2199 22.5694 21.5059 22.003C22.1771 20.6754 23.029 19.4706 24.0374 18.4214C25.7839 16.5985 26.7463 14.207 26.7463 11.6873C26.7463 8.98553 25.6662 6.47395 23.7053 4.61457C21.7459 2.7571 19.1745 1.80606 16.4699 1.95832C11.3969 2.22253 7.26316 6.5783 7.25367 11.6679C7.24893 14.1951 8.21277 16.5952 9.96779 18.4261C11.3889 19.9037 12.4855 21.6748 13.2274 23.6893C13.3199 23.9412 13.1913 24.2205 12.9395 24.313C12.884 24.3334 12.8275 24.3429 12.7716 24.3429Z" fill="#282828"/>
<path d="M22.0156 27.1406H11.9418C11.6733 27.1406 11.4561 26.9233 11.4561 26.6549V23.8558C11.4561 23.5874 11.6733 23.3701 11.9418 23.3701H22.0156C22.2841 23.3701 22.5013 23.5874 22.5013 23.8558V26.6549C22.5013 26.9233 22.2841 27.1406 22.0156 27.1406ZM12.4275 26.1691H21.5299V24.3415H12.4275V26.1691Z" fill="#282828"/>
<path d="M22.0156 29.9391H11.9418C11.6733 29.9391 11.4561 29.7219 11.4561 29.4534V26.6548C11.4561 26.3864 11.6733 26.1691 11.9418 26.1691H22.0156C22.2841 26.1691 22.5013 26.3864 22.5013 26.6548V29.4534C22.5013 29.7219 22.2841 29.9391 22.0156 29.9391ZM12.4275 28.9677H21.5299V27.1406H12.4275V28.9677Z" fill="#282828"/>
<path d="M16.9774 33.028C15.007 33.028 13.4038 31.4247 13.4038 29.4544C13.4038 29.1859 13.621 28.9686 13.8895 28.9686C14.158 28.9686 14.3752 29.1859 14.3752 29.4544C14.3752 30.8892 15.5425 32.0565 16.9774 32.0565C18.4156 32.0565 19.5853 30.8892 19.5853 29.4544C19.5853 29.1859 19.8025 28.9686 20.071 28.9686C20.3394 28.9686 20.5567 29.1859 20.5567 29.4544C20.5567 31.4247 18.9511 33.028 16.9774 33.028ZM19.266 24.3401H14.7926C14.5825 24.3401 14.3961 24.2049 14.3311 24.0052L11.0525 13.9603C10.969 13.7052 11.1085 13.431 11.3632 13.348C11.6208 13.2636 11.8926 13.404 11.9756 13.6587L15.145 23.3687H18.9136L22.0831 13.6587C22.1661 13.404 22.4384 13.2626 22.6954 13.348C22.9502 13.431 23.0896 13.7052 23.0061 13.9603L19.7276 24.0052C19.6626 24.2049 19.4762 24.3401 19.266 24.3401Z" fill="#282828"/>
<path d="M20.9568 15.1063C19.6064 15.1063 18.5078 14.0078 18.5078 12.6578C18.5078 12.3894 18.7251 12.1721 18.9935 12.1721C19.262 12.1721 19.4792 12.3894 19.4792 12.6578C19.4792 13.4723 20.1419 14.1349 20.9568 14.1349C21.7712 14.1349 22.4338 13.4723 22.4338 12.6578C22.4338 12.3894 22.6511 12.1721 22.9196 12.1721C23.188 12.1721 23.4053 12.3894 23.4053 12.6578C23.4053 14.0078 22.3067 15.1063 20.9568 15.1063Z" fill="#282828"/>
<path d="M17.0305 15.1063C15.6806 15.1063 14.582 14.0078 14.582 12.6578C14.582 12.3894 14.7993 12.1721 15.0677 12.1721C15.3362 12.1721 15.5535 12.3894 15.5535 12.6578C15.5535 13.4723 16.2161 14.1349 17.0305 14.1349C17.8454 14.1349 18.5081 13.4723 18.5081 12.6578C18.5081 12.3894 18.7253 12.1721 18.9938 12.1721C19.2622 12.1721 19.4795 12.3894 19.4795 12.6578C19.4795 14.0078 18.3809 15.1063 17.0305 15.1063Z" fill="#282828"/>
<path d="M13.1042 15.1063C11.7538 15.1063 10.6553 14.0078 10.6553 12.6578C10.6553 12.3894 10.8725 12.1721 11.141 12.1721C11.4095 12.1721 11.6267 12.3894 11.6267 12.6578C11.6267 13.4723 12.2893 14.1349 13.1042 14.1349C13.9191 14.1349 14.5818 13.4723 14.5818 12.6578C14.5818 12.3894 14.799 12.1721 15.0675 12.1721C15.336 12.1721 15.5532 12.3894 15.5532 12.6578C15.5532 14.0078 14.4547 15.1063 13.1042 15.1063Z" fill="#282828"/>
</svg>
