<svg width="288" height="288" viewBox="0 0 288 288" fill="none" xmlns="http://www.w3.org/2000/svg">
<path d="M79.0244 169.468C78.8718 171.38 79.9777 173.543 81.8699 173.877C82.3033 173.947 82.7462 173.934 83.1745 173.837C83.6628 173.726 84.133 173.546 84.5713 173.304C84.7633 173.206 84.9448 173.1 85.1156 172.984C87.9409 171.196 90.1528 167.8 93.4331 168.14C95.4001 168.348 96.9956 170.029 97.5428 171.93C97.9835 173.454 97.8452 175.081 97.4161 176.622C97.3124 177.002 97.1886 177.376 97.0504 177.742C97.0244 177.814 96.9956 177.886 96.9668 177.955C94.3748 184.625 87.5521 188.98 80.522 190.4C79.9729 190.511 79.4219 190.607 78.8689 190.688C77.0925 190.95 75.2991 191.079 73.5035 191.076C70.6147 191.068 67.7336 190.779 64.9009 190.212C63.2441 189.847 61.6634 189.196 60.2296 188.289C59.9416 188.116 59.6536 187.937 59.3656 187.753C58.5649 187.232 57.7816 186.679 57.0068 186.129C53.5912 183.695 51.0136 179.568 49.5188 175.334C49.2568 174.583 49.0264 173.828 48.8363 173.079C48.6111 172.226 48.4322 171.36 48.3006 170.487C48.0904 169.047 47.9953 167.541 48.5886 166.213C49.1819 164.886 50.6219 163.846 52.0302 164.174C52.6062 164.307 53.1044 164.641 53.6747 164.75C55.5179 165.105 57.0011 162.884 56.7188 161.027C56.4366 159.169 55.0686 157.697 53.8388 156.277C52.8424 155.125 51.9015 153.929 51.0164 152.689C50.8263 152.424 50.6391 152.159 50.4404 151.891C49.3389 150.281 48.333 148.608 47.4279 146.88C47.2609 146.566 47.0967 146.249 46.9383 145.932C44.5411 141.165 42.9139 136.048 42.1172 130.772C42.1 130.66 42.0827 130.548 42.0683 130.432C42.0222 130.104 41.979 129.773 41.9444 129.442C41.8926 128.958 41.8523 128.471 41.835 127.987C41.8008 127.284 41.8171 126.58 41.8839 125.879C41.9782 124.812 42.2508 123.768 42.6903 122.792C43.383 121.301 44.5953 120.114 46.1003 119.454C46.5678 119.252 47.0629 119.122 47.5691 119.068C48.1261 119.007 48.6898 119.056 49.2279 119.212C51.9063 119.984 53.0382 122.815 54.5531 125.283C54.7259 125.565 54.9044 125.842 55.0887 126.112C55.4313 126.613 55.8167 127.084 56.2407 127.518C56.5969 127.926 57.0742 128.209 57.603 128.327C59.0948 128.555 59.7544 126.844 59.8235 125.196C59.8357 124.886 59.8261 124.575 59.7947 124.266C59.7947 124.177 59.7774 124.091 59.763 124.001C58.611 116.004 57.171 106.911 62.2513 100.627C66.2055 95.7312 73.6302 94.2019 79.3585 96.791C81.5632 97.8082 83.4934 99.3365 84.9889 101.249C85.2078 101.537 85.418 101.808 85.6167 102.099C87.6395 104.994 88.6967 108.454 88.6379 111.986C88.5745 114.656 87.8919 117.248 87.2987 119.837C86.9559 121.326 86.4174 122.841 86.3137 124.381C86.2993 124.606 86.2935 124.831 86.2993 125.055C86.3015 125.179 86.3101 125.302 86.3252 125.424C86.5383 127.207 88.0244 126.429 89.1591 125.542C90.0404 124.854 90.8296 124.191 91.6763 123.595C92.2143 123.212 92.7782 122.867 93.3639 122.561C93.603 122.44 93.8507 122.322 94.107 122.213C96.532 121.167 100.023 120.977 101.157 123.365C101.572 124.229 101.535 125.257 101.431 126.222C100.601 134.145 96.1662 141.166 91.8491 147.865C90.2478 150.351 88.6446 152.839 87.0395 155.327C86.6046 156.004 86.1755 156.678 85.7377 157.343L81.2967 164.238C80.2513 165.851 79.18 167.553 79.0244 169.468Z" fill="#4ECDC4"/>
<path d="M42.048 127.63C41.9933 127.737 41.9155 127.86 41.8435 127.984C41.8093 127.281 41.8257 126.577 41.8925 125.876C42.1095 125.492 42.3283 125.119 42.5491 124.756C43.6464 122.927 44.8531 121.176 46.1088 119.451C46.5763 119.249 47.0714 119.119 47.5776 119.065C47.1312 119.673 46.6877 120.283 46.2528 120.9C44.6973 123.043 43.2923 125.292 42.048 127.63Z" fill="white"/>
<path d="M55.0886 126.109C54.7574 126.222 54.4349 126.34 54.1296 126.452C51.8861 127.276 49.7405 128.341 47.5056 129.177C46.3826 129.609 45.2269 129.951 44.0496 130.199C43.4061 130.363 42.7437 130.442 42.0797 130.432C42.0336 130.104 41.9904 129.773 41.9558 129.442L42.0624 129.459C42.645 129.488 43.2285 129.423 43.7904 129.266C45.0125 129.011 46.2109 128.653 47.3731 128.197C49.6771 127.333 51.9091 126.213 54.2448 125.389L54.5616 125.28C54.7286 125.562 54.9043 125.839 55.0886 126.109Z" fill="white"/>
<path d="M49.1904 144.703C48.5798 145.408 47.9894 146.143 47.4278 146.88C47.2608 146.566 47.0966 146.249 46.9382 145.932C48.0533 144.505 49.2424 143.137 50.5008 141.834C53.6947 138.488 57.1738 135.395 60.0509 131.754C61.1654 130.34 64.4515 126.354 61.2317 125.418C60.7712 125.287 60.2962 125.213 59.8176 125.199C59.8298 124.889 59.8202 124.578 59.7888 124.269C60.2059 124.274 60.622 124.313 61.033 124.384C61.9891 124.548 62.9107 125.029 63.337 125.942C63.7862 126.91 63.5414 127.996 63.1152 128.926C62.1705 130.988 60.48 132.843 58.9853 134.522C55.8461 138.033 52.2806 141.14 49.1904 144.703Z" fill="white"/>
<path d="M73.9555 170.761C73.7222 171.847 73.0685 172.777 72.4464 173.664C71.6304 174.833 70.7933 175.985 69.935 177.12C66.9487 181.051 63.7055 184.78 60.2265 188.283C59.9385 188.11 59.6505 187.932 59.3625 187.747C60.4771 186.63 61.5917 185.512 62.6601 184.346C64.5206 182.315 66.3014 180.216 68.0025 178.05C68.8857 176.923 69.7497 175.779 70.5945 174.617C71.3232 173.606 72.1555 172.601 72.6941 171.449C73.3017 170.176 73.2009 168.739 71.4643 168.731C70.2576 168.731 68.9933 169.079 67.847 169.433C65.4883 170.162 63.2851 171.294 61.0905 172.405C58.9651 173.483 56.8253 174.565 54.5558 175.311C53.0553 175.804 50.9385 176.377 49.5302 175.311C49.2681 174.56 49.0377 173.805 48.8477 173.056C49.2624 171.878 50.4893 170.701 51.12 169.926L56.6784 163.152L62.3405 156.257C63.2832 155.105 64.2259 153.953 65.1686 152.801C66.0153 151.767 67.0003 150.739 67.5014 149.481C67.9104 148.455 67.9046 147.05 66.9456 146.313C65.8397 145.469 64.0656 146.356 62.9481 146.759C60.2687 147.716 57.6686 148.882 55.1721 150.247C53.7753 151.007 52.4246 151.891 51.0163 152.643C50.8262 152.378 50.639 152.113 50.4403 151.845C52.5427 150.751 54.527 149.432 56.6553 148.389C59.1494 147.157 61.7817 145.99 64.4659 145.241C65.471 144.953 66.5827 144.873 67.4726 145.529C67.8192 145.804 68.106 146.147 68.3155 146.537C68.525 146.927 68.6527 147.355 68.6909 147.796C68.9789 150.206 66.9312 152.168 65.5229 153.873C61.6829 158.554 57.8429 163.234 54.0029 167.913L51.0739 171.484C50.4374 172.259 48.7987 173.843 50.2445 174.652C51.1574 175.153 52.3325 174.954 53.28 174.692C54.4882 174.352 55.6694 173.923 56.8137 173.408C61.2547 171.455 65.4307 168.598 70.3181 167.884C71.3088 167.74 72.4233 167.656 73.2499 168.33C74.016 168.926 74.1485 169.874 73.9555 170.761Z" fill="white"/>
<path d="M78.8659 190.693C77.0895 190.955 75.2961 191.085 73.5005 191.082C73.7683 191.03 74.039 190.984 74.3098 190.944C75.6297 190.745 76.9639 190.656 78.2986 190.679C78.4858 190.682 78.6758 190.685 78.8659 190.693Z" fill="white"/>
<path d="M73.7742 128.56C73.0366 128.123 72.4065 127.525 71.93 126.812C71.4536 126.099 71.1429 125.288 71.0209 124.439C70.7329 122.216 71.9828 120.491 73.1463 118.722C76.0091 114.371 79.1943 110.249 82.0916 105.912C83.1025 104.388 84.0788 102.839 84.9716 101.246C85.1905 101.534 85.4007 101.805 85.5995 102.096C84.3409 104.279 82.9527 106.384 81.5156 108.458C79.9921 110.655 78.411 112.815 76.8615 114.998C75.3668 117.109 73.7857 119.235 72.5214 121.493C72.1578 122.158 71.9628 122.903 71.9536 123.661C71.9444 124.419 72.1211 125.168 72.4684 125.842C72.8157 126.516 73.3229 127.095 73.9457 127.528C74.5685 127.96 75.2878 128.234 76.0407 128.324C77.331 128.465 78.506 127.938 79.6638 127.44C81.9015 126.481 84.0644 125.352 86.2878 124.379C86.2734 124.603 86.2676 124.828 86.2734 125.052C86.2756 125.176 86.2842 125.299 86.2993 125.421C84.0126 126.432 81.795 127.598 79.4852 128.555C77.5873 129.347 75.6519 129.666 73.7742 128.56Z" fill="white"/>
<path d="M75.0155 157.519C74.7851 158.034 74.3127 158.812 74.6151 159.376C74.8196 159.765 75.3409 159.906 75.7412 159.973C76.7118 160.134 77.7803 159.901 78.722 159.659C81.7806 158.881 84.4388 157.11 87.0337 155.321C86.5988 155.998 86.1697 156.672 85.7319 157.337C84.8507 157.913 83.9579 158.458 83.0305 158.953C81.3638 159.887 79.5489 160.528 77.6651 160.848C76.2625 161.061 73.8635 161.136 73.5783 159.253C73.4401 158.357 73.9931 157.412 74.3617 156.629C74.7938 155.713 75.2814 154.824 75.8219 153.968C76.9033 152.278 78.1187 150.679 79.4564 149.184C82.2241 146.033 85.3403 143.214 88.2059 140.155C91.0225 137.151 93.6606 133.839 95.0948 129.931C95.7774 128.076 96.6471 124.891 94.3115 123.8C93.5051 123.422 92.5604 123.443 91.6705 123.595C92.2085 123.212 92.7725 122.867 93.3582 122.561C93.5929 122.59 93.8257 122.634 94.0551 122.691C98.8417 123.918 96.2007 130.346 94.6974 133.145C92.7361 136.8 89.8561 139.896 86.9761 142.831C83.9694 145.872 80.8043 148.804 78.218 152.228C76.9524 153.864 75.8779 155.639 75.0155 157.519Z" fill="white"/>
<path d="M97.4161 176.622C97.3124 177.002 97.1885 177.376 97.0503 177.742C97.0244 177.814 96.9956 177.886 96.9668 177.955C93.7988 179.683 90.7604 181.682 87.3937 183.027C85.513 183.781 83.2493 184.559 81.193 184.314C79.0445 184.058 77.9789 182.258 78.7393 180.23C79.1799 179.052 79.969 178.039 80.7034 177.034C81.4378 176.028 82.2183 175.018 83.0074 174.041C83.0621 173.972 83.1197 173.903 83.1773 173.837C83.6656 173.726 84.1358 173.546 84.5741 173.304C84.7661 173.206 84.9476 173.1 85.1185 172.984C83.4221 175 81.6855 177.08 80.2801 179.32C79.6263 180.366 78.8401 182.071 80.1361 182.975C81.0778 183.635 82.4861 183.393 83.5316 183.188C87.9697 182.324 91.8145 179.732 95.6938 177.564C96.2525 177.247 96.8285 176.927 97.4161 176.622Z" fill="white"/>
<path d="M73.5005 181.774V232.013C73.5005 234.695 74.5657 237.267 76.4619 239.164C78.3582 241.06 80.9301 242.126 83.6122 242.127" stroke="#010149" stroke-linecap="round" stroke-linejoin="round"/>
<path d="M86.1121 229.228C85.8471 230.507 83.1889 244.558 83.2321 244.558H77.3885C75.6581 242.69 74.1796 240.603 72.9908 238.352C72.8813 238.15 72.7777 237.943 72.674 237.735C71.7148 235.832 70.9673 233.829 70.4449 231.762C70.2389 231.095 70.1655 230.393 70.2289 229.697C70.2648 229.364 70.3793 229.043 70.563 228.762C70.7467 228.481 70.9944 228.248 71.2858 228.082L71.3636 228.047C71.4508 228.01 71.5415 227.981 71.6343 227.961C71.9444 227.907 72.2623 227.921 72.5665 228.001C72.8707 228.082 73.154 228.227 73.3969 228.427C73.9458 228.903 74.3925 229.485 74.7101 230.138C74.7677 230.239 74.8225 230.342 74.8772 230.446C74.9953 230.662 75.1105 230.881 75.2228 231.1C76.0788 232.783 76.774 234.542 77.2993 236.356C77.0833 233.297 77.1466 230.224 77.2129 227.16C77.2993 222.97 77.7313 217.797 80.4759 214.39C80.895 213.827 81.4595 213.388 82.1089 213.12C82.7395 212.907 83.4244 212.919 84.0471 213.155C84.1623 213.198 84.2775 213.244 84.3898 213.299C84.6569 213.425 84.9075 213.583 85.1357 213.771C85.9456 214.494 86.543 215.424 86.8637 216.461C88.3642 220.689 86.9905 225.026 86.1121 229.228Z" fill="#FF6635"/>
<path d="M84.3838 213.287C83.9576 214.752 83.5601 216.227 83.1915 217.711C82.3448 221.121 81.6497 224.565 81.1064 228.044C81.0459 228.416 80.9912 228.784 80.9364 229.156C80.8001 230.077 80.6763 230.999 80.5649 231.921C80.3403 233.758 80.1598 235.598 80.0235 237.442C80.0062 237.66 79.9889 237.876 79.9745 238.092C79.8248 240.243 79.7345 242.398 79.7038 244.558V244.578V244.558H79.3467C79.3467 244.368 79.3467 244.178 79.3467 243.982C79.3832 242.031 79.4686 240.084 79.603 238.139C79.9356 233.333 80.5578 228.552 81.4664 223.822C81.5038 223.641 81.5384 223.459 81.5758 223.278C81.6238 223.019 81.6756 222.759 81.7313 222.5C82.3726 219.349 83.1406 216.228 84.0353 213.134C84.162 213.186 84.2772 213.232 84.3838 213.287Z" fill="white"/>
<path d="M80.9452 229.15C82.343 226.462 83.8607 223.849 85.4985 221.311C85.6281 221.109 85.3084 220.922 85.1788 221.124C83.543 223.66 82.03 226.272 80.6399 228.96C80.5305 229.173 80.8502 229.36 80.9596 229.147L80.9452 229.15Z" fill="white"/>
<path d="M81.9244 223.16C81.2567 221.066 81.0658 218.849 81.3657 216.671C81.4002 216.438 81.0431 216.337 81.0085 216.573C80.6914 218.815 80.8823 221.1 81.5673 223.258C81.6364 223.485 81.9964 223.387 81.9244 223.16Z" fill="white"/>
<path d="M80.084 238.018C81.4384 236.042 82.6603 233.978 83.7416 231.84C83.8482 231.63 83.5285 231.44 83.422 231.653C82.3443 233.79 81.1263 235.854 79.7759 237.83C79.6405 238.026 79.9602 238.213 80.0956 238.018H80.084Z" fill="white"/>
<path d="M79.6952 244.558H79.2575C79.0242 244.178 78.7967 243.798 78.5692 243.406C77.9164 242.302 77.2856 241.185 76.677 240.054C76.5877 239.893 76.5013 239.728 76.4149 239.564C74.449 235.861 72.7354 232.03 71.2856 228.096L71.3634 228.061C71.4507 228.024 71.5413 227.995 71.6341 227.975C71.7868 228.396 71.9452 228.813 72.1036 229.231C73.0194 231.612 74.0322 233.954 75.142 236.258C75.2946 236.581 75.453 236.903 75.6143 237.223C76.7663 239.527 78.0143 241.788 79.3583 244.005C79.462 244.181 79.5772 244.368 79.6952 244.558Z" fill="white"/>
<path d="M75.6172 237.208C75.6172 237.416 75.2687 237.404 75.2456 237.18C75.2111 236.868 75.1765 236.557 75.1448 236.244C74.9072 234.321 74.8186 232.383 74.8799 230.446C74.998 230.662 75.1132 230.881 75.2255 231.1C75.2234 233.133 75.3543 235.164 75.6172 237.18C75.6186 237.189 75.6186 237.199 75.6172 237.208Z" fill="white"/>
<path d="M76.7029 240.074H76.677C75.3997 239.615 74.166 239.042 72.9906 238.363C72.8812 238.162 72.7775 237.954 72.6738 237.747C73.8617 238.475 75.1152 239.09 76.4178 239.584L76.8037 239.728C77.0226 239.795 76.9276 240.155 76.7029 240.074Z" fill="white"/>
<path d="M173.212 227.143C173.212 227.143 167.651 232.802 168.241 242.407C168.241 242.41 163.509 231.88 173.212 227.143Z" fill="#957FEF"/>
<path d="M168.241 242.41C168.241 242.41 164.722 233.254 166.029 221.411C166.029 221.411 160.935 232.894 168.241 242.41Z" fill="#957FEF"/>
<path d="M168.241 242.41C168.241 242.41 164.629 235.691 150.074 230.838C150.074 230.838 163.175 230.374 168.241 242.41Z" fill="#957FEF"/>
<path d="M168.241 242.41C168.241 242.41 162.576 234.611 149.049 238.277C149.049 238.277 162.334 238.026 168.241 242.41Z" fill="#957FEF"/>
<path d="M168.241 242.41C168.241 242.41 162.979 232.41 143.185 232.255C143.191 232.255 160.416 235.786 168.241 242.41Z" fill="#957FEF"/>
<path d="M168.241 242.41C168.241 242.41 166.271 230.184 179.879 231.581C179.879 231.581 171.467 232.721 168.241 242.41Z" fill="#957FEF"/>
<path d="M168.241 242.41C168.241 242.41 170.888 238.254 179.51 239.967C179.51 239.967 171.467 235.135 168.241 242.41Z" fill="#957FEF"/>
<path d="M168.241 242.41C168.241 242.41 168.716 235.264 179.217 233.171C179.217 233.171 172.293 236.468 168.241 242.41Z" fill="#957FEF"/>
<path d="M105.696 261.075H32.7052C29.6841 256.608 28.4083 251.032 31.2652 246.001C32.9932 242.968 36.6364 240.549 39.9052 241.793C43.3382 243.101 44.3059 247.415 44.6947 251.067C44.8358 244.84 49.0147 238.896 54.8409 236.667C57.3897 235.691 60.2639 235.397 62.8646 236.229C65.4652 237.061 67.7318 239.109 68.4633 241.744C69.2351 244.5 68.2963 247.435 67.1241 250.047C69.6729 246.139 74.0361 243.746 78.5088 242.41C81.4492 241.531 84.5798 241.047 87.5951 241.635C90.6105 242.222 93.4905 244.011 94.8556 246.761C96.0278 249.129 95.8291 252.202 94.2278 254.249C96.6729 252.233 100.564 252 103.13 253.941C105.261 255.554 106.203 258.468 105.696 261.075Z" fill="#463B70"/>
<path d="M45.8755 87.7564H120.142C120.969 83.8022 118.063 79.7587 114.319 78.2524C110.575 76.7462 106.298 77.2847 102.456 78.5404C100.457 79.1855 98.4556 80.0236 96.3561 79.9804C94.1788 79.9315 92.1542 78.9436 90.0892 78.2524C85.6012 76.745 80.7693 76.5888 76.1932 77.8031C72.6883 78.7391 69.4454 80.4556 66.0153 81.6364C62.5852 82.8172 58.7606 83.4451 55.3593 82.1635C53.7292 81.5443 51.8025 80.5305 50.4115 81.5875C49.6108 82.1923 49.3113 83.3155 48.4559 83.8425C47.8799 84.1939 47.1686 84.1967 46.5004 84.2745C45.8323 84.3523 45.095 84.5625 44.7724 85.1587C44.4499 85.7548 45.2159 87.9062 45.8755 87.7564Z" fill="#E9F9FF"/>
<path d="M208.624 92.2867H251.231C251.327 91.199 251.127 90.1056 250.652 89.1224C250.178 88.1391 249.445 87.3028 248.533 86.7022C247.621 86.1016 246.564 85.759 245.473 85.7109C244.382 85.6627 243.299 85.9108 242.337 86.4288C240.863 84.5416 238.978 83.0147 236.825 81.9639C234.673 80.9131 232.31 80.3658 229.914 80.3636C227.519 80.3614 225.155 80.9042 223.001 81.9511C220.846 82.9979 218.959 84.5213 217.48 86.4058C216.561 87.575 215.536 89.0208 214.05 88.9603C213.474 88.9344 212.936 88.6723 212.371 88.56C210.24 88.128 208.04 90.1872 208.624 92.2867Z" fill="#E9F9FF"/>
<path d="M177.866 36.0691C177.984 35.5605 177.987 35.0319 177.876 34.5219C177.764 34.0118 177.54 33.5329 177.221 33.12C176.925 32.7332 176.54 32.4236 176.099 32.2175C175.657 32.0114 175.173 31.9149 174.686 31.9363C174.2 31.9724 173.736 32.1577 173.359 32.4669C172.982 32.7762 172.709 33.1943 172.578 33.6643C172.143 31.7232 171.357 29.7849 169.894 28.4371C168.431 27.0893 166.179 26.4701 164.382 27.3283C163.284 27.8525 162.475 28.8547 161.951 29.952C161.469 31.0699 161.115 32.239 160.897 33.4368C160.632 32.8205 160.139 32.0803 159.491 32.2502C159.077 32.3597 158.852 32.8032 158.751 33.215C158.65 33.6269 158.619 34.079 158.374 34.4275C158.386 34.2299 158.359 34.0318 158.294 33.8449C158.228 33.658 158.126 33.4859 157.994 33.3389C157.858 33.1948 157.679 33.0989 157.483 33.0656C157.288 33.0324 157.087 33.0636 156.911 33.1545C156.312 33.5145 156.47 34.488 155.975 34.9833C155.776 34.4649 155.436 33.912 154.886 33.8313C154.64 33.8236 154.397 33.8922 154.19 34.0277C153.984 34.1633 153.825 34.3593 153.734 34.5888C153.562 35.0563 153.489 35.5546 153.521 36.0518L177.866 36.0691Z" fill="#E9F9FF"/>
<path d="M182.128 232.675C182.29 233.444 183.891 241.914 183.874 241.914H187.393C188.435 240.787 189.326 239.528 190.043 238.17C190.11 238.049 190.173 237.925 190.233 237.799C190.81 236.651 191.261 235.444 191.578 234.199C191.701 233.796 191.745 233.374 191.707 232.955C191.686 232.753 191.617 232.56 191.506 232.391C191.396 232.222 191.246 232.081 191.071 231.981L191.025 231.958C190.972 231.936 190.917 231.918 190.86 231.906C190.673 231.875 190.481 231.884 190.298 231.934C190.114 231.984 189.944 232.073 189.798 232.194C189.468 232.482 189.198 232.832 189.006 233.225L188.905 233.41C188.833 233.542 188.764 233.672 188.698 233.804C188.18 234.818 187.76 235.878 187.445 236.972C187.574 235.126 187.537 233.274 187.497 231.428C187.445 228.902 187.186 225.783 185.53 223.73C185.278 223.387 184.937 223.12 184.545 222.958C184.169 222.834 183.763 222.841 183.393 222.978L183.185 223.065C183.024 223.141 182.873 223.238 182.736 223.353C182.247 223.788 181.887 224.349 181.693 224.974C180.775 227.52 181.601 230.141 182.128 232.675Z" fill="#E9F9FF"/>
<path d="M183.168 223.065C183.425 223.95 183.664 224.839 183.885 225.732C184.397 227.788 184.817 229.864 185.143 231.961C185.178 232.183 185.213 232.407 185.244 232.629C185.327 233.184 185.402 233.74 185.469 234.297C185.605 235.406 185.715 236.516 185.797 237.626C185.797 237.756 185.817 237.888 185.826 238.018C185.915 239.314 185.97 240.61 185.99 241.914H186.203C186.203 241.799 186.203 241.687 186.203 241.572C186.18 240.397 186.128 239.222 186.048 238.049C185.848 235.149 185.473 232.264 184.925 229.409C184.904 229.3 184.881 229.19 184.861 229.081L184.766 228.612C184.382 226.713 183.917 224.831 183.372 222.967L183.168 223.065Z" fill="white"/>
<path d="M185.247 232.626C184.402 231.012 183.487 229.436 182.502 227.9C182.425 227.779 182.618 227.667 182.695 227.788C183.68 229.324 184.595 230.899 185.44 232.514C185.506 232.641 185.313 232.756 185.247 232.626Z" fill="white"/>
<path d="M184.657 229.015C185.059 227.752 185.174 226.416 184.994 225.104C184.974 224.966 185.19 224.905 185.207 225.046C185.4 226.398 185.286 227.776 184.873 229.078C184.83 229.213 184.614 229.156 184.657 229.018V229.015Z" fill="white"/>
<path d="M185.76 237.972C184.944 236.782 184.208 235.54 183.557 234.254C183.49 234.127 183.683 234.014 183.75 234.141C184.401 235.428 185.137 236.67 185.953 237.859C186.036 237.977 185.84 238.09 185.76 237.972Z" fill="white"/>
<path d="M186.002 241.92H186.264C186.405 241.693 186.552 241.462 186.678 241.232C187.072 240.566 187.456 239.894 187.83 239.216L187.989 238.928C189.175 236.696 190.209 234.387 191.082 232.016L191.036 231.993C190.983 231.97 190.928 231.953 190.872 231.941C190.78 232.194 190.685 232.448 190.584 232.698C190.033 234.136 189.422 235.549 188.752 236.935C188.66 237.131 188.565 237.324 188.464 237.511C187.773 238.905 187.023 240.267 186.215 241.598L186.002 241.92Z" fill="white"/>
<path d="M188.458 237.485C188.458 237.609 188.669 237.603 188.683 237.468L188.743 236.892C188.889 235.732 188.943 234.563 188.905 233.395C188.833 233.528 188.764 233.657 188.697 233.79C188.699 235.015 188.62 236.239 188.461 237.453C188.458 237.458 188.457 237.463 188.456 237.469C188.456 237.474 188.456 237.48 188.458 237.485Z" fill="white"/>
<path d="M187.805 239.213C188.575 238.934 189.319 238.588 190.028 238.179C190.095 238.058 190.158 237.934 190.218 237.807C189.502 238.246 188.747 238.617 187.963 238.916L187.733 239.003C187.612 239.04 187.669 239.259 187.805 239.213Z" fill="white"/>
<path d="M200.683 223.065C200.941 223.95 201.18 224.839 201.4 225.732C201.913 227.788 202.333 229.864 202.659 231.961C202.694 232.183 202.728 232.407 202.76 232.629C202.842 233.184 202.917 233.74 202.984 234.297C203.121 235.406 203.23 236.516 203.313 237.626C203.313 237.756 203.333 237.888 203.342 238.018C203.431 239.314 203.486 240.61 203.506 241.914H203.719C203.719 241.799 203.719 241.687 203.719 241.572C203.696 240.397 203.644 239.222 203.563 238.049C203.364 235.149 202.989 232.264 202.44 229.409C202.42 229.3 202.397 229.19 202.377 229.081L202.282 228.612C201.898 226.713 201.433 224.831 200.888 222.967L200.683 223.065Z" fill="white"/>
<path d="M202.763 232.626C201.918 231.012 201.003 229.436 200.018 227.9C199.94 227.779 200.133 227.667 200.211 227.788C201.196 229.324 202.111 230.899 202.956 232.514C203.022 232.641 202.829 232.756 202.763 232.626Z" fill="white"/>
<path d="M202.172 229.015C202.574 227.752 202.689 226.416 202.509 225.104C202.489 224.966 202.705 224.905 202.723 225.046C202.915 226.398 202.801 227.776 202.388 229.078C202.345 229.213 202.129 229.156 202.172 229.018V229.015Z" fill="white"/>
<path d="M203.275 237.972C202.46 236.782 201.724 235.54 201.072 234.254C201.006 234.127 201.199 234.014 201.265 234.141C201.917 235.428 202.653 236.67 203.468 237.859C203.552 237.977 203.356 238.09 203.275 237.972Z" fill="white"/>
<path d="M203.517 241.92H203.779C203.921 241.693 204.067 241.462 204.194 241.232C204.588 240.566 204.972 239.894 205.346 239.216L205.505 238.928C206.691 236.696 207.724 234.387 208.598 232.016L208.552 231.993C208.499 231.97 208.444 231.953 208.387 231.941C208.295 232.194 208.2 232.448 208.099 232.698C207.548 234.136 206.938 235.549 206.268 236.935C206.176 237.131 206.081 237.324 205.98 237.511C205.289 238.905 204.539 240.267 203.73 241.598L203.517 241.92Z" fill="white"/>
<path d="M205.974 237.485C205.974 237.609 206.184 237.603 206.199 237.468L206.259 236.892C206.405 235.732 206.459 234.563 206.42 233.395C206.348 233.528 206.279 233.657 206.213 233.79C206.215 235.015 206.136 236.239 205.977 237.453C205.974 237.458 205.972 237.463 205.972 237.469C205.971 237.474 205.972 237.48 205.974 237.485Z" fill="white"/>
<path d="M205.32 239.213C206.09 238.934 206.834 238.588 207.544 238.179C207.611 238.058 207.674 237.934 207.734 237.807C207.018 238.246 206.263 238.617 205.479 238.916L205.248 239.003C205.127 239.04 205.185 239.259 205.32 239.213Z" fill="white"/>
<path d="M162.812 141.356C160.592 130.496 156.361 120.156 151.885 110.013C150.541 106.963 148.801 103.591 145.596 102.678C144.254 102.298 142.79 102.407 141.494 101.886C140.198 101.364 139.139 99.7632 139.905 98.5968C140.383 97.871 141.359 97.6522 142.229 97.6982C143.099 97.7443 143.957 97.9862 144.821 97.943C143.67 96.3497 142.673 94.6505 141.843 92.8685C141.567 92.344 141.383 91.7761 141.299 91.1894C141.258 90.8958 141.284 90.5967 141.374 90.3145C141.465 90.0322 141.618 89.7741 141.823 89.5594C142.255 89.1533 143.263 88.3728 143.706 88.7674C143.833 88.177 143.919 88.2922 144.282 87.7997C144.625 87.2982 145.136 86.9356 145.722 86.7773C146.039 86.7064 146.369 86.7095 146.684 86.7864C147 86.8633 147.294 87.012 147.542 87.2208C147.606 86.7887 147.719 86.3655 147.879 85.9594C147.936 85.7517 148.033 85.5572 148.165 85.3875C148.298 85.2177 148.462 85.0758 148.65 84.9703C148.838 84.8647 149.044 84.7974 149.258 84.7724C149.472 84.7474 149.689 84.7652 149.895 84.8246C150.314 84.9277 150.719 85.0804 151.102 85.2797C151.174 84.6104 151.433 83.9749 151.848 83.4451C152.095 83.1904 152.405 83.0049 152.746 82.9069C153.087 82.8089 153.447 82.8018 153.792 82.8864C154.484 83.0666 155.116 83.4285 155.621 83.9347C157.738 85.8816 159.054 88.6291 160.387 91.1347C161.928 94.0147 163.357 96.9725 164.707 99.9562C167.414 105.932 169.799 112.052 172.106 118.187C175.813 128.048 179.338 138.033 181.264 148.389" stroke="#010149" stroke-linecap="round" stroke-linejoin="round"/>
<path d="M143.712 88.7673C145.109 91.1001 146.817 93.3926 147.992 95.8435" stroke="#010149" stroke-linecap="round" stroke-linejoin="round"/>
<path d="M147.571 86.9126C148.838 89.4873 150.451 91.9958 151.549 94.6483" stroke="#010149" stroke-linecap="round" stroke-linejoin="round"/>
<path d="M151.166 85.1932C152.241 87.6009 153.369 89.9827 154.55 92.3385" stroke="#010149" stroke-linecap="round" stroke-linejoin="round"/>
<path d="M148.896 97.9747C150.264 97.8969 151.75 97.8509 152.873 98.6371C153.206 98.8671 153.484 99.1665 153.689 99.5145C153.895 99.8626 154.022 100.251 154.063 100.653" stroke="#010149" stroke-linecap="round" stroke-linejoin="round"/>
<path d="M175.291 157.378L173.883 158.112C169.633 160.374 165.271 162.419 160.813 164.238L160.632 164.304C160.595 164.32 160.558 164.333 160.52 164.344H160.502C159.341 164.714 158.083 164.631 156.98 164.111C156.144 163.718 155.417 163.124 154.864 162.383C154.312 161.643 153.95 160.777 153.812 159.863C153.763 159.575 153.72 159.27 153.677 158.976C153.634 158.682 153.59 158.4 153.55 158.112C153.498 157.729 153.446 157.352 153.397 156.96C153.109 154.705 152.87 152.41 152.994 150.166C153.037 149.247 153.155 148.333 153.346 147.433C153.344 147.425 153.344 147.418 153.346 147.41C154.014 144.317 155.828 141.391 158.627 140.265C161.427 139.139 164.675 139.977 167.282 141.682C169.508 143.148 171.314 145.195 173.019 147.326C173.307 147.689 173.595 148.055 173.883 148.421L174.378 149.066L174.456 149.17L174.499 149.227L174.689 149.475C174.723 149.515 174.755 149.557 174.784 149.602C175.326 150.307 175.859 151.007 176.388 151.715C177.808 153.611 177.287 156.349 175.291 157.378Z" fill="#603BE5"/>
<path d="M127.362 191.748L118.601 203.556C115.367 201.272 112.107 199.051 108.832 196.96C108.227 197.225 106.773 197.726 105.088 198.288C102.836 199.04 100.979 196.393 102.462 194.544C105.002 191.376 107.62 188.237 110.287 185.184C111.285 184.032 112.291 182.902 113.305 181.794C114.637 182.754 115.967 183.707 117.294 184.651C120.672 187.024 124.013 189.383 127.362 191.748Z" fill="#FF6B6B"/>
<path d="M245.408 191.209C241.321 192.868 237.2 194.492 233.078 196.021C231.734 196.517 230.39 197.003 229.046 197.479L227.177 193.487L220.962 180.199L236.667 173.376C238.57 177.327 240.445 181.287 242.242 185.288C243.167 185.616 244.152 185.915 245.16 186.209C245.689 186.362 246.158 186.677 246.5 187.11C246.842 187.542 247.04 188.07 247.068 188.621C247.095 189.171 246.95 189.717 246.652 190.181C246.354 190.645 245.919 191.004 245.408 191.209Z" fill="#FF6B6B"/>
<path d="M236.667 173.376L220.974 180.193L215.649 168.803L173.557 185.112C166.333 193.474 159.097 201.835 151.851 210.197C150.431 211.835 149.003 213.483 147.298 214.822C145.037 216.596 141.826 218.013 138.897 217.44C136.768 217.022 134.968 215.657 133.24 214.347C128.48 210.732 123.575 207.058 118.601 203.541L127.362 191.733C131.124 194.388 134.888 197.052 138.666 199.777C145.77 190.233 153.186 180.926 160.914 171.858C163.411 168.921 166.009 165.833 169.667 164.609C171.622 163.958 173.676 163.512 175.741 163.59C177.805 163.668 180.009 164.353 181.604 165.663L205.445 155.739C211.83 153.081 219.298 149.138 225.844 153.809C230.08 156.833 231.892 163.5 234.072 168.011C234.942 169.806 235.807 171.594 236.667 173.376Z" fill="#FE1D00"/>
<path d="M153.038 143.493C144.57 136.171 136.656 128.233 129.358 119.745C127.457 117.533 125.568 115.2 124.704 112.415C123.526 108.539 124.482 104.086 122.53 100.535C122.144 99.8381 121.167 99.1555 120.661 99.7719C120.53 99.9585 120.451 100.176 120.43 100.403C120.14 102.135 120.024 103.892 120.085 105.647C118.863 103.516 116.986 101.393 115.275 99.6307C114.682 99.0202 113.99 98.401 113.138 98.3376C112.286 98.2743 111.364 99.0922 111.658 99.8928C111.16 99.495 110.535 99.2904 109.898 99.3168C109.63 99.3643 109.371 99.4547 109.132 99.5847C108.793 99.7117 108.495 99.9275 108.268 100.21C108.176 100.36 108.111 100.524 108.075 100.696C107.979 101.134 107.999 101.588 108.133 102.015C107.793 101.808 107.513 101.696 107.174 101.488C107.071 101.404 106.946 101.352 106.814 101.34C106.682 101.327 106.549 101.355 106.433 101.419C106.226 101.499 106.023 101.589 105.826 101.69C105.662 101.766 105.512 101.868 105.382 101.992C105.207 102.201 105.092 102.453 105.048 102.721C104.87 103.498 104.883 104.306 105.086 105.077C104.063 105.016 103.07 106.186 102.92 107.199C102.77 108.213 103.118 109.215 103.51 110.18C106.174 116.643 110.912 122.449 115.194 127.918C119.557 133.49 124.243 138.802 129.226 143.827C135.555 150.21 142.351 156.112 149.558 161.484" stroke="#010149" stroke-linecap="round" stroke-linejoin="round"/>
<path d="M104.941 104.918L110.125 112.51" stroke="#010149" stroke-linecap="round" stroke-linejoin="round"/>
<path d="M107.928 101.71C108.477 102.795 109.113 103.834 109.829 104.818L113.233 109.771" stroke="#010149" stroke-linecap="round" stroke-linejoin="round"/>
<path d="M111.396 99.8179C113.066 102.122 114.698 104.444 116.292 106.785" stroke="#010149" stroke-linecap="round" stroke-linejoin="round"/>
<path d="M118.152 109.313C117.552 110.501 117.334 111.845 117.527 113.161C117.628 113.815 117.86 114.442 118.209 115.004C118.558 115.565 119.018 116.051 119.56 116.43" stroke="#010149" stroke-linecap="round" stroke-linejoin="round"/>
<path d="M115.894 113.613C115.298 113.332 114.628 113.245 113.98 113.365C113.332 113.486 112.738 113.807 112.283 114.284" stroke="#010149" stroke-linecap="round" stroke-linejoin="round"/>
<path d="M157.522 138.401C160.412 138.401 162.754 136.058 162.754 133.168C162.754 130.278 160.412 127.935 157.522 127.935C154.631 127.935 152.289 130.278 152.289 133.168C152.289 136.058 154.631 138.401 157.522 138.401Z" fill="white"/>
<path d="M157.522 138.401C160.412 138.401 162.754 136.058 162.754 133.168C162.754 130.278 160.412 127.935 157.522 127.935C154.631 127.935 152.289 130.278 152.289 133.168C152.289 136.058 154.631 138.401 157.522 138.401Z" stroke="#010149" stroke-linecap="round" stroke-linejoin="round"/>
<path d="M160.992 132.091C160.993 132.576 161.047 133.058 161.153 133.531C161.343 134.317 161.775 135.282 162.593 135.602C162.952 135.721 163.333 135.757 163.708 135.707C164.083 135.657 164.441 135.523 164.756 135.314C165.435 134.839 165.965 134.181 166.285 133.416C166.931 132.005 167.122 130.428 166.833 128.903C166.709 128.264 166.424 127.561 165.807 127.356C165.191 127.152 164.618 127.503 164.022 127.644C162.279 128.082 160.566 126.884 159.258 125.672C157.951 124.459 156.502 123.08 154.708 123.045C154.033 123.033 153.369 123.221 152.801 123.586C152.233 123.951 151.786 124.476 151.516 125.095C151.247 125.714 151.167 126.4 151.287 127.064C151.407 127.729 151.722 128.342 152.191 128.828C151.959 128.786 151.72 128.794 151.492 128.852C151.264 128.91 151.05 129.017 150.867 129.166C150.684 129.314 150.535 129.5 150.431 129.712C150.327 129.923 150.269 130.155 150.263 130.39C150.257 130.626 150.302 130.86 150.394 131.077C150.487 131.294 150.626 131.488 150.801 131.646C150.976 131.804 151.183 131.922 151.408 131.993C151.633 132.063 151.87 132.084 152.104 132.054C152.337 132.377 152.658 132.627 153.028 132.773C153.399 132.919 153.804 132.956 154.195 132.877C154.941 132.67 155.616 132.26 156.145 131.694C156.472 131.348 156.824 131.028 157.199 130.735C157.665 130.416 158.204 130.22 158.765 130.165C159.327 130.11 159.894 130.197 160.413 130.418C160.591 130.468 160.746 130.579 160.851 130.731C160.956 130.882 161.005 131.066 160.989 131.25C160.972 131.527 160.975 131.809 160.992 132.091Z" fill="#170C2C"/>
<path d="M155.387 141.408C155.428 141.48 155.471 141.552 155.52 141.624C156.107 142.583 157.014 143.305 158.08 143.663C159.823 144.196 161.839 143.401 162.861 141.898C163.36 141.147 163.639 140.272 163.667 139.372" stroke="#010149" stroke-linecap="round" stroke-linejoin="round"/>
<path d="M161.533 147.56C162.017 147.56 162.409 147.168 162.409 146.684C162.409 146.201 162.017 145.809 161.533 145.809C161.05 145.809 160.658 146.201 160.658 146.684C160.658 147.168 161.05 147.56 161.533 147.56Z" stroke="#010149" stroke-linecap="round" stroke-linejoin="round"/>
<path d="M163.668 152.263C164.151 152.263 164.543 151.871 164.543 151.387C164.543 150.904 164.151 150.512 163.668 150.512C163.184 150.512 162.792 150.904 162.792 151.387C162.792 151.871 163.184 152.263 163.668 152.263Z" stroke="#010149" stroke-linecap="round" stroke-linejoin="round"/>
<path d="M165.946 157.139C166.429 157.139 166.821 156.747 166.821 156.263C166.821 155.78 166.429 155.388 165.946 155.388C165.462 155.388 165.07 155.78 165.07 156.263C165.07 156.747 165.462 157.139 165.946 157.139Z" stroke="#010149" stroke-linecap="round" stroke-linejoin="round"/>
<path d="M160.911 171.87C160.911 171.87 171.366 173.284 181.601 165.678" stroke="white" stroke-width="2" stroke-linecap="round" stroke-linejoin="round"/>
<path d="M176.846 181.31L173.557 185.112" stroke="white" stroke-width="2" stroke-linecap="round" stroke-linejoin="round"/>
<path d="M222.748 154.924C222.828 155.159 222.966 155.371 223.149 155.539C223.332 155.707 223.555 155.826 223.796 155.886C223.848 155.903 223.902 155.909 223.957 155.904C224.011 155.898 224.063 155.881 224.11 155.854C224.237 155.756 224.214 155.566 224.162 155.408C224.018 154.997 223.76 154.636 223.419 154.366C223.078 154.096 222.668 153.928 222.235 153.881C222.123 153.862 222.008 153.876 221.904 153.922C221.819 153.984 221.752 154.069 221.712 154.168C221.672 154.266 221.66 154.373 221.677 154.477C221.756 155.116 222.062 155.705 222.541 156.136C223.001 156.611 223.693 157.035 224.294 156.784C224.896 156.534 225.084 155.773 224.87 155.183C224.618 154.605 224.173 154.132 223.612 153.844C223.192 153.59 222.746 153.384 222.281 153.228C221.861 153.043 221.386 153.022 220.951 153.17C220.323 153.458 220.144 154.284 220.248 154.97C220.375 155.699 220.722 156.373 221.241 156.9C221.761 157.428 222.429 157.784 223.157 157.922C223.519 157.995 223.893 157.992 224.254 157.912C224.615 157.832 224.956 157.678 225.254 157.458C225.547 157.232 225.762 156.921 225.87 156.567C225.978 156.212 225.973 155.834 225.855 155.483" stroke="white" stroke-width="2" stroke-linecap="round" stroke-linejoin="round"/>
<path d="M140.743 213.12C140.959 213.243 141.202 213.31 141.451 213.314C141.7 213.318 141.945 213.259 142.165 213.143C142.215 213.122 142.26 213.091 142.297 213.051C142.334 213.011 142.362 212.964 142.379 212.913C142.41 212.754 142.26 212.625 142.122 212.544C141.742 212.332 141.309 212.232 140.874 212.256C140.439 212.28 140.02 212.427 139.666 212.679C139.571 212.741 139.495 212.828 139.447 212.93C139.423 213.035 139.429 213.145 139.464 213.246C139.499 213.348 139.562 213.438 139.645 213.506C140.128 213.931 140.747 214.169 141.391 214.177C142.05 214.226 142.831 214.091 143.119 213.494C143.407 212.898 143.041 212.216 142.494 211.913C141.921 211.648 141.274 211.589 140.662 211.746C140.18 211.836 139.709 211.977 139.257 212.167C138.82 212.309 138.453 212.609 138.226 213.008C137.938 213.641 138.361 214.379 138.894 214.819C139.472 215.283 140.177 215.559 140.917 215.61C141.656 215.661 142.393 215.486 143.029 215.107C143.348 214.922 143.624 214.673 143.841 214.375C144.058 214.078 144.211 213.739 144.291 213.379C144.359 213.015 144.312 212.639 144.158 212.303C144.003 211.966 143.748 211.686 143.427 211.501" stroke="white" stroke-width="2" stroke-linecap="round" stroke-linejoin="round"/>
<path d="M166.709 174.107C166.585 174.835 166.313 175.528 165.91 176.146C165.506 176.763 164.98 177.291 164.364 177.696C163.747 178.101 163.054 178.375 162.328 178.501C161.601 178.627 160.856 178.602 160.139 178.427L142.183 201.332C141.558 202.133 140.654 202.667 139.651 202.827C138.649 202.987 137.623 202.762 136.78 202.196L125.332 194.492" stroke="white" stroke-width="2" stroke-linecap="round" stroke-linejoin="round"/>
<path d="M112.582 198.135C113.104 198.135 113.527 197.712 113.527 197.191C113.527 196.669 113.104 196.246 112.582 196.246C112.06 196.246 111.637 196.669 111.637 197.191C111.637 197.712 112.06 198.135 112.582 198.135Z" stroke="#010149" stroke-width="2" stroke-linecap="round" stroke-linejoin="round"/>
<path d="M116.107 200.592C116.629 200.592 117.052 200.169 117.052 199.647C117.052 199.126 116.629 198.703 116.107 198.703C115.586 198.703 115.163 199.126 115.163 199.647C115.163 200.169 115.586 200.592 116.107 200.592Z" stroke="#010149" stroke-width="2" stroke-linecap="round" stroke-linejoin="round"/>
<path d="M236.918 179.139C237.439 179.139 237.862 178.716 237.862 178.194C237.862 177.672 237.439 177.25 236.918 177.25C236.396 177.25 235.973 177.672 235.973 178.194C235.973 178.716 236.396 179.139 236.918 179.139Z" stroke="#010149" stroke-width="2" stroke-linecap="round" stroke-linejoin="round"/>
<path d="M239.043 184.081C239.565 184.081 239.987 183.658 239.987 183.136C239.987 182.615 239.565 182.192 239.043 182.192C238.521 182.192 238.098 182.615 238.098 183.136C238.098 183.658 238.521 184.081 239.043 184.081Z" stroke="#010149" stroke-width="2" stroke-linecap="round" stroke-linejoin="round"/>
<path d="M233.078 196.021C231.734 196.517 230.39 197.003 229.046 197.479L227.177 193.487C227.635 193.352 228.111 193.284 228.588 193.285C229.516 193.283 230.427 193.537 231.219 194.02C232.012 194.503 232.655 195.196 233.078 196.021Z" fill="#010149"/>
<path d="M117.302 184.631C116.436 185.615 115.219 186.221 113.911 186.32C112.604 186.42 111.31 186.005 110.304 185.164C111.302 184.012 112.308 182.882 113.322 181.774C114.651 182.734 115.978 183.686 117.302 184.631Z" fill="#010149"/>
<path d="M148.404 139.375L138.174 152.263" stroke="#010149" stroke-linecap="round" stroke-linejoin="round"/>
<path d="M161.798 136.953L177.474 133.456" stroke="#010149" stroke-linecap="round" stroke-linejoin="round"/>
<path d="M112.582 242.127H165.07" stroke="#010149" stroke-linecap="round" stroke-linejoin="round"/>
<path d="M170.761 242.127H173.557" stroke="#010149" stroke-linecap="round" stroke-linejoin="round"/>
</svg>
