<svg width="60" height="60" viewBox="0 0 60 60" fill="none" xmlns="http://www.w3.org/2000/svg">
<g clip-path="url(#clip0_2990_1885)">
<path d="M60.3097 0H0V60H60.3097V0Z" fill="#787CD1"/>
<path opacity="0.4" d="M37.5418 59.9936C31.376 53.8595 17.668 39.9782 17.668 39.9782L17.6837 21.1904L27.214 21.4051L30.4011 22.9268L31.872 23.9024C31.872 23.9024 33.3616 25.2829 37.0204 29.0244V21.4051H40.6978C40.6978 21.4051 54.3729 36.866 60.4583 42.9206V48.2865C60.4166 49.4541 60.4583 52.4327 60.4583 52.4327V55.6034V59.9936H53.1035L48.4293 59.9834C48.4293 59.9834 42.9378 59.9995 41.0152 59.9995C38.8539 60.0019 37.532 59.9971 37.5418 59.9936Z" fill="#302B70"/>
<path d="M23.9781 21.1259C25.9197 21.1259 27.6231 21.5034 29.0882 22.2585C30.5709 23.0137 31.7095 24.0937 32.5038 25.4985C33.3158 26.8859 33.7218 28.5015 33.7218 30.3454C33.7218 32.1893 33.3158 33.8049 32.5038 35.1922C31.7095 36.562 30.5709 37.6244 29.0882 38.3795C27.6231 39.1346 25.9197 39.5122 23.9781 39.5122H17.5176V21.1259H23.9781ZM23.8457 36.3776C25.7874 36.3776 27.2877 35.8507 28.3468 34.7971C29.4059 33.7434 29.9355 32.2595 29.9355 30.3454C29.9355 28.4312 29.4059 26.9385 28.3468 25.8673C27.2877 24.7785 25.7874 24.2341 23.8457 24.2341H21.2244V36.3776H23.8457ZM40.8123 27.9483V35.0078C40.8123 35.4995 40.927 35.8595 41.1565 36.0878C41.4036 36.2985 41.8096 36.4039 42.3745 36.4039H44.0955V39.5122H41.7655C38.6412 39.5122 37.079 38.002 37.079 34.9815V27.9483H35.3315V24.919H37.079V21.3102H40.8123V24.919H44.0955V27.9483H40.8123Z" fill="white"/>
</g>
<defs>
<clipPath id="clip0_2990_1885">
<rect width="60" height="60" fill="white"/>
</clipPath>
</defs>
</svg>
