<svg width="24" height="24" viewBox="0 0 24 24" fill="none" xmlns="http://www.w3.org/2000/svg">
<path d="M9 21H15" stroke="#282828" stroke-opacity="0.5" stroke-width="1.5" stroke-linecap="round" stroke-linejoin="round"/>
<path d="M16.73 12.692L17.3209 13.1539L16.73 12.692ZM7.27004 12.692L6.67914 13.1539H6.67914L7.27004 12.692ZM9 16.5045H9.75H9ZM6.75 9C6.75 6.10051 9.10051 3.75 12 3.75V2.25C8.27208 2.25 5.25 5.27208 5.25 9H6.75ZM12 3.75C14.8995 3.75 17.25 6.10051 17.25 9H18.75C18.75 5.27208 15.7279 2.25 12 2.25V3.75ZM17.25 9C17.25 10.2191 16.8354 11.3392 16.1391 12.2301L17.3209 13.1539C18.2161 12.0086 18.75 10.5656 18.75 9H17.25ZM7.86094 12.2301C7.16458 11.3392 6.75 10.2191 6.75 9H5.25C5.25 10.5656 5.78393 12.0086 6.67914 13.1539L7.86094 12.2301ZM14 17.2502H10V18.7502H14V17.2502ZM10 17.2502C9.86193 17.2502 9.75 17.1383 9.75 17.0002H8.25C8.25 17.9667 9.0335 18.7502 10 18.7502V17.2502ZM14.25 17.0002C14.25 17.1383 14.1381 17.2502 14 17.2502V18.7502C14.9665 18.7502 15.75 17.9667 15.75 17.0002H14.25ZM9.75 17.0002V16.5045H8.25V17.0002H9.75ZM14.25 16.5045V17.0002H15.75V16.5045H14.25ZM6.67914 13.1539C7.56379 14.2856 8.25 15.3609 8.25 16.5045H9.75C9.75 14.7923 8.73497 13.3483 7.86094 12.2301L6.67914 13.1539ZM16.1391 12.2301C15.265 13.3483 14.25 14.7923 14.25 16.5045H15.75C15.75 15.3609 16.4362 14.2856 17.3209 13.1539L16.1391 12.2301Z" fill="#282828" fill-opacity="0.5"/>
</svg>
