<svg width="20" height="20" viewBox="0 0 20 20" fill="none" xmlns="http://www.w3.org/2000/svg">
<g opacity="0.8">
<path d="M7.91907 3.54768L7.22271 3.82623L7.91907 3.54768ZM8.79763 5.74407L9.49398 5.46552V5.46552L8.79763 5.74407ZM8.53053 7.43003L9.1067 7.91016L8.53053 7.43003ZM8.05771 7.99742L8.63387 8.47755L8.05771 7.99742ZM8.15957 10.2429L7.62924 10.7732H7.62924L8.15957 10.2429ZM9.7571 11.8404L10.2874 11.3101L9.7571 11.8404ZM12.0026 11.9423L11.5224 11.3661L12.0026 11.9423ZM12.57 11.4695L13.0501 12.0456L13.0501 12.0456L12.57 11.4695ZM14.2559 11.2024L13.9774 11.8987L14.2559 11.2024ZM16.4523 12.0809L16.7309 11.3846L16.4523 12.0809ZM4.07895 3.25H6.37161V1.75H4.07895V3.25ZM7.22271 3.82623L8.10127 6.02261L9.49398 5.46552L8.61543 3.26914L7.22271 3.82623ZM7.95437 6.94989L7.48154 7.51728L8.63387 8.47755L9.1067 7.91016L7.95437 6.94989ZM7.62924 10.7732L9.22677 12.3708L10.2874 11.3101L8.6899 9.71257L7.62924 10.7732ZM12.4827 12.5185L13.0501 12.0456L12.0898 10.8933L11.5224 11.3661L12.4827 12.5185ZM13.9774 11.8987L16.1738 12.7773L16.7309 11.3846L14.5345 10.506L13.9774 11.8987ZM16.75 13.6284V15.9211H18.25V13.6284H16.75ZM15.9211 16.75C8.92302 16.75 3.25 11.077 3.25 4.07895H1.75C1.75 11.9054 8.0946 18.25 15.9211 18.25V16.75ZM16.75 15.9211C16.75 16.3789 16.3789 16.75 15.9211 16.75V18.25C17.2073 18.25 18.25 17.2073 18.25 15.9211H16.75ZM16.1738 12.7773C16.5218 12.9165 16.75 13.2536 16.75 13.6284H18.25C18.25 12.6402 17.6484 11.7516 16.7309 11.3846L16.1738 12.7773ZM13.0501 12.0456C13.3088 11.8301 13.6648 11.7737 13.9774 11.8987L14.5345 10.506C13.7103 10.1764 12.7718 10.325 12.0898 10.8933L13.0501 12.0456ZM9.22677 12.3708C10.1106 13.2546 11.5225 13.3186 12.4827 12.5185L11.5224 11.3661C11.1582 11.6696 10.6227 11.6453 10.2874 11.3101L9.22677 12.3708ZM7.48154 7.51728C6.68137 8.47748 6.74542 9.88941 7.62924 10.7732L8.6899 9.71257C8.35466 9.37733 8.33036 8.84177 8.63387 8.47755L7.48154 7.51728ZM8.10127 6.02261C8.22631 6.33522 8.16992 6.69123 7.95437 6.94989L9.1067 7.91016C9.67496 7.22825 9.82365 6.28969 9.49398 5.46552L8.10127 6.02261ZM6.37161 3.25C6.74644 3.25 7.08351 3.4782 7.22271 3.82623L8.61543 3.26914C8.24843 2.35163 7.3598 1.75 6.37161 1.75V3.25ZM4.07895 1.75C2.79271 1.75 1.75 2.79271 1.75 4.07895H3.25C3.25 3.62113 3.62113 3.25 4.07895 3.25V1.75Z" fill="#14181F"/>
</g>
</svg>
