<svg width="177" height="248" viewBox="0 0 177 248" fill="none" xmlns="http://www.w3.org/2000/svg">
<rect x="0.5" y="0.5" width="176" height="247" rx="7.5" fill="#603BE5" fill-opacity="0.05" stroke="#603BE5"/>
<path opacity="0.6" d="M18.956 56.12C18.34 56.12 17.768 56.012 17.24 55.796C16.712 55.58 16.248 55.28 15.848 54.896C15.448 54.512 15.136 54.06 14.912 53.54C14.696 53.012 14.588 52.44 14.588 51.824C14.588 51.208 14.696 50.64 14.912 50.12C15.136 49.592 15.44 49.136 15.824 48.752C16.216 48.368 16.672 48.072 17.192 47.864C17.72 47.648 18.284 47.54 18.884 47.54C19.308 47.54 19.724 47.6 20.132 47.72C20.548 47.84 20.924 48.008 21.26 48.224C21.596 48.44 21.868 48.684 22.076 48.956L21.452 49.592C21.228 49.36 20.976 49.16 20.696 48.992C20.416 48.824 20.12 48.692 19.808 48.596C19.504 48.5 19.2 48.452 18.896 48.452C18.424 48.452 17.984 48.536 17.576 48.704C17.176 48.872 16.824 49.108 16.52 49.412C16.216 49.708 15.98 50.064 15.812 50.48C15.644 50.888 15.56 51.336 15.56 51.824C15.56 52.296 15.644 52.74 15.812 53.156C15.988 53.564 16.232 53.924 16.544 54.236C16.864 54.54 17.232 54.776 17.648 54.944C18.064 55.112 18.512 55.196 18.992 55.196C19.368 55.196 19.72 55.14 20.048 55.028C20.384 54.916 20.676 54.76 20.924 54.56C21.172 54.352 21.364 54.112 21.5 53.84C21.636 53.568 21.704 53.276 21.704 52.964V52.544L21.896 52.784H18.944V51.86H22.64C22.648 51.924 22.656 52 22.664 52.088C22.672 52.168 22.676 52.252 22.676 52.34C22.684 52.42 22.688 52.496 22.688 52.568C22.688 53.088 22.592 53.568 22.4 54.008C22.208 54.44 21.94 54.816 21.596 55.136C21.26 55.448 20.868 55.692 20.42 55.868C19.972 56.036 19.484 56.12 18.956 56.12ZM26.8001 56.12C26.1761 56.12 25.6201 55.984 25.1321 55.712C24.6521 55.44 24.2761 55.06 24.0041 54.572C23.7321 54.084 23.5961 53.524 23.5961 52.892C23.5961 52.404 23.6721 51.964 23.8241 51.572C23.9761 51.172 24.1881 50.824 24.4601 50.528C24.7401 50.232 25.0721 50.004 25.4561 49.844C25.8401 49.676 26.2561 49.592 26.7041 49.592C27.1281 49.592 27.5121 49.668 27.8561 49.82C28.2081 49.972 28.5081 50.184 28.7561 50.456C29.0121 50.72 29.2041 51.036 29.3321 51.404C29.4601 51.772 29.5161 52.176 29.5001 52.616L29.4881 53.036H24.2681L24.1361 52.28H28.8041L28.5881 52.484V52.196C28.5721 51.908 28.4881 51.632 28.3361 51.368C28.1841 51.096 27.9681 50.876 27.6881 50.708C27.4161 50.54 27.0881 50.456 26.7041 50.456C26.2561 50.456 25.8681 50.548 25.5401 50.732C25.2121 50.908 24.9601 51.172 24.7841 51.524C24.6081 51.876 24.5201 52.312 24.5201 52.832C24.5201 53.328 24.6161 53.76 24.8081 54.128C25.0001 54.488 25.2721 54.768 25.6241 54.968C25.9841 55.168 26.4161 55.268 26.9201 55.268C27.2161 55.268 27.5081 55.22 27.7961 55.124C28.0921 55.02 28.4161 54.82 28.7681 54.524L29.2361 55.172C29.0521 55.356 28.8321 55.52 28.5761 55.664C28.3201 55.8 28.0401 55.912 27.7361 56C27.4321 56.08 27.1201 56.12 26.8001 56.12ZM31.6423 56V48.092H32.5423V56H31.6423ZM30.2263 50.6V49.736H34.1263V50.6H30.2263ZM38.5828 56V49.736H39.4827L39.5068 51.164L39.3268 51.224C39.3908 50.984 39.4948 50.768 39.6388 50.576C39.7908 50.376 39.9708 50.204 40.1788 50.06C40.3868 49.916 40.6148 49.808 40.8628 49.736C41.1108 49.656 41.3708 49.616 41.6428 49.616C41.9708 49.616 42.2628 49.672 42.5188 49.784C42.7828 49.888 43.0028 50.072 43.1788 50.336C43.3628 50.592 43.5028 50.932 43.5988 51.356L43.3828 51.248L43.4668 51.044C43.5468 50.86 43.6628 50.684 43.8148 50.516C43.9748 50.34 44.1548 50.184 44.3548 50.048C44.5628 49.912 44.7868 49.808 45.0268 49.736C45.2748 49.656 45.5268 49.616 45.7828 49.616C46.2228 49.616 46.5948 49.712 46.8988 49.904C47.2028 50.088 47.4308 50.372 47.5828 50.756C47.7428 51.14 47.8228 51.628 47.8228 52.22V56H46.8988V52.268C46.8988 51.852 46.8468 51.512 46.7428 51.248C46.6388 50.984 46.4828 50.788 46.2748 50.66C46.0748 50.524 45.8188 50.456 45.5068 50.456C45.2348 50.456 44.9828 50.504 44.7508 50.6C44.5268 50.688 44.3308 50.816 44.1628 50.984C44.0028 51.144 43.8748 51.328 43.7787 51.536C43.6908 51.744 43.6468 51.968 43.6468 52.208V56H42.7348V52.256C42.7348 51.856 42.6788 51.524 42.5668 51.26C42.4628 50.996 42.3068 50.796 42.0988 50.66C41.8908 50.524 41.6348 50.456 41.3308 50.456C41.0668 50.456 40.8228 50.504 40.5988 50.6C40.3748 50.688 40.1788 50.812 40.0108 50.972C39.8508 51.132 39.7228 51.316 39.6268 51.524C39.5388 51.732 39.4948 51.956 39.4948 52.196V56H38.5828ZM52.3003 56.12C51.6763 56.12 51.1203 55.98 50.6323 55.7C50.1523 55.42 49.7723 55.032 49.4923 54.536C49.2203 54.04 49.0843 53.476 49.0843 52.844C49.0843 52.22 49.2203 51.664 49.4923 51.176C49.7723 50.688 50.1523 50.304 50.6323 50.024C51.1203 49.744 51.6763 49.604 52.3003 49.604C52.9163 49.604 53.4643 49.744 53.9443 50.024C54.4323 50.304 54.8123 50.688 55.0843 51.176C55.3643 51.664 55.5043 52.22 55.5043 52.844C55.5043 53.476 55.3643 54.04 55.0843 54.536C54.8123 55.032 54.4323 55.42 53.9443 55.7C53.4643 55.98 52.9163 56.12 52.3003 56.12ZM52.3003 55.268C52.7403 55.268 53.1323 55.164 53.4763 54.956C53.8203 54.74 54.0883 54.452 54.2803 54.092C54.4723 53.724 54.5683 53.308 54.5683 52.844C54.5683 52.38 54.4723 51.968 54.2803 51.608C54.0883 51.248 53.8203 50.968 53.4763 50.768C53.1323 50.56 52.7403 50.456 52.3003 50.456C51.8603 50.456 51.4643 50.56 51.1123 50.768C50.7683 50.968 50.4963 51.252 50.2963 51.62C50.1043 51.98 50.0123 52.388 50.0203 52.844C50.0123 53.308 50.1043 53.724 50.2963 54.092C50.4963 54.452 50.7683 54.74 51.1123 54.956C51.4643 55.164 51.8603 55.268 52.3003 55.268ZM56.8174 56V49.736H57.7174L57.7414 51.404L57.6454 51.176C57.7334 50.896 57.8734 50.636 58.0654 50.396C58.2654 50.156 58.5014 49.964 58.7734 49.82C59.0454 49.676 59.3454 49.604 59.6734 49.604C59.8094 49.604 59.9374 49.616 60.0574 49.64C60.1774 49.656 60.2774 49.68 60.3574 49.712L60.1054 50.72C60.0014 50.672 59.8934 50.64 59.7814 50.624C59.6774 50.6 59.5774 50.588 59.4814 50.588C59.2094 50.588 58.9654 50.636 58.7494 50.732C58.5334 50.828 58.3494 50.964 58.1974 51.14C58.0454 51.308 57.9294 51.504 57.8494 51.728C57.7694 51.952 57.7294 52.192 57.7294 52.448V56H56.8174ZM63.7844 56.12C63.1604 56.12 62.6044 55.984 62.1164 55.712C61.6364 55.44 61.2604 55.06 60.9884 54.572C60.7164 54.084 60.5804 53.524 60.5804 52.892C60.5804 52.404 60.6564 51.964 60.8084 51.572C60.9604 51.172 61.1724 50.824 61.4444 50.528C61.7244 50.232 62.0564 50.004 62.4404 49.844C62.8244 49.676 63.2404 49.592 63.6884 49.592C64.1124 49.592 64.4964 49.668 64.8404 49.82C65.1924 49.972 65.4924 50.184 65.7404 50.456C65.9964 50.72 66.1884 51.036 66.3164 51.404C66.4444 51.772 66.5004 52.176 66.4844 52.616L66.4724 53.036H61.2524L61.1204 52.28H65.7884L65.5724 52.484V52.196C65.5564 51.908 65.4724 51.632 65.3204 51.368C65.1684 51.096 64.9524 50.876 64.6724 50.708C64.4004 50.54 64.0724 50.456 63.6884 50.456C63.2404 50.456 62.8524 50.548 62.5244 50.732C62.1964 50.908 61.9444 51.172 61.7684 51.524C61.5924 51.876 61.5044 52.312 61.5044 52.832C61.5044 53.328 61.6004 53.76 61.7924 54.128C61.9844 54.488 62.2564 54.768 62.6084 54.968C62.9684 55.168 63.4004 55.268 63.9044 55.268C64.2004 55.268 64.4924 55.22 64.7804 55.124C65.0764 55.02 65.4004 54.82 65.7524 54.524L66.2204 55.172C66.0364 55.356 65.8164 55.52 65.5604 55.664C65.3044 55.8 65.0244 55.912 64.7204 56C64.4164 56.08 64.1044 56.12 63.7844 56.12ZM71.846 56V48.764C71.846 48.452 71.914 48.176 72.05 47.936C72.186 47.696 72.378 47.508 72.626 47.372C72.882 47.228 73.178 47.156 73.514 47.156C73.77 47.156 73.998 47.204 74.198 47.3C74.406 47.388 74.578 47.512 74.714 47.672L74.402 48.38C74.274 48.244 74.134 48.148 73.982 48.092C73.838 48.028 73.698 47.996 73.562 47.996C73.386 47.996 73.238 48.028 73.118 48.092C72.998 48.148 72.906 48.236 72.842 48.356C72.786 48.468 72.758 48.604 72.758 48.764V56H72.338C72.25 56 72.166 56 72.086 56C72.006 56 71.926 56 71.846 56ZM70.73 50.624V49.784H74.354V50.624H70.73ZM78.1868 56.12C77.5628 56.12 77.0068 55.984 76.5188 55.712C76.0388 55.44 75.6628 55.06 75.3908 54.572C75.1188 54.084 74.9828 53.524 74.9828 52.892C74.9828 52.404 75.0588 51.964 75.2108 51.572C75.3628 51.172 75.5748 50.824 75.8468 50.528C76.1268 50.232 76.4588 50.004 76.8428 49.844C77.2268 49.676 77.6428 49.592 78.0908 49.592C78.5148 49.592 78.8988 49.668 79.2428 49.82C79.5948 49.972 79.8948 50.184 80.1428 50.456C80.3988 50.72 80.5908 51.036 80.7188 51.404C80.8468 51.772 80.9028 52.176 80.8868 52.616L80.8748 53.036H75.6548L75.5228 52.28H80.1908L79.9748 52.484V52.196C79.9588 51.908 79.8748 51.632 79.7228 51.368C79.5708 51.096 79.3548 50.876 79.0748 50.708C78.8028 50.54 78.4748 50.456 78.0908 50.456C77.6428 50.456 77.2548 50.548 76.9268 50.732C76.5988 50.908 76.3468 51.172 76.1708 51.524C75.9948 51.876 75.9068 52.312 75.9068 52.832C75.9068 53.328 76.0028 53.76 76.1948 54.128C76.3868 54.488 76.6588 54.768 77.0108 54.968C77.3708 55.168 77.8028 55.268 78.3068 55.268C78.6028 55.268 78.8948 55.22 79.1828 55.124C79.4788 55.02 79.8028 54.82 80.1548 54.524L80.6228 55.172C80.4388 55.356 80.2188 55.52 79.9628 55.664C79.7068 55.8 79.4268 55.912 79.1228 56C78.8188 56.08 78.5068 56.12 78.1868 56.12ZM84.6131 56.12C84.0691 56.12 83.5771 55.98 83.1371 55.7C82.6971 55.412 82.3491 55.024 82.0931 54.536C81.8371 54.04 81.7091 53.48 81.7091 52.856C81.7091 52.224 81.8411 51.664 82.1051 51.176C82.3691 50.688 82.7211 50.304 83.1611 50.024C83.6091 49.744 84.1091 49.604 84.6611 49.604C84.9891 49.604 85.2931 49.652 85.5731 49.748C85.8531 49.844 86.1011 49.98 86.3171 50.156C86.5411 50.324 86.7251 50.524 86.8691 50.756C87.0211 50.98 87.1251 51.224 87.1811 51.488L86.9171 51.356L86.9531 49.736H87.8531V56H86.9411V54.464L87.1811 54.308C87.1251 54.548 87.0171 54.78 86.8571 55.004C86.6971 55.22 86.5011 55.412 86.2691 55.58C86.0451 55.748 85.7891 55.88 85.5011 55.976C85.2211 56.072 84.9251 56.12 84.6131 56.12ZM84.8171 55.256C85.2331 55.256 85.6051 55.156 85.9331 54.956C86.2611 54.748 86.5171 54.464 86.7011 54.104C86.8931 53.736 86.9891 53.32 86.9891 52.856C86.9891 52.392 86.8931 51.98 86.7011 51.62C86.5171 51.26 86.2611 50.976 85.9331 50.768C85.6051 50.56 85.2331 50.456 84.8171 50.456C84.3931 50.456 84.0171 50.56 83.6891 50.768C83.3691 50.976 83.1131 51.26 82.9211 51.62C82.7371 51.98 82.6451 52.392 82.6451 52.856C82.6451 53.312 82.7371 53.724 82.9211 54.092C83.1051 54.452 83.3611 54.736 83.6891 54.944C84.0171 55.152 84.3931 55.256 84.8171 55.256ZM90.4705 56V48.092H91.3705V56H90.4705ZM89.0545 50.6V49.736H92.9545V50.6H89.0545ZM96.2796 56.12C95.7996 56.12 95.3916 56.024 95.0556 55.832C94.7276 55.632 94.4756 55.344 94.2996 54.968C94.1316 54.592 94.0476 54.124 94.0476 53.564V49.736H94.9596V53.384C94.9596 53.808 95.0156 54.164 95.1276 54.452C95.2476 54.732 95.4236 54.944 95.6556 55.088C95.8956 55.232 96.1876 55.304 96.5316 55.304C96.7956 55.304 97.0396 55.26 97.2636 55.172C97.4876 55.076 97.6836 54.948 97.8516 54.788C98.0196 54.628 98.1516 54.44 98.2476 54.224C98.3436 54.008 98.3916 53.78 98.3916 53.54V49.736H99.2916V56H98.4036L98.3676 54.68L98.5116 54.608C98.4156 54.888 98.2556 55.144 98.0316 55.376C97.8076 55.6 97.5396 55.78 97.2276 55.916C96.9236 56.052 96.6076 56.12 96.2796 56.12ZM101.044 56V49.736H101.944L101.968 51.404L101.872 51.176C101.96 50.896 102.1 50.636 102.292 50.396C102.492 50.156 102.728 49.964 103 49.82C103.272 49.676 103.572 49.604 103.9 49.604C104.036 49.604 104.164 49.616 104.284 49.64C104.404 49.656 104.504 49.68 104.584 49.712L104.332 50.72C104.228 50.672 104.12 50.64 104.008 50.624C103.904 50.6 103.804 50.588 103.708 50.588C103.436 50.588 103.192 50.636 102.976 50.732C102.76 50.828 102.576 50.964 102.424 51.14C102.272 51.308 102.156 51.504 102.076 51.728C101.996 51.952 101.956 52.192 101.956 52.448V56H101.044ZM108.011 56.12C107.387 56.12 106.831 55.984 106.343 55.712C105.863 55.44 105.487 55.06 105.215 54.572C104.943 54.084 104.807 53.524 104.807 52.892C104.807 52.404 104.883 51.964 105.035 51.572C105.187 51.172 105.399 50.824 105.671 50.528C105.951 50.232 106.283 50.004 106.667 49.844C107.051 49.676 107.467 49.592 107.915 49.592C108.339 49.592 108.723 49.668 109.067 49.82C109.419 49.972 109.719 50.184 109.967 50.456C110.223 50.72 110.415 51.036 110.543 51.404C110.671 51.772 110.727 52.176 110.711 52.616L110.699 53.036H105.479L105.347 52.28H110.015L109.799 52.484V52.196C109.783 51.908 109.699 51.632 109.547 51.368C109.395 51.096 109.179 50.876 108.899 50.708C108.627 50.54 108.299 50.456 107.915 50.456C107.467 50.456 107.079 50.548 106.751 50.732C106.423 50.908 106.171 51.172 105.995 51.524C105.819 51.876 105.731 52.312 105.731 52.832C105.731 53.328 105.827 53.76 106.019 54.128C106.211 54.488 106.483 54.768 106.835 54.968C107.195 55.168 107.627 55.268 108.131 55.268C108.427 55.268 108.719 55.22 109.007 55.124C109.303 55.02 109.627 54.82 109.979 54.524L110.447 55.172C110.263 55.356 110.043 55.52 109.787 55.664C109.531 55.8 109.251 55.912 108.947 56C108.643 56.08 108.331 56.12 108.011 56.12ZM114.041 56.12C113.505 56.12 113.025 56.02 112.601 55.82C112.177 55.62 111.841 55.356 111.593 55.028L112.229 54.476C112.461 54.756 112.733 54.968 113.045 55.112C113.365 55.256 113.721 55.328 114.113 55.328C114.313 55.328 114.493 55.308 114.653 55.268C114.813 55.22 114.953 55.152 115.073 55.064C115.193 54.976 115.285 54.872 115.349 54.752C115.413 54.632 115.445 54.5 115.445 54.356C115.445 54.092 115.329 53.872 115.097 53.696C114.993 53.624 114.845 53.552 114.653 53.48C114.461 53.4 114.229 53.324 113.957 53.252C113.509 53.124 113.137 52.996 112.841 52.868C112.545 52.732 112.313 52.576 112.145 52.4C112.025 52.256 111.933 52.1 111.869 51.932C111.813 51.764 111.785 51.58 111.785 51.38C111.785 51.124 111.837 50.888 111.941 50.672C112.053 50.456 112.205 50.268 112.397 50.108C112.597 49.94 112.829 49.816 113.093 49.736C113.365 49.648 113.657 49.604 113.969 49.604C114.265 49.604 114.557 49.644 114.845 49.724C115.133 49.804 115.401 49.92 115.649 50.072C115.897 50.224 116.109 50.404 116.285 50.612L115.733 51.212C115.581 51.052 115.413 50.908 115.229 50.78C115.045 50.652 114.849 50.552 114.641 50.48C114.441 50.408 114.233 50.372 114.017 50.372C113.825 50.372 113.645 50.396 113.477 50.444C113.317 50.492 113.177 50.56 113.057 50.648C112.945 50.728 112.857 50.828 112.793 50.948C112.737 51.068 112.709 51.2 112.709 51.344C112.709 51.464 112.733 51.572 112.781 51.668C112.829 51.764 112.897 51.848 112.985 51.92C113.097 52.008 113.253 52.092 113.453 52.172C113.661 52.244 113.917 52.32 114.221 52.4C114.573 52.496 114.869 52.596 115.109 52.7C115.357 52.796 115.561 52.912 115.721 53.048C115.937 53.208 116.089 53.392 116.177 53.6C116.273 53.808 116.321 54.044 116.321 54.308C116.321 54.66 116.221 54.972 116.021 55.244C115.829 55.516 115.561 55.732 115.217 55.892C114.873 56.044 114.481 56.12 114.041 56.12ZM122.571 56L120.399 49.736L121.359 49.724L123.051 54.824L122.751 54.8L124.587 50.696H125.127L126.975 54.8L126.615 54.824L128.343 49.736H129.291L127.119 56H126.591L124.647 51.536L125.007 51.56L123.123 56H122.571ZM130.593 56V49.736H131.493V56H130.593ZM131.037 48.38C130.813 48.38 130.641 48.324 130.521 48.212C130.409 48.092 130.353 47.932 130.353 47.732C130.353 47.532 130.413 47.372 130.533 47.252C130.653 47.132 130.821 47.072 131.037 47.072C131.253 47.072 131.421 47.132 131.541 47.252C131.661 47.364 131.721 47.524 131.721 47.732C131.721 47.924 131.661 48.08 131.541 48.2C131.421 48.32 131.253 48.38 131.037 48.38ZM134.322 56V48.092H135.222V56H134.322ZM132.906 50.6V49.736H136.806V50.6H132.906ZM137.911 56V47.12H138.811V51.104L138.631 51.284C138.719 50.956 138.883 50.668 139.123 50.42C139.363 50.164 139.643 49.964 139.963 49.82C140.291 49.676 140.623 49.604 140.959 49.604C141.439 49.604 141.839 49.696 142.159 49.88C142.479 50.064 142.715 50.348 142.867 50.732C143.027 51.116 143.107 51.604 143.107 52.196V56H142.195V52.244C142.195 51.828 142.139 51.488 142.027 51.224C141.923 50.952 141.759 50.752 141.535 50.624C141.311 50.496 141.031 50.436 140.695 50.444C140.431 50.444 140.183 50.492 139.951 50.588C139.719 50.676 139.519 50.8 139.351 50.96C139.183 51.12 139.051 51.304 138.955 51.512C138.859 51.72 138.811 51.944 138.811 52.184V56H138.367C138.311 56 138.247 56 138.175 56C138.103 56 138.015 56 137.911 56ZM150.637 56.12C150.093 56.12 149.601 55.98 149.161 55.7C148.721 55.412 148.373 55.024 148.117 54.536C147.861 54.04 147.733 53.48 147.733 52.856C147.733 52.224 147.865 51.664 148.129 51.176C148.393 50.688 148.745 50.304 149.185 50.024C149.633 49.744 150.133 49.604 150.685 49.604C151.013 49.604 151.317 49.652 151.597 49.748C151.877 49.844 152.125 49.98 152.341 50.156C152.565 50.324 152.749 50.524 152.893 50.756C153.045 50.98 153.149 51.224 153.205 51.488L152.941 51.356L152.977 49.736H153.877V56H152.965V54.464L153.205 54.308C153.149 54.548 153.041 54.78 152.881 55.004C152.721 55.22 152.525 55.412 152.293 55.58C152.069 55.748 151.813 55.88 151.525 55.976C151.245 56.072 150.949 56.12 150.637 56.12ZM150.84 55.256C151.257 55.256 151.629 55.156 151.957 54.956C152.285 54.748 152.541 54.464 152.725 54.104C152.917 53.736 153.013 53.32 153.013 52.856C153.013 52.392 152.917 51.98 152.725 51.62C152.541 51.26 152.285 50.976 151.957 50.768C151.629 50.56 151.257 50.456 150.84 50.456C150.417 50.456 150.041 50.56 149.713 50.768C149.393 50.976 149.137 51.26 148.945 51.62C148.761 51.98 148.669 52.392 148.669 52.856C148.669 53.312 148.761 53.724 148.945 54.092C149.129 54.452 149.385 54.736 149.713 54.944C150.041 55.152 150.417 55.256 150.84 55.256ZM14.876 73.64V64.736H15.776L15.8 66.26L15.632 66.284C15.704 65.98 15.86 65.704 16.1 65.456C16.34 65.2 16.632 64.996 16.976 64.844C17.32 64.692 17.684 64.616 18.068 64.616C18.628 64.616 19.128 64.756 19.568 65.036C20.016 65.316 20.372 65.7 20.636 66.188C20.9 66.676 21.032 67.236 21.032 67.868C21.032 68.492 20.904 69.048 20.648 69.536C20.392 70.024 20.04 70.412 19.592 70.7C19.144 70.98 18.64 71.12 18.08 71.12C17.688 71.12 17.316 71.04 16.964 70.88C16.612 70.72 16.312 70.512 16.064 70.256C15.816 69.992 15.652 69.708 15.572 69.404H15.788V73.64H14.876ZM17.936 70.256C18.36 70.256 18.736 70.152 19.064 69.944C19.392 69.736 19.652 69.452 19.844 69.092C20.036 68.732 20.132 68.324 20.132 67.868C20.132 67.404 20.036 66.992 19.844 66.632C19.652 66.272 19.392 65.988 19.064 65.78C18.736 65.572 18.36 65.468 17.936 65.468C17.512 65.468 17.132 65.572 16.796 65.78C16.468 65.98 16.208 66.26 16.016 66.62C15.824 66.98 15.728 67.392 15.728 67.856C15.728 68.32 15.824 68.732 16.016 69.092C16.208 69.452 16.468 69.736 16.796 69.944C17.132 70.152 17.512 70.256 17.936 70.256ZM22.3408 71V64.736H23.2408L23.2648 66.404L23.1688 66.176C23.2568 65.896 23.3968 65.636 23.5888 65.396C23.7888 65.156 24.0248 64.964 24.2968 64.82C24.5688 64.676 24.8688 64.604 25.1968 64.604C25.3328 64.604 25.4608 64.616 25.5808 64.64C25.7008 64.656 25.8008 64.68 25.8808 64.712L25.6288 65.72C25.5248 65.672 25.4168 65.64 25.3048 65.624C25.2008 65.6 25.1008 65.588 25.0048 65.588C24.7328 65.588 24.4888 65.636 24.2728 65.732C24.0568 65.828 23.8728 65.964 23.7208 66.14C23.5688 66.308 23.4528 66.504 23.3728 66.728C23.2928 66.952 23.2528 67.192 23.2528 67.448V71H22.3408ZM29.3079 71.12C28.6839 71.12 28.1279 70.984 27.6399 70.712C27.1599 70.44 26.7839 70.06 26.5119 69.572C26.2399 69.084 26.1039 68.524 26.1039 67.892C26.1039 67.404 26.1799 66.964 26.3319 66.572C26.4839 66.172 26.6959 65.824 26.9679 65.528C27.2479 65.232 27.5799 65.004 27.9639 64.844C28.3479 64.676 28.7639 64.592 29.2119 64.592C29.6359 64.592 30.0199 64.668 30.3639 64.82C30.7159 64.972 31.0159 65.184 31.2639 65.456C31.5199 65.72 31.7119 66.036 31.8399 66.404C31.9679 66.772 32.0239 67.176 32.0079 67.616L31.9959 68.036H26.7759L26.6439 67.28H31.3119L31.0959 67.484V67.196C31.0799 66.908 30.9959 66.632 30.8439 66.368C30.6919 66.096 30.4759 65.876 30.1959 65.708C29.9239 65.54 29.5959 65.456 29.2119 65.456C28.7639 65.456 28.3759 65.548 28.0479 65.732C27.7199 65.908 27.4679 66.172 27.2919 66.524C27.1159 66.876 27.0279 67.312 27.0279 67.832C27.0279 68.328 27.1239 68.76 27.3159 69.128C27.5079 69.488 27.7799 69.768 28.1319 69.968C28.4919 70.168 28.9239 70.268 29.4279 70.268C29.7239 70.268 30.0159 70.22 30.3039 70.124C30.5999 70.02 30.9239 69.82 31.2759 69.524L31.7439 70.172C31.5599 70.356 31.3399 70.52 31.0839 70.664C30.8279 70.8 30.5479 70.912 30.2439 71C29.9399 71.08 29.6279 71.12 29.3079 71.12ZM33.2742 71V64.736H34.1742L34.1982 66.164L34.0182 66.224C34.0822 65.984 34.1862 65.768 34.3302 65.576C34.4822 65.376 34.6622 65.204 34.8702 65.06C35.0782 64.916 35.3062 64.808 35.5542 64.736C35.8022 64.656 36.0622 64.616 36.3342 64.616C36.6622 64.616 36.9542 64.672 37.2102 64.784C37.4742 64.888 37.6942 65.072 37.8702 65.336C38.0542 65.592 38.1942 65.932 38.2902 66.356L38.0742 66.248L38.1582 66.044C38.2382 65.86 38.3542 65.684 38.5062 65.516C38.6662 65.34 38.8462 65.184 39.0462 65.048C39.2542 64.912 39.4782 64.808 39.7182 64.736C39.9662 64.656 40.2182 64.616 40.4742 64.616C40.9142 64.616 41.2862 64.712 41.5902 64.904C41.8942 65.088 42.1222 65.372 42.2742 65.756C42.4342 66.14 42.5142 66.628 42.5142 67.22V71H41.5902V67.268C41.5902 66.852 41.5382 66.512 41.4342 66.248C41.3302 65.984 41.1742 65.788 40.9662 65.66C40.7662 65.524 40.5102 65.456 40.1982 65.456C39.9262 65.456 39.6742 65.504 39.4422 65.6C39.2182 65.688 39.0222 65.816 38.8542 65.984C38.6942 66.144 38.5662 66.328 38.4702 66.536C38.3822 66.744 38.3382 66.968 38.3382 67.208V71H37.4262V67.256C37.4262 66.856 37.3702 66.524 37.2582 66.26C37.1542 65.996 36.9982 65.796 36.7902 65.66C36.5822 65.524 36.3262 65.456 36.0222 65.456C35.7582 65.456 35.5142 65.504 35.2902 65.6C35.0662 65.688 34.8702 65.812 34.7022 65.972C34.5422 66.132 34.4142 66.316 34.3182 66.524C34.2302 66.732 34.1862 66.956 34.1862 67.196V71H33.2742ZM44.4598 71V64.736H45.3598V71H44.4598ZM44.9038 63.38C44.6798 63.38 44.5078 63.324 44.3878 63.212C44.2758 63.092 44.2198 62.932 44.2198 62.732C44.2198 62.532 44.2798 62.372 44.3998 62.252C44.5198 62.132 44.6878 62.072 44.9038 62.072C45.1198 62.072 45.2878 62.132 45.4078 62.252C45.5278 62.364 45.5878 62.524 45.5878 62.732C45.5878 62.924 45.5278 63.08 45.4078 63.2C45.2878 63.32 45.1198 63.38 44.9038 63.38ZM49.5452 71.12C49.0652 71.12 48.6572 71.024 48.3212 70.832C47.9932 70.632 47.7412 70.344 47.5652 69.968C47.3972 69.592 47.3132 69.124 47.3132 68.564V64.736H48.2252V68.384C48.2252 68.808 48.2812 69.164 48.3932 69.452C48.5132 69.732 48.6892 69.944 48.9212 70.088C49.1612 70.232 49.4532 70.304 49.7972 70.304C50.0612 70.304 50.3052 70.26 50.5292 70.172C50.7532 70.076 50.9492 69.948 51.1172 69.788C51.2852 69.628 51.4172 69.44 51.5132 69.224C51.6092 69.008 51.6572 68.78 51.6572 68.54V64.736H52.5572V71H51.6692L51.6332 69.68L51.7772 69.608C51.6812 69.888 51.5212 70.144 51.2972 70.376C51.0732 70.6 50.8052 70.78 50.4932 70.916C50.1892 71.052 49.8732 71.12 49.5452 71.12ZM54.2976 71V64.736H55.1976L55.2216 66.164L55.0416 66.224C55.1056 65.984 55.2096 65.768 55.3536 65.576C55.5056 65.376 55.6856 65.204 55.8936 65.06C56.1016 64.916 56.3296 64.808 56.5776 64.736C56.8256 64.656 57.0856 64.616 57.3576 64.616C57.6856 64.616 57.9776 64.672 58.2336 64.784C58.4976 64.888 58.7176 65.072 58.8936 65.336C59.0776 65.592 59.2176 65.932 59.3136 66.356L59.0976 66.248L59.1816 66.044C59.2616 65.86 59.3776 65.684 59.5296 65.516C59.6896 65.34 59.8696 65.184 60.0696 65.048C60.2776 64.912 60.5016 64.808 60.7416 64.736C60.9896 64.656 61.2416 64.616 61.4976 64.616C61.9376 64.616 62.3096 64.712 62.6136 64.904C62.9176 65.088 63.1456 65.372 63.2976 65.756C63.4576 66.14 63.5376 66.628 63.5376 67.22V71H62.6136V67.268C62.6136 66.852 62.5616 66.512 62.4576 66.248C62.3536 65.984 62.1976 65.788 61.9896 65.66C61.7896 65.524 61.5336 65.456 61.2216 65.456C60.9496 65.456 60.6976 65.504 60.4656 65.6C60.2416 65.688 60.0456 65.816 59.8776 65.984C59.7176 66.144 59.5896 66.328 59.4936 66.536C59.4056 66.744 59.3616 66.968 59.3616 67.208V71H58.4496V67.256C58.4496 66.856 58.3936 66.524 58.2816 66.26C58.1776 65.996 58.0216 65.796 57.8136 65.66C57.6056 65.524 57.3496 65.456 57.0456 65.456C56.7816 65.456 56.5376 65.504 56.3136 65.6C56.0896 65.688 55.8936 65.812 55.7256 65.972C55.5656 66.132 55.4376 66.316 55.3416 66.524C55.2536 66.732 55.2096 66.956 55.2096 67.196V71H54.2976ZM71.0545 71.12C70.5105 71.12 70.0185 70.98 69.5785 70.7C69.1385 70.412 68.7905 70.024 68.5345 69.536C68.2785 69.04 68.1505 68.48 68.1505 67.856C68.1505 67.224 68.2825 66.664 68.5465 66.176C68.8105 65.688 69.1625 65.304 69.6025 65.024C70.0505 64.744 70.5505 64.604 71.1025 64.604C71.4305 64.604 71.7345 64.652 72.0145 64.748C72.2945 64.844 72.5425 64.98 72.7585 65.156C72.9825 65.324 73.1665 65.524 73.3105 65.756C73.4625 65.98 73.5665 66.224 73.6225 66.488L73.3585 66.356L73.3945 64.736H74.2945V71H73.3825V69.464L73.6225 69.308C73.5665 69.548 73.4585 69.78 73.2985 70.004C73.1385 70.22 72.9425 70.412 72.7105 70.58C72.4865 70.748 72.2305 70.88 71.9425 70.976C71.6625 71.072 71.3665 71.12 71.0545 71.12ZM71.2585 70.256C71.6745 70.256 72.0465 70.156 72.3745 69.956C72.7025 69.748 72.9585 69.464 73.1425 69.104C73.3345 68.736 73.4305 68.32 73.4305 67.856C73.4305 67.392 73.3345 66.98 73.1425 66.62C72.9585 66.26 72.7025 65.976 72.3745 65.768C72.0465 65.56 71.6745 65.456 71.2585 65.456C70.8345 65.456 70.4585 65.56 70.1305 65.768C69.8105 65.976 69.5545 66.26 69.3625 66.62C69.1785 66.98 69.0865 67.392 69.0865 67.856C69.0865 68.312 69.1785 68.724 69.3625 69.092C69.5465 69.452 69.8025 69.736 70.1305 69.944C70.4585 70.152 70.8345 70.256 71.2585 70.256ZM78.6879 71.12C78.0959 71.12 77.5679 70.98 77.1039 70.7C76.6399 70.412 76.2719 70.024 75.9999 69.536C75.7359 69.04 75.6039 68.48 75.6039 67.856C75.6039 67.232 75.7359 66.676 75.9999 66.188C76.2719 65.692 76.6399 65.304 77.1039 65.024C77.5679 64.744 78.0999 64.604 78.6999 64.604C79.2359 64.604 79.7239 64.712 80.1639 64.928C80.6039 65.136 80.9559 65.428 81.2199 65.804L80.6919 66.452C80.5399 66.252 80.3559 66.076 80.1399 65.924C79.9319 65.772 79.7039 65.656 79.4559 65.576C79.2159 65.488 78.9759 65.444 78.7359 65.444C78.3119 65.444 77.9319 65.552 77.5959 65.768C77.2599 65.976 76.9919 66.26 76.7919 66.62C76.5999 66.98 76.5039 67.392 76.5039 67.856C76.5039 68.32 76.5999 68.736 76.7919 69.104C76.9919 69.464 77.2599 69.748 77.5959 69.956C77.9319 70.164 78.3079 70.268 78.7239 70.268C78.9639 70.268 79.1999 70.232 79.4319 70.16C79.6639 70.08 79.8839 69.968 80.0919 69.824C80.2999 69.68 80.4919 69.5 80.6679 69.284L81.1959 69.932C80.9239 70.292 80.5599 70.58 80.1039 70.796C79.6479 71.012 79.1759 71.12 78.6879 71.12ZM85.0043 71.12C84.4123 71.12 83.8843 70.98 83.4203 70.7C82.9563 70.412 82.5883 70.024 82.3163 69.536C82.0523 69.04 81.9203 68.48 81.9203 67.856C81.9203 67.232 82.0523 66.676 82.3163 66.188C82.5883 65.692 82.9563 65.304 83.4203 65.024C83.8843 64.744 84.4163 64.604 85.0163 64.604C85.5523 64.604 86.0403 64.712 86.4803 64.928C86.9203 65.136 87.2723 65.428 87.5363 65.804L87.0083 66.452C86.8563 66.252 86.6723 66.076 86.4563 65.924C86.2483 65.772 86.0203 65.656 85.7723 65.576C85.5323 65.488 85.2923 65.444 85.0523 65.444C84.6283 65.444 84.2483 65.552 83.9123 65.768C83.5763 65.976 83.3083 66.26 83.1083 66.62C82.9163 66.98 82.8203 67.392 82.8203 67.856C82.8203 68.32 82.9163 68.736 83.1083 69.104C83.3083 69.464 83.5763 69.748 83.9123 69.956C84.2483 70.164 84.6243 70.268 85.0403 70.268C85.2803 70.268 85.5163 70.232 85.7483 70.16C85.9803 70.08 86.2003 69.968 86.4083 69.824C86.6163 69.68 86.8083 69.5 86.9843 69.284L87.5123 69.932C87.2403 70.292 86.8763 70.58 86.4203 70.796C85.9643 71.012 85.4923 71.12 85.0043 71.12ZM91.4527 71.12C90.8287 71.12 90.2727 70.98 89.7847 70.7C89.3047 70.42 88.9247 70.032 88.6447 69.536C88.3727 69.04 88.2367 68.476 88.2367 67.844C88.2367 67.22 88.3727 66.664 88.6447 66.176C88.9247 65.688 89.3047 65.304 89.7847 65.024C90.2727 64.744 90.8287 64.604 91.4527 64.604C92.0687 64.604 92.6167 64.744 93.0967 65.024C93.5847 65.304 93.9647 65.688 94.2367 66.176C94.5167 66.664 94.6567 67.22 94.6567 67.844C94.6567 68.476 94.5167 69.04 94.2367 69.536C93.9647 70.032 93.5847 70.42 93.0967 70.7C92.6167 70.98 92.0687 71.12 91.4527 71.12ZM91.4527 70.268C91.8927 70.268 92.2847 70.164 92.6287 69.956C92.9727 69.74 93.2407 69.452 93.4327 69.092C93.6247 68.724 93.7207 68.308 93.7207 67.844C93.7207 67.38 93.6247 66.968 93.4327 66.608C93.2407 66.248 92.9727 65.968 92.6287 65.768C92.2847 65.56 91.8927 65.456 91.4527 65.456C91.0127 65.456 90.6167 65.56 90.2647 65.768C89.9207 65.968 89.6487 66.252 89.4487 66.62C89.2567 66.98 89.1647 67.388 89.1727 67.844C89.1647 68.308 89.2567 68.724 89.4487 69.092C89.6487 69.452 89.9207 69.74 90.2647 69.956C90.6167 70.164 91.0127 70.268 91.4527 70.268ZM98.1898 71.12C97.7098 71.12 97.3018 71.024 96.9658 70.832C96.6378 70.632 96.3858 70.344 96.2098 69.968C96.0418 69.592 95.9578 69.124 95.9578 68.564V64.736H96.8698V68.384C96.8698 68.808 96.9258 69.164 97.0378 69.452C97.1578 69.732 97.3338 69.944 97.5658 70.088C97.8058 70.232 98.0978 70.304 98.4418 70.304C98.7058 70.304 98.9498 70.26 99.1738 70.172C99.3978 70.076 99.5938 69.948 99.7618 69.788C99.9298 69.628 100.062 69.44 100.158 69.224C100.254 69.008 100.302 68.78 100.302 68.54V64.736H101.202V71H100.314L100.278 69.68L100.422 69.608C100.326 69.888 100.166 70.144 99.9418 70.376C99.7178 70.6 99.4498 70.78 99.1378 70.916C98.8338 71.052 98.5178 71.12 98.1898 71.12ZM102.954 71V64.736H103.842L103.878 66.044L103.734 66.104C103.814 65.832 103.97 65.584 104.202 65.36C104.434 65.136 104.71 64.956 105.03 64.82C105.358 64.676 105.694 64.604 106.038 64.604C106.502 64.604 106.89 64.696 107.202 64.88C107.514 65.064 107.75 65.348 107.91 65.732C108.07 66.116 108.15 66.604 108.15 67.196V71H107.238V67.244C107.238 66.828 107.182 66.488 107.07 66.224C106.966 65.952 106.802 65.752 106.578 65.624C106.354 65.496 106.078 65.436 105.75 65.444C105.478 65.444 105.226 65.492 104.994 65.588C104.762 65.676 104.562 65.8 104.394 65.96C104.226 66.12 104.094 66.304 103.998 66.512C103.902 66.72 103.854 66.944 103.854 67.184V71H103.41C103.354 71 103.29 71 103.218 71C103.146 71 103.058 71 102.954 71ZM110.732 71V63.092H111.632V71H110.732ZM109.316 65.6V64.736H113.216V65.6H109.316ZM114.813 71.12C114.597 71.12 114.429 71.056 114.309 70.928C114.197 70.8 114.141 70.616 114.141 70.376C114.141 70.16 114.201 69.984 114.321 69.848C114.449 69.704 114.613 69.632 114.813 69.632C115.029 69.632 115.193 69.7 115.305 69.836C115.425 69.964 115.485 70.144 115.485 70.376C115.485 70.6 115.421 70.78 115.293 70.916C115.173 71.052 115.013 71.12 114.813 71.12Z" fill="#282828"/>
<path d="M20.592 32.16C19.728 32.16 18.9333 32.016 18.208 31.728C17.4933 31.4293 16.8747 31.0187 16.352 30.496C15.8293 29.9733 15.424 29.36 15.136 28.656C14.8587 27.952 14.72 27.1893 14.72 26.368C14.72 25.5467 14.864 24.7893 15.152 24.096C15.4507 23.392 15.8667 22.784 16.4 22.272C16.944 21.7493 17.5787 21.344 18.304 21.056C19.0293 20.768 19.824 20.624 20.688 20.624C21.2853 20.624 21.856 20.704 22.4 20.864C22.944 21.024 23.44 21.2427 23.888 21.52C24.336 21.7973 24.7093 22.1173 25.008 22.48L23.52 24.048C23.2427 23.7813 22.9493 23.5573 22.64 23.376C22.3413 23.184 22.0267 23.04 21.696 22.944C21.3653 22.8373 21.024 22.784 20.672 22.784C20.1707 22.784 19.7067 22.8747 19.28 23.056C18.864 23.2373 18.496 23.488 18.176 23.808C17.856 24.128 17.6053 24.5067 17.424 24.944C17.2533 25.3813 17.168 25.856 17.168 26.368C17.168 26.8693 17.2587 27.344 17.44 27.792C17.632 28.2293 17.888 28.6133 18.208 28.944C18.5387 29.264 18.9227 29.52 19.36 29.712C19.7973 29.8933 20.2667 29.984 20.768 29.984C21.12 29.984 21.456 29.9307 21.776 29.824C22.096 29.7173 22.3733 29.568 22.608 29.376C22.8533 29.1733 23.04 28.9387 23.168 28.672C23.3067 28.4053 23.376 28.1227 23.376 27.824V27.44L23.696 27.888H20.496V25.888H25.68C25.6907 26.0053 25.7013 26.1493 25.712 26.32C25.7333 26.4907 25.744 26.6613 25.744 26.832C25.7547 26.992 25.76 27.12 25.76 27.216C25.76 27.9413 25.6267 28.608 25.36 29.216C25.104 29.824 24.7413 30.3467 24.272 30.784C23.8133 31.2213 23.2693 31.5627 22.64 31.808C22.0107 32.0427 21.328 32.16 20.592 32.16ZM31.5739 32.16C30.6565 32.16 29.8565 31.9733 29.1739 31.6C28.4912 31.2267 27.9579 30.7147 27.5739 30.064C27.1899 29.4133 26.9979 28.6667 26.9979 27.824C26.9979 27.1733 27.1045 26.576 27.3179 26.032C27.5312 25.488 27.8299 25.0187 28.2139 24.624C28.5979 24.2187 29.0512 23.9093 29.5739 23.696C30.1072 23.472 30.6832 23.36 31.3019 23.36C31.8779 23.36 32.4112 23.4667 32.9019 23.68C33.3925 23.8827 33.8139 24.176 34.1659 24.56C34.5285 24.9333 34.8059 25.376 34.9979 25.888C35.1899 26.4 35.2752 26.96 35.2539 27.568L35.2379 28.272H28.4379L28.0699 26.88H33.3659L33.1099 27.168V26.816C33.0885 26.528 32.9925 26.2667 32.8219 26.032C32.6619 25.7973 32.4539 25.616 32.1979 25.488C31.9419 25.36 31.6539 25.296 31.3339 25.296C30.8645 25.296 30.4645 25.3867 30.1339 25.568C29.8139 25.7493 29.5685 26.016 29.3979 26.368C29.2272 26.72 29.1419 27.1467 29.1419 27.648C29.1419 28.16 29.2485 28.6027 29.4619 28.976C29.6859 29.3493 29.9952 29.6427 30.3899 29.856C30.7952 30.0587 31.2699 30.16 31.8139 30.16C32.1872 30.16 32.5285 30.1013 32.8379 29.984C33.1472 29.8667 33.4779 29.664 33.8299 29.376L34.9179 30.896C34.6085 31.1733 34.2672 31.408 33.8939 31.6C33.5205 31.7813 33.1365 31.92 32.7419 32.016C32.3472 32.112 31.9579 32.16 31.5739 32.16ZM37.7489 32V21.392H40.0209V32H37.7489ZM36.1649 25.568V23.536H41.7489V25.568H36.1649ZM48.456 32V20.8H53.208C53.8693 20.8 54.4667 20.96 55 21.28C55.544 21.5893 55.9707 22.016 56.28 22.56C56.6 23.104 56.76 23.7173 56.76 24.4C56.76 25.0933 56.6 25.7173 56.28 26.272C55.9707 26.8267 55.544 27.2693 55 27.6C54.4667 27.92 53.8693 28.08 53.208 28.08H50.856V32H48.456ZM50.824 25.92H52.936C53.192 25.92 53.4213 25.856 53.624 25.728C53.8267 25.5893 53.9867 25.408 54.104 25.184C54.232 24.96 54.296 24.704 54.296 24.416C54.296 24.128 54.232 23.8773 54.104 23.664C53.9867 23.44 53.8267 23.2693 53.624 23.152C53.4213 23.024 53.192 22.96 52.936 22.96H50.824V25.92ZM58.5891 32V23.536H60.7811L60.8611 26.256L60.4771 25.696C60.6051 25.2587 60.8131 24.864 61.1011 24.512C61.3891 24.1493 61.7251 23.8667 62.1091 23.664C62.5038 23.4613 62.9145 23.36 63.3411 23.36C63.5225 23.36 63.6985 23.376 63.8691 23.408C64.0398 23.44 64.1838 23.4773 64.3011 23.52L63.6931 26.016C63.5651 25.952 63.4105 25.8987 63.2291 25.856C63.0478 25.8027 62.8611 25.776 62.6691 25.776C62.4131 25.776 62.1731 25.824 61.9491 25.92C61.7358 26.0053 61.5491 26.1333 61.3891 26.304C61.2291 26.464 61.1011 26.656 61.0051 26.88C60.9198 27.104 60.8771 27.3493 60.8771 27.616V32H58.5891ZM69.2614 32.16C68.344 32.16 67.544 31.9733 66.8614 31.6C66.1787 31.2267 65.6454 30.7147 65.2614 30.064C64.8774 29.4133 64.6854 28.6667 64.6854 27.824C64.6854 27.1733 64.792 26.576 65.0054 26.032C65.2187 25.488 65.5174 25.0187 65.9014 24.624C66.2854 24.2187 66.7387 23.9093 67.2614 23.696C67.7947 23.472 68.3707 23.36 68.9894 23.36C69.5654 23.36 70.0987 23.4667 70.5894 23.68C71.08 23.8827 71.5014 24.176 71.8534 24.56C72.216 24.9333 72.4934 25.376 72.6854 25.888C72.8774 26.4 72.9627 26.96 72.9414 27.568L72.9254 28.272H66.1254L65.7574 26.88H71.0534L70.7974 27.168V26.816C70.776 26.528 70.68 26.2667 70.5094 26.032C70.3494 25.7973 70.1414 25.616 69.8854 25.488C69.6294 25.36 69.3414 25.296 69.0214 25.296C68.552 25.296 68.152 25.3867 67.8214 25.568C67.5014 25.7493 67.256 26.016 67.0854 26.368C66.9147 26.72 66.8294 27.1467 66.8294 27.648C66.8294 28.16 66.936 28.6027 67.1494 28.976C67.3734 29.3493 67.6827 29.6427 68.0774 29.856C68.4827 30.0587 68.9574 30.16 69.5014 30.16C69.8747 30.16 70.216 30.1013 70.5254 29.984C70.8347 29.8667 71.1654 29.664 71.5174 29.376L72.6054 30.896C72.296 31.1733 71.9547 31.408 71.5814 31.6C71.208 31.7813 70.824 31.92 70.4294 32.016C70.0347 32.112 69.6454 32.16 69.2614 32.16ZM74.6044 32V23.536H76.7964L76.8444 25.152L76.5084 25.216C76.6257 24.9387 76.7804 24.688 76.9724 24.464C77.1644 24.24 77.3884 24.048 77.6444 23.888C77.911 23.728 78.1884 23.6053 78.4764 23.52C78.7644 23.424 79.0524 23.376 79.3404 23.376C79.7777 23.376 80.1724 23.4453 80.5244 23.584C80.8764 23.7227 81.175 23.9413 81.4204 24.24C81.6657 24.528 81.8577 24.912 81.9964 25.392L81.6444 25.36L81.7564 25.104C81.895 24.848 82.071 24.6187 82.2844 24.416C82.4977 24.2027 82.7377 24.0213 83.0044 23.872C83.271 23.712 83.5484 23.5893 83.8364 23.504C84.1244 23.4187 84.407 23.376 84.6844 23.376C85.3457 23.376 85.895 23.5093 86.3324 23.776C86.7697 24.032 87.095 24.4213 87.3084 24.944C87.5324 25.4667 87.6444 26.1067 87.6444 26.864V32H85.3724V27.024C85.3724 26.64 85.319 26.3253 85.2124 26.08C85.1057 25.8347 84.951 25.6533 84.7484 25.536C84.5457 25.408 84.2844 25.344 83.9644 25.344C83.719 25.344 83.4897 25.3867 83.2764 25.472C83.0737 25.5467 82.8924 25.6587 82.7324 25.808C82.583 25.9467 82.4657 26.112 82.3804 26.304C82.295 26.496 82.2524 26.7093 82.2524 26.944V32H79.9804V27.008C79.9804 26.656 79.9217 26.3573 79.8044 26.112C79.6977 25.856 79.543 25.664 79.3404 25.536C79.1377 25.408 78.887 25.344 78.5884 25.344C78.343 25.344 78.1137 25.3867 77.9004 25.472C77.6977 25.5467 77.5217 25.6587 77.3724 25.808C77.223 25.9467 77.1004 26.112 77.0044 26.304C76.919 26.496 76.8764 26.704 76.8764 26.928V32H74.6044ZM89.9999 32V23.536H92.2719V32H89.9999ZM91.1199 21.792C90.6825 21.792 90.3412 21.6853 90.0959 21.472C89.8505 21.2587 89.7279 20.9547 89.7279 20.56C89.7279 20.1973 89.8505 19.904 90.0959 19.68C90.3519 19.4453 90.6932 19.328 91.1199 19.328C91.5572 19.328 91.8985 19.44 92.1439 19.664C92.3892 19.8773 92.5119 20.176 92.5119 20.56C92.5119 20.9333 92.3839 21.232 92.1279 21.456C91.8825 21.68 91.5465 21.792 91.1199 21.792ZM97.6105 32.16C96.9918 32.16 96.4585 32.0267 96.0105 31.76C95.5732 31.4827 95.2318 31.0933 94.9865 30.592C94.7518 30.08 94.6345 29.4667 94.6345 28.752V23.536H96.9065V28.384C96.9065 28.768 96.9705 29.104 97.0985 29.392C97.2265 29.6693 97.4078 29.8827 97.6425 30.032C97.8772 30.1813 98.1652 30.256 98.5065 30.256C98.7518 30.256 98.9812 30.2187 99.1945 30.144C99.4078 30.0587 99.5892 29.9413 99.7385 29.792C99.8878 29.6427 100.005 29.4667 100.091 29.264C100.176 29.0613 100.219 28.8427 100.219 28.608V23.536H102.491V32H100.331L100.251 30.256L100.667 30.064C100.539 30.4587 100.325 30.816 100.027 31.136C99.7278 31.456 99.3705 31.7067 98.9545 31.888C98.5385 32.0693 98.0905 32.16 97.6105 32.16ZM104.761 32V23.536H106.953L107.001 25.152L106.665 25.216C106.782 24.9387 106.937 24.688 107.129 24.464C107.321 24.24 107.545 24.048 107.801 23.888C108.067 23.728 108.345 23.6053 108.633 23.52C108.921 23.424 109.209 23.376 109.497 23.376C109.934 23.376 110.329 23.4453 110.681 23.584C111.033 23.7227 111.331 23.9413 111.577 24.24C111.822 24.528 112.014 24.912 112.153 25.392L111.801 25.36L111.913 25.104C112.051 24.848 112.227 24.6187 112.441 24.416C112.654 24.2027 112.894 24.0213 113.161 23.872C113.427 23.712 113.705 23.5893 113.993 23.504C114.281 23.4187 114.563 23.376 114.841 23.376C115.502 23.376 116.051 23.5093 116.489 23.776C116.926 24.032 117.251 24.4213 117.465 24.944C117.689 25.4667 117.801 26.1067 117.801 26.864V32H115.529V27.024C115.529 26.64 115.475 26.3253 115.369 26.08C115.262 25.8347 115.107 25.6533 114.905 25.536C114.702 25.408 114.441 25.344 114.121 25.344C113.875 25.344 113.646 25.3867 113.433 25.472C113.23 25.5467 113.049 25.6587 112.889 25.808C112.739 25.9467 112.622 26.112 112.537 26.304C112.451 26.496 112.409 26.7093 112.409 26.944V32H110.137V27.008C110.137 26.656 110.078 26.3573 109.961 26.112C109.854 25.856 109.699 25.664 109.497 25.536C109.294 25.408 109.043 25.344 108.745 25.344C108.499 25.344 108.27 25.3867 108.057 25.472C107.854 25.5467 107.678 25.6587 107.529 25.808C107.379 25.9467 107.257 26.112 107.161 26.304C107.075 26.496 107.033 26.704 107.033 26.928V32H104.761Z" fill="#282828"/>
<path d="M42.584 171.12C42 171.12 41.464 171.016 40.976 170.808C40.488 170.6 40.064 170.304 39.704 169.92C39.344 169.528 39.064 169.068 38.864 168.54C38.672 168.012 38.576 167.432 38.576 166.8C38.576 166.2 38.68 165.644 38.888 165.132C39.104 164.612 39.4 164.156 39.776 163.764C40.152 163.372 40.588 163.068 41.084 162.852C41.58 162.636 42.116 162.528 42.692 162.528C43.1 162.528 43.496 162.592 43.88 162.72C44.272 162.84 44.624 163.012 44.936 163.236C45.256 163.452 45.516 163.7 45.716 163.98L44.852 164.88C44.62 164.648 44.384 164.456 44.144 164.304C43.912 164.144 43.672 164.024 43.424 163.944C43.184 163.864 42.94 163.824 42.692 163.824C42.3 163.824 41.932 163.9 41.588 164.052C41.252 164.196 40.956 164.4 40.7 164.664C40.452 164.928 40.256 165.244 40.112 165.612C39.968 165.972 39.896 166.368 39.896 166.8C39.896 167.256 39.964 167.672 40.1 168.048C40.244 168.416 40.444 168.732 40.7 168.996C40.956 169.26 41.26 169.464 41.612 169.608C41.972 169.744 42.368 169.812 42.8 169.812C43.064 169.812 43.324 169.776 43.58 169.704C43.836 169.632 44.076 169.528 44.3 169.392C44.524 169.256 44.728 169.096 44.912 168.912L45.56 169.968C45.376 170.184 45.124 170.38 44.804 170.556C44.492 170.732 44.14 170.872 43.748 170.976C43.364 171.072 42.976 171.12 42.584 171.12ZM49.8405 171.12C49.2245 171.12 48.6725 170.98 48.1845 170.7C47.7045 170.412 47.3245 170.024 47.0445 169.536C46.7645 169.04 46.6245 168.476 46.6245 167.844C46.6245 167.212 46.7645 166.652 47.0445 166.164C47.3245 165.668 47.7045 165.28 48.1845 165C48.6725 164.712 49.2245 164.568 49.8405 164.568C50.4485 164.568 50.9925 164.712 51.4725 165C51.9605 165.28 52.3445 165.668 52.6245 166.164C52.9045 166.652 53.0445 167.212 53.0445 167.844C53.0445 168.476 52.9045 169.04 52.6245 169.536C52.3445 170.024 51.9605 170.412 51.4725 170.7C50.9925 170.98 50.4485 171.12 49.8405 171.12ZM49.8405 169.992C50.2165 169.992 50.5525 169.9 50.8485 169.716C51.1445 169.524 51.3765 169.268 51.5445 168.948C51.7125 168.62 51.7925 168.252 51.7845 167.844C51.7925 167.428 51.7125 167.06 51.5445 166.74C51.3765 166.412 51.1445 166.156 50.8485 165.972C50.5525 165.788 50.2165 165.696 49.8405 165.696C49.4645 165.696 49.1245 165.792 48.8205 165.984C48.5245 166.168 48.2925 166.424 48.1245 166.752C47.9565 167.072 47.8765 167.436 47.8845 167.844C47.8765 168.252 47.9565 168.62 48.1245 168.948C48.2925 169.268 48.5245 169.524 48.8205 169.716C49.1245 169.9 49.4645 169.992 49.8405 169.992ZM54.3673 171V164.7H55.6153V166.044L55.3873 166.188C55.4513 165.98 55.5513 165.78 55.6873 165.588C55.8313 165.396 56.0033 165.228 56.2033 165.084C56.4113 164.932 56.6313 164.812 56.8633 164.724C57.1033 164.636 57.3473 164.592 57.5953 164.592C57.9553 164.592 58.2713 164.652 58.5433 164.772C58.8153 164.892 59.0393 165.072 59.2153 165.312C59.3913 165.552 59.5193 165.852 59.5993 166.212L59.4073 166.164L59.4913 165.96C59.5793 165.776 59.6993 165.604 59.8513 165.444C60.0113 165.276 60.1913 165.128 60.3913 165C60.5913 164.872 60.8033 164.772 61.0273 164.7C61.2513 164.628 61.4713 164.592 61.6873 164.592C62.1593 164.592 62.5473 164.688 62.8513 164.88C63.1633 165.072 63.3953 165.364 63.5473 165.756C63.7073 166.148 63.7873 166.636 63.7873 167.22V171H62.5393V167.292C62.5393 166.932 62.4913 166.64 62.3953 166.416C62.3073 166.184 62.1713 166.012 61.9873 165.9C61.8033 165.788 61.5673 165.732 61.2793 165.732C61.0553 165.732 60.8433 165.772 60.6433 165.852C60.4513 165.924 60.2833 166.028 60.1393 166.164C59.9953 166.3 59.8833 166.46 59.8033 166.644C59.7233 166.82 59.6833 167.016 59.6833 167.232V171H58.4353V167.268C58.4353 166.94 58.3873 166.664 58.2913 166.44C58.1953 166.208 58.0553 166.032 57.8713 165.912C57.6873 165.792 57.4633 165.732 57.1993 165.732C56.9753 165.732 56.7673 165.772 56.5753 165.852C56.3833 165.924 56.2153 166.028 56.0713 166.164C55.9273 166.292 55.8153 166.448 55.7353 166.632C55.6553 166.808 55.6153 167 55.6153 167.208V171H54.3673ZM65.4181 171V164.7H66.6661V166.044L66.4381 166.188C66.5021 165.98 66.6021 165.78 66.7381 165.588C66.8821 165.396 67.0541 165.228 67.2541 165.084C67.4621 164.932 67.6821 164.812 67.9141 164.724C68.1541 164.636 68.3981 164.592 68.6461 164.592C69.0061 164.592 69.3221 164.652 69.5941 164.772C69.8661 164.892 70.0901 165.072 70.2661 165.312C70.4421 165.552 70.5701 165.852 70.6501 166.212L70.4581 166.164L70.5421 165.96C70.6301 165.776 70.7501 165.604 70.9021 165.444C71.0621 165.276 71.2421 165.128 71.4421 165C71.6421 164.872 71.8541 164.772 72.0781 164.7C72.3021 164.628 72.5221 164.592 72.7381 164.592C73.2101 164.592 73.5981 164.688 73.9021 164.88C74.2141 165.072 74.4461 165.364 74.5981 165.756C74.7581 166.148 74.8381 166.636 74.8381 167.22V171H73.5901V167.292C73.5901 166.932 73.5421 166.64 73.4461 166.416C73.3581 166.184 73.2221 166.012 73.0381 165.9C72.8541 165.788 72.6181 165.732 72.3301 165.732C72.1061 165.732 71.8941 165.772 71.6941 165.852C71.5021 165.924 71.3341 166.028 71.1901 166.164C71.0461 166.3 70.9341 166.46 70.8541 166.644C70.7741 166.82 70.7341 167.016 70.7341 167.232V171H69.4861V167.268C69.4861 166.94 69.4381 166.664 69.3421 166.44C69.2461 166.208 69.1061 166.032 68.9221 165.912C68.7381 165.792 68.5141 165.732 68.2501 165.732C68.0261 165.732 67.8181 165.772 67.6261 165.852C67.4341 165.924 67.2661 166.028 67.1221 166.164C66.9781 166.292 66.8661 166.448 66.7861 166.632C66.7061 166.808 66.6661 167 66.6661 167.208V171H65.4181ZM78.7009 171.12C78.2529 171.12 77.8609 171.016 77.5249 170.808C77.1969 170.6 76.9409 170.308 76.7569 169.932C76.5809 169.556 76.4929 169.108 76.4929 168.588V164.7H77.7289V168.252C77.7289 168.62 77.7849 168.94 77.8969 169.212C78.0169 169.476 78.1849 169.68 78.4009 169.824C78.6249 169.968 78.8929 170.04 79.2049 170.04C79.4369 170.04 79.6489 170.004 79.8409 169.932C80.0329 169.852 80.1969 169.744 80.3329 169.608C80.4769 169.472 80.5889 169.308 80.6689 169.116C80.7489 168.924 80.7889 168.716 80.7889 168.492V164.7H82.0249V171H80.7889V169.68L81.0049 169.536C80.9089 169.832 80.7449 170.1 80.5129 170.34C80.2889 170.58 80.0209 170.772 79.7089 170.916C79.3969 171.052 79.0609 171.12 78.7009 171.12ZM83.7585 171V164.7H84.9945V165.996L84.7785 166.14C84.8585 165.86 85.0145 165.604 85.2465 165.372C85.4785 165.132 85.7545 164.94 86.0745 164.796C86.3945 164.644 86.7225 164.568 87.0585 164.568C87.5385 164.568 87.9385 164.664 88.2585 164.856C88.5785 165.04 88.8185 165.324 88.9785 165.708C89.1385 166.092 89.2185 166.576 89.2185 167.16V171H87.9825V167.244C87.9825 166.884 87.9345 166.588 87.8385 166.356C87.7425 166.116 87.5945 165.944 87.3945 165.84C87.1945 165.728 86.9465 165.68 86.6505 165.696C86.4105 165.696 86.1905 165.736 85.9905 165.816C85.7905 165.888 85.6145 165.992 85.4625 166.128C85.3185 166.264 85.2025 166.424 85.1145 166.608C85.0345 166.784 84.9945 166.976 84.9945 167.184V171H84.3825C84.2785 171 84.1745 171 84.0705 171C83.9665 171 83.8625 171 83.7585 171ZM91.0993 171V164.7H92.3353V171H91.0993ZM91.6993 163.308C91.4353 163.308 91.2313 163.24 91.0873 163.104C90.9433 162.968 90.8713 162.776 90.8713 162.528C90.8713 162.296 90.9433 162.108 91.0873 161.964C91.2393 161.82 91.4433 161.748 91.6993 161.748C91.9633 161.748 92.1673 161.816 92.3113 161.952C92.4553 162.088 92.5273 162.28 92.5273 162.528C92.5273 162.76 92.4513 162.948 92.2993 163.092C92.1553 163.236 91.9553 163.308 91.6993 163.308ZM95.0151 171V163.092H96.2511V171H95.0151ZM93.7071 165.9V164.7H97.7151V165.9H93.7071ZM99.8966 173.76L101.169 170.82L101.181 171.804L98.0366 164.7H99.4766L101.445 169.332C101.485 169.412 101.533 169.536 101.589 169.704C101.645 169.864 101.693 170.024 101.733 170.184L101.421 170.256C101.485 170.088 101.545 169.92 101.601 169.752C101.665 169.584 101.725 169.416 101.781 169.248L103.425 164.7H104.889L102.297 171L101.229 173.76H99.8966Z" fill="#282828"/>
<path d="M22 175C26.9706 175 31 170.971 31 166C31 161.029 26.9706 157 22 157C17.0294 157 13 161.029 13 166C13 170.971 17.0294 175 22 175Z" fill="#FCFCFC"/>
<path d="M25.7071 164.707C26.0976 164.317 26.0976 163.683 25.7071 163.293C25.3166 162.902 24.6834 162.902 24.2929 163.293L25.7071 164.707ZM21 168L20.2929 168.707C20.6834 169.098 21.3166 169.098 21.7071 168.707L21 168ZM19.7071 165.293C19.3166 164.902 18.6834 164.902 18.2929 165.293C17.9024 165.683 17.9024 166.317 18.2929 166.707L19.7071 165.293ZM24.2929 163.293L20.2929 167.293L21.7071 168.707L25.7071 164.707L24.2929 163.293ZM21.7071 167.293L19.7071 165.293L18.2929 166.707L20.2929 168.707L21.7071 167.293Z" fill="#282828"/>
<path d="M22 143C26.9706 143 31 138.971 31 134C31 129.029 26.9706 125 22 125C17.0294 125 13 129.029 13 134C13 138.971 17.0294 143 22 143Z" fill="#FCFCFC"/>
<path d="M25.7071 132.707C26.0976 132.317 26.0976 131.683 25.7071 131.293C25.3166 130.902 24.6834 130.902 24.2929 131.293L25.7071 132.707ZM21 136L20.2929 136.707C20.6834 137.098 21.3166 137.098 21.7071 136.707L21 136ZM19.7071 133.293C19.3166 132.902 18.6834 132.902 18.2929 133.293C17.9024 133.683 17.9024 134.317 18.2929 134.707L19.7071 133.293ZM24.2929 131.293L20.2929 135.293L21.7071 136.707L25.7071 132.707L24.2929 131.293ZM21.7071 135.293L19.7071 133.293L18.2929 134.707L20.2929 136.707L21.7071 135.293Z" fill="#282828"/>
<path d="M40.772 139V131.848H38.42V130.6H44.492V131.848H42.068V139H40.772ZM47.5228 139.12C46.8748 139.12 46.2988 138.984 45.7948 138.712C45.2988 138.432 44.9068 138.052 44.6188 137.572C44.3388 137.092 44.1988 136.54 44.1988 135.916C44.1988 135.42 44.2788 134.968 44.4388 134.56C44.5988 134.152 44.8188 133.8 45.0988 133.504C45.3868 133.2 45.7268 132.968 46.1188 132.808C46.5188 132.64 46.9508 132.556 47.4148 132.556C47.8228 132.556 48.2028 132.636 48.5548 132.796C48.9068 132.948 49.2108 133.16 49.4668 133.432C49.7308 133.704 49.9308 134.028 50.0668 134.404C50.2108 134.772 50.2788 135.176 50.2708 135.616L50.2588 136.144H45.1108L44.8348 135.16H49.1908L49.0108 135.364V135.076C48.9868 134.812 48.8988 134.576 48.7468 134.368C48.5948 134.16 48.4028 133.996 48.1708 133.876C47.9388 133.756 47.6868 133.696 47.4148 133.696C46.9828 133.696 46.6188 133.78 46.3228 133.948C46.0268 134.108 45.8028 134.348 45.6508 134.668C45.4988 134.98 45.4228 135.368 45.4228 135.832C45.4228 136.272 45.5148 136.656 45.6988 136.984C45.8828 137.304 46.1428 137.552 46.4788 137.728C46.8148 137.904 47.2028 137.992 47.6428 137.992C47.9548 137.992 48.2428 137.94 48.5068 137.836C48.7788 137.732 49.0708 137.544 49.3828 137.272L50.0068 138.148C49.8148 138.34 49.5788 138.508 49.2988 138.652C49.0268 138.796 48.7348 138.912 48.4228 139C48.1188 139.08 47.8188 139.12 47.5228 139.12ZM54.038 139.12C53.518 139.12 53.042 138.976 52.61 138.688C52.186 138.4 51.846 138.008 51.59 137.512C51.334 137.016 51.206 136.456 51.206 135.832C51.206 135.2 51.334 134.64 51.59 134.152C51.854 133.656 52.206 133.268 52.646 132.988C53.094 132.708 53.594 132.568 54.146 132.568C54.474 132.568 54.774 132.616 55.046 132.712C55.318 132.808 55.554 132.944 55.754 133.12C55.962 133.288 56.13 133.484 56.258 133.708C56.394 133.932 56.478 134.172 56.51 134.428L56.234 134.332V132.7H57.482V139H56.234V137.5L56.522 137.416C56.474 137.632 56.374 137.844 56.222 138.052C56.078 138.252 55.89 138.432 55.658 138.592C55.434 138.752 55.182 138.88 54.902 138.976C54.63 139.072 54.342 139.12 54.038 139.12ZM54.362 137.98C54.738 137.98 55.07 137.888 55.358 137.704C55.646 137.52 55.87 137.268 56.03 136.948C56.198 136.62 56.282 136.248 56.282 135.832C56.282 135.424 56.198 135.06 56.03 134.74C55.87 134.42 55.646 134.168 55.358 133.984C55.07 133.8 54.738 133.708 54.362 133.708C53.994 133.708 53.666 133.8 53.378 133.984C53.098 134.168 52.874 134.42 52.706 134.74C52.546 135.06 52.466 135.424 52.466 135.832C52.466 136.248 52.546 136.62 52.706 136.948C52.874 137.268 53.098 137.52 53.378 137.704C53.666 137.888 53.994 137.98 54.362 137.98ZM59.1838 139V132.7H60.4318V134.044L60.2038 134.188C60.2678 133.98 60.3678 133.78 60.5038 133.588C60.6478 133.396 60.8198 133.228 61.0198 133.084C61.2278 132.932 61.4478 132.812 61.6798 132.724C61.9198 132.636 62.1638 132.592 62.4118 132.592C62.7718 132.592 63.0878 132.652 63.3598 132.772C63.6318 132.892 63.8558 133.072 64.0318 133.312C64.2078 133.552 64.3358 133.852 64.4158 134.212L64.2238 134.164L64.3078 133.96C64.3958 133.776 64.5158 133.604 64.6678 133.444C64.8278 133.276 65.0078 133.128 65.2078 133C65.4078 132.872 65.6198 132.772 65.8438 132.7C66.0678 132.628 66.2878 132.592 66.5038 132.592C66.9758 132.592 67.3638 132.688 67.6678 132.88C67.9798 133.072 68.2118 133.364 68.3638 133.756C68.5238 134.148 68.6038 134.636 68.6038 135.22V139H67.3558V135.292C67.3558 134.932 67.3078 134.64 67.2118 134.416C67.1238 134.184 66.9878 134.012 66.8038 133.9C66.6198 133.788 66.3838 133.732 66.0958 133.732C65.8718 133.732 65.6598 133.772 65.4598 133.852C65.2678 133.924 65.0998 134.028 64.9557 134.164C64.8118 134.3 64.6998 134.46 64.6198 134.644C64.5398 134.82 64.4998 135.016 64.4998 135.232V139H63.2518V135.268C63.2518 134.94 63.2038 134.664 63.1078 134.44C63.0118 134.208 62.8718 134.032 62.6878 133.912C62.5038 133.792 62.2798 133.732 62.0158 133.732C61.7918 133.732 61.5838 133.772 61.3918 133.852C61.1998 133.924 61.0318 134.028 60.8878 134.164C60.7438 134.292 60.6318 134.448 60.5518 134.632C60.4718 134.808 60.4318 135 60.4318 135.208V139H59.1838ZM73.9338 139V130.6H75.2058L78.2658 135.58L77.6538 135.568L80.7498 130.6H81.9498V139H80.6538V135.556C80.6538 134.836 80.6698 134.188 80.7018 133.612C80.7418 133.036 80.8058 132.464 80.8938 131.896L81.0618 132.34L78.3138 136.588H77.5218L74.8578 132.388L74.9898 131.896C75.0778 132.432 75.1378 132.984 75.1698 133.552C75.2098 134.112 75.2298 134.78 75.2298 135.556V139H73.9338ZM86.9329 139.12C86.2849 139.12 85.7089 138.984 85.2049 138.712C84.7089 138.432 84.3169 138.052 84.0289 137.572C83.7489 137.092 83.6089 136.54 83.6089 135.916C83.6089 135.42 83.6889 134.968 83.8489 134.56C84.0089 134.152 84.2289 133.8 84.5089 133.504C84.7969 133.2 85.1369 132.968 85.5289 132.808C85.9289 132.64 86.3609 132.556 86.8249 132.556C87.2329 132.556 87.6129 132.636 87.9649 132.796C88.3169 132.948 88.6209 133.16 88.8769 133.432C89.1409 133.704 89.3409 134.028 89.4769 134.404C89.6209 134.772 89.6889 135.176 89.6809 135.616L89.6689 136.144H84.5209L84.2449 135.16H88.6009L88.4209 135.364V135.076C88.3969 134.812 88.3089 134.576 88.1569 134.368C88.0049 134.16 87.8129 133.996 87.5809 133.876C87.3489 133.756 87.0969 133.696 86.8249 133.696C86.3929 133.696 86.0289 133.78 85.7329 133.948C85.4369 134.108 85.2129 134.348 85.0609 134.668C84.9089 134.98 84.8329 135.368 84.8329 135.832C84.8329 136.272 84.9249 136.656 85.1089 136.984C85.2929 137.304 85.5529 137.552 85.8889 137.728C86.2249 137.904 86.6129 137.992 87.0529 137.992C87.3649 137.992 87.6529 137.94 87.9169 137.836C88.1889 137.732 88.4809 137.544 88.7929 137.272L89.4169 138.148C89.2249 138.34 88.9889 138.508 88.7089 138.652C88.4369 138.796 88.1449 138.912 87.8329 139C87.5289 139.08 87.2289 139.12 86.9329 139.12ZM91.0002 139V132.7H92.2482V134.044L92.0202 134.188C92.0842 133.98 92.1842 133.78 92.3202 133.588C92.4642 133.396 92.6362 133.228 92.8362 133.084C93.0442 132.932 93.2642 132.812 93.4962 132.724C93.7362 132.636 93.9802 132.592 94.2282 132.592C94.5882 132.592 94.9042 132.652 95.1762 132.772C95.4482 132.892 95.6722 133.072 95.8482 133.312C96.0242 133.552 96.1522 133.852 96.2322 134.212L96.0402 134.164L96.1242 133.96C96.2122 133.776 96.3322 133.604 96.4842 133.444C96.6442 133.276 96.8242 133.128 97.0242 133C97.2242 132.872 97.4362 132.772 97.6602 132.7C97.8842 132.628 98.1042 132.592 98.3202 132.592C98.7922 132.592 99.1802 132.688 99.4842 132.88C99.7962 133.072 100.028 133.364 100.18 133.756C100.34 134.148 100.42 134.636 100.42 135.22V139H99.1722V135.292C99.1722 134.932 99.1242 134.64 99.0282 134.416C98.9402 134.184 98.8042 134.012 98.6202 133.9C98.4362 133.788 98.2002 133.732 97.9122 133.732C97.6882 133.732 97.4762 133.772 97.2762 133.852C97.0842 133.924 96.9162 134.028 96.7722 134.164C96.6282 134.3 96.5162 134.46 96.4362 134.644C96.3562 134.82 96.3162 135.016 96.3162 135.232V139H95.0682V135.268C95.0682 134.94 95.0202 134.664 94.9242 134.44C94.8282 134.208 94.6882 134.032 94.5042 133.912C94.3202 133.792 94.0962 133.732 93.8322 133.732C93.6082 133.732 93.4002 133.772 93.2082 133.852C93.0162 133.924 92.8482 134.028 92.7042 134.164C92.5602 134.292 92.4482 134.448 92.3682 134.632C92.2882 134.808 92.2482 135 92.2482 135.208V139H91.0002ZM105.387 139.12C105.115 139.12 104.843 139.076 104.571 138.988C104.307 138.9 104.063 138.784 103.839 138.64C103.623 138.488 103.439 138.324 103.287 138.148C103.143 137.964 103.047 137.78 102.999 137.596L103.311 137.428V138.964H102.075V130.12H103.311V134.14L103.119 134.032C103.159 133.848 103.247 133.672 103.383 133.504C103.519 133.328 103.691 133.172 103.899 133.036C104.115 132.892 104.347 132.78 104.595 132.7C104.843 132.612 105.095 132.568 105.351 132.568C105.919 132.568 106.423 132.708 106.863 132.988C107.303 133.268 107.651 133.656 107.907 134.152C108.163 134.64 108.291 135.2 108.291 135.832C108.291 136.464 108.163 137.028 107.907 137.524C107.659 138.02 107.315 138.412 106.875 138.7C106.435 138.98 105.939 139.12 105.387 139.12ZM105.183 137.992C105.551 137.992 105.879 137.9 106.167 137.716C106.455 137.524 106.683 137.268 106.851 136.948C107.019 136.62 107.103 136.248 107.103 135.832C107.103 135.424 107.019 135.06 106.851 134.74C106.691 134.412 106.467 134.156 106.179 133.972C105.891 133.788 105.559 133.696 105.183 133.696C104.807 133.696 104.475 133.788 104.187 133.972C103.899 134.156 103.671 134.412 103.503 134.74C103.335 135.06 103.251 135.424 103.251 135.832C103.251 136.248 103.335 136.62 103.503 136.948C103.671 137.268 103.899 137.524 104.187 137.716C104.475 137.9 104.807 137.992 105.183 137.992ZM112.574 139.12C111.926 139.12 111.35 138.984 110.846 138.712C110.35 138.432 109.958 138.052 109.67 137.572C109.39 137.092 109.25 136.54 109.25 135.916C109.25 135.42 109.33 134.968 109.49 134.56C109.65 134.152 109.87 133.8 110.15 133.504C110.438 133.2 110.778 132.968 111.17 132.808C111.57 132.64 112.002 132.556 112.466 132.556C112.874 132.556 113.254 132.636 113.606 132.796C113.958 132.948 114.262 133.16 114.518 133.432C114.782 133.704 114.982 134.028 115.118 134.404C115.262 134.772 115.33 135.176 115.322 135.616L115.31 136.144H110.162L109.886 135.16H114.242L114.062 135.364V135.076C114.038 134.812 113.95 134.576 113.798 134.368C113.646 134.16 113.454 133.996 113.222 133.876C112.99 133.756 112.738 133.696 112.466 133.696C112.034 133.696 111.67 133.78 111.374 133.948C111.078 134.108 110.854 134.348 110.702 134.668C110.55 134.98 110.474 135.368 110.474 135.832C110.474 136.272 110.566 136.656 110.75 136.984C110.934 137.304 111.194 137.552 111.53 137.728C111.866 137.904 112.254 137.992 112.694 137.992C113.006 137.992 113.294 137.94 113.558 137.836C113.83 137.732 114.122 137.544 114.434 137.272L115.058 138.148C114.866 138.34 114.63 138.508 114.35 138.652C114.078 138.796 113.786 138.912 113.474 139C113.17 139.08 112.87 139.12 112.574 139.12ZM116.665 139V132.7H117.913V134.68L117.793 134.2C117.881 133.896 118.029 133.62 118.237 133.372C118.453 133.124 118.697 132.928 118.969 132.784C119.249 132.64 119.537 132.568 119.833 132.568C119.969 132.568 120.097 132.58 120.217 132.604C120.345 132.628 120.445 132.656 120.517 132.688L120.193 134.032C120.097 133.992 119.989 133.96 119.869 133.936C119.757 133.904 119.645 133.888 119.533 133.888C119.317 133.888 119.109 133.932 118.909 134.02C118.717 134.1 118.545 134.216 118.393 134.368C118.249 134.512 118.133 134.684 118.045 134.884C117.957 135.076 117.913 135.288 117.913 135.52V139H116.665ZM123.605 139.12C123.077 139.12 122.601 139.028 122.177 138.844C121.753 138.66 121.401 138.388 121.121 138.028L121.961 137.308C122.201 137.588 122.461 137.792 122.741 137.92C123.029 138.04 123.353 138.1 123.713 138.1C123.857 138.1 123.989 138.084 124.109 138.052C124.237 138.012 124.345 137.956 124.433 137.884C124.529 137.812 124.601 137.728 124.649 137.632C124.697 137.528 124.721 137.416 124.721 137.296C124.721 137.088 124.645 136.92 124.493 136.792C124.413 136.736 124.285 136.676 124.109 136.612C123.941 136.54 123.721 136.468 123.449 136.396C122.985 136.276 122.605 136.14 122.309 135.988C122.013 135.836 121.785 135.664 121.625 135.472C121.505 135.32 121.417 135.156 121.361 134.98C121.305 134.796 121.277 134.596 121.277 134.38C121.277 134.116 121.333 133.876 121.445 133.66C121.565 133.436 121.725 133.244 121.925 133.084C122.133 132.916 122.373 132.788 122.645 132.7C122.925 132.612 123.221 132.568 123.533 132.568C123.829 132.568 124.121 132.608 124.409 132.688C124.705 132.768 124.977 132.884 125.225 133.036C125.473 133.188 125.681 133.368 125.849 133.576L125.141 134.356C124.989 134.204 124.821 134.072 124.637 133.96C124.461 133.84 124.281 133.748 124.097 133.684C123.913 133.62 123.745 133.588 123.593 133.588C123.425 133.588 123.273 133.604 123.137 133.636C123.001 133.668 122.885 133.716 122.789 133.78C122.701 133.844 122.633 133.924 122.585 134.02C122.537 134.116 122.513 134.224 122.513 134.344C122.521 134.448 122.545 134.548 122.585 134.644C122.633 134.732 122.697 134.808 122.777 134.872C122.865 134.936 122.997 135.004 123.173 135.076C123.349 135.148 123.573 135.216 123.845 135.28C124.245 135.384 124.573 135.5 124.829 135.628C125.093 135.748 125.301 135.888 125.453 136.048C125.613 136.2 125.725 136.376 125.789 136.576C125.853 136.776 125.885 137 125.885 137.248C125.885 137.608 125.781 137.932 125.573 138.22C125.373 138.5 125.101 138.72 124.757 138.88C124.413 139.04 124.029 139.12 123.605 139.12Z" fill="#282828"/>
<path d="M22 111C26.9706 111 31 106.971 31 102C31 97.0294 26.9706 93 22 93C17.0294 93 13 97.0294 13 102C13 106.971 17.0294 111 22 111Z" fill="#FCFCFC"/>
<path d="M25.7071 100.707C26.0976 100.317 26.0976 99.6834 25.7071 99.2929C25.3166 98.9024 24.6834 98.9024 24.2929 99.2929L25.7071 100.707ZM21 104L20.2929 104.707C20.6834 105.098 21.3166 105.098 21.7071 104.707L21 104ZM19.7071 101.293C19.3166 100.902 18.6834 100.902 18.2929 101.293C17.9024 101.683 17.9024 102.317 18.2929 102.707L19.7071 101.293ZM24.2929 99.2929L20.2929 103.293L21.7071 104.707L25.7071 100.707L24.2929 99.2929ZM21.7071 103.293L19.7071 101.293L18.2929 102.707L20.2929 104.707L21.7071 103.293Z" fill="#282828"/>
<path d="M38.3 107L41.552 98.6H42.872L46.1 107H44.72L42.8 101.936C42.776 101.88 42.728 101.744 42.656 101.528C42.592 101.312 42.516 101.072 42.428 100.808C42.34 100.544 42.26 100.304 42.188 100.088C42.116 99.864 42.068 99.72 42.044 99.656L42.32 99.644C42.272 99.78 42.212 99.952 42.14 100.16C42.076 100.368 42.004 100.588 41.924 100.82C41.852 101.052 41.78 101.272 41.708 101.48C41.636 101.68 41.576 101.848 41.528 101.984L39.62 107H38.3ZM39.74 104.912L40.22 103.664H44.036L44.588 104.912H39.74ZM49.708 107.12C49.124 107.12 48.6 106.976 48.136 106.688C47.68 106.4 47.316 106.008 47.044 105.512C46.78 105.016 46.648 104.46 46.648 103.844C46.648 103.228 46.78 102.672 47.044 102.176C47.316 101.68 47.68 101.288 48.136 101C48.6 100.712 49.124 100.568 49.708 100.568C50.268 100.568 50.776 100.684 51.232 100.916C51.696 101.14 52.048 101.448 52.288 101.84L51.604 102.68C51.476 102.496 51.312 102.328 51.112 102.176C50.912 102.024 50.7 101.904 50.476 101.816C50.252 101.728 50.036 101.684 49.828 101.684C49.444 101.684 49.1 101.78 48.796 101.972C48.5 102.156 48.264 102.412 48.088 102.74C47.912 103.068 47.824 103.436 47.824 103.844C47.824 104.252 47.916 104.62 48.1 104.948C48.284 105.268 48.528 105.524 48.832 105.716C49.136 105.908 49.472 106.004 49.84 106.004C50.056 106.004 50.264 105.968 50.464 105.896C50.672 105.824 50.872 105.716 51.064 105.572C51.256 105.428 51.436 105.252 51.604 105.044L52.288 105.884C52.032 106.244 51.664 106.54 51.184 106.772C50.712 107.004 50.22 107.12 49.708 107.12ZM54.2338 107V99.092H55.4698V107H54.2338ZM52.9258 101.9V100.7H56.9338V101.9H52.9258ZM58.2633 107V100.7H59.4993V107H58.2633ZM58.8633 99.308C58.5993 99.308 58.3953 99.24 58.2513 99.104C58.1073 98.968 58.0353 98.776 58.0353 98.528C58.0353 98.296 58.1073 98.108 58.2513 97.964C58.4033 97.82 58.6073 97.748 58.8633 97.748C59.1273 97.748 59.3313 97.816 59.4753 97.952C59.6193 98.088 59.6913 98.28 59.6913 98.528C59.6913 98.76 59.6153 98.948 59.4633 99.092C59.3193 99.236 59.1193 99.308 58.8633 99.308ZM63.4632 107L60.7992 100.7H62.1312L64.0512 105.416L63.8232 105.524L65.8752 100.7H67.1472L64.3512 107H63.4632ZM68.4821 107V100.7H69.7181V107H68.4821ZM69.0821 99.308C68.8181 99.308 68.6141 99.24 68.4701 99.104C68.3261 98.968 68.2541 98.776 68.2541 98.528C68.2541 98.296 68.3261 98.108 68.4701 97.964C68.6221 97.82 68.8261 97.748 69.0821 97.748C69.3461 97.748 69.5501 97.816 69.6941 97.952C69.8381 98.088 69.9101 98.28 69.9101 98.528C69.9101 98.76 69.8341 98.948 69.6821 99.092C69.5381 99.236 69.3381 99.308 69.0821 99.308ZM72.3979 107V99.092H73.6339V107H72.3979ZM71.0899 101.9V100.7H75.0979V101.9H71.0899ZM77.2794 109.76L78.5514 106.82L78.5634 107.804L75.4194 100.7H76.8594L78.8274 105.332C78.8674 105.412 78.9154 105.536 78.9714 105.704C79.0274 105.864 79.0754 106.024 79.1154 106.184L78.8034 106.256C78.8674 106.088 78.9274 105.92 78.9834 105.752C79.0474 105.584 79.1074 105.416 79.1634 105.248L80.8074 100.7H82.2714L79.6794 107L78.6114 109.76H77.2794ZM90.2346 107V98.6H93.5226C94.1226 98.6 94.6626 98.7 95.1426 98.9C95.6306 99.1 96.0466 99.388 96.3906 99.764C96.7346 100.14 96.9986 100.584 97.1826 101.096C97.3666 101.608 97.4586 102.176 97.4586 102.8C97.4586 103.424 97.3666 103.996 97.1826 104.516C96.9986 105.028 96.7346 105.472 96.3906 105.848C96.0546 106.216 95.6426 106.5 95.1546 106.7C94.6666 106.9 94.1226 107 93.5226 107H90.2346ZM91.5306 105.884L91.4946 105.752H93.4626C93.8866 105.752 94.2626 105.684 94.5906 105.548C94.9266 105.412 95.2066 105.22 95.4306 104.972C95.6626 104.716 95.8386 104.404 95.9586 104.036C96.0786 103.668 96.1386 103.256 96.1386 102.8C96.1386 102.344 96.0786 101.936 95.9586 101.576C95.8386 101.208 95.6626 100.896 95.4306 100.64C95.1986 100.384 94.9186 100.188 94.5906 100.052C94.2626 99.916 93.8866 99.848 93.4626 99.848H91.4586L91.5306 99.74V105.884ZM101.323 107.12C100.803 107.12 100.327 106.976 99.8952 106.688C99.4712 106.4 99.1312 106.008 98.8752 105.512C98.6192 105.016 98.4912 104.456 98.4912 103.832C98.4912 103.2 98.6192 102.64 98.8752 102.152C99.1392 101.656 99.4912 101.268 99.9312 100.988C100.379 100.708 100.879 100.568 101.431 100.568C101.759 100.568 102.059 100.616 102.331 100.712C102.603 100.808 102.839 100.944 103.039 101.12C103.247 101.288 103.415 101.484 103.543 101.708C103.679 101.932 103.763 102.172 103.795 102.428L103.519 102.332V100.7H104.767V107H103.519V105.5L103.807 105.416C103.759 105.632 103.659 105.844 103.507 106.052C103.363 106.252 103.175 106.432 102.943 106.592C102.719 106.752 102.467 106.88 102.187 106.976C101.915 107.072 101.627 107.12 101.323 107.12ZM101.647 105.98C102.023 105.98 102.355 105.888 102.643 105.704C102.931 105.52 103.155 105.268 103.315 104.948C103.483 104.62 103.567 104.248 103.567 103.832C103.567 103.424 103.483 103.06 103.315 102.74C103.155 102.42 102.931 102.168 102.643 101.984C102.355 101.8 102.023 101.708 101.647 101.708C101.279 101.708 100.951 101.8 100.663 101.984C100.383 102.168 100.159 102.42 99.9912 102.74C99.8312 103.06 99.7512 103.424 99.7512 103.832C99.7512 104.248 99.8312 104.62 99.9912 104.948C100.159 105.268 100.383 105.52 100.663 105.704C100.951 105.888 101.279 105.98 101.647 105.98ZM108.593 107.12C108.065 107.12 107.589 107.028 107.165 106.844C106.741 106.66 106.389 106.388 106.109 106.028L106.949 105.308C107.189 105.588 107.449 105.792 107.729 105.92C108.017 106.04 108.341 106.1 108.701 106.1C108.845 106.1 108.977 106.084 109.097 106.052C109.225 106.012 109.333 105.956 109.421 105.884C109.517 105.812 109.589 105.728 109.637 105.632C109.685 105.528 109.709 105.416 109.709 105.296C109.709 105.088 109.633 104.92 109.481 104.792C109.401 104.736 109.273 104.676 109.097 104.612C108.929 104.54 108.709 104.468 108.437 104.396C107.973 104.276 107.593 104.14 107.297 103.988C107.001 103.836 106.773 103.664 106.613 103.472C106.493 103.32 106.405 103.156 106.349 102.98C106.293 102.796 106.265 102.596 106.265 102.38C106.265 102.116 106.321 101.876 106.433 101.66C106.553 101.436 106.713 101.244 106.913 101.084C107.121 100.916 107.361 100.788 107.633 100.7C107.913 100.612 108.209 100.568 108.521 100.568C108.817 100.568 109.109 100.608 109.397 100.688C109.693 100.768 109.965 100.884 110.213 101.036C110.461 101.188 110.669 101.368 110.837 101.576L110.129 102.356C109.977 102.204 109.809 102.072 109.625 101.96C109.449 101.84 109.269 101.748 109.085 101.684C108.901 101.62 108.733 101.588 108.581 101.588C108.413 101.588 108.261 101.604 108.125 101.636C107.989 101.668 107.873 101.716 107.777 101.78C107.689 101.844 107.621 101.924 107.573 102.02C107.525 102.116 107.501 102.224 107.501 102.344C107.509 102.448 107.533 102.548 107.573 102.644C107.621 102.732 107.685 102.808 107.765 102.872C107.853 102.936 107.985 103.004 108.161 103.076C108.337 103.148 108.561 103.216 108.833 103.28C109.233 103.384 109.561 103.5 109.817 103.628C110.081 103.748 110.289 103.888 110.441 104.048C110.601 104.2 110.713 104.376 110.777 104.576C110.841 104.776 110.873 105 110.873 105.248C110.873 105.608 110.769 105.932 110.561 106.22C110.361 106.5 110.089 106.72 109.745 106.88C109.401 107.04 109.017 107.12 108.593 107.12ZM112.235 107V98.12H113.471V101.996L113.255 102.14C113.335 101.86 113.491 101.604 113.723 101.372C113.955 101.132 114.231 100.94 114.551 100.796C114.871 100.644 115.199 100.568 115.535 100.568C116.015 100.568 116.415 100.664 116.735 100.856C117.055 101.04 117.295 101.324 117.455 101.708C117.615 102.092 117.695 102.576 117.695 103.16V107H116.459V103.244C116.459 102.884 116.411 102.588 116.315 102.356C116.219 102.116 116.071 101.944 115.871 101.84C115.671 101.728 115.423 101.68 115.127 101.696C114.887 101.696 114.667 101.736 114.467 101.816C114.267 101.888 114.091 101.992 113.939 102.128C113.795 102.264 113.679 102.424 113.591 102.608C113.511 102.784 113.471 102.976 113.471 103.184V107H112.859C112.755 107 112.651 107 112.547 107C112.443 107 112.339 107 112.235 107ZM122.684 107.12C122.412 107.12 122.14 107.076 121.868 106.988C121.604 106.9 121.36 106.784 121.136 106.64C120.92 106.488 120.736 106.324 120.584 106.148C120.44 105.964 120.344 105.78 120.296 105.596L120.608 105.428V106.964H119.372V98.12H120.608V102.14L120.416 102.032C120.456 101.848 120.544 101.672 120.68 101.504C120.816 101.328 120.988 101.172 121.196 101.036C121.412 100.892 121.644 100.78 121.892 100.7C122.14 100.612 122.392 100.568 122.648 100.568C123.216 100.568 123.72 100.708 124.16 100.988C124.6 101.268 124.948 101.656 125.204 102.152C125.46 102.64 125.588 103.2 125.588 103.832C125.588 104.464 125.46 105.028 125.204 105.524C124.956 106.02 124.612 106.412 124.172 106.7C123.732 106.98 123.236 107.12 122.684 107.12ZM122.48 105.992C122.848 105.992 123.176 105.9 123.464 105.716C123.752 105.524 123.98 105.268 124.148 104.948C124.316 104.62 124.4 104.248 124.4 103.832C124.4 103.424 124.316 103.06 124.148 102.74C123.988 102.412 123.764 102.156 123.476 101.972C123.188 101.788 122.856 101.696 122.48 101.696C122.104 101.696 121.772 101.788 121.484 101.972C121.196 102.156 120.968 102.412 120.8 102.74C120.632 103.06 120.548 103.424 120.548 103.832C120.548 104.248 120.632 104.62 120.8 104.948C120.968 105.268 121.196 105.524 121.484 105.716C121.772 105.9 122.104 105.992 122.48 105.992ZM129.762 107.12C129.146 107.12 128.594 106.98 128.106 106.7C127.626 106.412 127.246 106.024 126.966 105.536C126.686 105.04 126.546 104.476 126.546 103.844C126.546 103.212 126.686 102.652 126.966 102.164C127.246 101.668 127.626 101.28 128.106 101C128.594 100.712 129.146 100.568 129.762 100.568C130.37 100.568 130.914 100.712 131.394 101C131.882 101.28 132.266 101.668 132.546 102.164C132.826 102.652 132.966 103.212 132.966 103.844C132.966 104.476 132.826 105.04 132.546 105.536C132.266 106.024 131.882 106.412 131.394 106.7C130.914 106.98 130.37 107.12 129.762 107.12ZM129.762 105.992C130.138 105.992 130.474 105.9 130.77 105.716C131.066 105.524 131.298 105.268 131.466 104.948C131.634 104.62 131.714 104.252 131.706 103.844C131.714 103.428 131.634 103.06 131.466 102.74C131.298 102.412 131.066 102.156 130.77 101.972C130.474 101.788 130.138 101.696 129.762 101.696C129.386 101.696 129.046 101.792 128.742 101.984C128.446 102.168 128.214 102.424 128.046 102.752C127.878 103.072 127.798 103.436 127.806 103.844C127.798 104.252 127.878 104.62 128.046 104.948C128.214 105.268 128.446 105.524 128.742 105.716C129.046 105.9 129.386 105.992 129.762 105.992ZM136.737 107.12C136.217 107.12 135.741 106.976 135.309 106.688C134.885 106.4 134.545 106.008 134.289 105.512C134.033 105.016 133.905 104.456 133.905 103.832C133.905 103.2 134.033 102.64 134.289 102.152C134.553 101.656 134.905 101.268 135.345 100.988C135.793 100.708 136.293 100.568 136.845 100.568C137.173 100.568 137.473 100.616 137.745 100.712C138.017 100.808 138.253 100.944 138.453 101.12C138.661 101.288 138.829 101.484 138.957 101.708C139.093 101.932 139.177 102.172 139.209 102.428L138.933 102.332V100.7H140.181V107H138.933V105.5L139.221 105.416C139.173 105.632 139.073 105.844 138.921 106.052C138.777 106.252 138.589 106.432 138.357 106.592C138.133 106.752 137.881 106.88 137.601 106.976C137.329 107.072 137.041 107.12 136.737 107.12ZM137.061 105.98C137.437 105.98 137.769 105.888 138.057 105.704C138.345 105.52 138.569 105.268 138.729 104.948C138.897 104.62 138.981 104.248 138.981 103.832C138.981 103.424 138.897 103.06 138.729 102.74C138.569 102.42 138.345 102.168 138.057 101.984C137.769 101.8 137.437 101.708 137.061 101.708C136.693 101.708 136.365 101.8 136.077 101.984C135.797 102.168 135.573 102.42 135.405 102.74C135.245 103.06 135.165 103.424 135.165 103.832C135.165 104.248 135.245 104.62 135.405 104.948C135.573 105.268 135.797 105.52 136.077 105.704C136.365 105.888 136.693 105.98 137.061 105.98ZM141.907 107V100.7H143.155V102.68L143.035 102.2C143.123 101.896 143.271 101.62 143.479 101.372C143.695 101.124 143.939 100.928 144.211 100.784C144.491 100.64 144.779 100.568 145.075 100.568C145.211 100.568 145.339 100.58 145.459 100.604C145.587 100.628 145.687 100.656 145.759 100.688L145.435 102.032C145.339 101.992 145.231 101.96 145.111 101.936C144.999 101.904 144.887 101.888 144.775 101.888C144.559 101.888 144.351 101.932 144.151 102.02C143.959 102.1 143.787 102.216 143.635 102.368C143.491 102.512 143.375 102.684 143.287 102.884C143.199 103.076 143.155 103.288 143.155 103.52V107H141.907ZM149.105 107.12C148.529 107.12 148.013 106.98 147.557 106.7C147.109 106.412 146.753 106.024 146.489 105.536C146.225 105.04 146.093 104.476 146.093 103.844C146.093 103.212 146.221 102.652 146.477 102.164C146.741 101.668 147.097 101.28 147.545 101C147.993 100.712 148.501 100.568 149.069 100.568C149.381 100.568 149.681 100.62 149.969 100.724C150.265 100.82 150.529 100.956 150.761 101.132C150.993 101.3 151.173 101.488 151.301 101.696C151.437 101.896 151.505 102.1 151.505 102.308L151.145 102.332V98.12H152.381V107H151.145V105.5H151.385C151.385 105.692 151.321 105.884 151.193 106.076C151.065 106.26 150.893 106.432 150.677 106.592C150.469 106.752 150.225 106.88 149.945 106.976C149.673 107.072 149.393 107.12 149.105 107.12ZM149.273 106.052C149.649 106.052 149.981 105.956 150.269 105.764C150.557 105.572 150.781 105.312 150.941 104.984C151.109 104.648 151.193 104.268 151.193 103.844C151.193 103.42 151.109 103.044 150.941 102.716C150.781 102.38 150.557 102.116 150.269 101.924C149.981 101.732 149.649 101.636 149.273 101.636C148.897 101.636 148.565 101.732 148.277 101.924C147.989 102.116 147.761 102.38 147.593 102.716C147.433 103.044 147.353 103.42 147.353 103.844C147.353 104.268 147.433 104.648 147.593 104.984C147.761 105.312 147.989 105.572 148.277 105.764C148.565 105.956 148.897 106.052 149.273 106.052Z" fill="#282828"/>
<rect x="12" y="202" width="153" height="30" rx="15" fill="#282828"/>
<path d="M60.11 221.1C59.6033 221.1 59.13 221.01 58.69 220.83C58.25 220.643 57.8633 220.387 57.53 220.06C57.1967 219.733 56.9367 219.353 56.75 218.92C56.57 218.48 56.48 218.007 56.48 217.5C56.48 217 56.57 216.533 56.75 216.1C56.9367 215.667 57.1933 215.29 57.52 214.97C57.8533 214.643 58.24 214.39 58.68 214.21C59.12 214.03 59.5933 213.94 60.1 213.94C60.4533 213.94 60.7967 213.99 61.13 214.09C61.47 214.19 61.7767 214.33 62.05 214.51C62.3233 214.69 62.5467 214.897 62.72 215.13L62.02 215.86C61.82 215.667 61.6133 215.507 61.4 215.38C61.1933 215.253 60.98 215.157 60.76 215.09C60.54 215.023 60.32 214.99 60.1 214.99C59.74 214.99 59.4067 215.053 59.1 215.18C58.8 215.307 58.5333 215.483 58.3 215.71C58.0733 215.937 57.8967 216.203 57.77 216.51C57.6433 216.81 57.58 217.14 57.58 217.5C57.58 217.847 57.6467 218.177 57.78 218.49C57.9133 218.797 58.0967 219.067 58.33 219.3C58.57 219.533 58.8433 219.717 59.15 219.85C59.4633 219.983 59.7933 220.05 60.14 220.05C60.4 220.05 60.6467 220.013 60.88 219.94C61.1133 219.86 61.32 219.75 61.5 219.61C61.68 219.47 61.82 219.31 61.92 219.13C62.02 218.943 62.07 218.747 62.07 218.54V218.34L62.22 218.48H60.08V217.41H63.18C63.1933 217.483 63.2033 217.557 63.21 217.63C63.2167 217.697 63.22 217.763 63.22 217.83C63.2267 217.89 63.23 217.95 63.23 218.01C63.23 218.47 63.15 218.89 62.99 219.27C62.83 219.643 62.6067 219.967 62.32 220.24C62.04 220.513 61.71 220.727 61.33 220.88C60.9567 221.027 60.55 221.1 60.11 221.1ZM66.8263 221.1C66.2863 221.1 65.8063 220.987 65.3863 220.76C64.9729 220.527 64.6463 220.21 64.4063 219.81C64.1729 219.41 64.0563 218.95 64.0563 218.43C64.0563 218.017 64.1229 217.64 64.2563 217.3C64.3896 216.96 64.5729 216.667 64.8063 216.42C65.0463 216.167 65.3296 215.973 65.6563 215.84C65.9896 215.7 66.3496 215.63 66.7363 215.63C67.0763 215.63 67.3929 215.697 67.6863 215.83C67.9796 215.957 68.2329 216.133 68.4463 216.36C68.6663 216.587 68.8329 216.857 68.9463 217.17C69.0663 217.477 69.1229 217.813 69.1163 218.18L69.1063 218.62H64.8163L64.5863 217.8H68.2163L68.0663 217.97V217.73C68.0463 217.51 67.9729 217.313 67.8463 217.14C67.7196 216.967 67.5596 216.83 67.3663 216.73C67.1729 216.63 66.9629 216.58 66.7363 216.58C66.3763 216.58 66.0729 216.65 65.8263 216.79C65.5796 216.923 65.3929 217.123 65.2663 217.39C65.1396 217.65 65.0763 217.973 65.0763 218.36C65.0763 218.727 65.1529 219.047 65.3063 219.32C65.4596 219.587 65.6763 219.793 65.9563 219.94C66.2363 220.087 66.5596 220.16 66.9263 220.16C67.1863 220.16 67.4263 220.117 67.6463 220.03C67.8729 219.943 68.1163 219.787 68.3763 219.56L68.8963 220.29C68.7363 220.45 68.5396 220.59 68.3063 220.71C68.0796 220.83 67.8363 220.927 67.5763 221C67.3229 221.067 67.0729 221.1 66.8263 221.1ZM70.8856 221V214.41H71.9156V221H70.8856ZM69.7956 216.75V215.75H73.1356V216.75H69.7956ZM77.1363 221V214H79.9863C80.3663 214 80.7096 214.097 81.0163 214.29C81.3296 214.477 81.5796 214.733 81.7663 215.06C81.9529 215.387 82.0463 215.75 82.0463 216.15C82.0463 216.55 81.9529 216.913 81.7663 217.24C81.5796 217.567 81.3296 217.83 81.0163 218.03C80.7096 218.223 80.3663 218.32 79.9863 218.32H78.2163V221H77.1363ZM78.2163 217.28H79.9663C80.1463 217.28 80.3096 217.23 80.4563 217.13C80.6029 217.023 80.7196 216.887 80.8063 216.72C80.8996 216.547 80.9463 216.357 80.9463 216.15C80.9463 215.943 80.8996 215.757 80.8063 215.59C80.7196 215.423 80.6029 215.29 80.4563 215.19C80.3096 215.09 80.1463 215.04 79.9663 215.04H78.2163V217.28ZM83.2141 221V215.75H84.2541V217.4L84.1541 217C84.2275 216.747 84.3508 216.517 84.5241 216.31C84.7041 216.103 84.9075 215.94 85.1341 215.82C85.3675 215.7 85.6075 215.64 85.8541 215.64C85.9675 215.64 86.0741 215.65 86.1741 215.67C86.2808 215.69 86.3641 215.713 86.4241 215.74L86.1541 216.86C86.0741 216.827 85.9841 216.8 85.8841 216.78C85.7908 216.753 85.6975 216.74 85.6041 216.74C85.4241 216.74 85.2508 216.777 85.0841 216.85C84.9241 216.917 84.7808 217.013 84.6541 217.14C84.5341 217.26 84.4375 217.403 84.3641 217.57C84.2908 217.73 84.2541 217.907 84.2541 218.1V221H83.2141ZM89.4727 221.1C88.9327 221.1 88.4527 220.987 88.0327 220.76C87.6194 220.527 87.2927 220.21 87.0527 219.81C86.8194 219.41 86.7027 218.95 86.7027 218.43C86.7027 218.017 86.7694 217.64 86.9027 217.3C87.0361 216.96 87.2194 216.667 87.4527 216.42C87.6927 216.167 87.9761 215.973 88.3027 215.84C88.6361 215.7 88.9961 215.63 89.3827 215.63C89.7227 215.63 90.0394 215.697 90.3327 215.83C90.6261 215.957 90.8794 216.133 91.0927 216.36C91.3127 216.587 91.4794 216.857 91.5927 217.17C91.7127 217.477 91.7694 217.813 91.7627 218.18L91.7527 218.62H87.4627L87.2327 217.8H90.8627L90.7127 217.97V217.73C90.6927 217.51 90.6194 217.313 90.4927 217.14C90.3661 216.967 90.2061 216.83 90.0127 216.73C89.8194 216.63 89.6094 216.58 89.3827 216.58C89.0227 216.58 88.7194 216.65 88.4727 216.79C88.2261 216.923 88.0394 217.123 87.9127 217.39C87.7861 217.65 87.7227 217.973 87.7227 218.36C87.7227 218.727 87.7994 219.047 87.9527 219.32C88.1061 219.587 88.3227 219.793 88.6027 219.94C88.8827 220.087 89.2061 220.16 89.5727 220.16C89.8327 220.16 90.0727 220.117 90.2927 220.03C90.5194 219.943 90.7627 219.787 91.0227 219.56L91.5427 220.29C91.3827 220.45 91.1861 220.59 90.9527 220.71C90.7261 220.83 90.4827 220.927 90.2227 221C89.9694 221.067 89.7194 221.1 89.4727 221.1ZM92.8621 221V215.75H93.9021V216.87L93.7121 216.99C93.7654 216.817 93.8488 216.65 93.9621 216.49C94.0821 216.33 94.2254 216.19 94.3921 216.07C94.5654 215.943 94.7488 215.843 94.9421 215.77C95.1421 215.697 95.3454 215.66 95.5521 215.66C95.8521 215.66 96.1154 215.71 96.3421 215.81C96.5688 215.91 96.7554 216.06 96.9021 216.26C97.0488 216.46 97.1554 216.71 97.2221 217.01L97.0621 216.97L97.1321 216.8C97.2054 216.647 97.3054 216.503 97.4321 216.37C97.5654 216.23 97.7154 216.107 97.8821 216C98.0488 215.893 98.2254 215.81 98.4121 215.75C98.5988 215.69 98.7821 215.66 98.9621 215.66C99.3554 215.66 99.6788 215.74 99.9321 215.9C100.192 216.06 100.385 216.303 100.512 216.63C100.645 216.957 100.712 217.363 100.712 217.85V221H99.6721V217.91C99.6721 217.61 99.6321 217.367 99.5521 217.18C99.4788 216.987 99.3654 216.843 99.2121 216.75C99.0588 216.657 98.8621 216.61 98.6221 216.61C98.4354 216.61 98.2588 216.643 98.0921 216.71C97.9321 216.77 97.7921 216.857 97.6721 216.97C97.5521 217.083 97.4588 217.217 97.3921 217.37C97.3254 217.517 97.2921 217.68 97.2921 217.86V221H96.2521V217.89C96.2521 217.617 96.2121 217.387 96.1321 217.2C96.0521 217.007 95.9354 216.86 95.7821 216.76C95.6288 216.66 95.4421 216.61 95.2221 216.61C95.0354 216.61 94.8621 216.643 94.7021 216.71C94.5421 216.77 94.4021 216.857 94.2821 216.97C94.1621 217.077 94.0688 217.207 94.0021 217.36C93.9354 217.507 93.9021 217.667 93.9021 217.84V221H92.8621ZM102.261 221V215.75H103.291V221H102.261ZM102.761 214.59C102.541 214.59 102.371 214.533 102.251 214.42C102.131 214.307 102.071 214.147 102.071 213.94C102.071 213.747 102.131 213.59 102.251 213.47C102.378 213.35 102.548 213.29 102.761 213.29C102.981 213.29 103.151 213.347 103.271 213.46C103.391 213.573 103.451 213.733 103.451 213.94C103.451 214.133 103.388 214.29 103.261 214.41C103.141 214.53 102.974 214.59 102.761 214.59ZM106.714 221.1C106.341 221.1 106.014 221.013 105.734 220.84C105.461 220.667 105.248 220.423 105.094 220.11C104.948 219.797 104.874 219.423 104.874 218.99V215.75H105.904V218.71C105.904 219.017 105.951 219.283 106.044 219.51C106.144 219.73 106.284 219.9 106.464 220.02C106.651 220.14 106.874 220.2 107.134 220.2C107.328 220.2 107.504 220.17 107.664 220.11C107.824 220.043 107.961 219.953 108.074 219.84C108.194 219.727 108.288 219.59 108.354 219.43C108.421 219.27 108.454 219.097 108.454 218.91V215.75H109.484V221H108.454V219.9L108.634 219.78C108.554 220.027 108.418 220.25 108.224 220.45C108.038 220.65 107.814 220.81 107.554 220.93C107.294 221.043 107.014 221.1 106.714 221.1ZM110.909 221V215.75H111.949V216.87L111.759 216.99C111.812 216.817 111.896 216.65 112.009 216.49C112.129 216.33 112.272 216.19 112.439 216.07C112.612 215.943 112.796 215.843 112.989 215.77C113.189 215.697 113.392 215.66 113.599 215.66C113.899 215.66 114.162 215.71 114.389 215.81C114.616 215.91 114.802 216.06 114.949 216.26C115.096 216.46 115.202 216.71 115.269 217.01L115.109 216.97L115.179 216.8C115.252 216.647 115.352 216.503 115.479 216.37C115.612 216.23 115.762 216.107 115.929 216C116.096 215.893 116.272 215.81 116.459 215.75C116.646 215.69 116.829 215.66 117.009 215.66C117.402 215.66 117.726 215.74 117.979 215.9C118.239 216.06 118.432 216.303 118.559 216.63C118.692 216.957 118.759 217.363 118.759 217.85V221H117.719V217.91C117.719 217.61 117.679 217.367 117.599 217.18C117.526 216.987 117.412 216.843 117.259 216.75C117.106 216.657 116.909 216.61 116.669 216.61C116.482 216.61 116.306 216.643 116.139 216.71C115.979 216.77 115.839 216.857 115.719 216.97C115.599 217.083 115.506 217.217 115.439 217.37C115.372 217.517 115.339 217.68 115.339 217.86V221H114.299V217.89C114.299 217.617 114.259 217.387 114.179 217.2C114.099 217.007 113.982 216.86 113.829 216.76C113.676 216.66 113.489 216.61 113.269 216.61C113.082 216.61 112.909 216.643 112.749 216.71C112.589 216.77 112.449 216.857 112.329 216.97C112.209 217.077 112.116 217.207 112.049 217.36C111.982 217.507 111.949 217.667 111.949 217.84V221H110.909Z" fill="#FCFCFC"/>
</svg>
