<svg width="237" height="237" viewBox="0 0 237 237" fill="none" xmlns="http://www.w3.org/2000/svg">
<g clip-path="url(#clip0_1144_8817)">
<path d="M62.0464 158.404H182.063H62.0464Z" fill="white"/>
<path d="M62.0464 158.404H182.063" stroke="#010149" stroke-width="2" stroke-linecap="round" stroke-linejoin="round"/>
<path d="M90.8183 68.8745C90.3032 68.726 89.7929 68.5799 89.2873 68.4361C84.6271 67.1654 80.0385 65.6456 75.5413 63.8833C75.4796 63.8596 75.4204 63.8335 75.3635 63.8051C75.3232 63.7909 75.29 63.7743 75.2521 63.7577C74.1441 63.2104 73.2937 62.2519 72.8821 61.0867C72.5554 60.178 72.4494 59.2047 72.5731 58.247C72.6967 57.2893 73.0463 56.3747 73.5931 55.5788C73.7685 55.3181 73.9462 55.0598 74.124 54.8038L74.6549 54.036C74.8919 53.7065 75.117 53.3771 75.354 53.05C76.7476 51.1185 78.198 49.1893 79.8807 47.5564C80.5602 46.8844 81.2917 46.2671 82.0682 45.7101L82.0896 45.6959C84.7629 43.7999 88.1402 42.8377 90.951 43.9587C93.7263 45.0584 95.5038 48.0114 96.165 51.1659C96.7267 53.8653 96.5869 56.7235 96.293 59.5557C96.2432 60.0297 96.1863 60.5037 96.1318 60.9943C96.0986 61.2787 96.0631 61.5583 96.0275 61.8404L96.0133 61.9731V62.0466C96.0015 62.1579 95.9872 62.267 95.973 62.3736C95.973 62.4258 95.9612 62.4826 95.9541 62.5348C95.8403 63.4591 95.7289 64.3739 95.6104 65.2911C95.2952 67.7677 92.9797 69.4955 90.8183 68.8745Z" fill="#603BE5"/>
<path d="M123.913 155.612C123.574 156.458 122.987 157.183 122.229 157.69C121.472 158.198 120.578 158.465 119.666 158.456H92.084L93.0486 155.612L98.4759 139.628H121.726L118.841 146.589L122.894 150.597C123.551 151.232 123.999 152.051 124.181 152.946C124.363 153.841 124.27 154.771 123.913 155.612Z" fill="#FEE200"/>
<path d="M87.531 205.894C87.2957 206.779 86.7716 207.561 86.0417 208.115C85.3119 208.669 84.4181 208.963 83.502 208.951H56.4224V190.347H81.734V198.35L85.9336 201.353C86.644 201.845 87.1809 202.549 87.4678 203.365C87.7546 204.18 87.7767 205.065 87.531 205.894Z" fill="#FEE200"/>
<path d="M130.644 118.102L128.748 122.659H104.235L105.967 117.552L81.734 105.939V173.375H56.4224V100.825C54.6342 96.1926 54.2228 91.1426 55.2378 86.2823C56.2528 81.4221 58.651 76.9588 62.1436 73.4297C63.0551 72.5001 64.0368 71.642 65.08 70.863C68.872 68.019 74.3822 67.2251 79.6081 68.1446C82.7242 68.6662 85.6934 69.8458 88.3179 71.6048C91.47 73.771 93.802 76.8188 94.4799 80.5919C94.513 80.7815 94.5675 82.1869 94.6647 82.2366L105.631 87.9246L111.686 91.0625L122.887 96.8666C122.998 96.9235 123.105 96.9804 123.211 97.0444C123.227 97.0495 123.242 97.0567 123.256 97.0657C126.861 99.048 129.608 102.29 130.971 106.172C132.334 110.053 132.218 114.301 130.644 118.102Z" fill="#4ECDC4"/>
<path d="M81.7344 100.424V105.946" stroke="white" stroke-linecap="round" stroke-linejoin="round"/>
<path d="M98.1182 50.3198L124.145 76.9751L133.095 61.2312C132.888 57.3255 131.976 53.8985 134.706 50.5662C136.396 48.5043 138.721 47.0823 141.001 45.7006C141.8 45.2266 142.688 44.7147 143.608 44.8616C145.03 45.0986 145.784 46.8477 145.464 48.2602C145.144 49.6727 144.096 50.789 143.094 51.8294L139.754 55.2896C140.404 55.9248 141.162 56.3656 141.802 57.0126C142.404 57.653 142.87 58.408 143.173 59.2326C143.477 60.0571 143.611 60.9343 143.568 61.8119C143.465 63.5744 142.839 65.2662 141.769 66.6704" stroke="#010149" stroke-linecap="round" stroke-linejoin="round"/>
<path d="M96.5635 80.0231C100.927 84.3341 105.332 88.6025 109.672 92.9349C114.365 97.6227 119.173 104.754 126.795 101.436C129.713 100.168 131.997 97.7721 133.841 95.1793C136.797 91.0247 139.223 86.5596 141.544 82.0353C144.227 76.807 147.213 71.7755 150.099 66.6587" stroke="#010149" stroke-linecap="round" stroke-linejoin="round"/>
<path d="M146.717 62.0159C146.298 61.1556 145.952 60.2266 145.99 59.2691C146.021 58.6596 146.204 58.0677 146.524 57.5476C146.843 57.0275 147.288 56.5959 147.817 56.2924C148.172 56.074 148.585 55.9667 149.002 55.9843C149.746 56.0506 150.315 56.655 150.768 57.2475C151.4 58.0734 151.955 58.9556 152.427 59.8829C152.946 60.8997 153.375 61.9993 153.375 63.1417C153.375 64.284 152.912 65.4785 151.953 66.1089C149.509 67.7324 147.599 63.829 146.717 62.0159Z" stroke="#010149" stroke-linecap="round" stroke-linejoin="round"/>
<path d="M149.514 55.9793C148.763 55.0028 148.447 53.7586 148.329 52.5309C148.241 51.9132 148.29 51.2836 148.474 50.6871C148.568 50.3899 148.736 50.121 148.96 49.9046C149.185 49.6882 149.46 49.5311 149.76 49.4476C150.637 49.2603 151.457 49.9002 152.1 50.5212C152.877 51.2734 153.616 52.0644 154.313 52.8912C155.105 53.825 155.854 54.8275 156.257 55.9722C156.66 57.1169 156.679 58.4702 156.058 59.5272C155.437 60.5842 154.083 61.2336 152.927 60.8307" stroke="#010149" stroke-linecap="round" stroke-linejoin="round"/>
<path d="M151.521 49.7867C151.138 48.7455 150.85 47.6714 150.663 46.5777C150.536 46.0092 150.523 45.4208 150.628 44.8476C150.682 44.5619 150.806 44.2941 150.99 44.0683C151.173 43.8425 151.409 43.6656 151.678 43.5536C152.417 43.2976 153.206 43.7218 153.858 44.1555C155.043 44.9353 156.174 45.8003 157.034 46.9166C157.894 48.0329 158.456 49.4288 158.359 50.8342C158.262 52.2396 157.392 53.6237 156.072 54.1238C155.82 54.2186 155.505 54.2707 155.306 54.0882" stroke="#010149" stroke-linecap="round" stroke-linejoin="round"/>
<path d="M155.278 45.1745C154.004 44.0282 152.968 42.6422 152.23 41.0957C151.929 40.4108 151.716 39.6121 152.017 38.9295C152.474 37.8986 153.858 37.6592 154.96 37.8938C156.245 38.1688 157.389 38.8727 158.47 39.6168C159.598 40.3966 160.755 41.3303 161.108 42.6552C161.395 43.7359 161.079 44.9114 160.482 45.8594C159.885 46.8074 159.027 47.5587 158.152 48.2602C158.107 48.2958 158.058 48.3574 158.088 48.4048C158.119 48.4522 158.188 48.3408 158.133 48.3598" stroke="#010149" stroke-linecap="round" stroke-linejoin="round"/>
<path d="M144.395 44.9137C147.239 44.4729 149.737 42.866 152.052 41.1738" stroke="#010149" stroke-linecap="round" stroke-linejoin="round"/>
<path d="M77.1555 53.5408L80.6489 74.3826C85.7799 72.4866 90.9441 70.7375 96.0136 68.6946C101.832 66.3412 108.276 63.3929 114.708 64.0873C117.962 64.4381 120.96 66.4573 123.299 68.6685C125.122 70.3891 126.679 72.3681 128.16 74.3849C129.319 75.9657 131.571 78.3808 130.611 80.5185C130.305 81.1987 129.518 81.5352 129.208 82.2723C128.475 84.0048 129.959 85.8747 129.16 87.5764C128.594 88.7803 127.013 89.2685 126.494 90.4938C125.975 91.7191 126.653 93.3189 125.769 94.2858C125.162 94.9518 124.044 94.9968 123.525 95.7386C123.051 96.3928 123.271 97.2815 123.233 98.0826C123.131 100.277 120.626 101.998 118.536 101.301C118.27 101.226 118.03 101.082 117.839 100.884C117.526 100.514 117.531 99.9786 117.555 99.4951L117.792 94.2811C116.763 94.2914 115.744 94.0834 114.802 93.6707C113.86 93.258 113.016 92.6501 112.326 91.8871C111.637 91.1241 111.117 90.2235 110.801 89.2446C110.485 88.2658 110.381 87.2311 110.494 86.2089C104.325 88.4011 98.1466 90.5626 91.9561 92.6671C87.5977 94.1484 83.2701 96.2529 78.6841 96.9331C76.4848 97.2602 74.1811 97.1701 72.1334 96.2719C63.7389 92.6079 63.4237 80.528 62.0633 72.9084C60.8285 65.988 59.6649 59.0558 58.5083 52.1235" stroke="#010149" stroke-linecap="round" stroke-linejoin="round"/>
<path d="M123.221 98.2697C123.281 95.9298 123.406 93.5929 123.596 91.2593" stroke="#010149" stroke-linecap="round" stroke-linejoin="round"/>
<path d="M126.229 92.1123C126.29 90.428 126.4 88.7477 126.558 87.0713" stroke="#010149" stroke-linecap="round" stroke-linejoin="round"/>
<path d="M129.165 84.5212C128.919 83.0091 128.733 81.4876 128.608 79.9565" stroke="#010149" stroke-linecap="round" stroke-linejoin="round"/>
<path d="M109.08 86.7583C110.54 86.104 112.035 85.5304 113.559 85.04" stroke="#010149" stroke-linecap="round" stroke-linejoin="round"/>
<path d="M79.6084 68.147L80.6512 74.3801C83.2037 73.4321 85.7657 72.5291 88.3181 71.6072" stroke="white" stroke-linecap="round" stroke-linejoin="round"/>
<path d="M62.144 73.4297C63.431 81.0682 63.9144 92.6978 72.1241 96.2789C74.1647 97.17 76.4731 97.2671 78.6748 96.9401C83.2584 96.2552 87.586 94.1506 91.9468 92.6741C96.5209 91.1209 101.085 89.5409 105.638 87.9341" stroke="white" stroke-linecap="round" stroke-linejoin="round"/>
<path d="M111.691 91.0625C111.886 91.3521 112.101 91.6277 112.334 91.8873C113.027 92.6435 113.87 93.2468 114.809 93.6586C115.749 94.0704 116.764 94.2815 117.789 94.2786C117.706 96.0182 117.628 97.753 117.552 99.4926C117.529 99.9666 117.524 100.512 117.837 100.881C118.026 101.08 118.266 101.224 118.531 101.296C120.562 101.979 122.996 100.365 123.219 98.2531V98.2246C123.219 98.1772 123.219 98.1275 123.233 98.0801C123.233 97.9805 123.233 97.8762 123.233 97.772C123.231 97.7634 123.231 97.7544 123.233 97.7459C123.233 97.5089 123.217 97.2719 123.212 97.0349" stroke="white" stroke-linecap="round" stroke-linejoin="round"/>
<path d="M123.261 97.0659C123.25 97.2911 123.243 97.521 123.238 97.7461C123.235 97.7546 123.235 97.7636 123.238 97.7722C123.238 97.9215 123.224 98.0732 123.221 98.2248V98.2699" stroke="white" stroke-linecap="round" stroke-linejoin="round"/>
<path d="M87.0571 35.4692C87.0571 36.7264 87.5565 37.932 88.4454 38.8209C89.3344 39.7098 90.54 40.2092 91.7971 40.2092H91.8516C92.7869 40.1994 93.6984 39.9131 94.4714 39.3863C95.2443 38.8595 95.844 38.1159 96.1952 37.2489C96.5463 36.382 96.6331 35.4305 96.4446 34.5144C96.2562 33.5982 95.8009 32.7583 95.136 32.1003C94.4712 31.4424 93.6265 30.9959 92.7084 30.817C91.7904 30.6381 90.8399 30.7348 89.9766 31.095C89.1134 31.4552 88.3761 32.0627 87.8574 32.8411C87.3387 33.6194 87.0619 34.5339 87.0619 35.4692H87.0571Z" stroke="#010149" stroke-linecap="round" stroke-linejoin="round"/>
<path d="M88.5997 37.0432C91.0147 37.0432 92.9724 35.0855 92.9724 32.6705C92.9724 30.2556 91.0147 28.2979 88.5997 28.2979C86.1848 28.2979 84.2271 30.2556 84.2271 32.6705C84.2271 35.0855 86.1848 37.0432 88.5997 37.0432Z" fill="#170C2C"/>
<path d="M85.1299 43.1153C88.181 43.1153 90.6544 40.642 90.6544 37.5909C90.6544 34.5398 88.181 32.0664 85.1299 32.0664C82.0789 32.0664 79.6055 34.5398 79.6055 37.5909C79.6055 40.642 82.0789 43.1153 85.1299 43.1153Z" fill="#170C2C"/>
<path d="M91.8467 40.2024C92.375 40.8045 93.0459 41.2644 93.7979 41.5402C94.5499 41.8159 95.3591 41.8987 96.1514 41.7809C96.9436 41.663 97.6937 41.3484 98.333 40.8658C98.9722 40.3831 99.4802 39.7479 99.8105 39.0181C100.141 38.2884 100.283 37.4875 100.223 36.6887C100.164 35.8899 99.9056 35.1187 99.4712 34.4458C99.0368 33.7728 98.4406 33.2195 97.7371 32.8365C97.0336 32.4535 96.2453 32.253 95.4443 32.2534C95.3875 32.2534 95.3306 32.2534 95.2737 32.2534C95.892 32.9273 96.3022 33.7657 96.4548 34.6674C96.6073 35.5692 96.4958 36.4958 96.1335 37.3356C95.7712 38.1754 95.1738 38.8924 94.4131 39.4003C93.6525 39.9081 92.7612 40.185 91.8467 40.1977V40.2024Z" fill="#170C2C"/>
<path d="M93.9606 33.6707C95.5784 33.6707 96.8899 32.3592 96.8899 30.7413C96.8899 29.1235 95.5784 27.812 93.9606 27.812C92.3427 27.812 91.0312 29.1235 91.0312 30.7413C91.0312 32.3592 92.3427 33.6707 93.9606 33.6707Z" fill="#170C2C"/>
<path d="M123.913 155.612C123.574 156.459 122.987 157.183 122.229 157.691C121.472 158.198 120.578 158.465 119.666 158.456H92.084L93.0486 155.612H123.913Z" fill="#170C2C"/>
<path d="M87.531 205.894C87.2957 206.779 86.7716 207.561 86.0417 208.114C85.3119 208.668 84.4181 208.963 83.502 208.951H56.4224V205.894H87.531Z" fill="#170C2C"/>
<path d="M121.494 147.808C120.23 147.739 118.971 148.004 117.844 148.578" stroke="#170C2C" stroke-width="2" stroke-linecap="round" stroke-linejoin="round"/>
<path d="M122.574 149.052C121.311 148.984 120.052 149.25 118.924 149.822" stroke="#170C2C" stroke-width="2" stroke-linecap="round" stroke-linejoin="round"/>
<path d="M123.778 150.523C122.515 150.455 121.256 150.72 120.128 151.294" stroke="#170C2C" stroke-width="2" stroke-linecap="round" stroke-linejoin="round"/>
<path d="M84.9125 198.73C83.6494 198.662 82.3907 198.928 81.2627 199.5" stroke="#170C2C" stroke-width="2" stroke-linecap="round" stroke-linejoin="round"/>
<path d="M85.9955 199.974C84.7324 199.906 83.4737 200.172 82.3457 200.744" stroke="#170C2C" stroke-width="2" stroke-linecap="round" stroke-linejoin="round"/>
<path d="M87.1996 201.45C85.9365 201.383 84.6778 201.648 83.5498 202.221" stroke="#170C2C" stroke-width="2" stroke-linecap="round" stroke-linejoin="round"/>
<path d="M81.26 173.849V189.873H56.8964V173.849H81.26ZM81.734 173.375H56.4224V190.347H81.734V173.375Z" fill="#603BE5"/>
<path d="M128.047 123.133L121.411 139.154H99.1326L104.569 123.133H128.032H128.047ZM128.743 122.659H104.235L98.4761 139.628H121.726L128.755 122.659H128.743Z" fill="#603BE5"/>
<path d="M88.2754 43.1978C88.2754 43.2712 88.2754 43.3447 88.2943 43.4182C88.3839 44.3855 88.809 45.2909 89.4959 45.9778C90.6406 47.0585 92.5106 47.2196 93.8804 46.4518C94.5552 46.0621 95.1077 45.4916 95.4754 44.8046" stroke="#010149" stroke-linecap="round" stroke-linejoin="round"/>
<path d="M24.1265 208.948H153.623H24.1265Z" fill="white"/>
<path d="M24.1265 208.948H153.623" stroke="#010149" stroke-width="2" stroke-linecap="round" stroke-linejoin="round"/>
<path d="M158.585 33.7119L146.005 25.9319C145.068 25.3526 143.839 25.6422 143.26 26.5791L130.313 47.5123L127.359 52.288C126.775 53.2333 127.079 54.4596 128.007 55.0334L140.586 62.8134C141.522 63.3922 142.751 63.1042 143.331 62.1663L156.278 41.2331L159.232 36.4573C159.816 35.512 159.512 34.2858 158.585 33.7119Z" fill="#063E70"/>
<path opacity="0.2" d="M132.086 47.2081C132.086 47.2081 126.366 51.3707 125.935 52.5604C125.505 53.7501 126.014 56.0123 129.692 57.638C133.37 59.2638 136.1 60.0843 136.1 60.0843C136.1 60.0843 140.891 52.6549 140.985 52.1862C141.079 51.7174 136.661 45.2447 136.422 45.0964C136.182 44.9482 132.086 47.2081 132.086 47.2081Z" fill="#FFC0BB"/>
<path d="M158.029 36.5644L143.701 27.7033L128.563 52.1811L142.89 61.0422L158.029 36.5644Z" fill="white"/>
<path d="M154.265 33.1727L148.44 29.5707C148.356 29.5183 148.33 29.4072 148.382 29.3225C148.434 29.2378 148.545 29.2116 148.63 29.264L154.454 32.866C154.539 32.9184 154.565 33.0295 154.513 33.1142C154.46 33.1989 154.349 33.2251 154.265 33.1727Z" fill="white"/>
<path d="M143.786 59.5943L129.458 50.7332L128.563 52.181L142.89 61.0421L143.786 59.5943Z" fill="#FFCB83"/>
<path d="M158.029 36.5644L143.701 27.7033L142.898 29.0023L157.225 37.8634L158.029 36.5644Z" fill="#FFCB83"/>
<path opacity="0.2" d="M141.99 79.0863L151.124 84.7355C151.124 84.7355 151.096 81.6271 153.043 75.1596C149.864 78.8424 146.414 76.383 144.847 75.7271C143.043 74.972 137.487 69.6978 136.853 68.7262C136.875 69.5785 137.044 71.4121 139.466 73.821C142.002 76.3439 141.99 79.0863 141.99 79.0863Z" fill="#FFE66D"/>
<path opacity="0.2" d="M145.633 52.2247C145.644 56.2099 144.769 64.8073 141.395 66.708L141.806 68.4021C141.806 68.4021 146.299 67.0975 146.085 57.9607C146.035 55.8344 145.865 53.9164 145.633 52.2247Z" fill="#FFC0BB"/>
<path d="M157.321 52.6026C157.321 52.6026 156.653 53.4722 155.881 53.0836C156.574 53.6006 156.094 54.5867 156.094 54.5867C156.094 54.5867 156.762 53.7171 157.534 54.1057C156.841 53.5887 157.321 52.6026 157.321 52.6026Z" fill="white"/>
<path d="M165.121 37.1108C165.121 37.1108 164.642 37.7348 164.088 37.4559C164.585 37.8269 164.241 38.5344 164.241 38.5344C164.241 38.5344 164.72 37.9104 165.274 38.1893C164.777 37.8183 165.121 37.1108 165.121 37.1108Z" fill="white"/>
<path d="M134.814 29.202C134.814 29.202 134.146 30.0716 133.374 29.683C134.066 30.2 133.586 31.1861 133.586 31.1861C133.586 31.1861 134.254 30.3165 135.026 30.7051C134.334 30.188 134.814 29.202 134.814 29.202Z" fill="white"/>
<path d="M160.846 51.2338C160.846 51.2338 160.404 51.809 159.893 51.5519C160.352 51.894 160.034 52.5462 160.034 52.5462C160.034 52.5462 160.476 51.9709 160.987 52.2281C160.529 51.886 160.846 51.2338 160.846 51.2338Z" fill="white"/>
<path d="M167.899 36.3735C167.899 36.3735 167.658 36.6873 167.38 36.547C167.63 36.7336 167.456 37.0895 167.456 37.0895C167.456 37.0895 167.697 36.7756 167.976 36.9159C167.726 36.7293 167.899 36.3735 167.899 36.3735Z" fill="white"/>
<path d="M137.697 27.9838C137.697 27.9838 137.255 28.5591 136.744 28.302C137.202 28.6441 136.885 29.2963 136.885 29.2963C136.885 29.2963 137.327 28.7211 137.837 28.9782C137.379 28.6361 137.697 27.9838 137.697 27.9838Z" fill="white"/>
<path d="M147.429 22.4842C147.429 22.4842 147.198 22.7851 146.931 22.6506C147.17 22.8295 147.004 23.1708 147.004 23.1708C147.004 23.1708 147.235 22.8698 147.502 23.0043C147.263 22.8254 147.429 22.4842 147.429 22.4842Z" fill="white"/>
<path d="M159.155 47.64C159.155 47.64 158.958 47.8974 158.729 47.7824C158.934 47.9354 158.792 48.2273 158.792 48.2273C158.792 48.2273 158.99 47.9699 159.218 48.0849C159.013 47.9319 159.155 47.64 159.155 47.64Z" fill="white"/>
<path d="M133.223 33.2274C133.223 33.2274 133.026 33.4849 132.797 33.3698C133.002 33.5229 132.86 33.8147 132.86 33.8147C132.86 33.8147 133.058 33.5573 133.286 33.6723C133.081 33.5193 133.223 33.2274 133.223 33.2274Z" fill="white"/>
<path d="M147.455 42.0893L142.392 38.9934C141.434 38.4078 140.26 38.583 139.77 39.3846L137.179 43.6231C136.689 44.4248 137.068 45.5493 138.025 46.1349L143.089 49.2308C144.047 49.8164 145.22 49.6412 145.71 48.8395L148.302 44.6011C148.792 43.7994 148.413 42.6748 147.455 42.0893Z" fill="#787CD1"/>
<path opacity="0.4" d="M142.275 45.5148C141.915 44.7155 141.124 42.9218 141.124 42.9218L141.914 41.6321L142.91 42.2608L143.236 42.6697L143.246 42.676C143.246 42.676 143.394 43.0162 143.603 43.4975L143.896 42.9488L144.263 43.1735C144.263 43.1735 144.913 44.9396 145.268 45.7285C145.268 45.7285 145.151 45.9185 145.041 46.0981C144.988 46.1758 144.918 46.2416 144.832 46.2935L144.833 46.2948C144.721 46.3665 144.586 46.4126 144.433 46.4304C144.269 46.4517 144.09 46.4405 143.906 46.3976C143.723 46.3547 143.539 46.281 143.367 46.1813C143.075 46.0043 142.816 45.8459 142.623 45.7281C142.406 45.5958 142.274 45.5144 142.275 45.5148Z" fill="#302B70"/>
<path d="M141.911 42.0812C142.224 42.2725 142.461 42.5014 142.623 42.768C142.787 43.0364 142.863 43.3234 142.852 43.6292C142.845 43.9338 142.751 44.2355 142.568 44.5341C142.386 44.8327 142.16 45.0543 141.892 45.199C141.629 45.3426 141.34 45.4025 141.026 45.3787C140.715 45.3567 140.404 45.25 140.091 45.0588L139.05 44.4224L140.871 41.4448L141.911 42.0812ZM140.38 44.5381C140.693 44.7294 140.987 44.7918 141.262 44.7255C141.537 44.6592 141.769 44.4711 141.958 44.1611C142.148 43.8511 142.21 43.5572 142.146 43.2794C142.083 42.9988 141.895 42.7628 141.582 42.5716L141.16 42.3133L139.958 44.2799L140.38 44.5381ZM143.948 44.8444L143.249 45.9876C143.2 46.0672 143.183 46.1368 143.198 46.1964C143.217 46.2549 143.271 46.3119 143.362 46.3676L143.64 46.5371L143.332 47.0405L142.957 46.811C142.453 46.5032 142.351 46.1047 142.65 45.6156L143.347 44.4766L143.065 44.3045L143.365 43.8139L143.647 43.986L144.004 43.4016L144.605 43.7694L144.248 44.3538L144.777 44.6772L144.477 45.1678L143.948 44.8444Z" fill="white"/>
<path d="M173 48V72.4985H181.494L175.467 80.4404L196.287 72.4985H258.546V48H173Z" fill="#F1EFFD"/>
<path d="M185.327 58.447C186.409 58.447 187.286 57.5697 187.286 56.4874C187.286 55.4052 186.409 54.5278 185.327 54.5278C184.245 54.5278 183.367 55.4052 183.367 56.4874C183.367 57.5697 184.245 58.447 185.327 58.447Z" fill="#603BE5"/>
<path d="M185.327 58.1465C186.333 58.1465 187.298 58.5463 188.01 59.258C188.722 59.9697 189.122 60.935 189.122 61.9415V64.0529C189.122 64.4994 188.944 64.9276 188.629 65.2434C188.313 65.5591 187.885 65.7365 187.438 65.7365H183.215C182.769 65.7365 182.341 65.5591 182.025 65.2434C181.709 64.9276 181.532 64.4994 181.532 64.0529V61.9415C181.532 60.935 181.932 59.9697 182.643 59.258C183.355 58.5463 184.32 58.1465 185.327 58.1465Z" fill="#603BE5"/>
<path d="M198.047 52.5229H253.481V54.524H198.047V52.5229Z" fill="#282828"/>
<path d="M198.047 59.4092H238.595V61.4102H198.047V59.4092Z" fill="#282828"/>
<path d="M198.047 65.04H210.174V67.041H198.047V65.04Z" fill="#282828"/>
<path d="M67 216H-75C-66.5378 209.455 -57.3453 203.929 -47.6096 199.534C-43.2942 197.586 -38.7161 195.834 -33.9905 196.013C-31.751 196.098 -29.5506 196.616 -27.4032 197.259C-14.9614 200.973 -3.47813 208.985 9.51202 209.111C17.9379 209.192 25.9836 205.91 34.1882 203.972C37.6443 203.157 41.2109 202.579 44.7292 203.022C47.8212 203.412 50.7681 204.582 53.5467 206.003C58.549 208.563 63.0952 211.941 67 216Z" fill="#FF6B6B"/>
<path d="M298 216H156C164.462 209.455 173.655 203.929 183.39 199.534C187.706 197.586 192.284 195.834 197.01 196.013C199.249 196.098 201.449 196.616 203.597 197.259C216.039 200.973 227.522 208.985 240.512 209.111C248.938 209.192 256.984 205.91 265.188 203.972C268.644 203.157 272.211 202.579 275.729 203.022C278.821 203.412 281.768 204.582 284.547 206.003C289.549 208.563 294.095 211.941 298 216Z" fill="#FF6B6B"/>
</g>
<defs>
<clipPath id="clip0_1144_8817">
<rect width="237" height="237" fill="white"/>
</clipPath>
</defs>
</svg>
