<svg width="346" height="346" viewBox="0 0 346 346" fill="none" xmlns="http://www.w3.org/2000/svg">
<path d="M313.461 310.707H26.8076C28.0634 308.381 29.6677 306.463 31.5962 304.317C39.0137 296.123 47.5421 287.36 58.5649 286.508C68.9149 285.711 78.2299 292.166 87.6622 296.555C110.884 307.363 139.495 305.683 161.292 292.225C168.02 288.085 175.12 282.634 182.913 283.979C186.601 284.614 189.841 286.739 192.956 288.809L209.171 299.563C211.345 301.005 213.722 302.506 216.33 302.389C223.861 302.044 224.955 291.742 227.598 286.632C228.591 284.728 230.054 282.934 231.983 281.968C235.191 280.357 236.902 283.024 238.717 285.256C242.671 290.12 246.352 295.209 250.178 300.177C251.482 301.878 252.979 303.7 255.087 304.076C259.069 304.766 261.873 300.101 265.737 298.901C269.008 297.89 272.441 299.525 275.57 300.912C287.586 306.246 300.092 309.796 313.461 310.707Z" fill="#2900BC"/>
<path opacity="0.2" d="M43.0533 122.471H112.36C113.05 119.149 113.53 115.571 112.391 112.363C111.253 109.154 107.52 106.629 104.425 108.036C101.983 109.147 100.12 112.404 97.5529 111.61C96.4903 111.283 95.7796 110.313 95.1 109.434C91.4706 104.728 86.4474 100.915 80.6445 99.6252C74.8416 98.3349 68.2762 99.877 64.2811 104.276C61.4176 107.433 60.0894 111.659 57.8331 115.274C57.5309 115.843 57.0893 116.325 56.5497 116.675C54.7315 117.672 52.7547 115.64 50.6847 115.295C48.5733 114.95 46.4032 116.882 46.5033 119.018C46.3195 118.703 46.0748 118.428 45.7833 118.209C45.4919 117.99 45.1597 117.832 44.8061 117.743C44.4526 117.654 44.0849 117.637 43.7246 117.692C43.3644 117.748 43.0188 117.875 42.7083 118.065C41.4973 118.9 42.0804 121.364 43.0533 122.471Z" fill="#603BE5"/>
<path d="M299.872 129.613H233.5C232.715 129.613 232.079 130.249 232.079 131.034V144.862C232.079 145.647 232.715 146.283 233.5 146.283H299.872C300.657 146.283 301.293 145.647 301.293 144.862V131.034C301.293 130.249 300.657 129.613 299.872 129.613Z" fill="#762AE2"/>
<path d="M234.276 141.004C236.602 139.079 240.038 139.324 242.901 140.242C245.765 141.16 248.511 142.657 251.526 142.93C255.584 143.306 259.499 141.415 262.956 139.259C266.413 137.103 269.756 134.591 273.679 133.48C277.805 132.334 282.215 132.829 285.985 134.86C288.245 136.092 290.232 137.865 292.671 138.69C293.513 138.976 294.458 139.135 295.272 138.779C295.962 138.476 296.456 137.848 296.915 137.247L299.309 134.101" stroke="#E7DCFF" stroke-width="2" stroke-linecap="round" stroke-linejoin="round"/>
<path d="M239.683 140.704C240.302 140.704 240.804 140.202 240.804 139.583C240.804 138.964 240.302 138.462 239.683 138.462C239.064 138.462 238.562 138.964 238.562 139.583C238.562 140.202 239.064 140.704 239.683 140.704Z" fill="black"/>
<path d="M250.561 143.892C251.18 143.892 251.682 143.39 251.682 142.771C251.682 142.152 251.18 141.65 250.561 141.65C249.941 141.65 249.439 142.152 249.439 142.771C249.439 143.39 249.941 143.892 250.561 143.892Z" fill="black"/>
<path d="M262.201 140.704C262.821 140.704 263.323 140.202 263.323 139.583C263.323 138.964 262.821 138.462 262.201 138.462C261.582 138.462 261.08 138.964 261.08 139.583C261.08 140.202 261.582 140.704 262.201 140.704Z" fill="black"/>
<path d="M270.698 135.698C271.318 135.698 271.82 135.196 271.82 134.577C271.82 133.958 271.318 133.456 270.698 133.456C270.079 133.456 269.577 133.958 269.577 134.577C269.577 135.196 270.079 135.698 270.698 135.698Z" fill="black"/>
<path d="M281.666 134.405C282.285 134.405 282.787 133.903 282.787 133.283C282.787 132.664 282.285 132.162 281.666 132.162C281.047 132.162 280.545 132.664 280.545 133.283C280.545 133.903 281.047 134.405 281.666 134.405Z" fill="black"/>
<path d="M291.912 139.569C292.531 139.569 293.033 139.067 293.033 138.448C293.033 137.829 292.531 137.327 291.912 137.327C291.293 137.327 290.791 137.829 290.791 138.448C290.791 139.067 291.293 139.569 291.912 139.569Z" fill="black"/>
<path d="M299.309 135.222C299.928 135.222 300.43 134.72 300.43 134.101C300.43 133.482 299.928 132.98 299.309 132.98C298.69 132.98 298.188 133.482 298.188 134.101C298.188 134.72 298.69 135.222 299.309 135.222Z" fill="black"/>
<path d="M122.71 159.055H48.4077C46.4356 159.055 44.8369 160.654 44.8369 162.626V196.95C44.8369 198.922 46.4356 200.52 48.4077 200.52H122.71C124.682 200.52 126.281 198.922 126.281 196.95V162.626C126.281 160.654 124.682 159.055 122.71 159.055Z" fill="#FE1D00"/>
<path d="M85.5575 196.763C94.9339 196.763 102.535 189.162 102.535 179.786C102.535 170.41 94.9339 162.808 85.5575 162.808C76.1811 162.808 68.5801 170.41 68.5801 179.786C68.5801 189.162 76.1811 196.763 85.5575 196.763Z" fill="#762AE2"/>
<path d="M124.46 199.064C124.677 199.544 124.877 200.027 125.07 200.517H123.604C123.338 199.859 123.036 199.217 122.7 198.592C121.037 195.542 118.17 193.831 114.631 194.555C111.198 195.245 108.676 197.778 106.661 200.517H104.984C106.018 198.974 107.224 197.554 108.579 196.284C111.263 193.869 115.038 192.292 118.657 193.334C121.486 194.148 123.287 196.491 124.46 199.064Z" fill="white"/>
<path d="M124.056 169.915C121.912 170.356 119.81 170.975 117.77 171.768C113.823 173.328 110.525 175.753 107.317 178.485C104.056 181.269 100.803 184.209 96.7631 185.81C94.4895 186.71 91.971 187.145 89.6112 186.727C90.3909 185.692 91.1327 184.678 91.8468 183.622C93.8685 180.659 95.7557 177.116 95.321 173.407C94.976 170.561 93.3614 167.704 90.5634 166.683C87.4584 165.544 84.0843 167.235 82.1282 169.677C81.2547 170.811 80.6208 172.11 80.265 173.496C79.9091 174.882 79.8388 176.326 80.0582 177.74C80.6481 182.097 83.4357 185.823 87.3032 187.428C82.9355 192.754 77.5535 197.398 70.9536 199.592C69.788 199.979 68.5973 200.286 67.3898 200.51H72.4371C73.4975 200.109 74.5341 199.649 75.5421 199.13C80.7171 196.477 85.0434 192.434 88.6832 187.9C89.7552 188.182 90.8639 188.298 91.971 188.245C100.251 187.918 105.754 180.973 111.981 176.47C115.431 173.983 119.305 172.406 123.425 171.437C124.346 171.22 125.305 171.006 126.278 170.844V169.464C125.536 169.608 124.794 169.76 124.056 169.915ZM88.176 186.355C87.3329 186.067 86.5384 185.653 85.8197 185.127C80.5515 181.276 79.2647 171.916 85.6817 168.449C89.3835 166.448 92.9612 168.894 93.8271 172.689C94.7793 176.829 92.2125 180.821 89.9114 184.036C89.3525 184.819 88.7763 185.592 88.176 186.355ZM65.0058 159.055C65.0353 161.171 64.6594 163.273 63.8984 165.248C63.4445 166.43 62.8662 167.561 62.1734 168.622C62.08 168.341 61.9647 168.067 61.8284 167.804C60.231 164.827 56.2256 164.302 53.3517 165.565C50.7677 166.7 48.2768 169.777 49.398 172.727C50.4779 175.58 53.8175 175.929 56.3739 175.108C58.1048 174.518 59.6738 173.531 60.9555 172.227C60.4932 174.245 59.3099 176.305 58.4957 177.795C56.4852 181.416 54.9951 185.302 54.0693 189.339C53.6237 191.334 53.3216 193.359 53.1654 195.397C53.0412 196.998 52.8791 198.82 54.1349 200.044C54.3149 200.219 54.51 200.377 54.7179 200.517H58.9338L58.5405 200.438C57.5676 200.22 56.4947 199.982 55.6356 199.465C54.4799 198.775 54.4074 197.65 54.4661 196.418C54.5839 194.158 54.8967 191.911 55.401 189.705C56.367 185.368 58.1231 181.47 60.1896 177.564C61.2764 175.494 62.546 172.945 62.508 170.492C63.0335 169.811 63.513 169.097 63.9432 168.353C65.5585 165.523 66.3842 162.312 66.3341 159.055H65.0058ZM56.7569 173.507C55.4079 174.087 53.7002 174.459 52.2719 173.883C50.5986 173.193 50.1225 171.347 50.8194 169.781C52.2374 166.593 57.3227 164.851 59.9757 167.59C60.6293 168.258 61.0305 169.133 61.1108 170.064C59.9529 171.54 58.4606 172.721 56.7569 173.507Z" fill="white"/>
<path d="M81.3556 187.286V172.286C81.3529 172.079 81.4125 171.876 81.5264 171.703C81.6404 171.53 81.8036 171.395 81.9949 171.316C82.1862 171.237 82.3969 171.217 82.5996 171.259C82.8024 171.301 82.9879 171.402 83.1323 171.551L90.6326 179.051C90.7296 179.147 90.8066 179.262 90.8592 179.388C90.9117 179.514 90.9388 179.649 90.9388 179.786C90.9388 179.923 90.9117 180.058 90.8592 180.184C90.8066 180.31 90.7296 180.425 90.6326 180.521L83.1323 188.021C82.9879 188.169 82.8024 188.271 82.5996 188.313C82.3969 188.355 82.1862 188.335 81.9949 188.256C81.8036 188.177 81.6404 188.042 81.5264 187.869C81.4125 187.696 81.3529 187.493 81.3556 187.286Z" fill="white"/>
<path d="M268.211 157.613H208.913C207.912 157.613 207.102 158.424 207.102 159.424V176.812C207.102 177.812 207.912 178.623 208.913 178.623H268.211C269.212 178.623 270.023 177.812 270.023 176.812V159.424C270.023 158.424 269.212 157.613 268.211 157.613Z" fill="#2EB9FF"/>
<path d="M226.549 162.881H214.96C214.526 162.881 214.174 163.233 214.174 163.668V174.193C214.174 174.628 214.526 174.98 214.96 174.98H226.549C226.983 174.98 227.336 174.628 227.336 174.193V163.668C227.336 163.233 226.983 162.881 226.549 162.881Z" fill="white"/>
<path d="M230.823 162.881H254.728V164.737H230.823V162.881Z" fill="#FFCC66"/>
<path d="M230.823 167.076H258.292V168.932H230.823V167.076Z" fill="#FFCC66"/>
<path d="M230.823 171.268H240.576V173.124H230.823V171.268Z" fill="#FFCC66"/>
<path d="M216.326 165.344H225.179V172.517H216.326V165.344Z" fill="#FFCC66"/>
<path d="M217.83 167.759C218.327 167.759 218.731 167.356 218.731 166.859C218.731 166.361 218.327 165.958 217.83 165.958C217.333 165.958 216.93 166.361 216.93 166.859C216.93 167.356 217.333 167.759 217.83 167.759Z" fill="#762AE2"/>
<path d="M262.463 162.225C262.732 162.225 262.949 162.008 262.949 161.739C262.949 161.47 262.732 161.253 262.463 161.253C262.194 161.253 261.977 161.47 261.977 161.739C261.977 162.008 262.194 162.225 262.463 162.225Z" fill="white"/>
<path d="M262.463 164.161C262.732 164.161 262.949 163.943 262.949 163.674C262.949 163.406 262.732 163.188 262.463 163.188C262.194 163.188 261.977 163.406 261.977 163.674C261.977 163.943 262.194 164.161 262.463 164.161Z" fill="white"/>
<path d="M262.463 166.093C262.732 166.093 262.949 165.875 262.949 165.606C262.949 165.338 262.732 165.12 262.463 165.12C262.194 165.12 261.977 165.338 261.977 165.606C261.977 165.875 262.194 166.093 262.463 166.093Z" fill="white"/>
<path d="M106.92 45.9984H42.0116C40.9179 45.9984 40.0312 46.885 40.0312 47.9787V67.0123C40.0312 68.106 40.9179 68.9926 42.0116 68.9926H106.92C108.014 68.9926 108.9 68.106 108.9 67.0123V47.9787C108.9 46.885 108.014 45.9984 106.92 45.9984Z" fill="#FFCC66"/>
<path d="M69.957 56.2759H100.552V57.1902H69.957V56.2759Z" fill="white"/>
<path d="M69.957 53.0605H100.552V53.9748H69.957V53.0605Z" fill="white"/>
<path d="M69.957 60.0986H86.1686V61.0128H69.957V60.0986Z" fill="white"/>
<path d="M62.3457 51.991H64.4433V63.5761H62.3457V51.991Z" fill="#010149"/>
<path d="M58.54 53.9748H60.6376V63.5727H58.54V53.9748Z" fill="#010149"/>
<path d="M54.7354 56.7348H56.8329V63.5762H54.7354V56.7348Z" fill="#010149"/>
<path d="M50.9297 59.4913H53.0273V63.5727H50.9297V59.4913Z" fill="#010149"/>
<path d="M168.769 87.8814C168.767 90.6062 167.916 93.2628 166.335 95.4818C164.754 97.7008 162.52 99.3719 159.945 100.263C157.37 101.154 154.582 101.22 151.967 100.453C149.353 99.6859 147.042 98.1231 145.357 95.982C145.208 95.7957 145.064 95.6025 144.929 95.4058C143.616 93.5336 142.816 91.3505 142.608 89.0735C142.4 86.7964 142.791 84.5045 143.742 82.4252C144.694 80.346 146.172 78.5518 148.032 77.2206C149.891 75.8895 152.066 75.0677 154.341 74.8369C154.61 74.8093 154.882 74.7921 155.158 74.7818H155.662C159.014 74.777 162.239 76.0617 164.67 78.3697C164.836 78.525 164.998 78.6871 165.153 78.8493C167.081 80.8672 168.312 83.4499 168.665 86.2185C168.693 86.4462 168.717 86.6739 168.731 86.9085C168.758 87.2224 168.769 87.5502 168.769 87.8814Z" fill="#2EB9FF"/>
<path d="M155.158 74.7817C153.381 77.7901 152.125 81.1263 150.908 84.3693C150.597 85.1938 150.276 86.0494 149.948 86.8843C148.734 89.9893 147.337 93.1909 145.357 95.982C145.208 95.7957 145.063 95.6025 144.929 95.4058C146.806 92.7114 148.144 89.6478 149.317 86.6394C149.638 85.8079 149.959 84.9558 150.269 84.1278C151.446 81.0021 152.657 77.7867 154.34 74.8369C154.609 74.8093 154.882 74.7921 155.158 74.7817Z" fill="white"/>
<path d="M168.73 86.8947C167.302 87.3467 166.229 88.4921 165.67 89.2097C165.051 90.0462 164.493 90.9259 164 91.842C163.679 92.4009 163.351 92.9771 162.996 93.5291C161.659 95.5956 159.928 97.3777 157.9 98.7731C157.165 99.2768 156.282 99.8081 155.282 99.8391C154.774 99.8487 154.271 99.7424 153.811 99.5284C153.351 99.3144 152.945 98.9982 152.625 98.604C151.946 97.8284 151.547 96.8464 151.494 95.8164C151.401 93.7464 152.529 91.8593 153.491 90.4517C155.585 87.4398 158.238 84.8213 160.805 82.2924C162.102 81.0125 163.417 79.7118 164.669 78.356C164.835 78.5112 164.997 78.6734 165.152 78.8355C163.896 80.1983 162.579 81.4955 161.281 82.7754C158.739 85.2836 156.106 87.878 154.036 90.8415C153.119 92.1594 152.077 93.912 152.16 95.7854C152.204 96.6612 152.544 97.4964 153.122 98.1555C153.376 98.4719 153.698 98.7267 154.064 98.9006C154.43 99.0745 154.831 99.163 155.237 99.1595C156.068 99.1215 156.848 98.6592 157.5 98.2142C159.454 96.8684 161.123 95.1496 162.409 93.1565C162.754 92.6217 163.079 92.0525 163.393 91.5005C163.905 90.5591 164.481 89.6542 165.118 88.7922C165.993 87.5784 167.229 86.6726 168.651 86.2047C168.692 86.4359 168.716 86.6636 168.73 86.8947Z" fill="white"/>
<path d="M155.72 92.0041C155.613 92.0044 155.507 91.9835 155.408 91.9427C155.309 91.9018 155.219 91.8418 155.144 91.7661L151.835 88.461C151.76 88.3853 151.7 88.2955 151.659 88.1966C151.618 88.0978 151.597 87.9918 151.597 87.8848C151.597 87.7778 151.618 87.6719 151.659 87.573C151.7 87.4742 151.76 87.3843 151.835 87.3087C151.911 87.233 152.001 87.173 152.1 87.132C152.199 87.0911 152.304 87.07 152.411 87.07C152.518 87.07 152.624 87.0911 152.723 87.132C152.822 87.173 152.912 87.233 152.988 87.3087L155.72 90.0411L171.028 74.7334C171.18 74.5811 171.387 74.4955 171.602 74.4955C171.818 74.4955 172.024 74.5811 172.177 74.7334C172.329 74.8858 172.414 75.0924 172.414 75.3078C172.414 75.5233 172.329 75.7299 172.177 75.8823L156.307 91.7523C156.231 91.8319 156.14 91.8953 156.039 91.9386C155.938 91.9819 155.83 92.0042 155.72 92.0041Z" fill="#170C2C"/>
<path opacity="0.2" d="M215.157 87.7779H308.431C308.821 84.9412 308.834 82.0654 308.469 79.2253C308.093 76.4136 306.861 73.6018 304.577 71.9217C303.075 70.8577 301.342 70.1638 299.521 69.8964C297.7 69.629 295.841 69.7957 294.096 70.383C292.351 70.953 290.777 71.9518 289.518 73.2879C288.138 74.7783 287.003 76.524 284.809 76.869C281.849 77.3347 278.681 75.9823 276.446 74.109C273.186 71.3766 270.888 67.5781 267.39 65.1631C262.96 62.103 256.991 61.7131 251.927 63.5382C246.862 65.3632 242.681 69.2134 239.807 73.764C238.403 75.9858 237.268 78.3973 235.556 80.3949C233.845 82.3925 231.365 83.9657 228.746 83.7552C226.279 83.562 223.916 81.8301 221.525 82.4787C219.987 82.8962 218.879 84.2037 217.516 85.0421C216.78 85.4866 215.967 85.7886 215.119 85.9322C214.9 85.9716 214.702 86.0876 214.562 86.2594C214.421 86.4312 214.346 86.6476 214.35 86.8697C214.354 87.0919 214.437 87.3053 214.584 87.4717C214.731 87.6381 214.933 87.7467 215.153 87.7779H215.157Z" fill="#603BE5"/>
<path opacity="0.2" d="M207.008 71.5801C214.788 71.5801 221.095 65.2734 221.095 57.4938C221.095 49.7141 214.788 43.4074 207.008 43.4074C199.229 43.4074 192.922 49.7141 192.922 57.4938C192.922 65.2734 199.229 71.5801 207.008 71.5801Z" fill="#603BE5"/>
<path d="M114.19 286.501C113.456 286.626 112.708 286.626 111.975 286.501L112.496 266.516H113.669L114.19 286.501Z" fill="#FFFCE5"/>
<path d="M114.817 310.707H111.343L111.974 286.501L112.495 266.516H113.668L114.186 286.501L114.817 310.707Z" fill="#E9F9FF"/>
<path d="M124.84 260.723C124.84 261.73 124.809 262.727 124.747 263.704L124.726 263.997C124.726 264.069 124.726 264.138 124.709 264.211C124.691 264.283 124.709 264.439 124.684 264.556C124.41 268.402 123.535 272.182 122.093 275.758C121.993 275.996 121.89 276.231 121.786 276.448C121.26 277.613 120.629 278.727 119.899 279.777C119.754 279.984 119.606 280.184 119.454 280.378C117.619 282.737 115.432 284.107 113.082 284.107C111.858 284.089 110.664 283.731 109.632 283.072C109.456 282.965 109.287 282.848 109.108 282.727L109.059 282.692C108.914 282.589 108.773 282.479 108.628 282.347C106.462 280.588 104.636 277.611 103.357 273.836L103.201 273.374C103.031 272.854 102.872 272.318 102.725 271.766C102.684 271.608 102.639 271.452 102.601 271.29C101.744 267.841 101.317 264.298 101.331 260.744V260.637C101.331 260.488 101.331 260.34 101.331 260.192C101.331 260.157 101.331 260.123 101.331 260.085C101.4 254.886 102.322 250.107 103.833 246.285C103.933 246.033 104.036 245.781 104.143 245.536C104.419 244.894 104.711 244.285 105.019 243.708C105.14 243.48 105.264 243.259 105.389 243.042C107.459 239.488 110.143 237.342 113.086 237.342C114.074 237.349 115.047 237.586 115.928 238.032C116.087 238.112 116.242 238.194 116.398 238.284C116.934 238.602 117.438 238.973 117.902 239.392C118.05 239.523 118.195 239.661 118.34 239.802C120.303 241.755 121.952 244.77 123.101 248.465L123.246 248.948C123.484 249.752 123.694 250.587 123.884 251.453C123.919 251.608 123.95 251.77 123.984 251.929C124.563 254.824 124.85 257.77 124.84 260.723Z" fill="#2900BC"/>
<path d="M156.938 120.284C156.938 120.284 151.57 96.703 179.256 93.3427C192.556 91.7247 199.611 90.6414 203.351 89.9514C203.86 89.8575 204.384 89.8783 204.885 90.0123C205.386 90.1463 205.85 90.3902 206.244 90.7263C206.639 91.0623 206.954 91.482 207.166 91.9549C207.378 92.4278 207.482 92.942 207.47 93.46L207.442 94.74C207.343 99.6365 205.305 104.293 201.774 107.687C198.243 111.081 193.509 112.934 188.612 112.839C177.372 112.597 164.666 113.304 161.985 117.444" fill="#010149"/>
<path d="M160.776 119.059C162.636 118.594 163.902 117.256 163.606 116.071C163.309 114.886 161.561 114.303 159.702 114.769C157.842 115.235 156.575 116.572 156.872 117.757C157.169 118.942 158.917 119.525 160.776 119.059Z" fill="#FE1D00"/>
<path d="M138.805 150.675C125.35 142.861 112.816 133.425 102.011 122.192C96.6693 116.671 91.7907 110.72 87.424 104.4C83.1149 98.1279 79.2302 91.4211 76.384 84.3589C74.8453 80.5639 74.0621 76.3929 76.0735 72.6048C76.6876 71.4525 79.1785 66.9054 80.7655 68.9306C81.0001 69.2238 81.4037 68.8995 81.3416 68.5856C80.9173 66.5156 82.9735 64.5387 85.0193 65.0183C85.0781 65.0345 85.1402 65.0348 85.1992 65.0193C85.2581 65.0037 85.3119 64.9728 85.3551 64.9296C85.3982 64.8865 85.4291 64.8327 85.4447 64.7737C85.4603 64.7148 85.4599 64.6527 85.4437 64.5939C85.0366 61.6166 88.9178 61.5614 90.7118 62.6757C92.3782 63.7107 93.6374 65.6289 94.6897 67.2366C95.704 68.7856 96.5906 70.4106 97.4497 72.0459C97.9988 73.1995 98.6512 74.3011 99.3989 75.3372C99.7025 75.7202 100.154 76.279 100.71 76.1962C101.2 76.1238 101.728 75.5442 102.042 75.2061C102.942 74.2401 103.622 73.0878 104.422 72.039C105.085 71.173 106.147 69.7758 107.41 70.176C108.79 70.6142 109.397 72.936 108.993 74.178C107.776 77.904 106.051 81.6955 106.113 85.6941C106.147 87.6468 106.851 89.4891 107.524 91.2934C108.25 93.2418 109.088 95.147 110.032 96.9997C113.699 104.183 119.019 110.293 124.839 115.809C126.602 117.479 128.41 119.104 130.238 120.708C132.288 122.502 134.603 124.003 136.876 125.5C138.881 126.818 140.896 128.26 143.014 129.381C144.811 130.318 146.679 131.114 148.599 131.762C149.02 131.907 149.2 131.241 148.782 131.096C146.924 130.467 145.116 129.695 143.376 128.788C141.448 127.753 139.612 126.456 137.784 125.262C135.538 123.799 133.202 122.34 131.167 120.594C129.417 119.097 127.717 117.544 126.026 115.971C119.854 110.196 114.199 103.803 110.404 96.189C109.418 94.2076 108.559 92.1657 107.831 90.0756C107.448 89.0983 107.148 88.0909 106.934 87.0637C106.762 85.881 106.775 84.6787 106.972 83.4999C107.336 81.3958 107.898 79.3305 108.648 77.3313C109.159 75.8444 110.118 74.1849 109.759 72.5807C109.48 71.3387 108.886 69.8621 107.541 69.4929C106.465 69.1962 105.499 69.8379 104.781 70.5762C103.805 71.5733 103.087 72.7911 102.252 73.8951C101.879 74.4435 101.422 74.9291 100.896 75.3337C100.517 75.5925 100.427 75.4545 100.11 75.106C99.8047 74.748 99.5322 74.3635 99.2954 73.9572C97.2772 70.6866 95.8178 67.1642 93.3062 64.1972C91.9262 62.5481 90.2012 61.0922 87.8932 61.2785C86.9061 61.337 85.9751 61.757 85.2781 62.4584C84.7088 63.0897 84.6778 63.9798 84.7882 64.7802L85.2125 64.3559C82.6354 63.7521 80.1548 66.1878 80.6861 68.7718L81.2657 68.4268C79.7822 66.5535 77.8157 68.727 76.8704 70.0104C75.2834 72.1874 74.1898 74.6644 74.1415 77.3968C74.0725 81.4471 75.97 85.3008 77.6639 88.8784C79.3847 92.4943 81.2987 96.0149 83.3978 99.4251C91.9055 113.284 103.121 125.445 115.738 135.65C122.907 141.426 130.51 146.64 138.481 151.248C138.559 151.289 138.651 151.298 138.737 151.273C138.822 151.248 138.895 151.192 138.939 151.114C138.984 151.037 138.997 150.946 138.976 150.86C138.954 150.773 138.901 150.698 138.826 150.651L138.805 150.675Z" fill="#010149"/>
<path d="M76.1216 71.3283C77.3291 76.3895 79.7268 81.0746 82.2315 85.5975C82.4489 85.9874 83.0423 85.6389 82.8284 85.2525C80.3513 80.7675 77.9811 76.1549 76.7874 71.1455C76.6839 70.7142 76.0215 70.8971 76.1216 71.3318V71.3283Z" fill="#010149"/>
<path d="M80.4787 68.52C82.2247 73.1706 84.3298 77.6784 86.775 82.0026C86.8227 82.0777 86.8976 82.1314 86.984 82.1526C87.0705 82.1738 87.1617 82.1607 87.2388 82.1162C87.3158 82.0717 87.3727 81.9991 87.3974 81.9136C87.4222 81.8282 87.4131 81.7365 87.3718 81.6576C84.9584 77.387 82.8821 72.9344 81.1618 68.3406C81.0065 67.93 80.3407 68.106 80.496 68.5235L80.4787 68.52Z" fill="#010149"/>
<path d="M84.7258 64.3006C86.9742 69.2304 89.5922 73.9831 92.5573 78.5181C92.7988 78.8907 93.3957 78.5422 93.1542 78.1731C90.189 73.6381 87.571 68.8854 85.3227 63.9556C85.1398 63.552 84.543 63.9004 84.7258 64.3006Z" fill="#010149"/>
<path d="M93.4404 83.2722C92.7677 85.7976 92.7504 88.7128 94.3271 90.9277C94.9454 91.8488 95.8082 92.5794 96.8185 93.0377C97.8288 93.4959 98.9468 93.6637 100.047 93.5221C100.482 93.4566 100.299 92.7907 99.8609 92.8597C97.7633 93.1771 95.7209 91.9455 94.6514 90.1653C93.4542 88.147 93.5198 85.6527 94.1063 83.4551C94.1305 83.3668 94.1187 83.2724 94.0734 83.1929C94.0281 83.1133 93.9531 83.0549 93.8648 83.0307C93.7765 83.0064 93.6822 83.0183 93.6026 83.0636C93.523 83.1089 93.4647 83.1839 93.4404 83.2722Z" fill="#010149"/>
<path d="M90.5915 88.2092C90.832 88.0014 91.1114 87.8438 91.4136 87.7454C91.7157 87.6471 92.0344 87.61 92.351 87.6365C92.7926 87.6675 92.7926 86.9775 92.351 86.9465C91.9439 86.9201 91.5356 86.9752 91.1499 87.1085C90.7643 87.2418 90.4091 87.4506 90.1051 87.7227C89.7601 88.0125 90.2569 88.499 90.5915 88.2092Z" fill="#010149"/>
<path d="M178.47 136.613C192.222 136.851 205.894 134.625 219.059 130.73C232.224 126.835 244.9 121.336 257.13 115.105L259.345 113.967C260.076 113.587 260.963 112.908 261.777 112.77C263.181 112.539 264.865 112.942 266.19 113.377C268.915 114.27 271.247 116.078 273.179 118.159C274.199 119.266 275.131 120.45 275.967 121.702C276.826 122.971 278.541 125.031 277.216 126.504C276.267 127.556 274.632 127.65 273.321 127.698C272.852 127.712 272.391 127.819 271.965 128.014C271.538 128.208 271.155 128.485 270.837 128.829C269.988 129.685 269.391 130.751 268.625 131.672C267.656 132.838 266.279 133.649 264.996 134.432C263.454 135.364 261.794 136.347 260.004 136.654C258.213 136.961 256.495 137.223 254.742 137.537C252.99 137.851 251.213 138.227 249.485 138.71C247.754 139.236 246.054 139.857 244.392 140.57C241.001 141.95 237.541 143.147 234.094 144.365C230.648 145.583 227.287 146.78 223.924 148.08C220.56 149.381 217.024 150.43 213.553 151.43C206.609 153.451 199.541 155.016 192.394 156.115C190.543 156.394 188.684 156.638 186.819 156.847C186.384 156.895 186.377 157.585 186.819 157.537C194.159 156.702 201.431 155.353 208.581 153.5C212.249 152.559 215.885 151.499 219.49 150.354C223.023 149.229 226.449 147.835 229.934 146.58C233.546 145.279 237.179 144.027 240.77 142.688C244.292 141.381 247.701 139.804 251.368 138.931C253.159 138.503 254.97 138.182 256.785 137.896C258.42 137.623 260.256 137.551 261.784 136.889C263.446 136.159 265.038 135.28 266.541 134.263C267.668 133.576 268.669 132.699 269.498 131.672C270.254 130.682 270.913 129.45 271.986 128.767C273.021 128.119 274.428 128.422 275.58 128.133C276.664 127.86 277.809 127.26 278.237 126.159C278.772 124.779 277.892 123.434 277.202 122.305C274.276 117.669 270.019 113.087 264.333 112.221C263.668 112.117 262.996 112.066 262.322 112.069C261.456 112.069 261.018 112.321 260.252 112.721C258.69 113.542 257.122 114.347 255.546 115.136C252.303 116.772 249.03 118.347 245.728 119.863C239.176 122.878 232.479 125.563 225.659 127.908C212.159 132.504 198.059 135.516 183.786 135.898C182.02 135.942 180.252 135.949 178.484 135.919C178.392 135.919 178.304 135.956 178.24 136.02C178.175 136.085 178.139 136.173 178.139 136.264C178.139 136.356 178.175 136.443 178.24 136.508C178.304 136.573 178.392 136.609 178.484 136.609L178.47 136.613Z" fill="#010149"/>
<path d="M261.773 119.37C262.767 119.349 263.66 119.687 264.188 120.574C264.533 121.136 264.713 121.778 265.075 122.326C265.603 123.116 266.455 124.196 267.359 124.52C268.349 124.865 269.325 124.21 269.719 123.313C270.195 122.226 269.964 120.898 269.674 119.784C269.283 118.447 268.738 117.161 268.049 115.951C267.504 114.936 266.983 113.708 266.065 112.966C264.837 111.976 262.615 111.956 261.152 112.321C261.064 112.345 260.989 112.404 260.944 112.483C260.898 112.563 260.887 112.657 260.911 112.746C260.935 112.834 260.993 112.909 261.073 112.954C261.153 112.999 261.247 113.011 261.335 112.987C262.643 112.659 264.72 112.666 265.765 113.622C266.524 114.312 266.976 115.409 267.452 116.299C268.058 117.372 268.552 118.504 268.929 119.677C269.246 120.763 269.636 122.385 268.884 123.372C267.804 124.783 266.303 122.933 265.672 121.992C265.144 121.191 264.944 120.194 264.226 119.521C263.548 118.935 262.668 118.638 261.773 118.693C261.682 118.693 261.594 118.73 261.529 118.794C261.465 118.859 261.428 118.947 261.428 119.038C261.428 119.13 261.465 119.218 261.529 119.282C261.594 119.347 261.682 119.383 261.773 119.383V119.37Z" fill="#010149"/>
<path d="M268.691 124.265C269.971 126.114 273.234 126.359 273.631 123.699C273.824 122.395 273.462 120.96 273.086 119.721C272.642 118.273 272.027 116.884 271.254 115.581C271.204 115.512 271.13 115.464 271.046 115.447C270.963 115.429 270.875 115.443 270.802 115.486C270.728 115.529 270.672 115.598 270.646 115.679C270.62 115.761 270.625 115.849 270.661 115.926C271.71 117.673 272.444 119.591 272.831 121.591C272.986 122.444 273.231 123.792 272.593 124.517C271.658 125.573 269.971 124.917 269.287 123.927C269.036 123.565 268.439 123.906 268.691 124.272V124.265Z" fill="#010149"/>
<path d="M272.437 125.248C273.569 126.746 275.887 126.739 276.75 124.931C277.612 123.123 276.153 121.353 275.452 119.804C275.269 119.401 274.676 119.752 274.855 120.149C275.28 121.088 275.935 121.971 276.191 122.975C276.394 123.786 276.332 124.662 275.673 125.238C275.482 125.399 275.259 125.519 275.018 125.589C274.778 125.659 274.526 125.679 274.278 125.647C274.029 125.614 273.791 125.53 273.576 125.401C273.362 125.271 273.178 125.098 273.034 124.893C272.768 124.548 272.168 124.893 272.437 125.238V125.248Z" fill="#010149"/>
<path d="M256.146 119.721C256.974 119.78 257.837 119.873 258.468 120.467C258.902 120.932 259.252 121.469 259.503 122.054C260.214 123.434 260.907 124.814 261.611 126.194C262.087 127.132 264.005 130.147 261.756 130.282C260.376 130.361 258.827 129.295 257.861 128.429C257.264 127.891 256.56 126.684 255.591 127.122C255.115 127.339 254.773 127.888 254.438 128.274C254.007 128.793 253.546 129.287 253.058 129.754C252.038 130.692 250.761 131.301 249.39 131.505C248.02 131.709 246.62 131.496 245.372 130.896C244.975 130.703 244.627 131.3 245.027 131.493C246.005 131.97 247.073 132.234 248.161 132.268C249.249 132.301 250.331 132.103 251.337 131.686C252.417 131.21 253.38 130.503 254.159 129.616C254.583 129.157 254.98 128.671 255.398 128.205C255.47 128.122 255.646 127.86 255.743 127.829C256.044 127.839 256.336 127.936 256.584 128.108C256.871 128.319 257.109 128.667 257.374 128.905C258.575 129.989 261.321 131.879 262.936 130.551C263.681 129.937 263.626 128.936 263.312 128.108C262.86 126.863 262.128 125.693 261.528 124.503C260.838 123.154 260.259 121.609 259.334 120.405C258.534 119.37 257.399 119.111 256.143 119.025C255.698 118.994 255.701 119.684 256.143 119.715L256.146 119.721Z" fill="#010149"/>
<path d="M252.868 268.147C224.796 249.148 197.196 228.703 171.714 206.337C173.715 233.979 181.446 289.372 181.446 289.372L189.402 295.288C189.808 295.592 190.109 296.015 190.261 296.498C190.413 296.982 190.41 297.501 190.251 297.982C190.091 298.463 189.785 298.882 189.374 299.18C188.964 299.477 188.47 299.638 187.963 299.639H187.881L158.721 299.701C158.721 299.701 141.551 231.788 141.954 188.311C141.987 183.353 143.835 178.58 147.149 174.892C150.463 171.205 155.013 168.86 159.939 168.301C161.772 168.101 163.619 168.057 165.459 168.17C173.634 168.695 181.359 172.099 187.263 177.778C211.206 200.548 235.242 223.504 259.178 246.254C262.135 245.726 265.043 245.346 267.983 244.97C268.445 244.911 268.915 244.995 269.329 245.21C269.743 245.425 270.081 245.762 270.299 246.174C270.516 246.587 270.602 247.056 270.546 247.519C270.49 247.982 270.294 248.417 269.984 248.765C264.257 255.227 258.692 261.699 252.868 268.147Z" fill="#170C2C"/>
<path d="M173.392 157.654L171.37 157.854C165.301 158.479 159.105 158.944 152.919 158.989C152.833 158.989 152.754 158.989 152.671 158.989C152.62 158.993 152.57 158.993 152.519 158.989H152.498C151.56 158.933 150.646 158.673 149.819 158.227C148.992 157.782 148.272 157.161 147.71 156.409C147.147 155.656 146.755 154.79 146.562 153.871C146.368 152.951 146.377 152.001 146.588 151.085C146.668 150.74 146.754 150.395 146.84 150.05C146.927 149.705 147.009 149.36 147.099 149.015C147.213 148.567 147.327 148.122 147.444 147.673C148.155 145.038 148.938 142.378 150.132 139.932C150.615 138.924 151.182 137.958 151.826 137.044C151.83 137.034 151.836 137.025 151.843 137.016C154.085 133.863 157.615 131.396 161.479 131.362C165.343 131.327 168.827 133.663 171.139 136.702C173.112 139.304 174.333 142.374 175.355 145.486C175.531 146.01 175.7 146.542 175.862 147.07C175.962 147.384 176.055 147.697 176.152 148.008C176.169 148.056 176.183 148.105 176.196 148.153C176.196 148.184 176.217 148.208 176.224 148.236C176.262 148.356 176.3 148.477 176.334 148.581C176.355 148.639 176.372 148.701 176.39 148.76C176.704 149.795 177.014 150.796 177.318 151.813C177.509 152.458 177.555 153.137 177.454 153.802C177.352 154.466 177.105 155.1 176.73 155.658C176.355 156.216 175.861 156.685 175.284 157.03C174.707 157.375 174.061 157.588 173.392 157.654Z" fill="#FE1D00"/>
<path d="M172.387 209.039L171.069 195.856" stroke="white" stroke-width="2" stroke-linecap="round" stroke-linejoin="round"/>
<path d="M155.996 132.711C156.024 132.818 156.058 132.925 156.096 133.032C156.561 134.461 157.514 135.682 158.787 136.482C160.878 137.71 163.741 137.31 165.535 135.674C166.414 134.857 167.046 133.81 167.36 132.652" stroke="#010149" stroke-width="2" stroke-linecap="round" stroke-linejoin="round"/>
<path d="M186.477 136.143C187.727 143.113 190.063 149.843 193.401 156.088" stroke="#010149" stroke-width="2" stroke-linecap="round" stroke-linejoin="round"/>
<path d="M132.226 147.073C135.641 142.771 138.822 138.289 141.347 133.418C142.092 132.04 142.732 130.607 143.262 129.133" stroke="#010149" stroke-width="2" stroke-linecap="round" stroke-linejoin="round"/>
<path d="M168.323 121.86C168.322 122.132 168.303 122.403 168.264 122.671C168.074 124.097 167.392 125.412 166.335 126.388C165.277 127.363 163.912 127.938 162.475 128.013C161.038 128.087 159.621 127.657 158.468 126.796C157.316 125.935 156.501 124.698 156.165 123.299C156.049 122.828 155.991 122.345 155.992 121.86C155.993 120.397 156.513 118.982 157.461 117.867C158.409 116.752 159.723 116.01 161.167 115.775C161.49 115.723 161.817 115.698 162.144 115.699C162.953 115.697 163.755 115.856 164.504 116.165C165.252 116.474 165.932 116.928 166.505 117.5C167.078 118.073 167.532 118.752 167.841 119.501C168.151 120.249 168.31 121.051 168.309 121.86H168.323Z" stroke="#010149" stroke-width="2" stroke-linecap="round" stroke-linejoin="round"/>
<path d="M163.652 116.182C163.651 118.072 162.9 119.884 161.563 121.221C160.227 122.557 158.414 123.309 156.524 123.309C156.404 123.309 156.283 123.309 156.179 123.309C156.064 122.839 156.006 122.356 156.007 121.871C156.009 120.935 156.224 120.013 156.634 119.172C157.045 118.332 157.642 117.596 158.379 117.02C159.116 116.444 159.974 116.042 160.889 115.846C161.803 115.65 162.751 115.665 163.659 115.888C163.649 115.978 163.652 116.082 163.652 116.182Z" fill="#010149"/>
<path d="M168.323 121.86C168.323 122.132 168.303 122.403 168.264 122.671C167.965 122.714 167.663 122.736 167.36 122.737C165.713 122.737 164.134 122.082 162.969 120.918C161.805 119.753 161.15 118.174 161.15 116.527C161.15 116.28 161.165 116.033 161.195 115.788C161.518 115.737 161.845 115.712 162.172 115.713C162.981 115.711 163.783 115.87 164.532 116.179C165.28 116.488 165.96 116.942 166.533 117.514C167.106 118.086 167.56 118.766 167.869 119.514C168.179 120.263 168.338 121.065 168.337 121.874L168.323 121.86Z" fill="#010149"/>
<path d="M154.983 140.695C155.075 140.598 155.139 140.479 155.17 140.349L154.903 140.653L154.983 140.695Z" fill="#FFCC66"/>
<path d="M154.899 140.49L154.571 140.773L154.747 140.649C154.678 140.815 154.557 140.954 154.402 141.046C154.568 141.036 154.74 140.67 154.899 140.49Z" fill="#FFCC66"/>
<path d="M154.554 140.646C154.523 140.584 154.375 140.815 154.344 140.898C154.416 140.808 154.523 140.728 154.554 140.646Z" fill="#FFCC66"/>
<path d="M152.205 137.458C152.193 137.515 152.17 137.569 152.136 137.617C152.195 137.565 152.236 137.513 152.205 137.458Z" fill="#FFCC66"/>
<path d="M152.137 137.617L152.099 137.651H152.119L152.137 137.617Z" fill="#FFCC66"/>
<path d="M152.347 139.462C152.398 139.414 152.453 139.369 152.453 139.431C152.434 139.428 152.415 139.429 152.396 139.435C152.378 139.44 152.361 139.449 152.347 139.462Z" fill="#FFCC66"/>
<path d="M153.064 139.662C153.409 139.39 153.447 139.759 153.782 139.552C153.596 139.79 153.568 139.635 153.437 139.735V139.904L153.202 139.931C153.168 139.983 153.137 140.032 153.102 140.076C153.153 139.989 153.19 139.895 153.213 139.797C153.185 139.731 153.071 139.759 153.064 139.662Z" fill="#FFCC66"/>
<path d="M154.261 140.697C153.602 141.208 153.333 141.042 153.033 140.967C152.999 141.025 152.954 141.08 152.957 141.105C152.564 141.194 152.392 140.915 151.922 141.167L151.974 141.091C151.895 141.036 151.708 141.305 151.577 141.349C151.643 141.277 151.715 141.256 151.784 141.118C151.784 141.087 151.55 141.174 151.622 140.96C151.481 141.073 151.408 141.239 151.277 141.305L151.446 141.011C151.343 141.042 151.388 140.915 151.212 141.042L151.153 141.211C151.153 141.042 150.911 141.211 151.012 140.922L150.943 141.018C150.943 140.656 150.77 140.432 150.756 140.139C150.587 140.104 150.539 139.825 150.266 140.035C150.346 139.945 150.359 140.035 150.449 139.866C150.449 139.624 150.152 140.066 150.139 139.925C150.622 138.917 151.189 137.951 151.833 137.037C151.867 137.037 151.909 137.037 151.991 136.947L151.829 137.175C152.033 137.058 152.074 137.261 152.35 137.002C152.157 137.244 152.278 137.192 152.326 137.209L152.081 137.479C152.202 137.41 151.981 137.72 152.081 137.668C152.017 137.711 151.961 137.765 151.915 137.827C151.867 138.024 152.15 137.627 152.057 137.879L152.236 137.61C152.084 137.986 152.195 137.858 152.126 138.141C152.265 137.956 152.419 137.782 152.585 137.62C152.519 137.741 152.381 137.927 152.502 137.875C152.548 137.815 152.58 137.746 152.595 137.672C152.792 137.623 153.054 137.554 153.071 137.775C152.902 137.879 152.912 138.051 152.799 138.196L152.988 138.175C152.846 138.241 152.707 138.316 152.574 138.4C152.405 138.696 152.081 139.007 152.095 139.159C152.229 139.038 152.229 138.921 152.357 138.848C152.302 138.969 152.357 138.962 152.381 138.976C152.288 139.073 152.2 139.176 152.119 139.283C152.164 139.304 152.312 139.138 152.381 139.048C152.347 139.107 152.264 139.193 152.257 139.262C152.25 139.331 152.485 139.01 152.554 138.917C152.492 139.062 152.209 139.531 152.523 139.19L152.205 139.552C152.222 139.552 152.271 139.528 152.323 139.486C152.253 139.545 152.196 139.618 152.157 139.7C152.419 139.462 152.088 140.08 152.467 139.624L152.122 140.073C152.174 140.19 152.374 139.787 152.516 139.728C152.447 139.773 152.392 139.897 152.329 139.925C152.247 140.059 152.288 140.121 152.354 140.121C152.612 140.121 152.616 140.411 153.044 140.145C153.011 140.188 152.986 140.236 152.968 140.287C153.147 140.401 153.575 139.966 153.658 140.218C153.475 140.511 153.751 140.28 153.658 140.508C154.189 140.094 154.072 140.677 154.261 140.697Z" fill="#FFCC66"/>
<path d="M154.03 139.286L154.178 139.055L153.989 139.148C153.889 139.352 154.02 139.21 154.03 139.286Z" fill="#FFCC66"/>
<path d="M153.52 139.956L153.641 139.88L153.558 139.849L153.52 139.956Z" fill="#FFCC66"/>
<path d="M152.761 138.879L152.747 138.921L153.037 138.838L152.761 138.879Z" fill="#FFCC66"/>
<path d="M152.371 137.23C152.471 137.123 152.465 137.192 152.537 137.123L152.385 137.189L152.371 137.23Z" fill="#FFCC66"/>
<path d="M170.511 137.413C170.46 137.292 170.376 137.187 170.27 137.109L170.449 137.475L170.511 137.413Z" fill="#FFCC66"/>
<path d="M170.286 137.413L170.428 137.82L170.376 137.61C170.517 137.739 170.607 137.913 170.631 138.103C170.669 137.937 170.397 137.641 170.286 137.413Z" fill="#FFCC66"/>
<path d="M170.304 137.803C170.238 137.803 170.397 138.031 170.462 138.093C170.404 137.993 170.373 137.862 170.304 137.803Z" fill="#FFCC66"/>
<path d="M166.491 138.99C166.543 139.02 166.588 139.058 166.626 139.104C166.598 139.031 166.56 138.976 166.491 138.99Z" fill="#FFCC66"/>
<path d="M166.633 139.104L166.653 139.148C166.653 139.148 166.653 139.148 166.653 139.124L166.633 139.104Z" fill="#FFCC66"/>
<path d="M169.596 141.018C169.527 140.818 169.631 140.901 169.628 140.794L169.855 141.049C169.855 140.922 169.71 140.801 169.645 140.632C169.817 140.77 169.803 140.539 169.835 140.535C169.902 140.616 169.954 140.709 169.99 140.808C169.99 140.67 169.793 140.411 169.866 140.352L169.921 140.425C169.831 139.9 170.142 139.842 170.186 139.449C170.162 139.449 170.124 139.38 170.083 139.328C170.242 139.072 170.493 138.89 170.255 138.096C170.173 138.248 169.665 137.941 169.862 138.527C169.683 138.358 169.8 138.696 169.593 138.424C169.327 138.424 169.593 138.972 169.424 139.114C169.333 139.023 169.253 138.921 169.186 138.81L169.231 138.583L169.072 138.527C169.024 138.379 169.176 138.407 169.017 138.148C169.096 138.531 168.741 138.434 168.879 138.859C168.972 138.886 168.982 138.772 169.055 138.752C169.157 138.816 169.246 138.899 169.317 138.997C169.421 139.5 169.151 139.404 169.072 139.645C169.051 139.707 168.979 139.725 168.879 139.6C168.879 139.535 168.775 139.442 168.751 139.362C168.772 139.518 169.096 139.838 168.965 139.849L168.648 139.39C168.962 139.894 168.479 139.39 168.624 139.707C168.468 139.542 168.43 139.407 168.472 139.362C168.358 139.324 168.548 139.59 168.499 139.614L168.258 139.2C168.482 139.6 168.123 139.2 168.003 139.086C168.072 139.179 168.31 139.455 168.237 139.476C168.175 139.445 168.116 139.338 168.072 139.29C168.137 139.386 168.244 139.573 168.216 139.611C168.139 139.5 168.068 139.384 168.003 139.266C167.978 139.293 167.975 139.335 167.875 139.245C167.903 139.39 168.016 139.428 168.089 139.59C167.944 139.555 167.744 139.152 167.516 138.9C167.478 138.746 167.449 138.589 167.43 138.431L167.392 138.624C167.285 138.469 167.119 138.427 167.071 138.234C166.85 138.186 166.836 138.458 166.819 138.662C166.886 138.7 166.943 138.752 166.988 138.814C166.988 138.945 166.861 138.755 166.767 138.658C166.874 138.865 166.995 139.063 167.13 139.252C166.878 139.104 166.968 139.252 166.65 138.993L166.857 139.245C166.643 139.079 166.94 139.469 166.767 139.366C166.72 139.304 166.683 139.234 166.661 139.159C166.661 139.279 166.443 138.983 166.474 139.117L166.288 138.807C166.257 138.848 166.267 138.979 166.095 138.724C166.26 139.069 166.05 139.048 166.095 139.279L165.922 139.059C166.095 139.359 165.753 139.176 165.977 139.521L165.898 139.438L166.057 139.783C165.998 139.783 165.739 139.459 165.812 139.549C165.774 139.676 165.726 139.749 165.577 139.687C165.808 139.983 165.788 140.132 165.75 140.228C165.267 140.339 165.149 140.918 165.16 141.508C165.125 141.56 165.353 141.919 165.425 142.102C165.557 142.102 165.425 141.964 165.494 141.901C165.707 142.027 165.909 142.17 166.098 142.329L165.86 142.119C165.75 141.87 166.019 142.198 165.86 141.915L166.205 142.291C166.046 142.084 166.236 142.202 166.343 142.291L166.122 142.015C166.301 142.112 166.464 142.235 166.605 142.381L166.381 142.146C166.533 142.284 166.512 141.977 166.836 142.429C166.799 142.364 166.695 142.233 166.747 142.236L166.968 142.471C166.947 142.378 166.947 142.295 167.078 142.419C167.137 142.525 167.208 142.624 167.288 142.716C167.478 142.623 166.598 141.901 166.736 141.753L166.874 141.912L166.761 141.715L166.974 141.881C166.554 141.298 167.216 141.757 167.054 141.394C167.054 141.322 167.371 141.605 167.399 141.515L167.188 141.274C167.454 141.477 167.778 141.474 168.303 142.012C168.192 141.781 168.254 141.964 168.092 141.767C167.975 141.422 168.303 141.815 168.472 141.922C168.427 141.75 168.351 141.864 168.227 141.65C168.472 141.767 168.051 141.28 168.296 141.356C168.42 141.491 168.348 141.477 168.41 141.581C168.282 141.263 168.555 141.301 168.634 141.156C168.922 141.176 169.209 141.213 169.493 141.267L169.427 141.17C169.672 141.363 169.576 141.084 169.734 141.136L169.596 141.018Z" fill="#FFCC66"/>
<path d="M168.848 137.81L168.679 137.592L168.703 137.803C168.858 137.965 168.768 137.793 168.848 137.81Z" fill="#FFCC66"/>
<path d="M169.3 138.517L169.269 138.382L169.214 138.445L169.3 138.517Z" fill="#FFCC66"/>
<path d="M168.034 138.879L168.069 138.907L168.082 138.603L168.034 138.879Z" fill="#FFCC66"/>
<path d="M166.329 138.769C166.257 138.641 166.329 138.669 166.277 138.576V138.741L166.329 138.769Z" fill="#FFCC66"/>
<path d="M164.929 138.469C165.222 138.872 164.87 138.51 165.198 138.814C165.187 138.728 165.022 138.607 164.929 138.469Z" fill="#FFCC66"/>
<path d="M165.236 139.159C165.27 139.159 165.236 139.079 165.201 139.014C165.025 138.872 165.191 139.066 165.236 139.159Z" fill="#FFCC66"/>
<path d="M154.33 150.458C154.417 150.552 154.525 150.626 154.644 150.675L154.354 150.392L154.33 150.458Z" fill="#FFCC66"/>
<path d="M154.513 150.416L154.241 150.088L154.361 150.261C154.205 150.177 154.075 150.052 153.985 149.899C153.999 150.043 154.341 150.25 154.513 150.416Z" fill="#FFCC66"/>
<path d="M154.358 150.092C154.413 150.075 154.196 149.906 154.116 149.868C154.191 149.948 154.272 150.023 154.358 150.092Z" fill="#FFCC66"/>
<path d="M157.243 148.584C157.188 148.563 157.138 148.532 157.094 148.494C157.146 148.557 157.194 148.602 157.243 148.584Z" fill="#FFCC66"/>
<path d="M157.094 148.494L157.066 148.456V148.477L157.094 148.494Z" fill="#FFCC66"/>
<path d="M153.93 147.09C154.051 147.266 153.93 147.204 153.968 147.301L153.689 147.104C153.737 147.218 153.892 147.308 153.999 147.449C153.803 147.349 153.886 147.559 153.858 147.566C153.774 147.505 153.701 147.43 153.641 147.346C153.682 147.47 153.934 147.673 153.882 147.739L153.813 147.68C154.055 148.139 153.796 148.246 153.889 148.608C153.913 148.608 153.961 148.657 154.02 148.698C153.965 148.95 153.806 149.164 154.3 149.819C154.3 149.671 154.855 149.854 154.482 149.371C154.696 149.491 154.482 149.212 154.748 149.419C154.979 149.378 154.565 148.929 154.669 148.791C154.778 148.86 154.881 148.938 154.976 149.026L155.01 149.236L155.169 149.26C155.259 149.385 155.121 149.381 155.345 149.585C155.145 149.26 155.486 149.298 155.224 148.939C155.134 148.939 155.166 149.033 155.107 149.06C154.996 149.017 154.892 148.956 154.8 148.881C154.545 148.446 154.8 148.494 154.8 148.267C154.8 148.208 154.855 148.184 154.983 148.267C155.007 148.325 155.121 148.394 155.166 148.463C155.1 148.325 154.727 148.08 154.821 148.056L155.241 148.425C154.814 148.018 155.39 148.425 155.166 148.139C155.352 148.27 155.424 148.384 155.404 148.432C155.514 148.453 155.269 148.239 155.304 148.212L155.649 148.557C155.331 148.229 155.769 148.557 155.904 148.632C155.818 148.553 155.524 148.336 155.583 148.312C155.655 148.352 155.722 148.401 155.783 148.456C155.697 148.381 155.545 148.225 155.559 148.187C155.66 148.276 155.757 148.371 155.849 148.47C155.849 148.443 155.849 148.401 155.966 148.47C155.897 148.343 155.79 148.322 155.676 148.187C155.814 148.187 156.104 148.532 156.366 148.736C156.504 148.929 156.508 149.033 156.583 149.14L156.559 148.967C156.697 149.095 156.853 149.119 156.953 149.281C157.156 149.305 157.087 149.067 157.042 148.888C156.972 148.859 156.908 148.818 156.853 148.767C156.804 148.653 156.977 148.808 157.087 148.888C156.934 148.714 156.772 148.55 156.601 148.394C156.863 148.505 156.746 148.394 157.091 148.588L156.842 148.381C157.073 148.512 156.708 148.187 156.887 148.27C156.945 148.321 156.996 148.379 157.039 148.443C156.991 148.336 157.277 148.584 157.211 148.467L157.46 148.729C157.477 148.691 157.429 148.577 157.65 148.791C157.411 148.501 157.598 148.505 157.491 148.305L157.701 148.491C157.47 148.239 157.815 148.381 157.529 148.087L157.622 148.156L157.391 147.849C157.439 147.849 157.753 148.122 157.667 148.046C157.667 147.932 157.691 147.867 157.836 147.918C157.56 147.663 157.543 147.532 157.553 147.446C157.953 147.335 157.922 146.825 157.801 146.3C157.699 146.115 157.584 145.937 157.456 145.769C157.339 145.769 157.477 145.893 157.429 145.948C157.211 145.837 157.001 145.712 156.801 145.572L157.056 145.759C157.204 145.979 156.894 145.69 157.101 145.941L156.715 145.596C156.901 145.783 156.715 145.683 156.59 145.596L156.846 145.838C156.662 145.755 156.491 145.648 156.335 145.521L156.583 145.728C156.418 145.61 156.497 145.886 156.111 145.486C156.159 145.545 156.276 145.662 156.232 145.662L155.983 145.455C156.018 145.541 156.035 145.617 155.89 145.51C155.815 145.415 155.73 145.327 155.638 145.248C155.479 145.345 156.418 145.959 156.328 146.1L156.169 145.962L156.314 146.135L156.083 145.997C156.594 146.504 155.89 146.124 156.118 146.442C156.138 146.507 155.773 146.273 155.773 146.355L156.021 146.562C155.735 146.393 155.438 146.424 154.834 145.979C154.99 146.183 154.89 146.021 155.083 146.186C155.272 146.483 154.879 146.162 154.7 146.079C154.779 146.235 154.824 146.121 154.986 146.307C154.738 146.224 155.238 146.625 154.986 146.58C154.838 146.473 154.91 146.473 154.827 146.386C155.021 146.666 154.765 146.659 154.731 146.8C154.462 146.763 154.251 146.873 153.917 146.8L154.006 146.88C153.73 146.738 153.892 146.98 153.737 146.956L153.93 147.09Z" fill="#FFCC66"/>
<path d="M155.593 149.85L155.81 150.019L155.72 149.836C155.531 149.716 155.665 149.854 155.593 149.85Z" fill="#FFCC66"/>
<path d="M154.965 149.295L155.037 149.408L155.064 149.346L154.965 149.295Z" fill="#FFCC66"/>
<path d="M155.941 148.812L155.903 148.791L155.986 149.06L155.941 148.812Z" fill="#FFCC66"/>
<path d="M157.452 148.77C157.552 148.878 157.49 148.857 157.552 148.933L157.494 148.791L157.452 148.77Z" fill="#FFCC66"/>
<path d="M158.747 148.977C158.384 148.632 158.785 148.939 158.419 148.674C158.453 148.76 158.626 148.86 158.747 148.977Z" fill="#FFCC66"/>
<path d="M158.295 148.387C158.271 148.387 158.316 148.457 158.364 148.512C158.558 148.633 158.361 148.453 158.295 148.387Z" fill="#FFCC66"/>
<path d="M172.55 155.539C172.654 155.491 172.702 155.336 172.743 155.194L172.45 155.474L172.55 155.539Z" fill="#FFCC66"/>
<path d="M172.425 155.287L172.056 155.526L172.26 155.429C172.229 155.514 172.179 155.592 172.114 155.655C172.049 155.719 171.97 155.766 171.884 155.795C172.08 155.826 172.253 155.453 172.425 155.287Z" fill="#FFCC66"/>
<path d="M172.011 155.374C171.967 155.298 171.808 155.522 171.78 155.612C171.867 155.526 171.991 155.463 172.011 155.374Z" fill="#FFCC66"/>
<path d="M168.969 151.041C168.953 151.099 168.925 151.153 168.886 151.2C168.958 151.158 169.007 151.113 168.969 151.041Z" fill="#FFCC66"/>
<path d="M168.885 151.213L168.841 151.233H168.865L168.885 151.213Z" fill="#FFCC66"/>
<path d="M167.893 154.791C168.1 154.701 168.055 154.836 168.179 154.829L167.993 155.115C168.141 155.098 168.214 154.932 168.386 154.849C168.31 155.067 168.583 155.046 168.603 155.087C168.524 155.222 168.434 155.222 168.358 155.284C168.521 155.284 168.731 155.029 168.838 155.122L168.779 155.191C169.355 155.056 169.597 155.436 170.08 155.453C170.08 155.422 170.125 155.374 170.163 155.315C170.542 155.484 170.905 155.767 171.66 155.356C171.443 155.287 171.512 154.646 170.97 154.96C171.067 154.725 170.742 154.908 170.942 154.615C170.804 154.301 170.311 154.673 170.08 154.484C170.08 154.408 170.215 154.297 170.311 154.17L170.594 154.204L170.573 154.008C170.718 153.935 170.763 154.118 170.974 153.897C170.58 154.039 170.522 153.607 170.104 153.811C170.104 153.925 170.256 153.925 170.311 154.011C170.294 154.137 170.242 154.256 170.163 154.356C169.635 154.525 169.607 154.19 169.286 154.104C169.207 154.083 169.148 153.997 169.249 153.87C169.321 153.87 169.383 153.735 169.462 153.704C169.293 153.738 169.066 154.132 168.997 153.983L169.387 153.58C168.945 153.98 169.318 153.38 169.004 153.562C169.128 153.369 169.266 153.321 169.349 153.366C169.349 153.231 169.121 153.466 169.069 153.411L169.442 153.104C169.079 153.39 169.397 152.941 169.466 152.797C169.383 152.879 169.169 153.18 169.121 153.09C169.121 153.017 169.228 152.941 169.266 152.886C169.183 152.969 169.011 153.104 168.955 153.069C169.052 152.941 169.148 152.921 169.262 152.803C169.217 152.776 169.166 152.772 169.228 152.652C169.076 152.69 169.079 152.824 168.921 152.917C168.9 152.741 169.286 152.5 169.476 152.227C169.704 152.127 169.849 152.162 169.973 152.103L169.742 152.072C169.876 151.941 169.863 151.744 170.059 151.679C170.035 151.423 169.714 151.42 169.487 151.406C169.47 151.482 169.431 151.552 169.376 151.606C169.231 151.624 169.397 151.458 169.476 151.348C169.28 151.475 169.096 151.62 168.928 151.782C169.004 151.486 168.876 151.592 169.052 151.22L168.838 151.461C168.952 151.21 168.61 151.561 168.669 151.354C168.727 151.301 168.795 151.259 168.869 151.23C168.735 151.251 168.997 150.978 168.852 151.016L169.145 150.796C169.09 150.761 168.945 150.778 169.18 150.575C168.835 150.768 168.8 150.523 168.552 150.575L168.748 150.378C168.462 150.575 168.565 150.181 168.238 150.433L168.31 150.34L167.944 150.513C167.92 150.444 168.227 150.168 168.141 150.233C167.986 150.188 167.889 150.126 167.92 149.957C167.644 150.212 167.465 150.175 167.344 150.126C167.085 149.55 166.389 149.36 165.695 149.274C165.626 149.229 165.25 149.44 165.046 149.495C165.071 149.65 165.215 149.526 165.302 149.612C165.302 149.75 165.05 150.047 164.936 150.275L165.133 150.019C165.402 149.93 165.074 150.202 165.371 150.047L165.009 150.392C165.219 150.23 165.129 150.444 165.064 150.564L165.336 150.337C165.272 150.535 165.167 150.718 165.026 150.871L165.25 150.633C165.126 150.802 165.492 150.827 165.04 151.151C165.105 151.116 165.24 151.013 165.25 151.075L165.029 151.31C165.14 151.31 165.243 151.31 165.129 151.461C165.018 151.514 164.917 151.585 164.829 151.672C165.015 151.931 165.616 150.965 165.833 151.134L165.685 151.282L165.888 151.172L165.757 151.413C166.326 150.968 165.992 151.727 166.375 151.572C166.461 151.572 166.23 151.941 166.354 151.993L166.568 151.751C166.416 152.058 166.54 152.469 166.099 153.076C166.34 152.959 166.137 153.017 166.313 152.835C166.678 152.717 166.34 153.093 166.282 153.3C166.475 153.262 166.302 153.152 166.513 153.017C166.471 153.314 166.889 152.824 166.899 153.128C166.792 153.273 166.771 153.18 166.675 153.252C167.02 153.117 167.078 153.455 167.289 153.562C167.323 153.907 167.544 154.228 167.575 154.649L167.658 154.566C167.548 154.873 167.841 154.756 167.858 154.956L167.893 154.791Z" fill="#FFCC66"/>
<path d="M171.249 153.683L171.412 153.462L171.187 153.514C171.084 153.718 171.229 153.594 171.249 153.683Z" fill="#FFCC66"/>
<path d="M170.677 154.298L170.815 154.246L170.715 154.187L170.677 154.298Z" fill="#FFCC66"/>
<path d="M169.676 152.835L169.662 152.879L170.011 152.876L169.676 152.835Z" fill="#FFCC66"/>
<path d="M169.165 150.84C169.286 150.754 169.275 150.84 169.365 150.778L169.182 150.799L169.165 150.84Z" fill="#FFCC66"/>
<path d="M169.104 149.243C168.727 149.572 169.042 149.177 168.758 149.544C168.882 149.534 168.972 149.35 169.104 149.243Z" fill="#FFCC66"/>
<path d="M168.41 149.581C168.427 149.623 168.496 149.581 168.562 149.547C168.679 149.35 168.5 149.533 168.41 149.581Z" fill="#FFCC66"/>
<path d="M176.352 148.574C176.531 148.808 176.721 149.05 176.631 149.081C176.557 148.987 176.491 148.886 176.435 148.781L176.407 148.753C176.314 148.657 176.317 148.729 176.338 148.808L176.131 148.56C176.09 148.56 176.186 148.684 176.221 148.75C175.914 148.291 175.948 148.567 175.81 148.422L176.014 148.67C175.887 148.514 175.739 148.374 175.576 148.256L175.786 148.546C175.686 148.453 175.517 148.315 175.669 148.546L175.348 148.146C175.507 148.429 175.255 148.084 175.369 148.325L175.583 148.56C175.413 148.384 175.232 148.219 175.041 148.067C174.989 148.108 175.103 148.256 174.993 148.229C174.891 148.043 174.805 147.849 174.734 147.649C174.689 147.128 174.734 146.638 175.12 146.614C175.144 146.542 175.148 146.411 174.92 146.107C175.051 146.19 175.082 146.135 175.1 146.028C175.144 146.083 175.296 146.269 175.331 146.273L175.155 145.928L175.234 146.014C175.003 145.669 175.31 145.886 175.127 145.596L175.3 145.817C175.227 145.603 175.4 145.652 175.217 145.324C175.341 145.496 175.365 145.493 175.372 145.465C175.548 145.99 175.717 146.521 175.879 147.049C175.979 147.363 176.072 147.677 176.169 147.987C176.169 148.004 176.169 148.046 176.214 148.132C176.242 148.181 176.273 148.228 176.307 148.274L176.242 148.215L176.11 148.094L176.221 148.287L176.09 148.122C176.048 148.177 176.193 148.37 176.352 148.574Z" fill="#FFCC66"/>
<path d="M174.233 144.92C174.527 145.324 174.192 144.948 174.503 145.265C174.478 145.189 174.33 145.058 174.233 144.92Z" fill="#FFCC66"/>
<path d="M174.575 145.576C174.603 145.576 174.575 145.51 174.53 145.445C174.368 145.289 174.527 145.489 174.575 145.576Z" fill="#FFCC66"/>
<path d="M154.762 156.326C154.462 157.016 154.044 157.678 153.382 157.823C153.313 157.911 153.275 158.02 153.275 158.132C153.275 158.244 153.313 158.353 153.382 158.441C153.22 158.372 153.123 158.462 153.037 158.61C152.999 158.551 152.871 158.344 152.813 158.351L152.871 158.755L152.802 158.669C152.896 158.903 152.802 158.924 152.72 158.982C152.669 158.986 152.618 158.986 152.568 158.982V158.955C152.569 158.963 152.569 158.971 152.568 158.979C151.031 158.896 149.576 158.259 148.473 157.185C148.535 157.123 148.593 157.068 148.749 157.185L148.69 157.082C149.128 157.151 149.532 157.002 149.891 157.044C150.07 156.857 150.439 156.864 150.401 156.495C150.45 156.609 150.346 156.609 150.46 156.75C150.774 156.805 150.405 156.278 150.698 156.385C150.625 156.143 150.456 156.291 150.481 156.088C150.67 156.195 150.953 156.619 150.946 156.226C150.815 156.005 150.812 156.226 150.767 155.953C151.25 156.533 151.709 156.495 151.974 156.716L151.798 156.443C151.892 156.333 152.195 156.643 152.223 156.557C152.181 156.136 152.858 156.636 152.568 155.971L152.771 156.153L152.723 155.926L152.83 156.105C153.075 155.922 152.264 155.115 152.585 154.984C152.646 155.091 152.688 155.208 152.709 155.329C152.827 155.474 152.871 155.37 152.896 155.26L153.072 155.532C153.141 155.532 153.072 155.377 153.072 155.305C153.272 155.826 153.417 155.463 153.541 155.622L153.365 155.35C153.483 155.523 153.64 155.666 153.824 155.767L153.668 155.446C153.775 155.539 153.972 155.674 153.865 155.446L154.127 155.888C154.055 155.543 154.238 155.94 154.227 155.646L154.024 155.398C154.224 155.56 154.458 155.871 154.596 155.898C154.714 155.829 154.627 155.66 154.797 155.667C154.728 155.846 154.834 156.267 154.762 156.326Z" fill="#FFCC66"/>
<path d="M149.162 148.753C149.226 148.641 149.266 148.516 149.279 148.387L149.093 148.732L149.162 148.753Z" fill="#FFCC66"/>
<path d="M149.07 148.588L148.835 148.933L148.966 148.767C148.932 148.942 148.851 149.104 148.731 149.236C148.863 149.188 148.959 148.798 149.07 148.588Z" fill="#FFCC66"/>
<path d="M148.8 148.832C148.769 148.784 148.675 149.043 148.658 149.129C148.715 149.035 148.763 148.936 148.8 148.832Z" fill="#FFCC66"/>
<path d="M147.603 148.581L147.516 148.798C147.555 148.687 147.577 148.571 147.582 148.453C147.537 148.408 147.447 148.47 147.427 148.381C147.675 148.015 147.772 148.35 147.999 148.056C147.882 148.332 147.837 148.198 147.751 148.325L147.782 148.484L147.603 148.581Z" fill="#FFCC66"/>
<path d="M148.552 148.967C148.079 149.636 147.837 149.56 147.586 149.592C147.564 149.641 147.55 149.693 147.544 149.747C147.275 149.93 147.103 149.792 146.837 150.023C146.92 149.678 147.006 149.333 147.096 148.988C147.199 149.012 147.289 149.057 147.51 148.795C147.487 148.841 147.473 148.891 147.468 148.943C147.63 148.991 147.92 148.46 148.031 148.663C147.92 148.988 148.117 148.688 148.072 148.929C148.427 148.429 148.42 149.002 148.552 148.967Z" fill="#FFCC66"/>
<path d="M148.175 147.729L148.261 147.47L148.116 147.615C148.068 147.832 148.151 147.66 148.175 147.729Z" fill="#FFCC66"/>
<path d="M147.854 148.504L147.94 148.401L147.868 148.394L147.854 148.504Z" fill="#FFCC66"/>
<path d="M248.667 236.259L234.694 255.586" stroke="white" stroke-width="2" stroke-linecap="round" stroke-linejoin="round"/>
<path d="M179.449 274.606L153.626 277.386" stroke="white" stroke-width="2" stroke-linecap="round" stroke-linejoin="round"/>
</svg>
