<svg width="345" height="345" viewBox="0 0 345 345" fill="none" xmlns="http://www.w3.org/2000/svg">
<path d="M145.645 146.873C152.352 139.094 164.596 136.755 173.697 141.516C175.315 142.361 176.906 143.489 177.64 145.162C178.073 146.231 178.21 147.396 178.037 148.536C177.616 151.869 175.332 154.746 172.486 156.547C169.64 158.348 166.276 159.117 162.947 159.514C159.473 159.932 155.616 159.839 152.942 157.593C150.803 155.805 149.516 152.763 146.804 152.1C147.205 152.193 143.12 155.957 141.536 155.912C139.087 155.847 136.906 154.125 136.924 151.662C136.934 148.35 143.865 141.343 145.645 146.873Z" fill="#FFF3F2"/>
<path d="M69.1448 87.1884C67.5681 85.5773 65.9225 83.7384 63.6938 83.3934C62.4895 83.2459 61.2732 83.5486 60.2785 84.2433C59.2838 84.9381 58.5809 85.9759 58.3049 87.1574C55.6277 83.7281 52.0949 79.9331 47.7893 80.5541C44.1599 81.075 41.6483 84.87 41.5655 88.5615C41.4827 92.253 43.2905 95.703 45.4778 98.6562C47.2028 101.006 49.9145 103.372 52.7228 102.534C54.5616 101.986 55.7243 100.229 56.7282 98.5976C57.2147 100.157 58.9086 100.954 60.4404 101.53C61.6652 101.992 62.9451 102.437 64.2527 102.348C65.5602 102.258 66.9092 101.502 67.299 100.254C67.6164 99.2186 67.268 98.0111 67.8614 97.1175C68.8964 95.5271 71.3114 96.569 73.1123 97.1865C75.0305 97.8455 77.2523 97.7558 78.9773 96.6794C81.8235 94.8957 82.686 90.4694 78.9014 90.39C77.4696 90.3659 76.2759 91.5044 74.7096 91.2146C72.5637 90.8213 70.5972 88.665 69.1448 87.1884Z" fill="#FFF3F2"/>
<path d="M228.549 294.223H319.021C318.797 293.36 318.552 292.519 318.362 291.725C316.982 285.984 317.003 279.698 316.023 273.851C315.333 269.711 314.505 265.591 312.967 261.7C312.342 260.123 311.587 258.553 310.341 257.391C309.096 256.228 307.315 255.535 305.684 255.987C304.052 256.439 302.865 257.943 302.085 259.478C300.916 261.789 300.329 264.349 299.757 266.875L294.488 290.114C294.455 290.411 294.319 290.687 294.102 290.894C293.647 291.239 293.012 290.828 292.66 290.383C291.725 289.189 291.401 287.623 290.697 286.291C289.993 284.96 288.575 283.718 287.105 284.094C286.466 284.309 285.892 284.684 285.439 285.184C283.59 286.968 281.834 289.296 279.277 289.455C277.897 289.534 276.586 288.931 275.379 288.265C266.392 283.314 260.088 274.385 251.043 269.538C248.755 268.313 246.064 267.354 243.604 268.158C242.266 268.603 241.145 269.538 240.123 270.504C233.565 276.745 231.215 284.432 228.897 292.905C228.78 293.336 228.659 293.778 228.549 294.223Z" fill="#FFF3F2"/>
<path d="M233.593 294.223H20.9656C33.6367 284.495 47.4013 276.281 61.9792 269.748C68.441 266.854 75.2962 264.249 82.3721 264.515C85.7255 264.642 89.0203 265.412 92.2357 266.367C110.866 271.887 128.061 283.797 147.512 283.983C160.128 284.104 172.176 279.226 184.461 276.345C189.636 275.134 194.977 274.275 200.245 274.934C204.875 275.513 209.287 277.252 213.448 279.364C220.938 283.169 227.746 288.19 233.593 294.223Z" fill="#FFF3F2"/>
<path d="M34.9863 294.223H32.3436L32.8232 275.814L33.2165 260.616H34.11L34.5068 275.814L34.9863 294.223Z" fill="#FFF3F2"/>
<path d="M34.4999 275.814C34.2219 275.862 33.9402 275.886 33.6581 275.886C33.3759 275.887 33.0943 275.862 32.8163 275.814L33.2096 260.616H34.1031L34.4999 275.814Z" fill="#FFF3F2"/>
<path d="M42.6074 256.211C42.6074 256.977 42.5832 257.732 42.5349 258.477C42.5349 258.55 42.5349 258.626 42.5177 258.702V258.864L42.497 259.123C42.2879 262.044 41.6232 264.914 40.527 267.63C40.4511 267.81 40.3718 267.975 40.2924 268.165C39.8933 269.052 39.4129 269.899 38.8572 270.697C38.7468 270.853 38.6364 271.004 38.5122 271.153C37.1322 272.947 35.4521 273.989 33.6822 273.989C32.748 273.977 31.8354 273.706 31.0464 273.206C30.9119 273.123 30.7808 273.033 30.6497 272.94L30.6117 272.912C30.5013 272.833 30.3944 272.75 30.2667 272.66C28.6349 271.325 27.2549 269.055 26.2613 266.185C26.2199 266.067 26.1819 265.95 26.144 265.84C26.0129 265.443 25.8921 265.032 25.799 264.615C25.7645 264.498 25.7334 264.377 25.7024 264.253C25.0517 261.629 24.7273 258.935 24.7364 256.232V256.152C24.7364 256.038 24.7364 255.928 24.7364 255.807C24.7347 255.78 24.7347 255.752 24.7364 255.724C24.7397 252.142 25.3835 248.589 26.6373 245.233C26.7167 245.04 26.7926 244.85 26.8719 244.664C27.0824 244.177 27.3066 243.711 27.5412 243.284C27.6309 243.111 27.7275 242.939 27.8207 242.777C29.3904 240.075 31.4363 238.44 33.6857 238.44C34.4376 238.445 35.178 238.625 35.8488 238.964C35.9661 239.023 36.0869 239.088 36.1938 239.157C36.6023 239.397 36.9849 239.678 37.3358 239.996C37.4496 240.096 37.56 240.203 37.6808 240.31C39.1746 241.797 40.4408 244.105 41.2998 246.899C41.3378 247.02 41.3757 247.141 41.4102 247.265C41.5942 247.879 41.7564 248.514 41.8967 249.169C41.9243 249.29 41.9484 249.411 41.9726 249.514C42.4073 251.72 42.6199 253.963 42.6074 256.211Z" fill="#FFF3F2"/>
<path d="M37.6601 240.299C36.031 240.592 34.4187 240.972 32.8301 241.438L32.3195 241.759C30.8636 242.679 29.3974 243.579 27.9208 244.46C27.4861 244.719 27.0548 244.978 26.6167 245.233C26.696 245.04 26.7719 244.85 26.8513 244.664L27.9449 244.019C29.1317 243.308 30.3116 242.584 31.4846 241.848C30.1495 242.276 28.8281 242.756 27.524 243.273C27.6137 243.101 27.7103 242.928 27.8035 242.766C29.4008 242.145 31.0258 241.583 32.6714 241.103C33.7444 240.413 34.807 239.723 35.8213 238.954C35.9386 239.013 36.0593 239.078 36.1663 239.147C35.4211 239.72 34.6517 240.251 33.8651 240.765C35.0151 240.462 36.1651 240.202 37.3151 239.985C37.4393 240.086 37.5497 240.192 37.6601 240.299Z" fill="#FFF3F2"/>
<path d="M40.5168 267.63C40.4409 267.81 40.3615 267.975 40.2822 268.165L39.3645 268.624C36.8345 269.88 34.3045 271.119 31.7745 272.343L30.5877 272.912C30.4773 272.833 30.3703 272.75 30.2427 272.66C31.1673 272.215 32.0919 271.77 33.0027 271.318C35.4798 270.135 37.9224 268.941 40.365 267.72L40.5168 267.63Z" fill="#FFF3F2"/>
<path d="M25.9887 255.576L24.7191 256.225V256.145C24.7191 256.031 24.7191 255.921 24.7191 255.8C24.7173 255.773 24.7173 255.745 24.7191 255.717C25.6471 255.234 26.5821 254.755 27.5136 254.279C32.1538 251.916 36.8286 249.614 41.2722 246.882C41.3101 247.003 41.3481 247.124 41.3826 247.248C38.6226 248.945 35.766 250.477 32.8818 251.96C35.7703 250.711 38.7828 249.769 41.869 249.152C41.8966 249.273 41.9208 249.394 41.9449 249.497L41.3101 249.625C38.6238 250.224 35.9978 251.067 33.4648 252.143C30.9291 253.178 28.4382 254.341 25.9887 255.576Z" fill="#FFF3F2"/>
<path d="M42.5349 258.477C42.5349 258.55 42.5349 258.626 42.5176 258.702V258.864L42.4969 259.123C41.8069 259.433 41.1169 259.737 40.4062 260.04L31.971 263.701C30.0666 264.529 28.1633 265.357 26.2612 266.185C26.2198 266.068 26.1819 265.95 26.1439 265.84L33.5959 262.6C36.2559 261.444 38.9193 260.299 41.5723 259.13L41.7586 259.047C40.0336 259.464 38.3569 259.961 36.6802 260.482C34.2422 261.239 31.8364 262.093 29.4628 263.045C28.2208 263.538 26.9938 264.061 25.7817 264.615C25.7472 264.498 25.7161 264.377 25.6851 264.253C27.5849 263.397 29.5111 262.604 31.4638 261.872C33.9616 260.938 36.4916 260.11 39.0538 259.388C40.213 259.057 41.3688 258.75 42.5349 258.477Z" fill="#FFF3F2"/>
<path d="M38.847 270.697C38.7366 270.853 38.6262 271.004 38.502 271.153C36.0352 271.767 33.5788 272.429 31.1431 273.168L31.0224 273.206C30.8878 273.123 30.7567 273.033 30.6256 272.94C31.5456 272.657 32.4656 272.386 33.3856 272.126C35.198 271.615 37.0185 271.139 38.847 270.697Z" fill="#FFF3F2"/>
<path d="M144.203 293.057H142.626L142.913 282.072L143.151 273.005H143.682L143.917 282.072L144.203 293.057Z" fill="#FFF3F2"/>
<path d="M143.917 282.072C143.751 282.1 143.584 282.113 143.416 282.113C143.248 282.113 143.079 282.1 142.913 282.072L143.147 273.005H143.682L143.917 282.072Z" fill="#FFF3F2"/>
<path d="M148.75 270.377C148.75 270.835 148.75 271.284 148.709 271.729V271.863V271.96V272.112C148.584 273.856 148.187 275.569 147.532 277.19C147.487 277.297 147.439 277.404 147.391 277.508C147.154 278.038 146.868 278.544 146.535 279.019C146.47 279.112 146.404 279.205 146.335 279.291C145.5 280.361 144.51 280.982 143.444 280.982C142.886 280.976 142.342 280.815 141.871 280.516C141.791 280.468 141.712 280.413 141.633 280.357H141.612L141.415 280.206C140.443 279.409 139.611 278.053 139.025 276.342C139 276.273 138.98 276.2 138.956 276.131C138.88 275.893 138.807 275.652 138.738 275.4C138.721 275.331 138.7 275.258 138.683 275.186C138.293 273.621 138.099 272.014 138.107 270.401V270.352C138.107 270.283 138.107 270.218 138.107 270.149V270.101C138.109 267.962 138.493 265.842 139.242 263.839C139.287 263.725 139.335 263.611 139.383 263.494C139.508 263.204 139.639 262.925 139.78 262.662C139.835 262.559 139.891 262.459 139.949 262.362C140.884 260.751 142.105 259.775 143.441 259.775C143.889 259.778 144.331 259.886 144.731 260.089C144.803 260.123 144.872 260.161 144.941 260.203C145.189 260.344 145.42 260.512 145.631 260.703C145.7 260.761 145.766 260.827 145.831 260.889C146.722 261.776 147.47 263.145 147.991 264.822C148.015 264.894 148.036 264.967 148.057 265.039C148.164 265.405 148.26 265.785 148.346 266.174C148.346 266.247 148.378 266.319 148.391 266.392C148.644 267.705 148.764 269.04 148.75 270.377Z" fill="#FFF3F2"/>
<path d="M145.8 260.882C144.83 261.062 143.87 261.293 142.923 261.572L142.619 261.765C141.755 262.313 140.88 262.85 139.994 263.376L139.218 263.835C139.263 263.721 139.311 263.608 139.359 263.49L140.008 263.104C140.714 262.678 141.418 262.247 142.119 261.81C141.322 262.065 140.536 262.352 139.756 262.659C139.811 262.555 139.866 262.455 139.925 262.359C140.877 261.986 141.847 261.651 142.826 261.365C143.468 260.958 144.103 260.544 144.707 260.085C144.779 260.12 144.848 260.158 144.917 260.199C144.476 260.544 144.013 260.858 143.537 261.165C144.227 260.983 144.911 260.828 145.59 260.699C145.669 260.754 145.735 260.82 145.8 260.882Z" fill="#FFF3F2"/>
<path d="M147.505 277.19C147.46 277.297 147.412 277.404 147.363 277.508L146.818 277.784C145.314 278.533 143.805 279.273 142.292 280.002L141.584 280.347L141.388 280.195L143.044 279.395C144.5 278.684 145.956 277.977 147.405 277.245L147.505 277.19Z" fill="#FFF3F2"/>
<path d="M138.835 269.997L138.079 270.387V270.339C138.079 270.27 138.079 270.204 138.079 270.135V270.087L139.746 269.228C142.506 267.82 145.311 266.444 147.957 264.815C147.981 264.888 148.001 264.96 148.022 265.033C146.373 266.043 144.669 266.958 142.951 267.844C144.673 267.097 146.471 266.535 148.312 266.168C148.312 266.24 148.343 266.312 148.357 266.385L147.977 266.461C146.375 266.814 144.808 267.313 143.296 267.951C141.795 268.569 140.298 269.262 138.835 269.997Z" fill="#FFF3F2"/>
<path d="M148.695 271.729V271.863V271.96V272.112C148.281 272.298 147.863 272.481 147.446 272.66L142.419 274.844L139.011 276.328C138.987 276.259 138.966 276.186 138.942 276.117L143.389 274.185C144.976 273.495 146.566 272.805 148.15 272.115L148.26 272.064C147.225 272.315 146.228 272.609 145.228 272.919C143.775 273.371 142.337 273.882 140.922 274.451C140.184 274.748 139.451 275.059 138.724 275.386C138.707 275.317 138.686 275.244 138.669 275.172C139.801 274.661 140.951 274.188 142.119 273.751C143.606 273.192 145.121 272.698 146.652 272.267C147.315 272.077 148.005 271.888 148.695 271.729Z" fill="#FFF3F2"/>
<path d="M146.508 279.019C146.442 279.112 146.377 279.205 146.308 279.291C144.834 279.657 143.368 280.054 141.916 280.492L141.843 280.516C141.764 280.468 141.685 280.413 141.605 280.357C142.155 280.187 142.705 280.025 143.254 279.871C144.335 279.567 145.42 279.283 146.508 279.019Z" fill="#FFF3F2"/>
<path d="M305.083 154.946V147.629H302.544L304.345 145.255L298.125 147.629H279.526V154.946H305.083Z" fill="#FE1D00"/>
<path d="M212.499 223.463C213.592 222.962 214.791 222.739 215.991 222.815C217.401 222.974 218.712 223.62 219.698 224.641C220.684 225.663 221.284 226.995 221.393 228.411C224.191 228.017 226.268 225.737 228.418 223.905C231.505 221.273 235.387 219.296 239.458 219.448C243.529 219.599 247.62 222.321 248.428 226.299C248.535 226.806 248.628 227.396 249.073 227.679C249.518 227.962 249.98 227.797 250.453 227.79C251.981 227.762 253.306 229.253 253.258 230.781C253.209 232.309 251.933 233.658 250.436 233.969C249.676 234.098 248.897 234.03 248.172 233.771C247.447 233.512 246.801 233.07 246.296 232.489C245.975 232.123 245.606 231.671 245.119 231.743C244.828 231.825 244.573 232.004 244.398 232.251C242.239 234.574 239.582 236.38 236.627 237.533C233.671 238.685 230.493 239.154 227.331 238.906C226.458 238.866 225.6 238.659 224.806 238.295C222.86 237.291 221.873 234.793 219.769 234.2C218.099 236.577 214.217 236.96 212.13 234.928C211.751 234.583 211.382 234.114 210.864 234.045C209.356 233.848 207.963 236.239 206.403 234.479C205.496 233.444 206.172 232.471 206.569 231.374C207.756 228.076 209.098 224.957 212.499 223.463Z" fill="#FFF3F2"/>
<path d="M282.086 61.2893C282.734 60.9926 283.445 60.8599 284.156 60.9029C284.999 60.9975 285.783 61.3831 286.372 61.9933C286.961 62.6035 287.32 63.4001 287.385 64.2459C289.058 64.0113 290.297 62.6486 291.584 61.5549C293.429 59.9783 295.748 58.7949 298.173 58.8881C300.599 58.9812 303.051 60.6131 303.538 62.9832C303.6 63.2868 303.659 63.6387 303.924 63.8009C304.187 63.8976 304.471 63.9203 304.745 63.8664C305.203 63.8879 305.634 64.087 305.947 64.4213C306.26 64.7557 306.431 65.199 306.422 65.657C306.385 66.1139 306.2 66.5463 305.896 66.8891C305.592 67.232 305.184 67.4667 304.735 67.5579C304.283 67.6348 303.819 67.5939 303.388 67.4392C302.956 67.2845 302.572 67.0212 302.272 66.6747C302.079 66.4574 301.854 66.1848 301.582 66.2297C301.407 66.279 301.254 66.386 301.147 66.5333C299.857 67.9221 298.27 69.001 296.503 69.6893C294.737 70.3775 292.838 70.6573 290.949 70.5077C290.428 70.4857 289.916 70.3626 289.441 70.1454C288.279 69.5451 287.689 68.0513 286.429 67.6994C286.166 68.0384 285.836 68.32 285.459 68.5268C285.083 68.7336 284.669 68.8613 284.241 68.902C283.814 68.9427 283.382 68.8956 282.974 68.7635C282.565 68.6315 282.188 68.4173 281.865 68.1341C281.675 67.8831 281.411 67.6984 281.109 67.6062C280.209 67.4855 279.385 68.9172 278.443 67.865C277.901 67.2543 278.305 66.6644 278.543 66.0054C279.25 64.0458 280.05 62.1828 282.086 61.2893Z" fill="#FFF3F2"/>
<path d="M23.4945 194.949C24.1845 195.37 24.7986 195.95 25.5645 196.167C27.7622 196.785 29.0145 195.353 30.5153 194.097C37.7603 187.887 48.9141 186.162 58.0428 188.125C60.9926 188.756 63.9078 189.795 66.4263 191.485C68.6964 193.01 70.2627 196.177 72.8571 197.074C75.2169 197.885 77.18 195.122 79.5225 194.259C81.7202 193.448 84.3525 194.542 85.629 196.515C86.9055 198.489 86.8779 201.121 85.8947 203.253C85.3734 204.368 84.6198 205.358 83.6844 206.157C82.749 206.956 81.6534 207.546 80.4713 207.887C78.0183 208.577 75.4619 208.128 73.0538 207.197C72.0419 206.807 70.9403 206.711 69.8762 206.92C68.8121 207.129 67.829 207.636 67.0404 208.38C65.0918 210.228 62.7818 211.652 60.2557 212.563C57.7296 213.475 55.0423 213.853 52.3628 213.675C49.6833 213.497 47.0698 212.766 44.6867 211.528C42.3036 210.29 40.2025 208.572 38.5158 206.483C37.5912 205.341 36.5183 203.95 35.0486 204.068C33.6686 204.174 32.8026 205.568 31.9125 206.641C31.0224 207.714 29.3112 208.587 28.3383 207.59C27.9554 207.2 27.7829 206.6 27.5966 206.041C27.5313 205.844 27.4198 205.666 27.2714 205.521C27.123 205.376 26.942 205.269 26.7437 205.208C26.5453 205.148 26.3354 205.136 26.1314 205.173C25.9275 205.211 25.7354 205.296 25.5714 205.423C24.0465 206.6 22.2146 207.421 20.3205 207.252C19.4215 207.17 18.5664 206.825 17.8611 206.262C17.1559 205.698 16.6315 204.94 16.353 204.081C16.3115 203.94 16.241 203.809 16.146 203.696C16.051 203.583 15.9335 203.491 15.8011 203.426C15.6688 203.362 15.5243 203.325 15.377 203.319C15.2297 203.313 15.0827 203.337 14.9454 203.391C11.8611 204.637 12.3303 201.546 13.9587 199.093C16.0667 195.915 19.4615 192.479 23.4945 194.949Z" fill="#FFF3F2"/>
<path d="M178.413 89.1963H108.344C103.51 89.1963 99.5912 93.115 99.5912 97.9489V123.803C99.5912 128.637 103.51 132.556 108.344 132.556H178.413C183.247 132.556 187.166 128.637 187.166 123.803V97.9489C187.166 93.115 183.247 89.1963 178.413 89.1963Z" fill="#FFEFA1"/>
<path d="M187.166 96.4999V96.1549H179.897V89.1963H179.552V96.1687H172.624V89.1963H172.279V96.1687H165.355V89.1963H165.01V96.1687H158.086V89.1963H157.741V96.1687H150.806V89.1963H150.461V96.1687H143.544V89.1963H143.199V96.1687H136.275V89.1963H135.93V96.1687H129.006V89.1963H128.661V96.1687H121.726V89.1963H121.381V96.1687H114.464V89.1963H114.119V96.1687H107.195V89.1963H106.85V96.1687H99.5946V96.5137H106.864V103.452H99.5946V103.797H106.864V110.71H99.5946V111.055H106.864V117.99H99.5946V118.335H106.864V125.235H99.5946V125.58H106.864V132.552H107.209V125.58H114.147V132.552H114.492V125.58H121.43V132.552H121.775V125.58H128.685V132.552H129.03V125.58H135.93V132.552H136.275V125.58H143.213V132.552H143.558V125.58H150.496V132.552H150.841V125.58H157.775V132.552H158.12V125.58H165.058V132.552H165.403V125.58H172.293V132.552H172.638V125.58H179.576V132.552H179.921V125.58H187.19V125.235H179.897V118.311H187.166V117.966H179.897V111.042H187.166V110.697H179.897V103.773H187.166V103.428H179.897V96.4999H187.166ZM172.293 96.4999V103.438H165.355V96.4999H172.293ZM157.751 110.71H150.817V103.773H157.751V110.71ZM158.096 103.773H165.034V110.71H158.086L158.096 103.773ZM150.506 110.71H143.544V103.773H150.482L150.506 110.71ZM143.237 110.71H136.275V103.773H143.213L143.237 110.71ZM135.968 110.71H129.006V103.773H135.93L135.968 110.71ZM128.695 110.71H121.761V103.773H128.685L128.695 110.71ZM121.426 110.71H114.464V103.773H121.402L121.426 110.71ZM121.426 111.055V117.99H114.464V111.042L121.426 111.055ZM121.771 111.055H128.685V117.99H121.751L121.771 111.055ZM129.04 111.055H135.93V117.99H129.006L129.04 111.055ZM136.31 111.055H143.247V117.99H136.275L136.31 111.055ZM143.579 111.055H150.517V117.99H143.544L143.579 111.055ZM150.851 111.055H157.786V117.99H150.851V111.055ZM158.12 111.055H165.058V117.99H158.086L158.12 111.055ZM165.39 111.055H172.293V117.99H165.355L165.39 111.055ZM165.39 110.71V103.773H172.293V110.71H165.39ZM165.045 96.4999V103.438H158.086V96.4999H165.045ZM157.772 96.4999V103.438H150.837V96.4999H157.772ZM150.503 96.4999V103.438H143.544V96.4999H150.503ZM143.234 96.4999V103.438H136.275V96.4999H143.234ZM135.965 96.4999V103.438H129.006V96.4999H135.965ZM128.692 96.4999V103.438H121.757V96.4999H128.692ZM121.423 96.4999V103.438H114.464V96.4999H121.423ZM107.216 96.4999H114.154V103.438H107.195L107.216 96.4999ZM107.216 103.773H114.154V110.71H107.195L107.216 103.773ZM107.216 111.042H114.154V117.99H107.195L107.216 111.042ZM107.216 125.249V118.311H114.154V125.235L107.216 125.249ZM114.485 125.249V118.311H121.423V125.235L114.485 125.249ZM121.757 125.249V118.311H128.685V125.235L121.757 125.249ZM129.027 125.249V118.311H135.93V125.235L129.027 125.249ZM136.275 125.235V118.311H143.213V125.235H136.275ZM143.544 125.235V118.311H150.482V125.235H143.544ZM150.817 125.235V118.311H157.751V125.235H150.817ZM158.086 125.235V118.311H165.024V125.235H158.086ZM165.355 125.235V118.311H172.293V125.235H165.355ZM179.562 125.235H172.624V118.311H179.562V125.235ZM179.562 117.966H172.624V111.042H179.562V117.966ZM179.562 110.697H172.624V103.773H179.562V110.697ZM179.562 103.424H172.624V96.4999H179.562V103.424Z" fill="#E51F29"/>
<path d="M107.195 125.235C107.195 125.235 121.419 129.758 136.275 111.028C150.686 92.8602 163.744 101.213 169.343 105.953C174.943 110.693 181.015 110.262 183.192 105.953" fill="#FE1D00"/>
<path d="M181.998 100.102H199.996V104.783H181.998V100.102Z" fill="#282828"/>
<path d="M183.192 101.73H195.729V102.21H183.192V101.73Z" fill="#FE1D00"/>
<path d="M183.192 102.882H197.892V103.362H183.192V102.882Z" fill="#FE1D00"/>
<path d="M90.0277 119.781H108.026V124.462H90.0277V119.781Z" fill="#282828"/>
<path d="M91.2214 121.412H103.759V121.892H91.2214V121.412Z" fill="#FE1D00"/>
<path d="M123.865 258.008V246.523H127.847L125.021 242.801L134.781 246.523H163.972V258.008H123.865Z" fill="#170C2C"/>
<path d="M106.012 72.0015V80.4713H103.072L105.159 83.2175L97.9593 80.4713H76.4313V72.0015H106.012Z" fill="#A51300"/>
<path d="M291.542 77.6078V86.0775H294.482L292.398 88.8237L299.595 86.0775H321.126V77.6078H291.542Z" fill="#FFEFA1"/>
<path d="M177.858 50.7771V75.2756H186.352L180.325 83.2175L201.145 75.2756H263.404V50.7771H177.858Z" fill="#FE1D00"/>
<path d="M190.185 61.2237C191.267 61.2237 192.144 60.3464 192.144 59.2641C192.144 58.1818 191.267 57.3045 190.185 57.3045C189.102 57.3045 188.225 58.1818 188.225 59.2641C188.225 60.3464 189.102 61.2237 190.185 61.2237Z" fill="#FFEFA1"/>
<path d="M190.185 60.9235C191.191 60.9235 192.156 61.3234 192.868 62.0351C193.58 62.7468 193.98 63.712 193.98 64.7185V66.8299C193.98 67.2764 193.802 67.7047 193.487 68.0204C193.171 68.3361 192.743 68.5135 192.296 68.5135H188.073C187.627 68.5135 187.199 68.3361 186.883 68.0204C186.567 67.7047 186.39 67.2764 186.39 66.8299V64.7185C186.39 63.712 186.789 62.7468 187.501 62.0351C188.213 61.3234 189.178 60.9235 190.185 60.9235Z" fill="#FFEFA1"/>
<path d="M202.905 55.3H258.339V57.3011H202.905V55.3Z" fill="#282828"/>
<path d="M202.905 62.1863H243.453V64.1873H202.905V62.1863Z" fill="#282828"/>
<path d="M202.905 67.8167H215.032V69.8176H202.905V67.8167Z" fill="#282828"/>
<path d="M167.322 162.429H52.2227C50.8051 162.429 49.6559 163.579 49.6559 164.996V233.748C49.6559 235.165 50.8051 236.315 52.2227 236.315H167.322C168.739 236.315 169.888 235.165 169.888 233.748V164.996C169.888 163.579 168.739 162.429 167.322 162.429Z" fill="#FFEFA1"/>
<path d="M169.892 186.814V186.359H159.908V176.785H159.452V186.359H149.927V176.785H149.471V186.359H139.946V176.785H139.49V186.359H129.965V176.785H129.51V186.359H119.984V176.785H119.525V186.359H110.003V176.785H109.544V186.359H100.019V176.785H99.5635V186.359H90.045V176.785H89.5896V186.359H80.0573V176.785H79.6018V186.359H70.0764V176.785H69.621V186.359H60.0956V176.785H59.6401V186.359H49.6593V186.814H59.6401V196.34H49.6593V196.795H59.6401V206.31H49.6593V206.765H59.6401V216.315H49.6593V216.77H59.6401V226.296H49.6593V226.755H59.6401V236.325H60.0956V226.741H69.621V236.325H70.0764V226.741H79.6018V236.325H80.0573V226.741H89.5827V236.325H90.045V226.741H99.5704V236.325H100.026V226.741H109.551V236.325H110.01V226.741H119.532V236.325H119.991V226.741H129.516V236.325H129.972V226.741H139.497V236.325H139.953V226.741H149.478V236.325H149.934V226.741H159.459V236.325H159.914V226.741H169.899V226.282H159.908V216.757H169.892V216.315H159.908V206.776H169.892V206.31H159.908V196.795H169.892V196.34H159.908V186.814H169.892ZM149.471 186.814V196.34H139.946V186.814H149.471ZM129.51 206.31H119.984V196.795H129.51V206.31ZM129.965 196.785H139.49V206.31H129.965V196.785ZM119.525 206.31H110.003V196.795H119.525V206.31ZM109.544 206.31H100.019V196.795H109.544V206.31ZM99.5635 206.31H90.045V196.795H99.5704L99.5635 206.31ZM89.5827 206.31H80.0573V196.795H89.5827V206.31ZM79.6018 206.31H70.0764V196.795H79.6018V206.31ZM79.6018 206.765V216.315H70.0764V206.776L79.6018 206.765ZM80.0573 206.765H89.5827V216.315H80.0573V206.765ZM90.0381 206.765H99.5635V216.315H90.045L90.0381 206.765ZM100.019 206.765H109.544V216.315H100.019V206.765ZM110.003 206.765H119.525V216.315H110.003V206.765ZM119.984 206.765H129.51V216.315H119.984V206.765ZM129.965 206.765H139.49V216.315H129.965V206.765ZM139.946 206.765H149.471V216.315H139.946V206.765ZM139.946 206.31V196.795H149.471V206.31H139.946ZM139.49 186.804V196.34H129.965V186.814L139.49 186.804ZM129.51 186.804V196.34H119.984V186.814L129.51 186.804ZM119.525 186.804V196.34H110.003V186.814L119.525 186.804ZM109.544 186.804V196.34H100.019V186.814L109.544 186.804ZM99.5635 186.804V196.34H90.045V186.814L99.5635 186.804ZM89.5827 186.804V196.34H80.0573V186.814L89.5827 186.804ZM79.6018 186.804V196.34H70.0764V186.814L79.6018 186.804ZM60.0956 186.804H69.621V196.34H60.0956V186.804ZM60.0956 196.785H69.621V206.31H60.0956V196.785ZM60.0956 206.765H69.621V216.315H60.0956V206.765ZM60.0956 226.272V216.757H69.621V226.282L60.0956 226.272ZM70.0764 226.272V216.757H79.6018V226.282L70.0764 226.272ZM80.0573 226.272V216.757H89.5827V226.282L80.0573 226.272ZM90.0381 226.272V216.757H99.5635V226.282L90.0381 226.272ZM100.019 226.272V216.757H109.544V226.282L100.019 226.272ZM110.003 226.272V216.757H119.525V226.282L110.003 226.272ZM119.984 226.272V216.757H129.51V226.282L119.984 226.272ZM129.965 226.272V216.757H139.49V226.282L129.965 226.272ZM139.946 226.272V216.757H149.471V226.282L139.946 226.272ZM159.452 226.272H149.927V216.757H159.452V226.272ZM159.452 216.291H149.927V206.776H159.452V216.291ZM159.452 206.31H149.927V196.795H159.452V206.31ZM159.452 196.329H149.927V186.814H159.452V196.329Z" fill="#E0CE85"/>
<path d="M70.0764 226.282L79.6019 216.757L99.5636 206.776H119.525L139.49 196.795L149.471 186.814" stroke="#282828" stroke-width="2" stroke-miterlimit="10" stroke-linecap="round"/>
<path d="M139.67 197.757C140.3 197.757 140.812 197.246 140.812 196.616C140.812 195.985 140.3 195.474 139.67 195.474C139.039 195.474 138.528 195.985 138.528 196.616C138.528 197.246 139.039 197.757 139.67 197.757Z" fill="#FE1D00"/>
<path d="M119.805 207.69C120.435 207.69 120.947 207.179 120.947 206.548C120.947 205.917 120.435 205.406 119.805 205.406C119.174 205.406 118.663 205.917 118.663 206.548C118.663 207.179 119.174 207.69 119.805 207.69Z" fill="#FE1D00"/>
<path d="M99.8222 207.69C100.453 207.69 100.964 207.179 100.964 206.548C100.964 205.917 100.453 205.406 99.8222 205.406C99.1916 205.406 98.6803 205.917 98.6803 206.548C98.6803 207.179 99.1916 207.69 99.8222 207.69Z" fill="#FE1D00"/>
<path d="M79.8916 217.65C80.5223 217.65 81.0335 217.139 81.0335 216.508C81.0335 215.877 80.5223 215.366 79.8916 215.366C79.2609 215.366 78.7496 215.877 78.7496 216.508C78.7496 217.139 79.2609 217.65 79.8916 217.65Z" fill="#FE1D00"/>
<path d="M70.0764 227.424C70.7071 227.424 71.2183 226.913 71.2183 226.282C71.2183 225.651 70.7071 225.14 70.0764 225.14C69.4457 225.14 68.9344 225.651 68.9344 226.282C68.9344 226.913 69.4457 227.424 70.0764 227.424Z" fill="#FE1D00"/>
<path d="M149.647 187.604C150.278 187.604 150.789 187.093 150.789 186.462C150.789 185.831 150.278 185.32 149.647 185.32C149.017 185.32 148.505 185.831 148.505 186.462C148.505 187.093 149.017 187.604 149.647 187.604Z" fill="#FE1D00"/>
<path d="M121.657 207.942H132.88V210.743H121.657V207.942Z" fill="#282828"/>
<path d="M151.893 183.661H163.116V186.462H151.893V183.661Z" fill="#282828"/>
<path d="M65.6086 213.966H76.8315V216.767H65.6086V213.966Z" fill="#282828"/>
<path d="M165.252 171.772H54.7481C54.5785 171.772 54.441 171.91 54.441 172.079V172.083C54.441 172.252 54.5785 172.39 54.7481 172.39H165.252C165.421 172.39 165.559 172.252 165.559 172.083V172.079C165.559 171.91 165.421 171.772 165.252 171.772Z" fill="#282828"/>
<path d="M54.441 166.262H91.1939V172.079H54.441V166.262Z" fill="#282828"/>
<path d="M39.3231 120.495H42.7352V146.918H39.3231V120.495Z" fill="#282828"/>
<path d="M42.7317 128.295H46.1437V146.918H42.7317V128.295Z" fill="#FE1D00"/>
<path d="M46.1438 124.335H49.5558V146.918H46.1438V124.335Z" fill="#282828"/>
<path d="M49.5558 126.794H52.9678V146.918H49.5558V126.794Z" fill="#FE1D00"/>
<path d="M52.9644 133.708H56.3764V146.918H52.9644V133.708Z" fill="#282828"/>
<path d="M56.3765 115.541H59.7885V146.922H56.3765V115.541Z" fill="#FE1D00"/>
<path d="M59.7885 117.811H63.2005V146.922H59.7885V117.811Z" fill="#282828"/>
<path d="M63.2006 142.782H66.6126V146.918H63.2006V142.782Z" fill="#FE1D00"/>
<path d="M66.6091 130.389H70.0212V146.918H66.6091V130.389Z" fill="#282828"/>
<path d="M70.0212 134.647H73.4333V146.918H70.0212V134.647Z" fill="#FE1D00"/>
<path d="M316.744 122.751H295.924C295.051 122.751 294.344 123.458 294.344 124.331V137.696C294.344 138.569 295.051 139.276 295.924 139.276H316.744C317.617 139.276 318.325 138.569 318.325 137.696V124.331C318.325 123.458 317.617 122.751 316.744 122.751Z" fill="#FFEFA1"/>
<path d="M320.66 128.94C323.877 128.94 326.484 126.333 326.484 123.117C326.484 119.9 323.877 117.293 320.66 117.293C317.444 117.293 314.837 119.9 314.837 123.117C314.837 126.333 317.444 128.94 320.66 128.94Z" fill="#282828"/>
<path d="M299.363 126.774H304.766V128.136H299.363V126.774Z" fill="#FE1D00"/>
<path d="M299.363 128.871H304.766V130.234H299.363V128.871Z" fill="#FE1D00"/>
<path d="M299.363 131.994H304.766V132.194H299.363V131.994Z" fill="#282828"/>
<path d="M299.363 132.715H304.766V132.915H299.363V132.715Z" fill="#282828"/>
<path d="M299.363 133.436H304.766V133.636H299.363V133.436Z" fill="#282828"/>
<path d="M299.363 134.157H304.766V134.357H299.363V134.157Z" fill="#282828"/>
<path d="M299.363 134.878H304.766V135.078H299.363V134.878Z" fill="#282828"/>
<path d="M306.695 126.774H313.253V135.078H306.695V126.774Z" stroke="#282828" stroke-width="2" stroke-miterlimit="10"/>
<path d="M271.805 104.808H268.393V78.384H271.805V104.808Z" fill="#FFEFA1"/>
<path d="M268.396 104.808H264.984V95.496H268.396V104.808Z" fill="#FE1D00"/>
<path d="M275.203 104.808H271.791V92.9706H275.203V104.808Z" fill="#FE1D00"/>
<path d="M264.984 104.808H261.572V87.1228H264.984V104.808Z" fill="#FFEFA1"/>
<path d="M278.615 104.808H275.203V84.2939H278.615V104.808Z" fill="#FFEFA1"/>
<path d="M261.572 104.808H258.16V98.1491H261.572V104.808Z" fill="#FE1D00"/>
<path d="M237.733 106.405C241.822 106.405 245.136 103.09 245.136 99.0012C245.136 94.9123 241.822 91.5975 237.733 91.5975C233.644 91.5975 230.329 94.9123 230.329 99.0012C230.329 103.09 233.644 106.405 237.733 106.405Z" stroke="#170C2C" stroke-width="2" stroke-linecap="round" stroke-linejoin="round"/>
<path d="M241.134 88.32C237.219 86.7502 233.034 87.9922 231.788 91.0972C231.632 91.488 231.526 91.8973 231.474 92.3151C231.004 92.3958 230.556 92.5705 230.155 92.8288C229.754 93.087 229.41 93.4235 229.142 93.8181C228.874 94.2126 228.689 94.6571 228.597 95.1249C228.506 95.5928 228.509 96.0743 228.608 96.5407C228.707 97.0072 228.898 97.4489 229.172 97.8394C229.445 98.2299 229.795 98.5612 230.199 98.8135C230.604 99.0658 231.055 99.2338 231.526 99.3076C231.997 99.3813 232.478 99.3593 232.941 99.2427C234.163 98.949 235.448 99.0579 236.604 99.5532H236.625C240.544 101.123 244.729 99.881 245.975 96.7759C247.22 93.6709 245.054 89.8759 241.134 88.32Z" fill="#170C2C"/>
<path d="M303.945 291.991H273.764C269.894 291.991 268.244 287.057 271.349 284.746L276.749 280.727C272.336 247.017 263.984 210.857 253.634 177.365C253.634 177.365 236.363 204.371 228.173 216.874C230.618 226.212 233.059 235.553 235.497 244.898C236.417 248.436 237.337 251.971 238.257 255.504C241.431 267.648 244.629 279.847 247.803 291.991H215.494C214.739 291.991 214.003 291.755 213.39 291.316C212.776 290.876 212.316 290.255 212.074 289.54C211.831 288.825 211.819 288.052 212.039 287.33C212.259 286.608 212.7 285.974 213.3 285.515L218.095 281.865C218.095 281.865 205.917 243.539 201.711 224.378C200.628 219.444 199.538 214.373 200.231 209.374C200.769 205.506 202.346 201.863 203.992 198.316C210.881 183.503 219.264 169.431 229.011 156.32C236.328 146.48 245.316 138.38 258.364 138.859C264.505 139.087 270.987 141.312 275.71 145.317C276.05 145.602 276.372 145.907 276.673 146.232C277.034 146.61 277.372 147.008 277.687 147.425C280.792 151.538 282.172 157.579 283.352 162.26C284.417 166.534 285.443 170.822 286.429 175.125C286.836 176.896 287.238 178.671 287.633 180.449C295.802 217.179 301.254 254.46 303.945 291.991Z" fill="#170C2C"/>
<path d="M249.28 162.495C249.28 162.495 252.637 173.618 254.338 179.535" stroke="white" stroke-width="2" stroke-linecap="round" stroke-linejoin="round"/>
<path d="M226.561 114.416C219.576 123.469 212.211 132.221 204.464 140.674C200.859 135.53 196.981 130.348 193.376 125.204C192.863 124.556 192.469 123.822 192.21 123.037C192.068 122.387 192.02 121.72 192.068 121.057L192.158 117.062C192.235 116.122 192.142 115.175 191.886 114.267C191.567 113.489 191.12 112.77 190.564 112.139C188.97 110.119 187.3 108.164 185.555 106.274C185.328 106.022 185.032 105.842 184.704 105.758C184.375 105.673 184.029 105.687 183.709 105.798C182.56 106.236 182.753 107.674 183.129 108.713C183.631 110.1 184.233 111.449 184.93 112.749C185.432 113.703 185.574 114.805 185.331 115.854C184.682 118.666 183.923 121.519 183.33 124.314C183.33 124.207 183.547 125.004 183.561 124.897" stroke="#170C2C" stroke-width="2" stroke-linecap="round" stroke-linejoin="round"/>
<path d="M184.23 126.66C183.332 124.195 182.309 121.777 181.166 119.415C180.752 118.563 179.997 117.566 179.096 117.855C178.389 118.083 178.165 118.959 178.061 119.694C177.62 122.864 177.325 126.049 177.178 129.251C177.116 130.555 177.085 131.893 177.523 133.125C177.895 134.067 178.399 134.951 179.021 135.751C184.897 144.076 191.232 152.068 197.996 159.69C200.756 162.795 205.606 163.54 209.125 161.308C210.474 160.453 211.571 159.255 212.648 158.069C218.793 151.297 224.773 144.38 230.588 137.317" stroke="#170C2C" stroke-width="2" stroke-linecap="round" stroke-linejoin="round"/>
<path d="M228.511 139.773L217.892 125.283" stroke="#170C2C" stroke-width="2" stroke-linecap="round" stroke-linejoin="round"/>
<path d="M268.679 105.015C274.544 109.358 279.719 114.578 284.863 119.777C286.763 121.698 288.661 123.618 290.559 125.539C292.546 127.55 294.551 129.585 295.948 132.031C297.928 135.509 297.928 139.535 297.076 143.341C296.224 147.146 294.947 150.793 293.667 154.45L285.191 178.672C284.82 179.876 284.313 181.033 283.68 182.122C282.964 183.225 282.002 184.147 280.87 184.816C279.739 185.486 278.467 185.884 277.156 185.979" stroke="#170C2C" stroke-width="2" stroke-linecap="round" stroke-linejoin="round"/>
<path d="M263.877 128.357C268.631 132.7 273.544 136.861 278.615 140.843C276.852 146.78 273.685 152.6 271.167 158.258C268.648 163.916 266.702 170.092 267.503 176.233C268.424 183.312 272.888 189.446 277.963 194.466C278.519 195.015 279.164 195.591 279.943 195.598C281.099 195.598 281.906 194.294 281.799 193.141C281.693 191.989 280.965 191.002 280.264 190.081L274.71 182.774" stroke="#170C2C" stroke-width="2" stroke-linecap="round" stroke-linejoin="round"/>
<path d="M280.261 195.563C280.611 196.331 280.745 197.181 280.647 198.02C280.63 198.331 280.552 198.635 280.415 198.916C280.279 199.196 280.088 199.446 279.854 199.651C279.623 199.807 279.361 199.913 279.087 199.962C278.812 200.011 278.53 200.001 278.26 199.934C277.709 199.815 277.2 199.549 276.787 199.165C276.007 198.475 275.438 197.464 274.965 196.512C273.125 192.843 271.407 189.121 269.811 185.344C269.466 184.502 269.121 183.65 268.793 182.791C268.14 181.128 267.768 179.367 267.692 177.582" stroke="#170C2C" stroke-width="2" stroke-linecap="round" stroke-linejoin="round"/>
<path d="M276.787 199.165C276.502 199.788 276.024 200.302 275.424 200.631C274.977 200.877 274.465 200.98 273.957 200.925C273.45 200.87 272.972 200.66 272.588 200.324C271.898 199.672 271.743 198.668 271.608 197.737C270.874 192.72 269.936 187.74 268.793 182.795C268.638 182.105 268.476 181.415 268.31 180.749" stroke="#170C2C" stroke-width="2" stroke-linecap="round" stroke-linejoin="round"/>
<path d="M268.389 132.387C271.856 125.695 274.466 118.593 276.155 111.249" stroke="#170C2C" stroke-width="2" stroke-linecap="round" stroke-linejoin="round"/>
<path d="M277.152 185.983C278.464 185.889 279.735 185.491 280.867 184.822C281.998 184.153 282.959 183.23 283.673 182.125C284.31 181.039 284.817 179.881 285.184 178.675L286.422 175.139" stroke="white" stroke-width="2" stroke-linecap="round" stroke-linejoin="round"/>
<path d="M276.69 146.232C275.003 150.31 272.936 154.325 271.17 158.258C268.651 163.916 266.685 170.088 267.499 176.233C268.424 183.309 272.885 189.443 277.96 194.463C278.518 195.015 279.16 195.587 279.947 195.601C280.053 195.6 280.16 195.589 280.264 195.567C281.247 195.363 281.893 194.187 281.796 193.152C281.696 191.999 280.968 191.016 280.264 190.088C279.227 188.729 278.192 187.364 277.159 185.993L274.717 182.788" stroke="white" stroke-width="2" stroke-linecap="round" stroke-linejoin="round"/>
<path d="M280.261 195.563C280.611 196.331 280.745 197.181 280.647 198.02C280.63 198.331 280.552 198.636 280.415 198.916C280.279 199.196 280.088 199.446 279.854 199.652C279.623 199.807 279.361 199.913 279.087 199.962C278.812 200.011 278.53 200.001 278.26 199.934C277.709 199.815 277.2 199.549 276.787 199.165C276.007 198.475 275.438 197.464 274.965 196.512C273.125 192.844 271.407 189.121 269.811 185.344C269.466 184.503 269.121 183.65 268.793 182.791C268.14 181.128 267.768 179.367 267.692 177.582" stroke="white" stroke-width="2" stroke-linecap="round" stroke-linejoin="round"/>
<path d="M276.787 199.165C276.502 199.788 276.024 200.302 275.424 200.631C274.977 200.877 274.465 200.98 273.957 200.925C273.45 200.87 272.972 200.66 272.588 200.324C271.898 199.672 271.743 198.668 271.608 197.737C270.874 192.72 269.936 187.74 268.793 182.795C268.638 182.105 268.476 181.415 268.31 180.749" stroke="white" stroke-width="2" stroke-linecap="round" stroke-linejoin="round"/>
<path d="M261.934 127.101C259.468 128.054 256.89 128.93 254.262 129.751C252.882 130.177 251.502 130.588 250.122 130.986C249.207 131.241 248.293 131.497 247.362 131.745L245.668 132.194C241.983 133.163 238.305 134.043 234.772 134.874C233.894 132.985 233.312 130.972 233.047 128.906C233.003 128.561 232.961 128.233 232.93 127.892C232.833 126.904 232.786 125.913 232.789 124.921C232.785 124.887 232.785 124.852 232.789 124.818C232.789 124.7 232.789 124.586 232.789 124.473V124.404C232.789 124.059 232.809 123.696 232.827 123.344C232.827 123.3 232.827 123.248 232.827 123.203C232.827 123.158 232.827 123.12 232.827 123.082C232.827 122.906 232.847 122.737 232.865 122.568V122.537C232.865 122.447 232.865 122.358 232.885 122.271C232.885 122.213 232.885 122.161 232.885 122.113C232.884 122.091 232.884 122.069 232.885 122.047C232.884 122.039 232.884 122.031 232.885 122.023C232.885 121.937 232.906 121.851 232.913 121.771C232.934 121.592 232.954 121.426 232.978 121.233C233.03 120.847 233.085 120.467 233.158 120.095C233.23 119.722 233.303 119.315 233.392 118.939C233.461 118.642 233.534 118.352 233.62 118.066C235.29 112.211 239.344 107.733 246.33 107.64C247.085 107.627 247.84 107.679 248.586 107.795C248.931 107.854 249.276 107.926 249.621 108.016C251.409 108.49 253.033 109.445 254.317 110.776C254.4 110.859 254.475 110.942 254.555 111.028C254.555 111.028 254.586 111.062 254.603 111.08C254.961 111.467 255.295 111.876 255.604 112.304L255.621 112.325C255.635 112.345 255.648 112.366 255.659 112.387C255.675 112.403 255.689 112.422 255.7 112.442C255.804 112.58 255.9 112.722 255.997 112.87C256.02 112.895 256.04 112.923 256.056 112.953C256.128 113.06 256.194 113.167 256.263 113.281C256.525 113.705 256.787 114.133 257.035 114.561C257.239 114.906 257.439 115.251 257.629 115.596C258.215 116.665 258.76 117.755 259.254 118.877C259.399 119.198 259.537 119.525 259.671 119.853C259.699 119.912 259.723 119.974 259.747 120.036C259.83 120.243 260.161 121.14 260.547 122.223C260.547 122.229 260.547 122.235 260.547 122.24C260.585 122.344 260.623 122.451 260.658 122.558C260.668 122.577 260.675 122.598 260.679 122.62C260.92 123.31 261.165 124.028 261.369 124.69C261.37 124.699 261.37 124.708 261.369 124.718C261.374 124.739 261.381 124.759 261.389 124.78C261.391 124.789 261.391 124.798 261.389 124.807C261.391 124.817 261.391 124.828 261.389 124.838C261.389 124.838 261.389 124.838 261.389 124.859C261.389 124.88 261.389 124.883 261.389 124.897C261.424 125.011 261.458 125.128 261.496 125.242C261.886 126.294 262.065 127.05 261.934 127.101Z" fill="#FE1D00"/>
<path d="M249.628 108.002C245.971 112.202 241.731 115.857 237.039 118.856C236.673 119.091 236.308 119.318 235.935 119.546C234.976 120.132 233.997 120.69 232.999 121.219C233.051 120.833 233.106 120.453 233.179 120.081C233.668 119.812 234.157 119.534 234.645 119.249L235.742 118.59C240.527 115.633 244.856 111.993 248.59 107.785C248.945 107.84 249.29 107.913 249.628 108.002Z" fill="#FFEFA1"/>
<path d="M259.699 119.891C258.303 120.05 256.908 120.183 255.514 120.291L254.41 120.371C251.13 120.603 247.84 120.669 244.553 120.567C241.653 120.478 238.767 120.131 235.928 119.532C235.493 119.439 235.066 119.339 234.638 119.235C234.21 119.132 233.813 119.025 233.406 118.911C233.475 118.614 233.548 118.325 233.634 118.038C234.324 118.242 235.014 118.418 235.735 118.577C236.166 118.673 236.598 118.763 237.032 118.846C242.87 119.97 248.949 119.881 254.931 119.353L256.031 119.253C257.119 119.149 258.2 119.034 259.274 118.908C259.44 119.235 259.564 119.563 259.699 119.891Z" fill="#FFEFA1"/>
<path d="M257.656 115.634C257.169 116.871 256.629 118.081 256.038 119.263C255.866 119.608 255.693 119.953 255.514 120.298C253.639 123.813 251.383 127.11 248.786 130.131C248.521 130.441 248.255 130.748 247.982 131.052C247.775 131.286 247.565 131.517 247.355 131.742L245.661 132.19C246.024 131.813 246.381 131.431 246.73 131.045C247.006 130.745 247.275 130.441 247.541 130.134C250.187 127.144 252.491 123.868 254.41 120.367C254.593 120.022 254.755 119.698 254.938 119.36C255.739 117.81 256.449 116.214 257.063 114.581C257.266 114.933 257.467 115.282 257.656 115.634Z" fill="#FFEFA1"/>
<path d="M254.265 129.751C252.885 130.177 251.505 130.588 250.125 130.986C249.419 131.021 248.713 131.04 248.007 131.045C247.589 131.045 247.172 131.045 246.754 131.045C242.108 131.031 237.49 130.308 233.061 128.902C233.016 128.557 232.975 128.23 232.944 127.888C237.658 129.446 242.6 130.206 247.565 130.134H248.811C250.608 130.065 252.43 129.951 254.265 129.751Z" fill="#FFEFA1"/>
<path d="M218.095 281.848L245.875 284.604" stroke="white" stroke-width="2" stroke-linecap="round" stroke-linejoin="round"/>
<path d="M276.756 280.716L303.272 283.228" stroke="white" stroke-width="2" stroke-linecap="round" stroke-linejoin="round"/>
<path d="M275.313 138.207L281.037 142.775" stroke="#170C2C" stroke-width="2" stroke-linecap="round" stroke-linejoin="round"/>
<path d="M207.39 137.451L202.277 143.082" stroke="#170C2C" stroke-width="2" stroke-linecap="round" stroke-linejoin="round"/>
</svg>
