<svg width="345" height="346" viewBox="0 0 345 346" fill="none" xmlns="http://www.w3.org/2000/svg">
<path d="M167.767 112.625C168.015 112.117 168.268 111.61 168.526 111.104C169.837 108.523 171.134 105.539 174.222 104.749C179.673 103.369 186.228 105.228 189.357 110.207C191.082 112.942 191.751 116.417 192.376 119.522C192.851 121.87 193.187 124.244 193.38 126.632C193.542 128.723 193.932 131.396 193.148 133.404C193.036 133.737 192.852 134.04 192.609 134.294C192.367 134.547 192.071 134.744 191.744 134.871C191.301 134.98 190.84 135.003 190.388 134.936C183.616 134.384 176.837 133.86 170.116 132.821C167.995 132.476 165.545 132.735 163.623 131.607C160.132 129.564 162.809 124.634 163.806 121.881C164.962 118.728 166.284 115.638 167.767 112.625Z" fill="#3C23A3"/>
<path d="M174.915 104.048C174.915 104.176 174.932 104.307 174.95 104.438C175.106 106.157 175.858 107.768 177.075 108.992C179.1 110.91 182.398 111.19 184.813 109.813C186.004 109.116 186.977 108.101 187.621 106.881" stroke="#282828" stroke-width="2" stroke-linecap="round" stroke-linejoin="round"/>
<path d="M63.1349 129.837C61.6479 129.709 60.4818 129.416 59.7608 127.94C59.3699 126.997 59.1367 125.997 59.0708 124.979C58.6499 122.016 58.1151 118.98 58.5291 115.982C58.9776 112.725 60.4784 110.997 63.3281 109.541C68.4444 106.922 74.3405 105.007 79.8881 103.555C91.694 100.45 107.674 98.5317 121.73 98.4696C136.164 98.4389 150.567 99.8174 164.734 102.585" stroke="#282828" stroke-width="2" stroke-linecap="round" stroke-linejoin="round"/>
<path d="M68.8202 117.517C68.8202 117.517 67.1504 118.676 65.798 119.76C64.9948 120.364 64.2886 121.088 63.7038 121.905C62.8344 123.206 62.9552 124.665 63.0138 126.142L63.176 130.972C63.2174 132.097 63.1035 133.805 63.9936 134.633C64.1905 134.797 64.4181 134.921 64.6633 134.998C64.9084 135.074 65.1662 135.101 65.4219 135.078C66.2397 134.987 67.0376 134.766 67.7852 134.422C68.7512 134.036 69.6654 133.387 70.0242 132.373C70.2055 131.744 70.2687 131.086 70.2105 130.434L70.0346 125.145" stroke="#282828" stroke-width="2" stroke-linecap="round" stroke-linejoin="round"/>
<path d="M154.747 124.662C125.56 118.314 102.79 121.14 87.7268 126.211C82.2896 128.04 75.6104 130.827 70.1318 127.76" stroke="#282828" stroke-width="2" stroke-linecap="round" stroke-linejoin="round"/>
<path d="M70.0146 132.376C70.5343 132.61 71.1014 132.719 71.6707 132.694C72.2881 132.65 72.8893 132.477 73.4351 132.185C73.9809 131.893 74.4589 131.489 74.8378 131C75.2698 130.439 75.5885 129.799 75.7762 129.116" stroke="#CABFF7" stroke-width="2" stroke-linecap="round" stroke-linejoin="round"/>
<path d="M260.999 87.4607L242.366 88.8924L239.488 53.3609L258.122 51.9291L260.999 87.4607Z" fill="#FF6B6B"/>
<path d="M261 87.4607L242.366 88.8924L240.572 91.7318L259.206 90.2966L261 87.4607Z" fill="#282828"/>
<path d="M240.572 91.7318L242.366 88.8924L239.489 53.3609L237.691 56.2002L240.572 91.7318Z" fill="#282828"/>
<path d="M253.552 56.9795C254.21 56.9063 254.681 56.2797 254.603 55.5799C254.525 54.8801 253.928 54.372 253.27 54.4452C252.612 54.5183 252.141 55.145 252.219 55.8448C252.297 56.5446 252.893 57.0526 253.552 56.9795Z" fill="#282828"/>
<path d="M197.229 133.774C206.213 138.107 215.378 142.029 224.723 145.541C228.09 146.808 231.533 148.032 235.117 148.274C238.702 148.515 242.497 147.67 245.122 145.238C247.151 143.368 248.324 140.753 249.404 138.217C255.824 123.096 260.916 107.443 266.002 91.8112C266.85 89.1961 267.727 86.5396 267.861 83.7865C267.996 81.2783 267.54 78.7771 267.085 76.3034L265.436 67.3334C265.232 66.08 264.852 64.8616 264.308 63.7144C264.047 63.181 263.614 62.7511 263.079 62.4938C262.544 62.2366 261.938 62.167 261.358 62.2964C260.171 62.6 259.502 64.2733 259.844 65.4014C259.844 65.4014 258.439 63.8282 256.994 64.4285C255.548 65.0288 255.372 67.3748 255.372 67.3748C255.372 67.3748 252.043 64.4527 250.822 67.9061C250.177 69.7208 250.446 71.7011 250.773 73.5883C251.282 76.5657 251.355 79.6012 250.991 82.5997C247.775 83.5691 244.591 85.0768 242.431 87.6574C240.272 90.238 239.351 94.0813 240.879 97.1035C237.405 105.973 233.941 114.509 230.463 123.375C219.648 118.545 208.635 113.318 197.819 108.475" stroke="#282828" stroke-width="2" stroke-linecap="round" stroke-linejoin="round"/>
<path d="M255.331 66.8953C256.186 72.6476 256.625 78.454 256.646 84.2695" stroke="#282828" stroke-width="2" stroke-linecap="round" stroke-linejoin="round"/>
<path d="M259.719 64.8701C261.253 71.7038 262.217 78.6529 262.603 85.646" stroke="#282828" stroke-width="2" stroke-linecap="round" stroke-linejoin="round"/>
<path d="M221.072 119.108L235.787 125.783" stroke="#282828" stroke-width="2" stroke-linecap="round" stroke-linejoin="round"/>
<path d="M206.345 263.328C206.835 267.782 201.515 270.393 198.323 267.251L175.95 245.105C175.95 245.105 187.956 231.195 192.234 225.916L223.374 233.03C220.362 236.732 205.62 256.7 205.62 256.7L206.345 263.328Z" fill="#FEE200"/>
<path d="M102.862 190.94L111.166 222.956C104.518 222.463 85.4667 220.886 81.3163 220.5L77.6904 224.126C74.8303 226.989 70.0314 224.305 70.9284 220.331L78.4149 187.266C86.5546 188.565 94.7035 189.79 102.862 190.94Z" fill="#FEE200"/>
<path d="M243.474 204.519C239.551 224.312 220.704 251.439 220.704 251.439L214.045 245.45L192.217 225.895C196.257 220.91 200.587 215.959 204.085 210.56L212.969 196.85L180.128 178.641C176.64 184.533 171.503 194.925 166.384 204.495C164.376 208.887 162.589 212.385 160.953 215.19C154.888 225.54 150.797 226.344 144.545 227.248C144.145 227.303 143.669 227.372 143.117 227.441C132.667 228.821 96.2969 232.678 96.2969 232.678L97.9805 221.88L102.862 190.94C115.188 192.686 127.532 194.296 139.895 195.77C142.427 190.87 144.612 185.797 146.432 180.59C142.292 173.659 142.323 164.106 146.167 156.995C150.01 149.885 157.182 144.865 164.993 142.985C175.612 140.442 185.89 143.675 195.429 148.581C204.354 153.169 220.752 165.62 232.047 175.615C234.49 177.741 236.694 180.125 238.623 182.726C240.468 185.211 241.885 187.988 242.815 190.94C244.509 194.528 244.516 199.265 243.474 204.519Z" fill="#4ECDC4"/>
<path d="M179.565 179.683L186.265 167.421" stroke="#282828" stroke-width="2" stroke-linecap="round" stroke-linejoin="round"/>
<path d="M94.6028 189.757L90.0039 221.248" stroke="#282828" stroke-width="2" stroke-linecap="round" stroke-linejoin="round"/>
<path d="M90.0039 189.074L85.1152 220.838" stroke="#282828" stroke-width="2" stroke-linecap="round" stroke-linejoin="round"/>
<path d="M188.181 230.763L210.316 250.363" stroke="#282828" stroke-width="2" stroke-linecap="round" stroke-linejoin="round"/>
<path d="M208.083 253.371L185.496 233.93" stroke="#282828" stroke-width="2" stroke-linecap="round" stroke-linejoin="round"/>
<path d="M242.321 204.519C240.013 204.042 237.892 202.908 236.213 201.254C234.533 199.6 233.367 197.496 232.855 195.195C232.343 192.895 232.506 190.495 233.325 188.285C234.143 186.074 235.583 184.148 237.471 182.736C239.314 185.218 240.731 187.991 241.662 190.94C243.356 194.528 243.363 199.265 242.321 204.519Z" fill="#282828"/>
<path d="M160.28 214.248C154.218 224.598 150.127 225.402 143.872 226.303C143.475 226.361 142.996 226.427 142.447 226.499C142.231 224.788 142.379 223.05 142.883 221.401C143.386 219.751 144.233 218.226 145.367 216.928C146.502 215.629 147.899 214.585 149.466 213.864C151.033 213.144 152.735 212.763 154.46 212.747C156.496 212.743 158.5 213.26 160.28 214.248Z" fill="#282828"/>
<path d="M165.141 77.0072C163.042 77.006 161.025 77.8199 159.514 79.2773C158.901 79.8394 158.17 80.2588 157.375 80.5055C156.73 80.7241 156.137 81.0727 155.632 81.5296C155.127 81.9865 154.721 82.5421 154.439 83.162C154.326 83.4281 154.137 83.6552 153.896 83.8157C153.655 83.9762 153.373 84.0632 153.084 84.0659H153.056C152.334 84.0659 151.642 84.3527 151.131 84.8632C150.621 85.3737 150.334 86.0661 150.334 86.788C150.334 87.5099 150.621 88.2023 151.131 88.7128C151.642 89.2232 152.334 89.51 153.056 89.51C153.308 89.511 153.559 89.4761 153.801 89.4065C154.784 89.1357 155.834 89.244 156.741 89.7101L157.006 89.8309C158.054 90.2597 159.033 90.841 159.911 91.5559C161.374 92.7913 163.227 93.4684 165.141 93.4672C167.325 93.4672 169.418 92.5999 170.962 91.0562C172.506 89.5124 173.373 87.4187 173.373 85.2355C173.373 83.0523 172.506 80.9585 170.962 79.4148C169.418 77.8711 167.325 77.0038 165.141 77.0038V77.0072Z" fill="#282828"/>
<path d="M171.903 90.4312C173.446 90.4312 174.697 89.0194 174.697 87.2779C174.697 85.5364 173.446 84.1246 171.903 84.1246C170.36 84.1246 169.108 85.5364 169.108 87.2779C169.108 89.0194 170.36 90.4312 171.903 90.4312Z" fill="#FEE200"/>
<path d="M187.583 93.8432C187.573 95.2261 187.153 96.575 186.378 97.7199C185.602 98.8648 184.505 99.7544 183.224 100.277C181.943 100.799 180.537 100.93 179.182 100.654C177.827 100.378 176.584 99.7069 175.609 98.7254C174.635 97.7439 173.973 96.4959 173.707 95.1388C173.441 93.7817 173.583 92.3762 174.114 91.0995C174.646 89.8228 175.543 88.732 176.694 87.9647C177.845 87.1975 179.197 86.788 180.579 86.7879C181.02 86.7865 181.459 86.8293 181.89 86.9156C182.87 87.0999 183.798 87.4955 184.609 88.0748C185.462 88.6798 186.17 89.4669 186.682 90.3793C187.193 91.2917 187.495 92.3063 187.566 93.3498C187.576 93.512 187.583 93.6776 187.583 93.8432V93.8432Z" stroke="#010149" stroke-width="2" stroke-linecap="round" stroke-linejoin="round"/>
<path d="M184.837 89.993C184.843 92.1314 184 94.1848 182.493 95.7027C180.987 97.2206 178.94 98.0792 176.802 98.0902C176.129 98.0911 175.459 98.0064 174.808 97.8383C174.09 96.7809 173.672 95.5486 173.599 94.2726C173.525 92.9965 173.799 91.7245 174.391 90.5918C174.984 89.4591 175.872 88.5081 176.962 87.8401C178.051 87.1721 179.302 86.8121 180.58 86.7983C181.02 86.7969 181.459 86.8396 181.891 86.926C182.87 87.1103 183.798 87.5059 184.609 88.0852C184.761 88.7097 184.838 89.3502 184.837 89.993Z" fill="#282828"/>
<path d="M187.566 93.3499C186.49 93.038 185.494 92.4992 184.644 91.7698C183.174 90.5327 182.195 88.8111 181.884 86.9156C182.863 87.1 183.791 87.4956 184.602 88.0748C185.457 88.6791 186.166 89.466 186.679 90.3784C187.191 91.2908 187.494 92.3058 187.566 93.3499Z" fill="#282828"/>
<path d="M173.58 91.9216C175.716 91.9216 177.448 90.1762 177.448 88.0231C177.448 85.87 175.716 84.1246 173.58 84.1246C171.444 84.1246 169.713 85.87 169.713 88.0231C169.713 90.1762 171.444 91.9216 173.58 91.9216Z" fill="#282828"/>
<path d="M147.771 91.5525C148.618 91.5525 149.306 90.8605 149.306 90.0068C149.306 89.1532 148.618 88.4612 147.771 88.4612C146.923 88.4612 146.235 89.1532 146.235 90.0068C146.235 90.8605 146.923 91.5525 147.771 91.5525Z" fill="#282828"/>
<path d="M162.1 44.8596C162.1 43.7762 162.315 42.7036 162.733 41.7042C163.152 40.7048 163.764 39.7985 164.536 39.0382C165.308 38.2778 166.223 37.6785 167.229 37.2751C168.234 36.8716 169.31 36.6722 170.393 36.6883C174.804 36.7521 178.396 40.3589 178.443 44.7705C178.466 46.5827 177.883 48.3506 176.786 49.7935C175.291 51.7449 174.389 54.0854 174.187 56.5355C174.162 56.8475 174.15 57.1614 174.151 57.4773V59.41H166.392V57.591C166.392 57.238 166.377 56.8861 166.349 56.5355C166.165 54.1069 165.28 51.7838 163.801 49.8486C162.696 48.4205 162.097 46.6654 162.1 44.8596Z" fill="#FEE200"/>
<path d="M172.179 49.2474C172.313 49.2474 172.442 49.3008 172.537 49.3959C172.632 49.491 172.686 49.62 172.686 49.7544V59.41C172.686 59.5453 172.632 59.6751 172.536 59.7709C172.441 59.8666 172.311 59.9203 172.175 59.9203C172.04 59.9203 171.91 59.8666 171.815 59.7709C171.719 59.6751 171.665 59.5453 171.665 59.41V49.7573C171.665 49.6899 171.678 49.6232 171.703 49.5609C171.729 49.4986 171.767 49.4421 171.815 49.3946C171.863 49.3471 171.919 49.3096 171.982 49.2843C172.044 49.2591 172.111 49.2465 172.179 49.2474Z" fill="#282828"/>
<path d="M168.391 49.2474C168.525 49.2474 168.654 49.3008 168.749 49.3959C168.844 49.491 168.898 49.62 168.898 49.7544V59.41C168.898 59.5453 168.844 59.6751 168.748 59.7709C168.652 59.8666 168.523 59.9203 168.387 59.9203C168.252 59.9203 168.122 59.8666 168.026 59.7709C167.931 59.6751 167.877 59.5453 167.877 59.41V49.7573C167.877 49.6899 167.89 49.6232 167.915 49.5609C167.941 49.4986 167.979 49.4421 168.027 49.3946C168.075 49.3471 168.131 49.3096 168.194 49.2843C168.256 49.2591 168.323 49.2465 168.391 49.2474Z" fill="#282828"/>
<path d="M166.204 57.5313H174.365C174.456 57.5309 174.546 57.5515 174.628 57.5914C174.71 57.6314 174.782 57.6896 174.838 57.7617C174.894 57.8338 174.933 57.9178 174.951 58.0072C174.97 58.0966 174.967 58.189 174.944 58.2774L174.74 59.0597L173.537 63.7068L173.257 64.7883C173.224 64.9167 173.149 65.0304 173.044 65.1113C172.939 65.1923 172.81 65.2359 172.678 65.2353H167.889C167.757 65.2357 167.628 65.1919 167.523 65.111C167.418 65.0301 167.343 64.9166 167.31 64.7883L167.029 63.7068L165.83 59.0597L165.627 58.2796C165.604 58.1913 165.601 58.0988 165.619 58.0094C165.638 57.9199 165.676 57.8358 165.732 57.7635C165.787 57.6913 165.859 57.6327 165.941 57.5925C166.023 57.5522 166.113 57.5313 166.204 57.5313Z" fill="#282828"/>
<path d="M165.83 59.0599H174.74L173.537 63.7069H167.033L165.83 59.0599Z" fill="#957FEF"/>
<path d="M165.757 60.0566H174.812C174.985 60.0566 175.151 60.1253 175.273 60.2475C175.396 60.3698 175.464 60.5356 175.464 60.7085V62.0632C175.464 62.1488 175.448 62.2336 175.415 62.3127C175.382 62.3918 175.334 62.4636 175.273 62.5242C175.213 62.5847 175.141 62.6327 175.062 62.6655C174.983 62.6983 174.898 62.7151 174.812 62.7151H165.757C165.585 62.7151 165.419 62.6464 165.296 62.5242C165.174 62.4019 165.105 62.2361 165.105 62.0632V60.7064C165.106 60.5338 165.175 60.3686 165.297 60.2468C165.419 60.125 165.585 60.0566 165.757 60.0566Z" fill="#FEE200"/>
<path d="M172.177 39.21C172.226 39.2096 172.275 39.2165 172.322 39.2303C175.609 40.172 176.22 43.4796 176.245 43.6195C176.268 43.7528 176.238 43.89 176.16 44.0008C176.082 44.1117 175.964 44.1871 175.83 44.2106C175.697 44.234 175.56 44.2035 175.449 44.1258C175.338 44.0481 175.263 43.9295 175.239 43.7962C175.218 43.6774 174.702 40.971 172.041 40.2111C171.917 40.1834 171.807 40.1098 171.735 40.0051C171.662 39.9004 171.632 39.7723 171.649 39.6461C171.667 39.52 171.731 39.405 171.83 39.3242C171.928 39.2434 172.054 39.2027 172.181 39.21H172.177Z" fill="#FCFCFC"/>
<line y1="-0.5" x2="5.73807" y2="-0.5" transform="matrix(0.462561 0.886588 -0.886593 0.46255 161.383 31.6666)" stroke="#282828"/>
<line y1="-0.5" x2="5.73805" y2="-0.5" transform="matrix(0.0237815 0.999717 -0.999717 0.0237798 169.813 29.1902)" stroke="#282828"/>
<line y1="-0.5" x2="5.73804" y2="-0.5" transform="matrix(-0.455905 0.890029 -0.890027 -0.455909 179.08 30.9396)" stroke="#282828"/>
</svg>
